<?xml version="1.0" encoding="UTF-8"?>
<svg width="200px" height="14px" viewBox="0 0 200 14" version="1.1" xmlns="http://www.w3.org/2000/svg" xmlns:xlink="http://www.w3.org/1999/xlink">
    <!-- Generator: Sketch 54.1 (76490) - https://sketchapp.com -->
    <title>Group 163</title>
    <desc>Created with Sketch.</desc>
    <defs>
        <path d="M4.91411043,1.19386503 L4.91411043,3.97546012 C4.91411043,4.26134969 4.91411043,4.32392638 4.94355828,4.83312883 L4.94355828,4.83312883 L4.98527607,5.58650307 L4.93496933,5.58650307 C4.90429448,5.53496933 4.80245399,5.26134969 4.77177914,5.19754601 L4.77177914,5.19754601 C4.7006135,5.04662577 4.59754601,4.84294479 4.51656442,4.68957055 L4.51656442,4.68957055 L2.58650307,1.19386503 L1.01717791,1.19386503 L1.01717791,8.67239264 L2.52638037,8.67239264 L2.52638037,5.16809816 C2.52638037,4.97546012 2.48711656,4.02822086 2.47730061,3.81349693 L2.47730061,3.81349693 L2.52638037,3.81349693 C2.91411043,4.72147239 2.92392638,4.75092025 3.08711656,5.04662577 L3.08711656,5.04662577 L5.07852761,8.67239264 L6.42576687,8.67239264 L6.42576687,1.19386503 L4.91411043,1.19386503 Z" id="path-1"></path>
        <path d="M2.61472393,1.19386503 L0.500613497,8.67361963 L2.10306748,8.67361963 L2.49079755,7.18527607 L4.78650307,7.18527607 L5.16196319,8.67361963 L6.76564417,8.67361963 L4.60122699,1.19386503 L2.61472393,1.19386503 Z M3.59141104,2.52883436 L3.63190184,2.52883436 L4.4601227,5.91165644 L2.77546012,5.91165644 L3.59141104,2.52883436 Z" id="path-3"></path>
        <polygon id="path-5" points="0.792638037 1.19386503 0.792638037 2.5595092 2.7006135 2.5595092 2.7006135 8.67239264 4.41595092 8.67239264 4.41595092 2.5595092 6.28220859 2.5595092 6.28220859 1.19386503"></polygon>
        <polygon id="path-7" points="0.874846626 1.19386503 0.882208589 8.67361963 2.53496933 8.67361963 2.53496933 1.19386503"></polygon>
        <path d="M1.6809816,1.76441718 C1.15828221,2.33619632 1.02453988,3.06871166 1.02453988,3.83435583 L1.02453988,3.83435583 L1.02453988,5.8392638 C1.02453988,6.16564417 1.05521472,6.8208589 1.21840491,7.34969325 L1.21840491,7.34969325 C1.59631902,8.61226994 2.79877301,8.87852761 3.53496933,8.87852761 L3.53496933,8.87852761 C4.01472393,8.87852761 4.91288344,8.80613497 5.53619632,8.13496933 L5.53619632,8.13496933 C6.00368098,7.62453988 6.17791411,6.95214724 6.17791411,5.90184049 L6.17791411,5.90184049 L6.17791411,4.08834356 C6.17791411,2.88588957 5.94478528,2.22331288 5.52515337,1.77546012 L5.52515337,1.77546012 C5.02453988,1.23312883 4.32147239,1.05276074 3.55705521,1.05276074 L3.55705521,1.05276074 C2.85276074,1.05276074 2.14846626,1.24417178 1.6809816,1.76441718 L1.6809816,1.76441718 Z M2.6993865,6.17791411 L2.6993865,3.5791411 C2.6993865,3.28343558 2.6993865,2.42822086 3.60736196,2.42822086 L3.60736196,2.42822086 C4.47484663,2.42822086 4.47484663,3.05889571 4.47484663,3.5791411 L4.47484663,3.5791411 L4.47484663,6.17791411 C4.47484663,6.69815951 4.47484663,7.52269939 3.58650307,7.52269939 L3.58650307,7.52269939 C2.85276074,7.52269939 2.6993865,6.96196319 2.6993865,6.17791411 L2.6993865,6.17791411 Z" id="path-9"></path>
        <path d="M4.70184049,1.19386503 L4.70184049,3.97546012 C4.70184049,4.26134969 4.70184049,4.32392638 4.73374233,4.83312883 L4.73374233,4.83312883 L4.77300613,5.58650307 L4.72392638,5.58650307 C4.69202454,5.53496933 4.59141104,5.26134969 4.5607362,5.19754601 L4.5607362,5.19754601 C4.48957055,5.04662577 4.38650307,4.84294479 4.30429448,4.68957055 L4.30429448,4.68957055 L2.37791411,1.19386503 L0.806134969,1.19386503 L0.806134969,8.67239264 L2.31533742,8.67239264 L2.31533742,5.16809816 C2.31533742,4.97546012 2.27484663,4.02822086 2.26380368,3.81349693 L2.26380368,3.81349693 L2.31533742,3.81349693 C2.70184049,4.72147239 2.71411043,4.75092025 2.87730061,5.04662577 L2.87730061,5.04662577 L4.86503067,8.67239264 L6.21349693,8.67239264 L6.21349693,1.19386503 L4.70184049,1.19386503 Z" id="path-11"></path>
        <path d="M2.40368098,1.19386503 L0.289570552,8.67361963 L1.88957055,8.67361963 L2.2797546,7.18527607 L4.57546012,7.18527607 L4.95337423,8.67361963 L6.55337423,8.67361963 L4.39141104,1.19386503 L2.40368098,1.19386503 Z M3.3803681,2.52883436 L3.4208589,2.52883436 L4.24907975,5.91165644 L2.56564417,5.91165644 L3.3803681,2.52883436 Z" id="path-13"></path>
        <polygon id="path-15" points="0.41595092 1.19386503 0.41595092 8.67239264 5.38650307 8.67239264 5.38650307 7.27730061 2.08957055 7.27730061 2.08957055 1.19386503"></polygon>
        <path d="M0.0785276074,3.71042945 L0.0785276074,5.96319018 C0.0785276074,7.49202454 0.474846626,7.9190184 0.781595092,8.21595092 L0.781595092,8.21595092 C1.25153374,8.67361963 1.85153374,8.8797546 2.72147239,8.8797546 L2.72147239,8.8797546 C3.04785276,8.8797546 3.82208589,8.80736196 4.35092025,8.37791411 L4.35092025,8.37791411 C4.97546012,7.87852761 5.07607362,7.3398773 5.13742331,7.04294479 L5.13742331,7.04294479 C5.19018405,6.72883436 5.2,6.66503067 5.21226994,6.12638037 L5.21226994,6.12638037 L3.55828221,6.12638037 C3.55828221,6.93128834 3.35214724,7.48220859 2.6797546,7.48220859 L2.6797546,7.48220859 C1.77177914,7.48220859 1.77177914,6.6993865 1.77177914,6.28957055 L1.77177914,6.28957055 L1.77177914,3.44417178 C1.77177914,3.24294479 1.78282209,2.87484663 2.04785276,2.63067485 L2.04785276,2.63067485 C2.20981595,2.4797546 2.46380368,2.39631902 2.66993865,2.39631902 L2.66993865,2.39631902 C3.48588957,2.39631902 3.50552147,3.21104294 3.51656442,3.5791411 L3.51656442,3.5791411 L5.1595092,3.5791411 C5.13742331,2.97791411 5.05889571,2.06134969 4.38282209,1.53006135 L4.38282209,1.53006135 C3.86503067,1.12269939 3.18895706,1.03190184 2.74233129,1.03190184 L2.74233129,1.03190184 C0.996319018,1.03190184 0.0785276074,1.99754601 0.0785276074,3.71042945 L0.0785276074,3.71042945 Z" id="path-17"></path>
        <path d="M1.56441718,1.76441718 C1.04417178,2.33619632 0.911656442,3.06871166 0.911656442,3.83435583 L0.911656442,3.83435583 L0.911656442,5.8392638 C0.911656442,6.16564417 0.941104294,6.8208589 1.10429448,7.34969325 L1.10429448,7.34969325 C1.48220859,8.61226994 2.68588957,8.87852761 3.4196319,8.87852761 L3.4196319,8.87852761 C3.9006135,8.87852761 4.79877301,8.80613497 5.42208589,8.13496933 L5.42208589,8.13496933 C5.88957055,7.62453988 6.06380368,6.95214724 6.06380368,5.90184049 L6.06380368,5.90184049 L6.06380368,4.08834356 C6.06380368,2.88588957 5.82944785,2.22331288 5.41104294,1.77546012 L5.41104294,1.77546012 C4.91165644,1.23312883 4.20736196,1.05276074 3.44171779,1.05276074 L3.44171779,1.05276074 C2.73742331,1.05276074 2.03190184,1.24417178 1.56441718,1.76441718 L1.56441718,1.76441718 Z M2.58404908,6.17791411 L2.58404908,3.5791411 C2.58404908,3.28343558 2.58404908,2.42822086 3.49325153,2.42822086 L3.49325153,2.42822086 C4.3607362,2.42822086 4.3607362,3.05889571 4.3607362,3.5791411 L4.3607362,3.5791411 L4.3607362,6.17791411 C4.3607362,6.69815951 4.3607362,7.52269939 3.47239264,7.52269939 L3.47239264,7.52269939 C2.73742331,7.52269939 2.58404908,6.96196319 2.58404908,6.17791411 L2.58404908,6.17791411 Z" id="path-19"></path>
        <path d="M4.58650307,1.19386503 L4.58650307,3.97546012 C4.58650307,4.26134969 4.58650307,4.32392638 4.61840491,4.83312883 L4.61840491,4.83312883 L4.66134969,5.58650307 L4.60858896,5.58650307 C4.5791411,5.53496933 4.47730061,5.26134969 4.44662577,5.19754601 L4.44662577,5.19754601 C4.37546012,5.04662577 4.27116564,4.84294479 4.18895706,4.68957055 L4.18895706,4.68957055 L2.26134969,1.19386503 L0.690797546,1.19386503 L0.690797546,8.67239264 L2.20122699,8.67239264 L2.20122699,5.16809816 C2.20122699,4.97546012 2.1607362,4.02822086 2.14969325,3.81349693 L2.14969325,3.81349693 L2.20122699,3.81349693 C2.58895706,4.72147239 2.59877301,4.75092025 2.76319018,5.04662577 L2.76319018,5.04662577 L4.75092025,8.67239264 L6.1006135,8.67239264 L6.1006135,1.19386503 L4.58650307,1.19386503 Z" id="path-21"></path>
        <path d="M0.542331288,3.16196319 C0.542331288,4.6392638 1.5202454,5.13865031 2.65521472,5.57546012 L2.65521472,5.57546012 C3.77546012,6.01472393 4.08220859,6.13619632 4.08220859,6.69815951 L4.08220859,6.69815951 C4.08220859,7.3803681 3.4404908,7.54355828 3.0809816,7.54355828 L3.0809816,7.54355828 C2.4392638,7.54355828 1.9398773,7.15582822 1.66380368,6.52392638 L1.66380368,6.52392638 L0.388957055,7.36932515 C1.06380368,8.57177914 1.8392638,8.88834356 3.15337423,8.88834356 L3.15337423,8.88834356 C3.53128834,8.88834356 4.15460123,8.77546012 4.59141104,8.51042945 L4.59141104,8.51042945 C5.65521472,7.86871166 5.65521472,6.87116564 5.65521472,6.53496933 L5.65521472,6.53496933 C5.65521472,5.82944785 5.32760736,5.34110429 5.23558282,5.21840491 L5.23558282,5.21840491 C4.9398773,4.81104294 4.41104294,4.50674847 3.9595092,4.34355828 L3.9595092,4.34355828 L3.01104294,3.99631902 C2.55337423,3.83312883 2.06380368,3.61840491 2.06380368,3.08957055 L2.06380368,3.08957055 C2.06380368,3.00858896 2.08220859,2.36564417 2.9398773,2.36564417 L2.9398773,2.36564417 C3.5202454,2.36564417 4.00122699,2.75460123 4.23558282,3.20122699 L4.23558282,3.20122699 L5.47239264,2.38527607 C4.85766871,1.48957055 4.08220859,1.0404908 2.9803681,1.0404908 L2.9803681,1.0404908 C1.4404908,1.0404908 0.542331288,1.92760736 0.542331288,3.16196319 L0.542331288,3.16196319 Z" id="path-23"></path>
        <polygon id="path-25" points="0.559509202 1.19386503 0.559509202 2.5595092 2.46625767 2.5595092 2.46625767 8.67239264 4.18159509 8.67239264 4.18159509 2.5595092 6.04907975 2.5595092 6.04907975 1.19386503"></polygon>
        <polygon id="path-27" points="0.37791411 1.19386503 2.03803681 1.19386503 2.03803681 8.67239264 0.37791411 8.67239264"></polygon>
        <polygon id="path-29" points="0.0871165644 1.19386503 0.0871165644 2.5595092 1.99631902 2.5595092 1.99631902 8.67239264 3.70674847 8.67239264 3.70674847 2.5595092 5.57546012 2.5595092 5.57546012 1.19386503"></polygon>
        <path d="M4.72515337,1.19386503 L4.72515337,6.13742331 C4.72515337,7.50306748 3.99141104,7.50306748 3.67239264,7.50306748 L3.67239264,7.50306748 C2.66503067,7.50306748 2.66503067,6.57668712 2.66503067,6.12638037 L2.66503067,6.12638037 L2.66503067,1.19386503 L0.959509202,1.19386503 L0.959509202,6.03435583 C0.959509202,6.70797546 0.990184049,7.56196319 1.71533742,8.24539877 L1.71533742,8.24539877 C2.17300613,8.67239264 2.9803681,8.86871166 3.76564417,8.86871166 L3.76564417,8.86871166 C4.44907975,8.86871166 5.09202454,8.71656442 5.61349693,8.29693252 L5.61349693,8.29693252 C6.37546012,7.67484663 6.38895706,6.59631902 6.38895706,6.14601227 L6.38895706,6.14601227 L6.38895706,1.19386503 L4.72515337,1.19386503 Z" id="path-31"></path>
        <polygon id="path-33" points="0.557055215 1.19386503 0.557055215 2.5595092 2.46380368 2.5595092 2.46380368 8.67239264 4.17668712 8.67239264 4.17668712 2.5595092 6.04417178 2.5595092 6.04417178 1.19386503"></polygon>
        <polygon id="path-35" points="0.376687117 1.19386503 0.386503067 8.67361963 2.03558282 8.67361963 2.03558282 1.19386503"></polygon>
        <path d="M1.18404908,1.76441718 C0.662576687,2.33619632 0.531288344,3.06871166 0.531288344,3.83435583 L0.531288344,3.83435583 L0.531288344,5.8392638 C0.531288344,6.16564417 0.560736196,6.8208589 0.725153374,7.34969325 L0.725153374,7.34969325 C1.10184049,8.61226994 2.30674847,8.87852761 3.04171779,8.87852761 L3.04171779,8.87852761 C3.52147239,8.87852761 4.41717791,8.80613497 5.0404908,8.13496933 L5.0404908,8.13496933 C5.51042945,7.62453988 5.68466258,6.95214724 5.68466258,5.90184049 L5.68466258,5.90184049 L5.68466258,4.08834356 C5.68466258,2.88588957 5.44907975,2.22331288 5.03067485,1.77546012 L5.03067485,1.77546012 C4.53006135,1.23312883 3.82699387,1.05276074 3.06257669,1.05276074 L3.06257669,1.05276074 C2.35828221,1.05276074 1.65398773,1.24417178 1.18404908,1.76441718 L1.18404908,1.76441718 Z M2.20613497,6.17791411 L2.20613497,3.5791411 C2.20613497,3.28343558 2.20613497,2.42822086 3.11165644,2.42822086 L3.11165644,2.42822086 C3.9803681,2.42822086 3.9803681,3.05889571 3.9803681,3.5791411 L3.9803681,3.5791411 L3.9803681,6.17791411 C3.9803681,6.69815951 3.9803681,7.52269939 3.09202454,7.52269939 L3.09202454,7.52269939 C2.35828221,7.52269939 2.20613497,6.96196319 2.20613497,6.17791411 L2.20613497,6.17791411 Z" id="path-37"></path>
        <path d="M4.20858896,1.19386503 L4.20858896,3.97546012 C4.20858896,4.26134969 4.20858896,4.32392638 4.2392638,4.83312883 L4.2392638,4.83312883 L4.2809816,5.58650307 L4.22944785,5.58650307 C4.19877301,5.53496933 4.09693252,5.26134969 4.06748466,5.19754601 L4.06748466,5.19754601 C3.99386503,5.04662577 3.89202454,4.84294479 3.80981595,4.68957055 L3.80981595,4.68957055 L1.8809816,1.19386503 L0.311656442,1.19386503 L0.311656442,8.67239264 L1.82208589,8.67239264 L1.82208589,5.16809816 C1.82208589,4.97546012 1.7803681,4.02822086 1.77055215,3.81349693 L1.77055215,3.81349693 L1.82208589,3.81349693 C2.20981595,4.72147239 2.21840491,4.75092025 2.38282209,5.04662577 L2.38282209,5.04662577 L4.37177914,8.67239264 L5.7190184,8.67239264 L5.7190184,1.19386503 L4.20858896,1.19386503 Z" id="path-39"></path>
        <path d="M0.903067485,3.71042945 L0.903067485,5.96319018 C0.903067485,7.49202454 1.2993865,7.9190184 1.60736196,8.21595092 L1.60736196,8.21595092 C2.07607362,8.67361963 2.67607362,8.8797546 3.54355828,8.8797546 L3.54355828,8.8797546 C3.87116564,8.8797546 4.64662577,8.80736196 5.17546012,8.37791411 L5.17546012,8.37791411 C5.79877301,7.87852761 5.9006135,7.3398773 5.96196319,7.04294479 L5.96196319,7.04294479 C6.01226994,6.72883436 6.02331288,6.66503067 6.03312883,6.12638037 L6.03312883,6.12638037 L4.3791411,6.12638037 C4.3791411,6.93128834 4.17668712,7.48220859 3.50429448,7.48220859 L3.50429448,7.48220859 C2.59509202,7.48220859 2.59509202,6.6993865 2.59509202,6.28957055 L2.59509202,6.28957055 L2.59509202,3.44417178 C2.59509202,3.24294479 2.60490798,2.87484663 2.87116564,2.63067485 L2.87116564,2.63067485 C3.03435583,2.4797546 3.28834356,2.39631902 3.49325153,2.39631902 L3.49325153,2.39631902 C4.30920245,2.39631902 4.33006135,3.21104294 4.3398773,3.5791411 L4.3398773,3.5791411 L5.98159509,3.5791411 C5.96196319,2.97791411 5.8797546,2.06134969 5.20736196,1.53006135 L5.20736196,1.53006135 C4.68466258,1.12269939 4.01349693,1.03190184 3.56441718,1.03190184 L3.56441718,1.03190184 C1.8196319,1.03190184 0.903067485,1.99754601 0.903067485,3.71042945 L0.903067485,3.71042945 Z" id="path-41"></path>
        <polygon id="path-43" points="0.580368098 1.19386503 0.580368098 8.67239264 5.84417178 8.67239264 5.84417178 7.27730061 2.23312883 7.27730061 2.23312883 5.51533742 4.54846626 5.51533742 4.54846626 4.14846626 2.21104294 4.14846626 2.21104294 2.5595092 5.60858896 2.5595092 5.60858896 1.19386503"></polygon>
        <path d="M4.18404908,1.19386503 L4.18404908,3.97546012 C4.18404908,4.26134969 4.18404908,4.32392638 4.21472393,4.83312883 L4.21472393,4.83312883 L4.25644172,5.58650307 L4.20490798,5.58650307 C4.17423313,5.53496933 4.07239264,5.26134969 4.04171779,5.19754601 L4.04171779,5.19754601 C3.97055215,5.04662577 3.86993865,4.84294479 3.78650307,4.68957055 L3.78650307,4.68957055 L1.85766871,1.19386503 L0.288343558,1.19386503 L0.288343558,8.67239264 L1.79754601,8.67239264 L1.79754601,5.16809816 C1.79754601,4.97546012 1.75705521,4.02822086 1.74846626,3.81349693 L1.74846626,3.81349693 L1.79754601,3.81349693 C2.18527607,4.72147239 2.19509202,4.75092025 2.3595092,5.04662577 L2.3595092,5.04662577 L4.34846626,8.67239264 L5.69570552,8.67239264 L5.69570552,1.19386503 L4.18404908,1.19386503 Z" id="path-45"></path>
        <polygon id="path-47" points="1.1006135 1.19386503 1.1006135 2.5595092 3.00736196 2.5595092 3.00736196 8.67239264 4.72147239 8.67239264 4.72147239 2.5595092 6.58895706 2.5595092 6.58895706 1.19386503"></polygon>
        <polygon id="path-49" points="0.674846626 1.19386503 0.674846626 8.67239264 5.94110429 8.67239264 5.94110429 7.27730061 2.33006135 7.27730061 2.33006135 5.51533742 4.64539877 5.51533742 4.64539877 4.14846626 2.30674847 4.14846626 2.30674847 2.5595092 5.70552147 2.5595092 5.70552147 1.19386503"></polygon>
        <path d="M0.282208589,1.19386503 L0.282208589,8.67361963 L1.90552147,8.67361963 L1.90552147,5.61595092 L2.45521472,5.61595092 L3.87239264,8.67361963 L5.66134969,8.67361963 L4.02822086,5.35337423 C5.07730061,5.03680982 5.45521472,4.31288344 5.45521472,3.36441718 L5.45521472,3.36441718 C5.45521472,1.35828221 3.91656442,1.19386503 2.7006135,1.19386503 L2.7006135,1.19386503 L0.282208589,1.19386503 Z M1.90552147,2.35705521 C2.82331288,2.35705521 3.02822086,2.35705521 3.28343558,2.44785276 L3.28343558,2.44785276 C3.60858896,2.56932515 3.77300613,2.82453988 3.77300613,3.34355828 L3.77300613,3.34355828 C3.77300613,3.75092025 3.73128834,4.1595092 3.21104294,4.34355828 L3.21104294,4.34355828 C2.97546012,4.42453988 2.83435583,4.42453988 1.90552147,4.42453988 L1.90552147,4.42453988 L1.90552147,2.35705521 Z" id="path-51"></path>
    </defs>
    <g id="Symbols" stroke="none" stroke-width="1" fill="none" fill-rule="evenodd">
        <g id="Footer-/-USE" transform="translate(-135.000000, -395.000000)">
            <g id="Group-163" transform="translate(135.000000, 394.000000)">
                <polygon id="Fill-1" fill="#252D65" points="0.937423313 14.8152147 8.5607362 14.8152147 8.5607362 1.16122699 0.937423313 1.16122699"></polygon>
                <polygon id="Fill-2" fill="#C91F40" points="8.55705521 3.9992638 14.3889571 3.9992638 14.3889571 1.16245399 8.55705521 1.16245399"></polygon>
                <polygon id="Fill-3" fill="#C91F40" points="8.55705521 9.40907975 14.3889571 9.40907975 14.3889571 6.57226994 8.55705521 6.57226994"></polygon>
                <polygon id="Fill-4" fill="#FEFEFE" points="8.55705521 6.57226994 14.3889571 6.57226994 14.3889571 3.9992638 8.55705521 3.9992638"></polygon>
                <polygon id="Fill-5" fill="#FEFEFE" points="8.55705521 11.9820859 14.3889571 11.9820859 14.3889571 9.40907975 8.55705521 9.40907975"></polygon>
                <polygon id="Fill-6" fill="#C91F40" points="8.55705521 14.8176687 14.3889571 14.8176687 14.3889571 11.9820859 8.55705521 11.9820859"></polygon>
                <path d="M23.1025767,4.19447853 L24.6719018,4.19447853 L26.6031902,7.69018405 C26.6829448,7.84233129 26.7872393,8.04723926 26.8584049,8.1993865 C26.8890798,8.26196319 26.9896933,8.53558282 27.0203681,8.58711656 L27.0706748,8.58711656 L27.030184,7.83374233 C27.0007362,7.32331288 27.0007362,7.26196319 27.0007362,6.97607362 L27.0007362,4.19447853 L28.5111656,4.19447853 L28.5111656,11.6730061 L27.1651534,11.6730061 L25.1725153,8.04723926 C25.0105521,7.75153374 25.0007362,7.7208589 24.6117791,6.81411043 L24.5626994,6.81411043 C24.5725153,7.02883436 24.6117791,7.97607362 24.6117791,8.16871166 L24.6117791,11.6730061 L23.1025767,11.6730061 L23.1025767,4.19447853 Z" id="Fill-7" fill="#252D65"></path>
                <g id="Group-12" transform="translate(22.085890, 3.000491)">
                    <mask id="mask-2" fill="white">
                        <use xlink:href="#path-1"></use>
                    </mask>
                    <g id="Clip-10"></g>
                    <polygon id="Fill-9" fill="#252D65" mask="url(#mask-2)" points="-6.17668712 23.3128834 223.29816 23.3128834 223.29816 -14.0429448 -6.17668712 -14.0429448"></polygon>
                    <polygon id="Fill-11" fill="#252D65" mask="url(#mask-2)" points="-8.32269939 18.0122699 15.7644172 18.0122699 15.7644172 -8.14478528 -8.32269939 -8.14478528"></polygon>
                </g>
                <path d="M33.0803681,5.52957055 L33.0398773,5.52957055 L32.2239264,8.91239264 L33.907362,8.91239264 L33.0803681,5.52957055 Z M34.0484663,4.19460123 L36.2141104,11.6731288 L34.6092025,11.6731288 L34.2337423,10.1860123 L31.9380368,10.1860123 L31.5515337,11.6731288 L29.9478528,11.6731288 L32.0619632,4.19460123 L34.0484663,4.19460123 Z" id="Fill-13" fill="#252D65"></path>
                <g id="Group-18" transform="translate(29.447853, 3.000491)">
                    <mask id="mask-4" fill="white">
                        <use xlink:href="#path-3"></use>
                    </mask>
                    <g id="Clip-16"></g>
                    <polygon id="Fill-15" fill="#252D65" mask="url(#mask-4)" points="-13.5386503 23.3128834 215.936196 23.3128834 215.936196 -14.0429448 -13.5386503 -14.0429448"></polygon>
                    <polygon id="Fill-17" fill="#252D65" mask="url(#mask-4)" points="-8.8392638 18.0122699 16.1042945 18.0122699 16.1042945 -8.14478528 -8.8392638 -8.14478528"></polygon>
                </g>
                <polygon id="Fill-19" fill="#252D65" points="41.8645399 4.19447853 41.8645399 5.56134969 39.9982822 5.56134969 39.9982822 11.6730061 38.2841718 11.6730061 38.2841718 5.56134969 36.3749693 5.56134969 36.3749693 4.19447853"></polygon>
                <g id="Group-24" transform="translate(35.582822, 3.000491)">
                    <mask id="mask-6" fill="white">
                        <use xlink:href="#path-5"></use>
                    </mask>
                    <g id="Clip-22"></g>
                    <polygon id="Fill-21" fill="#252D65" mask="url(#mask-6)" points="-19.6736196 23.3128834 209.801227 23.3128834 209.801227 -14.0429448 -19.6736196 -14.0429448"></polygon>
                    <polygon id="Fill-23" fill="#252D65" mask="url(#mask-6)" points="-8.54601227 18.0122699 15.6208589 18.0122699 15.6208589 -8.14478528 -8.54601227 -8.14478528"></polygon>
                </g>
                <polygon id="Fill-25" fill="#252D65" points="43.827362 11.6732515 43.82 4.19472393 45.4801227 4.19472393 45.4801227 11.6732515"></polygon>
                <g id="Group-30" transform="translate(42.944785, 3.000491)">
                    <mask id="mask-8" fill="white">
                        <use xlink:href="#path-7"></use>
                    </mask>
                    <g id="Clip-28"></g>
                    <polygon id="Fill-27" fill="#252D65" mask="url(#mask-8)" points="-27.0355828 23.3128834 202.439264 23.3128834 202.439264 -14.0429448 -27.0355828 -14.0429448"></polygon>
                    <polygon id="Fill-29" fill="#252D65" mask="url(#mask-8)" points="-8.46380368 18.0122699 11.8736196 18.0122699 11.8736196 -8.14478528 -8.46380368 -8.14478528"></polygon>
                </g>
                <path d="M49.3260123,9.17828221 C49.3260123,9.96110429 49.4781595,10.5230675 50.2131288,10.5230675 C51.1002454,10.5230675 51.1002454,9.69852761 51.1002454,9.17828221 L51.1002454,6.5807362 C51.1002454,6.0592638 51.1002454,5.42858896 50.2327607,5.42858896 C49.3260123,5.42858896 49.3260123,6.28380368 49.3260123,6.5807362 L49.3260123,9.17828221 Z M47.6511656,6.83472393 C47.6511656,6.07030675 47.783681,5.33656442 48.3063804,4.76478528 C48.775092,4.24576687 49.4781595,4.05312883 50.182454,4.05312883 C50.9468712,4.05312883 51.6511656,4.23472393 52.1505521,4.77582822 C52.570184,5.22368098 52.8033129,5.88625767 52.8033129,7.08871166 L52.8033129,8.90220859 C52.8033129,9.95251534 52.6290798,10.624908 52.1615951,11.1353374 C51.5395092,11.8065031 50.6401227,11.8788957 50.1603681,11.8788957 C49.4253988,11.8788957 48.2229448,11.612638 47.8450307,10.3500613 C47.6806135,9.82 47.6511656,9.16601227 47.6511656,8.8396319 L47.6511656,6.83472393 Z" id="Fill-31" fill="#252D65"></path>
                <g id="Group-36" transform="translate(46.625767, 3.000491)">
                    <mask id="mask-10" fill="white">
                        <use xlink:href="#path-9"></use>
                    </mask>
                    <g id="Clip-34"></g>
                    <polygon id="Fill-33" fill="#252D65" mask="url(#mask-10)" points="-30.7165644 23.3128834 198.758282 23.3128834 198.758282 -14.0429448 -30.7165644 -14.0429448"></polygon>
                    <polygon id="Fill-35" fill="#252D65" mask="url(#mask-10)" points="-8.31411043 18.2184049 15.5165644 18.2184049 15.5165644 -8.28588957 -8.31411043 -8.28588957"></polygon>
                </g>
                <path d="M54.7936196,4.19447853 L56.3653988,4.19447853 L58.2930061,7.69018405 C58.3739877,7.84233129 58.4770552,8.04723926 58.5494479,8.1993865 C58.5801227,8.26196319 58.6807362,8.53558282 58.711411,8.58711656 L58.7604908,8.58711656 L58.721227,7.83374233 C58.6905521,7.32331288 58.6905521,7.26196319 58.6905521,6.97607362 L58.6905521,4.19447853 L60.2009816,4.19447853 L60.2009816,11.6730061 L58.8525153,11.6730061 L56.8635583,8.04723926 C56.7015951,7.75153374 56.6905521,7.7208589 56.3028221,6.81411043 L56.2512883,6.81411043 C56.2623313,7.02883436 56.3028221,7.97607362 56.3028221,8.16871166 L56.3028221,11.6730061 L54.7936196,11.6730061 L54.7936196,4.19447853 Z" id="Fill-37" fill="#252D65"></path>
                <g id="Group-42" transform="translate(53.987730, 3.000491)">
                    <mask id="mask-12" fill="white">
                        <use xlink:href="#path-11"></use>
                    </mask>
                    <g id="Clip-40"></g>
                    <polygon id="Fill-39" fill="#252D65" mask="url(#mask-12)" points="-38.0785276 23.3128834 191.396319 23.3128834 191.396319 -14.0429448 -38.0785276 -14.0429448"></polygon>
                    <polygon id="Fill-41" fill="#252D65" mask="url(#mask-12)" points="-8.53374233 18.0122699 15.5521472 18.0122699 15.5521472 -8.14478528 -8.53374233 -8.14478528"></polygon>
                </g>
                <path d="M64.7700613,5.52957055 L64.7307975,5.52957055 L63.9160736,8.91239264 L65.5982822,8.91239264 L64.7700613,5.52957055 Z M65.7406135,4.19460123 L67.9038037,11.6731288 L66.3025767,11.6731288 L65.9246626,10.1860123 L63.6289571,10.1860123 L63.24,11.6731288 L61.638773,11.6731288 L63.7528834,4.19460123 L65.7406135,4.19460123 Z" id="Fill-43" fill="#252D65"></path>
                <g id="Group-48" transform="translate(61.349693, 3.000491)">
                    <mask id="mask-14" fill="white">
                        <use xlink:href="#path-13"></use>
                    </mask>
                    <g id="Clip-46"></g>
                    <polygon id="Fill-45" fill="#252D65" mask="url(#mask-14)" points="-45.4404908 23.3128834 184.034356 23.3128834 184.034356 -14.0429448 -45.4404908 -14.0429448"></polygon>
                    <polygon id="Fill-47" fill="#252D65" mask="url(#mask-14)" points="-9.04907975 18.0122699 15.8932515 18.0122699 15.8932515 -8.14478528 -9.04907975 -8.14478528"></polygon>
                </g>
                <polygon id="Fill-49" fill="#252D65" points="69.1280982 4.19447853 70.8004908 4.19447853 70.8004908 10.2779141 74.0986503 10.2779141 74.0986503 11.6730061 69.1280982 11.6730061"></polygon>
                <g id="Group-54" transform="translate(68.711656, 3.000491)">
                    <mask id="mask-16" fill="white">
                        <use xlink:href="#path-15"></use>
                    </mask>
                    <g id="Clip-52"></g>
                    <polygon id="Fill-51" fill="#252D65" mask="url(#mask-16)" points="-52.802454 23.3128834 176.672393 23.3128834 176.672393 -14.0429448 -52.802454 -14.0429448"></polygon>
                    <polygon id="Fill-53" fill="#252D65" mask="url(#mask-16)" points="-8.92269939 18.0122699 14.7251534 18.0122699 14.7251534 -8.14478528 -8.92269939 -8.14478528"></polygon>
                </g>
                <path d="M78.606135,6.71141104 C78.606135,4.99852761 79.5239264,4.03165644 81.2699387,4.03165644 C81.7165644,4.03165644 82.392638,4.12368098 82.9104294,4.52981595 C83.5865031,5.06110429 83.6650307,5.97889571 83.6871166,6.57889571 L82.0441718,6.57889571 C82.0331288,6.21202454 82.0134969,5.39607362 81.197546,5.39607362 C80.991411,5.39607362 80.7374233,5.4795092 80.5742331,5.63042945 C80.3104294,5.87582822 80.2993865,6.24269939 80.2993865,6.44515337 L80.2993865,9.29055215 C80.2993865,9.6991411 80.2993865,10.4819632 81.207362,10.4819632 C81.8797546,10.4819632 82.0858896,9.93226994 82.0858896,9.12736196 L83.7398773,9.12736196 C83.7276074,9.66601227 83.7177914,9.72858896 83.6650307,10.0439264 C83.603681,10.3396319 83.5030675,10.8795092 82.8785276,11.3788957 C82.3496933,11.8083436 81.5754601,11.8795092 81.2478528,11.8795092 C80.3791411,11.8795092 79.7791411,11.6733742 79.3092025,11.2157055 C79.002454,10.92 78.606135,10.4930061 78.606135,8.96417178 L78.606135,6.71141104 Z" id="Fill-55" fill="#252D65"></path>
                <g id="Group-60" transform="translate(78.527607, 3.000491)">
                    <mask id="mask-18" fill="white">
                        <use xlink:href="#path-17"></use>
                    </mask>
                    <g id="Clip-58"></g>
                    <polygon id="Fill-57" fill="#252D65" mask="url(#mask-18)" points="-62.6184049 23.3128834 166.856442 23.3128834 166.856442 -14.0429448 -62.6184049 -14.0429448"></polygon>
                    <polygon id="Fill-59" fill="#252D65" mask="url(#mask-18)" points="-9.2601227 18.2184049 14.5509202 18.2184049 14.5509202 -8.30797546 -9.2601227 -8.30797546"></polygon>
                </g>
                <path d="M87.2466258,9.17828221 C87.2466258,9.96110429 87.4,10.5230675 88.1349693,10.5230675 C89.0220859,10.5230675 89.0220859,9.69852761 89.0220859,9.17828221 L89.0220859,6.5807362 C89.0220859,6.0592638 89.0220859,5.42858896 88.1558282,5.42858896 C87.2466258,5.42858896 87.2466258,6.28380368 87.2466258,6.5807362 L87.2466258,9.17828221 Z M85.5742331,6.83472393 C85.5742331,6.07030675 85.7067485,5.33656442 86.2269939,4.76478528 C86.6957055,4.24576687 87.4,4.05312883 88.1042945,4.05312883 C88.8699387,4.05312883 89.5730061,4.23472393 90.0736196,4.77582822 C90.4920245,5.22368098 90.7263804,5.88625767 90.7263804,7.08871166 L90.7263804,8.90220859 C90.7263804,9.95251534 90.5521472,10.624908 90.0846626,11.1353374 C89.4613497,11.8065031 88.5631902,11.8788957 88.0822086,11.8788957 C87.3484663,11.8788957 86.1460123,11.612638 85.7668712,10.3500613 C85.603681,9.82 85.5742331,9.16601227 85.5742331,8.8396319 L85.5742331,6.83472393 Z" id="Fill-61" fill="#252D65"></path>
                <g id="Group-66" transform="translate(84.662577, 3.000491)">
                    <mask id="mask-20" fill="white">
                        <use xlink:href="#path-19"></use>
                    </mask>
                    <g id="Clip-64"></g>
                    <polygon id="Fill-63" fill="#252D65" mask="url(#mask-20)" points="-68.7533742 23.3128834 160.721472 23.3128834 160.721472 -14.0429448 -68.7533742 -14.0429448"></polygon>
                    <polygon id="Fill-65" fill="#252D65" mask="url(#mask-20)" points="-8.42822086 18.2184049 15.402454 18.2184049 15.402454 -8.28588957 -8.42822086 -8.28588957"></polygon>
                </g>
                <path d="M92.7153374,4.19447853 L94.2858896,4.19447853 L96.2147239,7.69018405 C96.2957055,7.84233129 96.4,8.04723926 96.4723926,8.1993865 C96.5018405,8.26196319 96.603681,8.53558282 96.6331288,8.58711656 L96.6846626,8.58711656 L96.6429448,7.83374233 C96.6122699,7.32331288 96.6122699,7.26196319 96.6122699,6.97607362 L96.6122699,4.19447853 L98.1251534,4.19447853 L98.1251534,11.6730061 L96.7766871,11.6730061 L94.7865031,8.04723926 C94.6245399,7.75153374 94.6134969,7.7208589 94.2245399,6.81411043 L94.1742331,6.81411043 C94.1852761,7.02883436 94.2245399,7.97607362 94.2245399,8.16871166 L94.2245399,11.6730061 L92.7153374,11.6730061 L92.7153374,4.19447853 Z" id="Fill-67" fill="#252D65"></path>
                <g id="Group-72" transform="translate(92.024540, 3.000491)">
                    <mask id="mask-22" fill="white">
                        <use xlink:href="#path-21"></use>
                    </mask>
                    <g id="Clip-70"></g>
                    <polygon id="Fill-69" fill="#252D65" mask="url(#mask-22)" points="-76.1153374 23.3128834 153.359509 23.3128834 153.359509 -14.0429448 -76.1153374 -14.0429448"></polygon>
                    <polygon id="Fill-71" fill="#252D65" mask="url(#mask-22)" points="-8.64785276 18.0122699 15.4404908 18.0122699 15.4404908 -8.14478528 -8.64785276 -8.14478528"></polygon>
                </g>
                <path d="M103.622945,6.20147239 C103.388589,5.75484663 102.907607,5.36588957 102.326012,5.36588957 C101.468344,5.36588957 101.449939,6.00883436 101.449939,6.08981595 C101.449939,6.6198773 101.939509,6.83337423 102.398405,6.99779141 L103.345644,7.34380368 C103.797178,7.50699387 104.326012,7.81251534 104.621718,8.21865031 C104.713742,8.34134969 105.04135,8.83092025 105.04135,9.53521472 C105.04135,9.87141104 105.04135,10.870184 103.978773,11.5119018 C103.541963,11.7757055 102.91865,11.888589 102.539509,11.888589 C101.225399,11.888589 100.449939,11.5720245 99.775092,10.3695706 L101.049939,9.52417178 C101.327239,10.1560736 101.825399,10.5438037 102.468344,10.5438037 C102.827853,10.5438037 103.469571,10.3806135 103.469571,9.69840491 C103.469571,9.13644172 103.162822,9.01496933 102.04135,8.57570552 C100.907607,8.13889571 99.9284663,7.6395092 99.9284663,6.16220859 C99.9284663,4.92785276 100.826626,4.0407362 102.36773,4.0407362 C103.469571,4.0407362 104.245031,4.48981595 104.858528,5.38674847 L103.622945,6.20147239 Z" id="Fill-73" fill="#252D65"></path>
                <g id="Group-78" transform="translate(99.386503, 3.000491)">
                    <mask id="mask-24" fill="white">
                        <use xlink:href="#path-23"></use>
                    </mask>
                    <g id="Clip-76"></g>
                    <polygon id="Fill-75" fill="#252D65" mask="url(#mask-24)" points="-83.4773006 23.3128834 145.997546 23.3128834 145.997546 -14.0429448 -83.4773006 -14.0429448"></polygon>
                    <polygon id="Fill-77" fill="#252D65" mask="url(#mask-24)" points="-8.94969325 18.2282209 14.995092 18.2282209 14.995092 -8.29815951 -8.94969325 -8.29815951"></polygon>
                </g>
                <polygon id="Fill-79" fill="#252D65" points="111.570798 4.19447853 111.570798 5.56134969 109.703313 5.56134969 109.703313 11.6730061 107.987975 11.6730061 107.987975 5.56134969 106.08 5.56134969 106.08 4.19447853"></polygon>
                <g id="Group-84" transform="translate(105.521472, 3.000491)">
                    <mask id="mask-26" fill="white">
                        <use xlink:href="#path-25"></use>
                    </mask>
                    <g id="Clip-82"></g>
                    <polygon id="Fill-81" fill="#252D65" mask="url(#mask-26)" points="-89.6122699 23.3128834 139.862577 23.3128834 139.862577 -14.0429448 -89.6122699 -14.0429448"></polygon>
                    <polygon id="Fill-83" fill="#252D65" mask="url(#mask-26)" points="-8.78159509 18.0122699 15.3877301 18.0122699 15.3877301 -8.14478528 -8.78159509 -8.14478528"></polygon>
                </g>
                <polygon id="Fill-85" fill="#252D65" points="113.26135 11.6728834 114.921472 11.6728834 114.921472 4.19435583 113.26135 4.19435583"></polygon>
                <g id="Group-90" transform="translate(112.883436, 3.000491)">
                    <mask id="mask-28" fill="white">
                        <use xlink:href="#path-27"></use>
                    </mask>
                    <g id="Clip-88"></g>
                    <polygon id="Fill-87" fill="#252D65" mask="url(#mask-28)" points="-96.9742331 23.3128834 132.500613 23.3128834 132.500613 -14.0429448 -96.9742331 -14.0429448"></polygon>
                    <polygon id="Fill-89" fill="#252D65" mask="url(#mask-28)" points="-8.96196319 18.0110429 11.3766871 18.0110429 11.3766871 -8.14601227 -8.96196319 -8.14601227"></polygon>
                </g>
                <polygon id="Fill-91" fill="#252D65" points="122.139264 4.19447853 122.139264 5.56134969 120.271779 5.56134969 120.271779 11.6730061 118.560123 11.6730061 118.560123 5.56134969 116.65092 5.56134969 116.65092 4.19447853"></polygon>
                <g id="Group-96" transform="translate(116.564417, 3.000491)">
                    <mask id="mask-30" fill="white">
                        <use xlink:href="#path-29"></use>
                    </mask>
                    <g id="Clip-94"></g>
                    <polygon id="Fill-93" fill="#252D65" mask="url(#mask-30)" points="-100.655215 23.3128834 128.819632 23.3128834 128.819632 -14.0429448 -100.655215 -14.0429448"></polygon>
                    <polygon id="Fill-95" fill="#252D65" mask="url(#mask-30)" points="-9.25276074 18.0122699 14.9128834 18.0122699 14.9128834 -8.14478528 -9.25276074 -8.14478528"></polygon>
                </g>
                <path d="M123.65865,4.19447853 L125.364172,4.19447853 L125.364172,9.12822086 C125.364172,9.57607362 125.364172,10.503681 126.372761,10.503681 C126.690552,10.503681 127.424294,10.503681 127.424294,9.13803681 L127.424294,4.19447853 L129.089325,4.19447853 L129.089325,9.14662577 C129.089325,9.59693252 129.074601,10.6754601 128.312638,11.297546 C127.791166,11.7159509 127.149448,11.8693252 126.464785,11.8693252 C125.679509,11.8693252 124.872147,11.6730061 124.414479,11.2472393 C123.689325,10.5625767 123.65865,9.70736196 123.65865,9.03496933 L123.65865,4.19447853 Z" id="Fill-97" fill="#252D65"></path>
                <g id="Group-102" transform="translate(122.699387, 3.000491)">
                    <mask id="mask-32" fill="white">
                        <use xlink:href="#path-31"></use>
                    </mask>
                    <g id="Clip-100"></g>
                    <polygon id="Fill-99" fill="#252D65" mask="url(#mask-32)" points="-106.790184 23.3128834 122.684663 23.3128834 122.684663 -14.0429448 -106.790184 -14.0429448"></polygon>
                    <polygon id="Fill-101" fill="#252D65" mask="url(#mask-32)" points="-8.3803681 18.208589 15.7276074 18.208589 15.7276074 -8.14478528 -8.3803681 -8.14478528"></polygon>
                </g>
                <polygon id="Fill-103" fill="#252D65" points="136.10589 4.19447853 136.10589 5.56134969 134.238405 5.56134969 134.238405 11.6730061 132.525521 11.6730061 132.525521 5.56134969 130.617546 5.56134969 130.617546 4.19447853"></polygon>
                <g id="Group-108" transform="translate(130.061350, 3.000491)">
                    <mask id="mask-34" fill="white">
                        <use xlink:href="#path-33"></use>
                    </mask>
                    <g id="Clip-106"></g>
                    <polygon id="Fill-105" fill="#252D65" mask="url(#mask-34)" points="-114.152147 23.3128834 115.322699 23.3128834 115.322699 -14.0429448 -114.152147 -14.0429448"></polygon>
                    <polygon id="Fill-107" fill="#252D65" mask="url(#mask-34)" points="-8.78282209 18.0122699 15.3828221 18.0122699 15.3828221 -8.14478528 -8.78282209 -8.14478528"></polygon>
                </g>
                <polygon id="Fill-109" fill="#252D65" points="137.809816 11.6732515 137.798773 4.19472393 139.460123 4.19472393 139.460123 11.6732515"></polygon>
                <g id="Group-114" transform="translate(137.423313, 3.000491)">
                    <mask id="mask-36" fill="white">
                        <use xlink:href="#path-35"></use>
                    </mask>
                    <g id="Clip-112"></g>
                    <polygon id="Fill-111" fill="#252D65" mask="url(#mask-36)" points="-121.51411 23.3128834 107.960736 23.3128834 107.960736 -14.0429448 -121.51411 -14.0429448"></polygon>
                    <polygon id="Fill-113" fill="#252D65" mask="url(#mask-36)" points="-8.96319018 18.0122699 11.3754601 18.0122699 11.3754601 -8.14478528 -8.96319018 -8.14478528"></polygon>
                </g>
                <path d="M143.309693,9.17828221 C143.309693,9.96110429 143.46184,10.5230675 144.19681,10.5230675 C145.083926,10.5230675 145.083926,9.69852761 145.083926,9.17828221 L145.083926,6.5807362 C145.083926,6.0592638 145.083926,5.42858896 144.215215,5.42858896 C143.309693,5.42858896 143.309693,6.28380368 143.309693,6.5807362 L143.309693,9.17828221 Z M141.636074,6.83472393 C141.636074,6.07030675 141.767362,5.33656442 142.288834,4.76478528 C142.758773,4.24576687 143.46184,4.05312883 144.166135,4.05312883 C144.930552,4.05312883 145.634847,4.23472393 146.13546,4.77582822 C146.553865,5.22368098 146.788221,5.88625767 146.788221,7.08871166 L146.788221,8.90220859 C146.788221,9.95251534 146.615215,10.624908 146.145276,11.1353374 C145.521963,11.8065031 144.626258,11.8788957 144.146503,11.8788957 C143.410307,11.8788957 142.206626,11.612638 141.828712,10.3500613 C141.665521,9.82 141.636074,9.16601227 141.636074,8.8396319 L141.636074,6.83472393 Z" id="Fill-115" fill="#252D65"></path>
                <g id="Group-120" transform="translate(141.104294, 3.000491)">
                    <mask id="mask-38" fill="white">
                        <use xlink:href="#path-37"></use>
                    </mask>
                    <g id="Clip-118"></g>
                    <polygon id="Fill-117" fill="#252D65" mask="url(#mask-38)" points="-125.195092 23.3128834 104.279755 23.3128834 104.279755 -14.0429448 -125.195092 -14.0429448"></polygon>
                    <polygon id="Fill-119" fill="#252D65" mask="url(#mask-38)" points="-8.80736196 18.2184049 15.0233129 18.2184049 15.0233129 -8.28588957 -8.80736196 -8.28588957"></polygon>
                </g>
                <path d="M148.778405,4.19447853 L150.34773,4.19447853 L152.276564,7.69018405 C152.358773,7.84233129 152.460613,8.04723926 152.534233,8.1993865 C152.562454,8.26196319 152.665521,8.53558282 152.694969,8.58711656 L152.746503,8.58711656 L152.704785,7.83374233 C152.67411,7.32331288 152.67411,7.26196319 152.67411,6.97607362 L152.67411,4.19447853 L154.18454,4.19447853 L154.18454,11.6730061 L152.838528,11.6730061 L150.848344,8.04723926 C150.685153,7.75153374 150.675337,7.7208589 150.287607,6.81411043 L150.236074,6.81411043 C150.247117,7.02883436 150.287607,7.97607362 150.287607,8.16871166 L150.287607,11.6730061 L148.778405,11.6730061 L148.778405,4.19447853 Z" id="Fill-121" fill="#252D65"></path>
                <g id="Group-126" transform="translate(148.466258, 3.000491)">
                    <mask id="mask-40" fill="white">
                        <use xlink:href="#path-39"></use>
                    </mask>
                    <g id="Clip-124"></g>
                    <polygon id="Fill-123" fill="#252D65" mask="url(#mask-40)" points="-132.557055 23.3128834 96.9177914 23.3128834 96.9177914 -14.0429448 -132.557055 -14.0429448"></polygon>
                    <polygon id="Fill-125" fill="#252D65" mask="url(#mask-40)" points="-9.02699387 18.0122699 15.0576687 18.0122699 15.0576687 -8.14478528 -9.02699387 -8.14478528"></polygon>
                </g>
                <path d="M159.185153,6.71141104 C159.185153,4.99852761 160.101718,4.03165644 161.846503,4.03165644 C162.295583,4.03165644 162.967975,4.12368098 163.490675,4.52981595 C164.163067,5.06110429 164.244049,5.97889571 164.264908,6.57889571 L162.621963,6.57889571 C162.612147,6.21202454 162.590061,5.39607362 161.775337,5.39607362 C161.570429,5.39607362 161.316442,5.4795092 161.153252,5.63042945 C160.886994,5.87582822 160.877178,6.24269939 160.877178,6.44515337 L160.877178,9.29055215 C160.877178,9.6991411 160.877178,10.4819632 161.78638,10.4819632 C162.46,10.4819632 162.661227,9.93226994 162.661227,9.12736196 L164.316442,9.12736196 C164.306626,9.66601227 164.294356,9.72858896 164.244049,10.0439264 C164.182699,10.3396319 164.080859,10.8795092 163.457546,11.3788957 C162.928712,11.8083436 162.153252,11.8795092 161.825644,11.8795092 C160.95816,11.8795092 160.35816,11.6733742 159.889448,11.2157055 C159.581472,10.92 159.185153,10.4930061 159.185153,8.96417178 L159.185153,6.71141104 Z" id="Fill-127" fill="#252D65"></path>
                <g id="Group-132" transform="translate(158.282209, 3.000491)">
                    <mask id="mask-42" fill="white">
                        <use xlink:href="#path-41"></use>
                    </mask>
                    <g id="Clip-130"></g>
                    <polygon id="Fill-129" fill="#252D65" mask="url(#mask-42)" points="-142.373006 23.3128834 87.1018405 23.3128834 87.1018405 -14.0429448 -142.373006 -14.0429448"></polygon>
                    <polygon id="Fill-131" fill="#252D65" mask="url(#mask-42)" points="-8.43558282 18.2184049 15.3730061 18.2184049 15.3730061 -8.30797546 -8.43558282 -8.30797546"></polygon>
                </g>
                <polygon id="Fill-133" fill="#252D65" points="166.223558 4.19447853 171.253006 4.19447853 171.253006 5.56134969 167.85546 5.56134969 167.85546 7.14907975 170.192883 7.14907975 170.192883 8.51595092 167.877546 8.51595092 167.877546 10.2779141 171.488589 10.2779141 171.488589 11.6730061 166.223558 11.6730061"></polygon>
                <g id="Group-138" transform="translate(165.644172, 3.000491)">
                    <mask id="mask-44" fill="white">
                        <use xlink:href="#path-43"></use>
                    </mask>
                    <g id="Clip-136"></g>
                    <polygon id="Fill-135" fill="#252D65" mask="url(#mask-44)" points="-149.734969 23.3128834 79.7398773 23.3128834 79.7398773 -14.0429448 -149.734969 -14.0429448"></polygon>
                    <polygon id="Fill-137" fill="#252D65" mask="url(#mask-44)" points="-8.7595092 18.0122699 15.1840491 18.0122699 15.1840491 -8.14478528 -8.7595092 -8.14478528"></polygon>
                </g>
                <path d="M173.294356,4.19447853 L174.863681,4.19447853 L176.792515,7.69018405 C176.875951,7.84233129 176.976564,8.04723926 177.048957,8.1993865 C177.078405,8.26196319 177.181472,8.53558282 177.209693,8.58711656 L177.262454,8.58711656 L177.220736,7.83374233 C177.191288,7.32331288 177.191288,7.26196319 177.191288,6.97607362 L177.191288,4.19447853 L178.701718,4.19447853 L178.701718,11.6730061 L177.354479,11.6730061 L175.364294,8.04723926 C175.201104,7.75153374 175.191288,7.7208589 174.802331,6.81411043 L174.754479,6.81411043 C174.763067,7.02883436 174.802331,7.97607362 174.802331,8.16871166 L174.802331,11.6730061 L173.294356,11.6730061 L173.294356,4.19447853 Z" id="Fill-139" fill="#252D65"></path>
                <g id="Group-144" transform="translate(173.006135, 3.000491)">
                    <mask id="mask-46" fill="white">
                        <use xlink:href="#path-45"></use>
                    </mask>
                    <g id="Clip-142"></g>
                    <polygon id="Fill-141" fill="#252D65" mask="url(#mask-46)" points="-157.096933 23.3128834 72.3779141 23.3128834 72.3779141 -14.0429448 -157.096933 -14.0429448"></polygon>
                    <polygon id="Fill-143" fill="#252D65" mask="url(#mask-46)" points="-9.05030675 18.0122699 15.0355828 18.0122699 15.0355828 -8.14478528 -9.05030675 -8.14478528"></polygon>
                </g>
                <polygon id="Fill-145" fill="#252D65" points="185.730798 4.19447853 185.730798 5.56134969 183.863313 5.56134969 183.863313 11.6730061 182.149202 11.6730061 182.149202 5.56134969 180.241227 5.56134969 180.241227 4.19447853"></polygon>
                <g id="Group-150" transform="translate(179.141104, 3.000491)">
                    <mask id="mask-48" fill="white">
                        <use xlink:href="#path-47"></use>
                    </mask>
                    <g id="Clip-148"></g>
                    <polygon id="Fill-147" fill="#252D65" mask="url(#mask-48)" points="-163.231902 23.3128834 66.2429448 23.3128834 66.2429448 -14.0429448 -163.231902 -14.0429448"></polygon>
                    <polygon id="Fill-149" fill="#252D65" mask="url(#mask-48)" points="-8.23803681 18.0122699 15.9288344 18.0122699 15.9288344 -8.14478528 -8.23803681 -8.14478528"></polygon>
                </g>
                <polygon id="Fill-151" fill="#252D65" points="187.178282 4.19447853 192.210184 4.19447853 192.210184 5.56134969 188.810184 5.56134969 188.810184 7.14907975 191.147607 7.14907975 191.147607 8.51595092 188.833497 8.51595092 188.833497 10.2779141 192.44454 10.2779141 192.44454 11.6730061 187.178282 11.6730061"></polygon>
                <g id="Group-156" transform="translate(186.503067, 3.000491)">
                    <mask id="mask-50" fill="white">
                        <use xlink:href="#path-49"></use>
                    </mask>
                    <g id="Clip-154"></g>
                    <polygon id="Fill-153" fill="#252D65" mask="url(#mask-50)" points="-170.593865 23.3128834 58.8809816 23.3128834 58.8809816 -14.0429448 -170.593865 -14.0429448"></polygon>
                    <polygon id="Fill-155" fill="#252D65" mask="url(#mask-50)" points="-8.66380368 18.0122699 15.2809816 18.0122699 15.2809816 -8.14478528 -8.66380368 -8.14478528"></polygon>
                </g>
                <path d="M195.770798,7.42527607 C196.699632,7.42527607 196.840736,7.42527607 197.075092,7.34429448 C197.595337,7.16147239 197.637055,6.75165644 197.637055,6.34429448 C197.637055,5.82527607 197.473865,5.56883436 197.148712,5.44858896 C196.893497,5.35656442 196.688589,5.35656442 195.770798,5.35656442 L195.770798,7.42527607 Z M195.770798,11.6731288 L194.147485,11.6731288 L194.147485,4.19460123 L196.564663,4.19460123 C197.78184,4.19460123 199.320491,4.3590184 199.320491,6.36515337 C199.320491,7.31239264 198.942577,8.03754601 197.89227,8.35411043 L199.526626,11.6731288 L197.737669,11.6731288 L196.320491,8.61791411 L195.770798,8.61791411 L195.770798,11.6731288 Z" id="Fill-157" fill="#252D65"></path>
                <g id="Group-162" transform="translate(193.865031, 3.000491)">
                    <mask id="mask-52" fill="white">
                        <use xlink:href="#path-51"></use>
                    </mask>
                    <g id="Clip-160"></g>
                    <polygon id="Fill-159" fill="#252D65" mask="url(#mask-52)" points="-177.955828 23.3128834 51.5190184 23.3128834 51.5190184 -14.0429448 -177.955828 -14.0429448"></polygon>
                    <polygon id="Fill-161" fill="#252D65" mask="url(#mask-52)" points="-9.05644172 18.0122699 15 18.0122699 15 -8.14478528 -9.05644172 -8.14478528"></polygon>
                </g>
            </g>
        </g>
    </g>
</svg>