<?xml version="1.0" encoding="UTF-8"?>
<svg width="570px" height="146px" viewBox="0 0 570 146" version="1.1" xmlns="http://www.w3.org/2000/svg" xmlns:xlink="http://www.w3.org/1999/xlink">
    <!-- Generator: Sketch 54.1 (76490) - https://sketchapp.com -->
    <title>Group 87</title>
    <desc>Created with Sketch.</desc>
    <defs>
        <polygon id="path-1" points="1.11717659 0.786566667 488.382906 0.786566667 488.382906 71.1666667 1.11717659 71.1666667"></polygon>
        <polygon id="path-3" points="0 145.833333 569.980103 145.833333 569.980103 0.610166667 0 0.610166667"></polygon>
    </defs>
    <g id="Design-v4" stroke="none" stroke-width="1" fill="none" fill-rule="evenodd">
        <g id="1.0-Homepage-v2-Copy" transform="translate(-435.000000, -241.000000)">
            <g id="Group-87" transform="translate(435.000000, 240.000000)">
                <path d="M24.306345,68.7155 L371.270144,68.7155 L371.270144,1.16666667 L24.306345,1.16666667 L24.306345,68.7155 Z M28.2834702,64.75 L367.291848,64.75 L367.291848,5.131 L28.2834702,5.131 L28.2834702,64.75 Z" id="Fill-1" fill="#222E65"></path>
                <g id="Group-86" transform="translate(0.000000, 0.556500)">
                    <g id="Group-4" transform="translate(58.521561, 74.666667)">
                        <mask id="mask-2" fill="white">
                            <use xlink:href="#path-1"></use>
                        </mask>
                        <g id="Clip-3"></g>
                        <path d="M39.2346099,11.9002333 C50.5257598,11.9002333 55.4169918,17.9797333 57.3493737,26.0659 L48.0502977,28.8005667 C46.6013039,23.6334 44.4278131,20.1077333 39.1737474,20.1077333 C32.4109959,20.1077333 28.7885113,25.8827333 28.7885113,35.1845667 C28.7885113,44.6672333 32.5315503,50.6254 39.2954723,50.6254 C44.5483676,50.6254 47.144384,47.2817333 48.7151027,41.1415667 L57.9533162,43.2089 C55.7798255,52.2669 50.4660678,58.5902333 39.2346099,58.5902333 C27.5806263,58.5902333 18.9463552,51.0512333 18.9463552,35.1845667 C18.9463552,19.5605667 27.94346,11.9002333 39.2346099,11.9002333 L39.2346099,11.9002333 Z M82.280729,11.9002333 C93.0287988,11.9002333 103.29348,19.4380667 103.29348,35.2452333 C103.29348,51.0512333 93.0287988,58.5902333 82.280729,58.5902333 C71.4717967,58.5902333 61.207115,51.0512333 61.207115,35.2452333 C61.207115,19.4380667 71.4717967,11.9002333 82.280729,11.9002333 L82.280729,11.9002333 Z M108.661078,12.7507333 L118.504405,12.7507333 L137.223111,41.4460667 L137.343665,41.4460667 L137.343665,12.7507333 L146.401632,12.7507333 L146.401632,57.7385667 L137.343665,57.7385667 L117.8396,28.8005667 L117.719045,28.8005667 L117.719045,57.7385667 L108.661078,57.7385667 L108.661078,12.7507333 Z M170.185965,39.0742333 C162.214158,36.8260667 153.881858,34.7587333 153.881858,25.3355667 C153.881858,16.9460667 160.402331,11.9002333 170.004548,11.9002333 C179.181899,11.9002333 184.617382,16.3382333 187.757649,21.1402333 L180.932864,26.3692333 C178.579127,22.5390667 174.291838,19.9864 169.943686,19.9864 C165.776951,19.9864 163.482906,21.8099 163.482906,24.4850667 C163.482906,28.0714 166.803419,29.3477333 172.661427,30.9892333 C180.510339,33.1172333 188.843809,35.6092333 188.843809,44.9110667 C188.843809,52.1455667 183.409497,58.5902333 170.970154,58.5902333 C161.309415,58.5902333 155.27116,53.9690667 151.950647,47.5255667 L159.375862,43.0875667 C161.852495,48.0120667 166.321201,50.7467333 171.453542,50.7467333 C175.98194,50.7467333 179.242762,49.0445667 179.242762,45.5795667 C179.242762,42.1752333 176.042803,40.7169 170.185965,39.0742333 L170.185965,39.0742333 Z M190.045842,12.7507333 L226.516478,12.7507333 L226.516478,21.0189 L213.171222,21.0189 L213.171222,57.7385667 L203.329066,57.7385667 L203.329066,21.0189 L190.045842,21.0189 L190.045842,12.7507333 Z M231.70383,57.7385667 L241.485123,57.7385667 L241.485123,12.7507333 L231.70383,12.7507333 L231.70383,57.7385667 Z M246.734507,12.7507333 L283.205144,12.7507333 L283.205144,21.0189 L269.861057,21.0189 L269.861057,57.7385667 L260.018901,57.7385667 L260.018901,21.0189 L246.734507,21.0189 L246.734507,12.7507333 Z M287.245472,12.7507333 L297.088799,12.7507333 L297.088799,40.2910667 C297.088799,46.7964 299.564261,50.4434 305.421099,50.4434 C311.218244,50.4434 313.632844,46.8559 313.632844,40.2910667 L313.632844,12.7507333 L323.293583,12.7507333 L323.293583,40.4730667 C323.293583,51.5377333 317.738717,58.4689 305.300544,58.4689 C292.861201,58.4689 287.245472,51.5377333 287.245472,40.5337333 L287.245472,12.7507333 Z M327.333912,12.7507333 L363.805719,12.7507333 L363.805719,21.0189 L350.460462,21.0189 L350.460462,57.7385667 L340.618306,57.7385667 L340.618306,21.0189 L327.333912,21.0189 L327.333912,12.7507333 Z M368.99307,57.7385667 L378.774363,57.7385667 L378.774363,12.7507333 L368.99307,12.7507333 L368.99307,57.7385667 Z M405.642782,11.9002333 C416.389682,11.9002333 426.655534,19.4380667 426.655534,35.2452333 C426.655534,51.0512333 416.389682,58.5902333 405.642782,58.5902333 C394.83385,58.5902333 384.569168,51.0512333 384.569168,35.2452333 C384.569168,19.4380667 394.83385,11.9002333 405.642782,11.9002333 L405.642782,11.9002333 Z M431.358326,12.7507333 L441.201653,12.7507333 L459.920359,41.4460667 L460.039743,41.4460667 L460.039743,12.7507333 L469.098881,12.7507333 L469.098881,57.7385667 L460.039743,57.7385667 L440.536848,28.8005667 L440.416294,28.8005667 L440.416294,57.7385667 L431.358326,57.7385667 L431.358326,12.7507333 Z M1.11717659,71.1669 L488.382906,71.1669 L488.382906,0.786566667 L1.11717659,0.786566667 L1.11717659,71.1669 Z" id="Fill-2" fill="#CA1F40" mask="url(#mask-2)"></path>
                    </g>
                    <path d="M140.802641,125.292533 C147.685947,125.292533 152.034099,119.334367 152.034099,109.9112 C152.034099,100.4892 147.685947,94.7737 140.802641,94.7737 C133.857302,94.7737 129.571183,100.4892 129.571183,109.9112 C129.571183,119.334367 133.857302,125.292533 140.802641,125.292533" id="Fill-5" fill="#CA1F40"></path>
                    <path d="M464.163992,125.292533 C471.047298,125.292533 475.39545,119.334367 475.39545,109.9112 C475.39545,100.4892 471.047298,94.7737 464.163992,94.7737 C457.219823,94.7737 452.932534,100.4892 452.932534,109.9112 C452.932534,119.334367 457.219823,125.292533 464.163992,125.292533" id="Fill-7" fill="#CA1F40"></path>
                    <path d="M97.7561704,133.256317 C108.987628,133.256317 114.301386,126.93415 116.474877,117.874983 L107.236663,115.808817 C105.665945,121.948983 103.069928,125.29265 97.8170329,125.29265 C91.0531109,125.29265 87.3100719,119.334483 87.3100719,109.85065 C87.3100719,100.548817 90.9325565,94.7738167 97.695308,94.7738167 C102.949374,94.7738167 105.122864,98.30065 106.571858,103.467817 L115.870934,100.731983 C113.938552,92.6458167 109.04732,86.5663167 97.7561704,86.5663167 C86.4650205,86.5663167 77.4679158,94.22665 77.4679158,109.85065 C77.4679158,125.718483 86.1021869,133.256317 97.7561704,133.256317" id="Fill-9" fill="#FFFFFF"></path>
                    <path d="M140.802641,94.77405 C147.685947,94.77405 152.034099,100.488383 152.034099,109.91155 C152.034099,119.334717 147.685947,125.292883 140.802641,125.292883 C133.857302,125.292883 129.571183,119.334717 129.571183,109.91155 C129.571183,100.488383 133.857302,94.77405 140.802641,94.77405 M140.802641,133.25655 C151.55071,133.25655 161.815392,125.71755 161.815392,109.91155 C161.815392,94.10555 151.55071,86.56655 140.802641,86.56655 C129.993708,86.56655 119.729027,94.10555 119.729027,109.91155 C119.729027,125.71755 129.993708,133.25655 140.802641,133.25655" id="Fill-11" fill="#FFFFFF"></path>
                    <polygon id="Fill-13" fill="#FFFFFF" points="176.240138 103.467583 176.361862 103.467583 195.865928 132.405583 204.922725 132.405583 204.922725 87.41775 195.865928 87.41775 195.865928 116.111917 195.744203 116.111917 177.025497 87.41775 167.183341 87.41775 167.183341 132.405583 176.240138 132.405583"></polygon>
                    <path d="M229.974869,125.413867 C224.842528,125.413867 220.373821,122.678033 217.898359,117.7547 L210.471973,122.191533 C213.792487,128.6362 219.830741,133.2562 229.49148,133.2562 C241.930823,133.2562 247.365136,126.8127 247.365136,119.5782 C247.365136,110.276367 239.031665,107.784367 231.182754,105.656367 C225.324745,104.014867 222.004232,102.737367 222.004232,99.1510333 C222.004232,96.4758667 224.298277,94.6523667 228.465012,94.6523667 C232.813164,94.6523667 237.100454,97.2062 239.455361,101.0352 L246.278975,95.8073667 C243.138708,91.0053667 237.704396,86.5673667 228.525875,86.5673667 C218.924828,86.5673667 212.403185,91.6132 212.403185,100.0027 C212.403185,109.4247 220.735485,111.492033 228.707292,113.741367 C234.564129,115.382867 237.764088,116.842367 237.764088,120.2467 C237.764088,123.7117 234.503267,125.413867 229.974869,125.413867" id="Fill-15" fill="#FFFFFF"></path>
                    <polygon id="Fill-17" fill="#FFFFFF" points="261.85086 132.405233 271.693016 132.405233 271.693016 95.6855667 285.038273 95.6855667 285.038273 87.4174 248.566466 87.4174 248.566466 95.6855667 261.85086 95.6855667"></polygon>
                    <mask id="mask-4" fill="white">
                        <use xlink:href="#path-3"></use>
                    </mask>
                    <g id="Clip-20"></g>
                    <polygon id="Fill-19" fill="#FFFFFF" mask="url(#mask-4)" points="290.225975 132.406167 300.007269 132.406167 300.007269 87.4183333 290.225975 87.4183333"></polygon>
                    <polygon id="Fill-21" fill="#FFFFFF" mask="url(#mask-4)" points="318.540111 132.405233 328.382267 132.405233 328.382267 95.6855667 341.727524 95.6855667 341.727524 87.4174 305.255717 87.4174 305.255717 95.6855667 318.540111 95.6855667"></polygon>
                    <path d="M363.822339,133.134983 C376.260511,133.134983 381.815378,126.204983 381.815378,115.140317 L381.815378,87.4179833 L372.154639,87.4179833 L372.154639,114.95715 C372.154639,121.52315 369.740039,125.11065 363.942893,125.11065 C358.086055,125.11065 355.609423,121.462483 355.609423,114.95715 L355.609423,87.4179833 L345.767267,87.4179833 L345.767267,115.200983 C345.767267,126.204983 351.382996,133.134983 363.822339,133.134983" id="Fill-22" fill="#FFFFFF" mask="url(#mask-4)"></path>
                    <polygon id="Fill-23" fill="#FFFFFF" mask="url(#mask-4)" points="399.139867 132.405233 408.982023 132.405233 408.982023 95.6855667 422.327279 95.6855667 422.327279 87.4174 385.855472 87.4174 385.855472 95.6855667 399.139867 95.6855667"></polygon>
                    <polygon id="Fill-24" fill="#FFFFFF" mask="url(#mask-4)" points="427.515216 132.406167 437.296509 132.406167 437.296509 87.4183333 427.515216 87.4183333"></polygon>
                    <path d="M464.163992,94.77405 C471.047298,94.77405 475.39545,100.488383 475.39545,109.91155 C475.39545,119.334717 471.047298,125.292883 464.163992,125.292883 C457.219823,125.292883 452.932534,119.334717 452.932534,109.91155 C452.932534,100.488383 457.219823,94.77405 464.163992,94.77405 M464.163992,133.25655 C474.912062,133.25655 485.176743,125.71755 485.176743,109.91155 C485.176743,94.10555 474.912062,86.56655 464.163992,86.56655 C453.35623,86.56655 443.090378,94.10555 443.090378,109.91155 C443.090378,125.71755 453.35623,133.25655 464.163992,133.25655" id="Fill-25" fill="#FFFFFF" mask="url(#mask-4)"></path>
                    <polygon id="Fill-26" fill="#FFFFFF" mask="url(#mask-4)" points="498.937503 103.467583 499.059228 103.467583 518.562123 132.405583 527.62009 132.405583 527.62009 87.41775 518.562123 87.41775 518.562123 116.111917 518.441569 116.111917 499.722862 87.41775 489.880706 87.41775 489.880706 132.405583 498.937503 132.405583"></polygon>
                    <polygon id="Fill-27" fill="#222E65" mask="url(#mask-4)" points="45.3542094 51.4966667 52.8707187 51.4966667 52.8707187 17.2725 45.3542094 17.2725"></polygon>
                    <polygon id="Fill-28" fill="#222E65" mask="url(#mask-4)" points="67.2540308 29.4828333 67.3476653 29.4828333 82.3338665 51.4978333 89.2932505 51.4978333 89.2932505 17.2725 82.3338665 17.2725 82.3338665 39.1031667 82.2414025 39.1031667 67.8579733 17.2725 60.2946468 17.2725 60.2946468 51.4978333 67.2540308 51.4978333"></polygon>
                    <polygon id="Fill-29" fill="#222E65" mask="url(#mask-4)" points="104.050632 51.4973667 111.613959 51.4973667 111.613959 23.5627 121.868107 23.5627 121.868107 17.2732 93.8421314 17.2732 93.8421314 23.5627 104.050632 23.5627"></polygon>
                    <polygon id="Fill-30" fill="#222E65" mask="url(#mask-4)" points="150.635901 45.3923167 133.979495 45.3923167 133.979495 36.88265 145.440357 36.88265 145.440357 30.9163167 133.979495 30.9163167 133.979495 23.5628167 149.801384 23.5628167 149.801384 17.27215 126.416168 17.27215 126.416168 51.4974833 150.635901 51.4974833"></polygon>
                    <path d="M163.211131,23.4238667 L168.361029,23.4238667 C172.723226,23.4238667 174.811275,24.6722 174.811275,28.0485333 C174.811275,31.5170333 172.723226,32.7665333 168.361029,32.7665333 L163.211131,32.7665333 L163.211131,23.4238667 Z M163.211131,38.5940333 L167.573329,38.5940333 L174.718811,51.4973667 L182.698811,51.4973667 L175.043021,37.6222 C179.636963,36.2350333 182.188503,33.2752 182.188503,27.8642 C182.188503,20.2785333 177.13107,17.2732 168.686409,17.2732 L155.787086,17.2732 L155.787086,51.4973667 L163.211131,51.4973667 L163.211131,38.5940333 Z" id="Fill-31" fill="#222E65" mask="url(#mask-4)"></path>
                    <path d="M200.795199,26.7541167 L200.887663,26.7541167 L204.832016,38.4091167 L196.758382,38.4091167 L200.795199,26.7541167 Z M194.903248,43.8656167 L206.594686,43.8656167 L209.147396,51.4967833 L216.803187,51.4967833 L204.645918,17.1337833 L197.454789,17.1337833 L185.29869,51.4967833 L192.258074,51.4967833 L194.903248,43.8656167 Z" id="Fill-32" fill="#222E65" mask="url(#mask-4)"></path>
                    <path d="M233.230189,52.1451 C241.859778,52.1451 245.942242,47.3349333 247.613618,40.4434333 L240.514953,38.8719333 C239.307068,43.5421 237.312653,46.0866 233.275836,46.0866 C228.080292,46.0866 225.203372,41.5541 225.203372,34.3382667 C225.203372,27.2624333 227.986657,22.8687667 233.183372,22.8687667 C237.220189,22.8687667 238.890394,25.5521 240.003474,29.4826 L247.150127,27.4012667 C245.66485,21.2506 241.906595,16.6259333 233.230189,16.6259333 C224.553782,16.6259333 217.640045,22.4522667 217.640045,34.3382667 C217.640045,46.4097667 224.27522,52.1451 233.230189,52.1451" id="Fill-33" fill="#222E65" mask="url(#mask-4)"></path>
                    <polygon id="Fill-34" fill="#222E65" mask="url(#mask-4)" points="259.445975 51.4973667 267.009302 51.4973667 267.009302 23.5627 277.26345 23.5627 277.26345 17.2732 249.238645 17.2732 249.238645 23.5627 259.445975 23.5627"></polygon>
                    <polygon id="Fill-35" fill="#222E65" mask="url(#mask-4)" points="282.182772 51.4966667 289.699281 51.4966667 289.699281 17.2725 282.182772 17.2725"></polygon>
                    <polygon id="Fill-36" fill="#222E65" mask="url(#mask-4)" points="313.362357 51.6364333 325.193076 17.2722667 318.094411 17.2722667 309.975129 41.7384333 309.881495 41.7384333 302.040776 17.2722667 294.384986 17.2722667 306.216875 51.6364333"></polygon>
                    <polygon id="Fill-37" fill="#222E65" mask="url(#mask-4)" points="353.730881 45.3923167 337.074474 45.3923167 337.074474 36.88265 348.535337 36.88265 348.535337 30.9163167 337.074474 30.9163167 337.074474 23.5628167 352.895193 23.5628167 352.895193 17.27215 329.511148 17.27215 329.511148 51.4974833 353.730881 51.4974833"></polygon>
                    <polygon id="Fill-38" fill="#CA1F40" mask="url(#mask-4)" points="468.058953 37.492 472.563943 37.492 472.563943 36.3428333 468.058953 36.3428333"></polygon>
                    <polygon id="Fill-39" fill="#CA1F40" mask="url(#mask-4)" points="459.048973 37.492 463.553963 37.492 463.553963 36.3428333 459.048973 36.3428333"></polygon>
                    <polygon id="Fill-40" fill="#CA1F40" mask="url(#mask-4)" points="395.979117 37.492 400.484107 37.492 400.484107 36.3428333 395.979117 36.3428333"></polygon>
                    <polygon id="Fill-41" fill="#CA1F40" mask="url(#mask-4)" points="477.068932 37.492 481.573922 37.492 481.573922 36.3428333 477.068932 36.3428333"></polygon>
                    <polygon id="Fill-42" fill="#CA1F40" mask="url(#mask-4)" points="441.029014 37.492 445.534004 37.492 445.534004 36.3428333 441.029014 36.3428333"></polygon>
                    <polygon id="Fill-43" fill="#CA1F40" mask="url(#mask-4)" points="504.098871 37.492 508.60386 37.492 508.60386 36.3428333 504.098871 36.3428333"></polygon>
                    <polygon id="Fill-44" fill="#CA1F40" mask="url(#mask-4)" points="513.10885 37.492 517.61384 37.492 517.61384 36.3428333 513.10885 36.3428333"></polygon>
                    <polygon id="Fill-45" fill="#CA1F40" mask="url(#mask-4)" points="486.077741 37.492 490.583901 37.492 490.583901 36.3428333 486.077741 36.3428333"></polygon>
                    <polygon id="Fill-46" fill="#CA1F40" mask="url(#mask-4)" points="495.088891 37.492 499.593881 37.492 499.593881 36.3428333 495.088891 36.3428333"></polygon>
                    <polygon id="Fill-47" fill="#CA1F40" mask="url(#mask-4)" points="413.997906 37.492 418.504066 37.492 418.504066 36.3428333 413.997906 36.3428333"></polygon>
                    <polygon id="Fill-48" fill="#CA1F40" mask="url(#mask-4)" points="423.009055 37.492 427.514045 37.492 427.514045 36.3428333 423.009055 36.3428333"></polygon>
                    <polygon id="Fill-49" fill="#CA1F40" mask="url(#mask-4)" points="404.989097 37.492 409.494086 37.492 409.494086 36.3428333 404.989097 36.3428333"></polygon>
                    <polygon id="Fill-50" fill="#CA1F40" mask="url(#mask-4)" points="558.158747 37.492 562.664908 37.492 562.664908 36.3428333 558.158747 36.3428333"></polygon>
                    <polygon id="Fill-51" fill="#CA1F40" mask="url(#mask-4)" points="432.019035 37.492 436.524025 37.492 436.524025 36.3428333 432.019035 36.3428333"></polygon>
                    <polygon id="Fill-52" fill="#CA1F40" mask="url(#mask-4)" points="549.149938 37.492 553.654928 37.492 553.654928 36.3428333 549.149938 36.3428333"></polygon>
                    <polygon id="Fill-53" fill="#CA1F40" mask="url(#mask-4)" points="386.969138 37.492 391.474127 37.492 391.474127 36.3428333 386.969138 36.3428333"></polygon>
                    <polygon id="Fill-54" fill="#CA1F40" mask="url(#mask-4)" points="450.037823 37.492 454.543984 37.492 454.543984 36.3428333 450.037823 36.3428333"></polygon>
                    <polygon id="Fill-55" fill="#CA1F40" mask="url(#mask-4)" points="540.138789 37.492 544.643778 37.492 544.643778 36.3428333 540.138789 36.3428333"></polygon>
                    <polygon id="Fill-56" fill="#CA1F40" mask="url(#mask-4)" points="522.117659 37.492 526.623819 37.492 526.623819 36.3428333 522.117659 36.3428333"></polygon>
                    <polygon id="Fill-57" fill="#CA1F40" mask="url(#mask-4)" points="531.128809 37.492 535.633799 37.492 535.633799 36.3428333 531.128809 36.3428333"></polygon>
                    <polygon id="Fill-58" fill="#CA1F40" mask="url(#mask-4)" points="568.828398 103.096 569.980103 103.096 569.980103 98.532 568.828398 98.532"></polygon>
                    <polygon id="Fill-59" fill="#CA1F40" mask="url(#mask-4)" points="568.828398 93.968 569.980103 93.968 569.980103 89.404 568.828398 89.404"></polygon>
                    <polygon id="Fill-60" fill="#CA1F40" mask="url(#mask-4)" points="568.828398 75.712 569.980103 75.712 569.980103 71.148 568.828398 71.148"></polygon>
                    <polygon id="Fill-61" fill="#CA1F40" mask="url(#mask-4)" points="568.828398 66.584 569.980103 66.584 569.980103 62.02 568.828398 62.02"></polygon>
                    <polygon id="Fill-62" fill="#CA1F40" mask="url(#mask-4)" points="568.828398 57.456 569.980103 57.456 569.980103 52.892 568.828398 52.892"></polygon>
                    <polygon id="Fill-63" fill="#CA1F40" mask="url(#mask-4)" points="568.828398 48.328 569.980103 48.328 569.980103 43.764 568.828398 43.764"></polygon>
                    <polygon id="Fill-64" fill="#CA1F40" mask="url(#mask-4)" points="568.828398 84.84 569.980103 84.84 569.980103 80.276 568.828398 80.276"></polygon>
                    <polygon id="Fill-65" fill="#CA1F40" mask="url(#mask-4)" points="558.107248 110.525333 562.626283 110.525333 562.626283 109.376167 558.107248 109.376167"></polygon>
                    <polygon id="Fill-66" fill="#CA1F40" mask="url(#mask-4)" points="551.328111 110.525333 553.589384 110.525333 553.589384 109.376167 551.328111 109.376167"></polygon>
                    <polygon id="Fill-67" fill="#CA1F40" mask="url(#mask-4)" points="567.152809 36.3427167 567.152809 37.4918833 568.828867 37.4918833 568.828867 39.1998833 569.980571 39.1998833 569.980571 36.3427167"></polygon>
                    <polygon id="Fill-68" fill="#CA1F40" mask="url(#mask-4)" points="568.828398 109.376167 567.146489 109.376167 567.146489 110.525333 569.980103 110.525333 569.980103 107.669333 568.828398 107.669333"></polygon>
                    <polygon id="Fill-69" fill="#CA1F40" mask="url(#mask-4)" points="382.38807 37.4922333 382.464148 37.4922333 382.464148 36.3430667 382.38807 36.3430667 382.38807 32.9784 376.418871 36.7000667 382.38807 40.4217333"></polygon>
                    <polygon id="Fill-70" fill="#222E65" mask="url(#mask-4)" points="47.1018973 109.376167 46.8420616 109.376167 46.8420616 110.525333 47.1018973 110.525333 47.1018973 113.660167 52.4355524 109.912833 47.1018973 106.166667"></polygon>
                    <polygon id="Fill-71" fill="#222E65" mask="url(#mask-4)" points="6.5438809 37.492 10.5221766 37.492 10.5221766 36.3428333 6.5438809 36.3428333"></polygon>
                    <polygon id="Fill-72" fill="#222E65" mask="url(#mask-4)" points="-3.46944695e-18 75.712 1.15170431 75.712 1.15170431 71.148 -3.46944695e-18 71.148"></polygon>
                    <polygon id="Fill-73" fill="#222E65" mask="url(#mask-4)" points="-3.46944695e-18 48.328 1.15170431 48.328 1.15170431 43.764 -3.46944695e-18 43.764"></polygon>
                    <polygon id="Fill-74" fill="#222E65" mask="url(#mask-4)" points="-3.46944695e-18 93.968 1.15170431 93.968 1.15170431 89.404 -3.46944695e-18 89.404"></polygon>
                    <polygon id="Fill-75" fill="#222E65" mask="url(#mask-4)" points="-3.46944695e-18 57.456 1.15170431 57.456 1.15170431 52.892 -3.46944695e-18 52.892"></polygon>
                    <polygon id="Fill-76" fill="#222E65" mask="url(#mask-4)" points="-3.46944695e-18 103.096 1.15170431 103.096 1.15170431 98.532 -3.46944695e-18 98.532"></polygon>
                    <polygon id="Fill-77" fill="#222E65" mask="url(#mask-4)" points="-3.46944695e-18 84.84 1.15170431 84.84 1.15170431 80.276 -3.46944695e-18 80.276"></polygon>
                    <polygon id="Fill-78" fill="#222E65" mask="url(#mask-4)" points="-3.46944695e-18 66.584 1.15170431 66.584 1.15170431 62.02 -3.46944695e-18 62.02"></polygon>
                    <polygon id="Fill-79" fill="#222E65" mask="url(#mask-4)" points="27.3564887 110.525333 32.2254825 110.525333 32.2254825 109.376167 27.3564887 109.376167"></polygon>
                    <polygon id="Fill-80" fill="#222E65" mask="url(#mask-4)" points="7.88051335 110.525333 12.7495072 110.525333 12.7495072 109.376167 7.88051335 109.376167"></polygon>
                    <polygon id="Fill-81" fill="#222E65" mask="url(#mask-4)" points="37.0944764 110.525333 41.9634702 110.525333 41.9634702 109.376167 37.0944764 109.376167"></polygon>
                    <polygon id="Fill-82" fill="#222E65" mask="url(#mask-4)" points="17.6196715 110.525333 22.4886653 110.525333 22.4886653 109.376167 17.6196715 109.376167"></polygon>
                    <polygon id="Fill-83" fill="#222E65" mask="url(#mask-4)" points="1.15217248 107.668867 0.000468172485 107.668867 0.000468172485 110.526033 3.01198768 110.526033 3.01198768 109.3757 1.15217248 109.3757"></polygon>
                    <polygon id="Fill-84" fill="#222E65" mask="url(#mask-4)" points="1.15217248 37.4922333 2.56488296 37.4922333 2.56488296 36.3430667 0.000468172485 36.3430667 0.000468172485 39.1990667 1.15217248 39.1990667"></polygon>
                    <polygon id="Fill-85" fill="#222E65" mask="url(#mask-4)" points="14.5016427 37.492 16.4902053 37.492 16.4902053 36.3428333 14.5016427 36.3428333"></polygon>
                </g>
            </g>
        </g>
    </g>
</svg>