<?xml version="1.0" encoding="UTF-8"?>
<svg width="40px" height="40px" viewBox="0 0 40 40" version="1.1" xmlns="http://www.w3.org/2000/svg" xmlns:xlink="http://www.w3.org/1999/xlink">
    <!-- Generator: Sketch 54.1 (76490) - https://sketchapp.com -->
    <title>Media Library / Icon / Video Copy</title>
    <desc>Created with Sketch.</desc>
    <g id="Media-Library-/-Icon-/-Video-Copy" stroke="none" stroke-width="1" fill="none" fill-rule="evenodd">
        <g id="Group" transform="translate(19.333333, 20.000000) scale(-1, 1) rotate(-180.000000) translate(-19.333333, -20.000000) translate(1.333333, 0.000000)" fill="#70AFDC">
            <path d="M15.7501014,39.3010932 C11.6896552,38.8127761 8.3030426,37.2257455 5.42839757,34.4649067 C3.78701826,32.8967502 2.76267748,31.5253663 1.80446247,29.5817357 C-1.10831643,23.7311668 -0.453549696,16.7252621 3.48356998,11.4569793 C4.17606491,10.5365658 6.07342799,8.62104559 6.71845842,8.17971295 C7.69574037,7.52233212 8.86247465,7.92631814 9.10912779,9.00615751 C9.26085193,9.68241243 9.10912779,9.92657098 7.55334686,11.447743 C5.99756592,12.968915 5.29533469,13.8893285 4.48924949,15.476359 C3.03772819,18.3408046 2.61095335,21.8244813 3.32251521,25.0270544 C4.4040568,29.9760839 8.14198783,34.0797947 13.0182556,35.6764632 C14.8774848,36.2868595 16.6989858,36.512144 18.7200811,36.3808284 C24.5160243,35.9957165 29.6389452,32.0891797 31.5172414,26.6233212 C32.7789047,22.9420689 32.5135903,18.8568305 30.8056795,15.476359 C29.9991886,13.8893285 29.2973631,12.968915 27.7509128,11.4569793 C26.9634888,10.6775191 26.2616633,9.95427977 26.2044625,9.84183833 C25.9010142,9.28766268 26.2421907,8.33913884 26.8494929,8.01988548 C27.2762677,7.79460103 27.9501014,7.79460103 28.3200811,8.01988548 C28.4815416,8.11385439 28.9651116,8.50820257 29.4109533,8.89331449 C33.1204868,12.1143601 35.28357,16.8943259 35.2933063,21.8529932 C35.3026369,26.454659 33.5667343,30.7085595 30.369574,33.9862274 C27.6085193,36.803287 24.3075051,38.5312709 20.4933063,39.1601398 C19.4121704,39.3388414 16.736714,39.4139362 15.7501014,39.3010932 Z M15.4178499,34.2580947 C10.2283976,33.3376813 6.06369168,29.1869859 5.17200811,24.0407823 C4.96308316,22.8388637 4.96308316,20.8570834 5.17200811,19.7210233 C5.35212982,18.7162787 5.84543611,17.204343 6.27261663,16.3682606 C6.97484787,14.9691678 8.5306288,13.0251357 9.22312373,12.6681342 C10.1338742,12.1986912 11.2912779,12.9311668 11.2912779,13.973258 C11.2912779,14.5366699 11.2060852,14.6868595 10.5513185,15.4008626 C8.11318458,18.0211497 7.32576065,21.8240797 8.53995943,25.1390942 C9.65922921,28.2099502 12.1922921,30.4451253 15.4369168,31.2430579 C16.6227181,31.5342009 18.6718053,31.5342009 19.8576065,31.2430579 C21.0340771,30.9519149 22.0109533,30.5294564 22.9789047,29.8905481 C25.8819473,27.96539 27.4754564,24.8286755 27.2953347,21.4200937 C27.1622718,19.0817134 26.2993915,17.0722243 24.6296146,15.2783818 C23.9752535,14.5740165 23.83286,14.2266528 23.9464503,13.6162564 C24.0791075,12.9118911 24.9046653,12.3673533 25.6539554,12.4986688 C25.948073,12.5456533 26.1756592,12.6958429 26.6498986,13.1371756 C29.6389452,15.9554399 30.9574037,20.5944523 29.9711968,24.773258 C28.8137931,29.6564289 24.6965517,33.4786346 19.7346856,34.2769688 C18.6150101,34.4556704 16.451927,34.4460326 15.4178499,34.2580947 Z M16.7083164,26.3321782 C15.5509128,26.1068937 14.241785,25.1394958 13.6726166,24.097003 C13.1411765,23.1014948 12.9610548,21.9088124 13.1983773,20.89443 C13.4640974,19.7676062 14.4125761,18.5090652 15.4373225,17.9645274 C16.4146045,17.4292258 17.7237323,17.2790362 18.8336714,17.560943 C21.1959432,18.1713393 22.6758621,20.6599093 22.0592292,22.9890533 C21.43286,25.355544 19.1180527,26.8020228 16.7083164,26.3321782 Z M16.6515213,16.1899606 C15.3423935,16.0020228 14.0425963,15.0350264 13.4640974,13.8234699 C12.6957404,12.1894549 12.7241379,10.1141072 13.5590264,7.52233212 C14.1281947,5.75659999 14.1565923,5.57829999 14.2231237,3.38087306 C14.2896552,1.14569793 14.3371197,0.930051313 14.8588235,0.526065293 C15.3614604,0.131717112 16.0636917,0.00040157656 17.6478702,0.00040157656 C19.3744422,0.00040157656 20.0482759,0.15059121 20.5509128,0.648546144 C20.9776876,1.07100469 21.063286,1.48422697 21.063286,3.16522644 C21.063286,5.05263628 21.1772819,5.81362386 21.6896552,7.40065442 C22.3914807,9.569971 22.5529412,11.0349223 22.2397566,12.5187477 C21.6795132,15.2322005 19.5922921,16.6031829 16.6515213,16.1899606 Z" id="Combined-Shape"></path>
        </g>
    </g>
</svg>