<?xml version="1.0" encoding="UTF-8"?>
<svg width="370px" height="49px" viewBox="0 0 370 49" version="1.1" xmlns="http://www.w3.org/2000/svg" xmlns:xlink="http://www.w3.org/1999/xlink">
    <!-- Generator: Sketch 54.1 (76490) - https://sketchapp.com -->
    <title>ncc-credit-logo</title>
    <desc>Created with Sketch.</desc>
    <g id="Design-v3" stroke="none" stroke-width="1" fill="none" fill-rule="evenodd">
        <g id="2.0-About-Copy-3" transform="translate(-165.000000, -406.000000)">
            <g id="Group" transform="translate(164.000000, 280.000000)">
                <g id="ncc-credit-logo" transform="translate(1.000000, 126.000000)">
                    <g id="Group-49" transform="translate(67.959184, 0.000000)">
                        <polygon id="Fill-1" fill="#222D66" points="0 48.9050549 250.97888 48.9050549 250.97888 0 0 0"></polygon>
                        <polygon id="Fill-2" fill="#CA1F40" points="250.961842 10.1632862 301.474683 10.1632862 301.474683 0.00387231816 250.961842 0.00387231816"></polygon>
                        <polygon id="Fill-3" fill="#CA1F40" points="250.961842 29.5403663 301.474683 29.5403663 301.474683 19.3809524 250.961842 19.3809524"></polygon>
                        <polygon id="Fill-4" fill="#FFFFFF" points="250.961842 19.3809524 301.474683 19.3809524 301.474683 10.1648352 250.961842 10.1648352"></polygon>
                        <polygon id="Fill-5" fill="#FFFFFF" points="250.961842 38.7549346 301.474683 38.7549346 301.474683 29.5388174 250.961842 29.5388174"></polygon>
                        <polygon id="Fill-6" fill="#CA1F40" points="250.961842 48.9112507 301.474683 48.9112507 301.474683 38.7549346 250.961842 38.7549346"></polygon>
                        <path d="M9.46146729,20.0655008 L11.5269618,20.0655008 L14.0648791,24.6689126 C14.1709806,24.8702732 14.3065118,25.1397865 14.4009963,25.3395981 C14.4412684,25.4216913 14.5752507,25.7818168 14.6139738,25.8507441 L14.6821266,25.8507441 L14.6286886,24.8578817 C14.5884165,24.1864218 14.5884165,24.1058776 14.5884165,23.7287138 L14.5884165,20.0655008 L16.5749158,20.0655008 L16.5749158,29.9151293 L14.8044919,29.9151293 L12.1852559,25.1397865 C11.9715039,24.7502313 11.9575636,24.7099592 11.4464176,23.5141873 L11.3813626,23.5141873 C11.395303,23.797641 11.4464176,25.0460764 11.4464176,25.3001005 L11.4464176,29.9151293 L9.46146729,29.9151293 L9.46146729,20.0655008 Z" id="Fill-7" fill="#FFFFFF"></path>
                        <path d="M22.5849859,21.8239205 L22.5330968,21.8239205 L21.4581413,26.2778608 L23.6723328,26.2778608 L22.5849859,21.8239205 Z M23.859753,20.065888 L26.7074558,29.914742 L24.5978168,29.914742 L24.1029346,27.9561235 L21.0833009,27.9561235 L20.5729294,29.914742 L18.4648394,29.914742 L21.2451638,20.065888 L23.859753,20.065888 Z" id="Fill-9" fill="#FFFFFF"></path>
                        <polygon id="Fill-10" fill="#FFFFFF" points="34.1399058 20.0655008 34.1399058 21.8645798 31.6856306 21.8645798 31.6856306 29.9151293 29.4303925 29.9151293 29.4303925 21.8645798 26.9211303 21.8645798 26.9211303 20.0655008"></polygon>
                        <polygon id="Fill-11" fill="#FFFFFF" points="36.7204961 29.9148969 36.711977 20.0660429 38.8944155 20.0660429 38.8944155 29.9148969"></polygon>
                        <g id="Group-16" transform="translate(41.046572, 19.481633)" fill="#FFFFFF">
                            <path d="M2.90648456,7.14713762 C2.90648456,8.17872318 3.10784511,8.91756149 4.07437572,8.91756149 C5.24304134,8.91756149 5.24304134,7.83253794 5.24304134,7.14713762 L5.24304134,3.7255573 C5.24304134,3.03938252 5.24304134,2.20915751 4.10070748,2.20915751 C2.90648456,2.20915751 2.90648456,3.33600209 2.90648456,3.7255573 L2.90648456,7.14713762 Z M0.705458922,4.06090005 C0.705458922,3.05332287 0.879713239,2.08911565 1.56588802,1.33556253 C2.18236107,0.650936682 3.10784511,0.397687075 4.03410361,0.397687075 C5.04013187,0.397687075 5.96639037,0.637770801 6.62313553,1.35105181 C7.1753281,1.9388697 7.4820157,2.81091575 7.4820157,4.39546834 L7.4820157,6.78313972 C7.4820157,8.16633176 7.25354893,9.05231816 6.63630141,9.72377813 C5.81846782,10.6089901 4.63663632,10.7042491 4.00622292,10.7042491 C3.03891784,10.7042491 1.45513972,10.3534171 0.959482993,8.68986918 C0.744956567,7.99285191 0.705458922,7.13087389 0.705458922,6.7025955 L0.705458922,4.06090005 Z" id="Fill-12"></path>
                            <path d="M10.0990058,0.583868132 L12.1660492,0.583868132 L14.7016431,5.18727996 C14.8085191,5.3886405 14.9432758,5.65815385 15.0385348,5.85796546 C15.0795814,5.94005861 15.2127891,6.3001842 15.2530612,6.36911146 L15.3181162,6.36911146 L15.2654526,5.37624908 C15.2244061,4.70478912 15.2244061,4.6242449 15.2244061,4.24708111 L15.2244061,0.583868132 L17.2116797,0.583868132 L17.2116797,10.4334966 L15.4389325,10.4334966 L12.8227943,5.65815385 C12.6090424,5.26859864 12.5943276,5.22832653 12.085505,4.03255468 L12.0173522,4.03255468 C12.032067,4.31600837 12.085505,5.56444375 12.085505,5.81846782 L12.085505,10.4334966 L10.0990058,10.4334966 L10.0990058,0.583868132 Z" id="Fill-14"></path>
                        </g>
                        <path d="M64.2691743,21.8239205 L64.2165107,21.8239205 L63.1438786,26.2778608 L65.3572957,26.2778608 L64.2691743,21.8239205 Z M65.5439414,20.065888 L68.3900952,29.914742 L66.2843286,29.914742 L65.787123,27.9561235 L62.7674893,27.9561235 L62.2555688,29.914742 L60.1490277,29.914742 L62.9293522,20.065888 L65.5439414,20.065888 Z" id="Fill-17" fill="#FFFFFF"></path>
                        <polygon id="Fill-18" fill="#FFFFFF" points="70.0004375 20.0655008 72.2014631 20.0655008 72.2014631 28.0781015 76.537685 28.0781015 76.537685 29.9151293 70.0004375 29.9151293"></polygon>
                        <g id="Group-27" transform="translate(82.093145, 19.481633)" fill="#FFFFFF">
                            <path d="M0.37437572,3.89872737 C0.37437572,1.64348927 1.58253898,0.369496599 3.87804919,0.369496599 C4.46741601,0.369496599 5.35417687,0.491087389 6.03647933,1.02624176 C6.92401465,1.72558242 7.03011617,2.93374568 7.05799686,3.72447305 L4.89801779,3.72447305 C4.88330298,3.24120774 4.85697122,2.16780115 3.78356463,2.16780115 C3.51327682,2.16780115 3.17870853,2.27622606 2.9641821,2.47603768 C2.61489901,2.79821455 2.60250759,3.28147985 2.60250759,3.54866981 L2.60250759,7.29552486 C2.60250759,7.83377708 2.60250759,8.86536264 3.79595604,8.86536264 C4.68194244,8.86536264 4.95068132,8.13969021 4.95068132,7.08099843 L7.12614966,7.08099843 C7.11143485,7.79040712 7.09749451,7.8717258 7.03011617,8.28761277 C6.94957195,8.67639351 6.81636421,9.38735113 5.99620722,10.0456452 C5.29841549,10.6094547 4.28077028,10.7047138 3.8501685,10.7047138 C2.70860911,10.7047138 1.91788174,10.4336515 1.29985976,9.83111879 C0.896364207,9.44156358 0.37437572,8.87775406 0.37437572,6.86492308 L0.37437572,3.89872737 Z" id="Fill-19"></path>
                            <path d="M11.7402491,7.14713762 C11.7402491,8.17872318 11.9416096,8.91756149 12.9089147,8.91756149 C14.0760314,8.91756149 14.0760314,7.83253794 14.0760314,7.14713762 L14.0760314,3.7255573 C14.0760314,3.03938252 14.0760314,2.20915751 12.9367954,2.20915751 C11.7402491,2.20915751 11.7402491,3.33600209 11.7402491,3.7255573 L11.7402491,7.14713762 Z M9.53922344,4.06090005 C9.53922344,3.05332287 9.71425222,2.08911565 10.3988781,1.33556253 C11.0153511,0.650936682 11.9416096,0.397687075 12.8670937,0.397687075 C13.8746709,0.397687075 14.8009294,0.637770801 15.4592234,1.35105181 C16.0083182,1.9388697 16.3173291,2.81091575 16.3173291,4.39546834 L16.3173291,6.78313972 C16.3173291,8.16633176 16.0880879,9.05231816 15.4716149,9.72377813 C14.6537813,10.6089901 13.4719498,10.7042491 12.8399874,10.7042491 C11.8750058,10.7042491 10.2912276,10.3534171 9.79402198,8.68986918 C9.57872109,7.99285191 9.53922344,7.13087389 9.53922344,6.7025955 L9.53922344,4.06090005 Z" id="Fill-21"></path>
                            <path d="M18.9342418,0.583868132 L20.9997363,0.583868132 L23.5361047,5.18727996 C23.6429806,5.3886405 23.7800607,5.65815385 23.8737708,5.85796546 C23.9140429,5.94005861 24.0472507,6.3001842 24.0859738,6.36911146 L24.1541266,6.36911146 L24.0991397,5.37624908 C24.0588676,4.70478912 24.0588676,4.6242449 24.0588676,4.24708111 L24.0588676,0.583868132 L26.0476902,0.583868132 L26.0476902,10.4334966 L24.274943,10.4334966 L21.6572559,5.65815385 C21.4435039,5.26859864 21.4287891,5.22832653 20.9184176,4.03255468 L20.8518137,4.03255468 C20.8680774,4.31600837 20.9184176,5.56444375 20.9184176,5.81846782 L20.9184176,10.4334966 L18.9342418,10.4334966 L18.9342418,0.583868132 Z" id="Fill-23"></path>
                            <path d="M33.2800188,3.22788697 C32.9717823,2.63852015 32.3390455,2.12659969 31.5761988,2.12659969 C30.4470309,2.12659969 30.422248,2.9738629 30.422248,3.08151334 C30.422248,3.77853061 31.0666018,4.06043537 31.66836,4.27573626 L32.9152465,4.73112088 C33.5092601,4.94642177 34.2047284,5.34836839 34.5935092,5.88429723 C34.7150999,6.04616013 35.1449273,6.69051387 35.1449273,7.6183213 C35.1449273,8.0589911 35.1449273,9.37480481 33.7477949,10.2197446 C33.1731429,10.5690277 32.3545348,10.7177248 31.8550058,10.7177248 C30.1271774,10.7177248 29.1064343,10.3002889 28.2196735,8.71651073 L29.8979362,7.60360649 C30.2603851,8.43615489 30.9171303,8.94575196 31.7620701,8.94575196 C32.232944,8.94575196 33.0771094,8.73045107 33.0771094,7.83207326 C33.0771094,7.09168603 32.6751627,6.93292098 31.1990351,6.35362219 C29.708967,5.77974464 28.421034,5.12145055 28.421034,3.17599791 C28.421034,1.55117321 29.6028655,0.381733124 31.6280879,0.381733124 C33.0771094,0.381733124 34.0978524,0.974972266 34.9048435,2.15370591 L33.2800188,3.22788697 Z" id="Fill-25"></path>
                        </g>
                        <polygon id="Fill-28" fill="#FFFFFF" points="125.826874 20.0655008 125.826874 21.8645798 123.370275 21.8645798 123.370275 29.9151293 121.115037 29.9151293 121.115037 21.8645798 118.605775 21.8645798 118.605775 20.0655008"></polygon>
                        <polygon id="Fill-29" fill="#FFFFFF" points="128.050591 29.9144322 130.23303 29.9144322 130.23303 20.0655782 128.050591 20.0655782"></polygon>
                        <polygon id="Fill-30" fill="#FFFFFF" points="139.729425 20.0655008 139.729425 21.8645798 137.272052 21.8645798 137.272052 29.9151293 135.019138 29.9151293 135.019138 21.8645798 132.509875 21.8645798 132.509875 20.0655008"></polygon>
                        <path d="M141.727619,20.0655008 L143.970466,20.0655008 L143.970466,26.5624762 C143.970466,27.1526175 143.970466,28.3739466 145.297896,28.3739466 C145.713783,28.3739466 146.681088,28.3739466 146.681088,26.5756421 L146.681088,20.0655008 L148.868948,20.0655008 L148.868948,26.5864846 C148.868948,27.1804982 148.853459,28.6008645 147.848205,29.4194725 C147.162805,29.9708906 146.318639,30.1730256 145.419487,30.1730256 C144.386353,30.1730256 143.325338,29.9151293 142.721256,29.3528687 C141.768666,28.4521675 141.727619,27.3253229 141.727619,26.4393365 L141.727619,20.0655008 Z" id="Fill-31" fill="#FFFFFF"></path>
                        <polygon id="Fill-33" fill="#FFFFFF" points="158.100245 20.0655008 158.100245 21.8645798 155.643646 21.8645798 155.643646 29.9151293 153.390732 29.9151293 153.390732 21.8645798 150.880695 21.8645798 150.880695 20.0655008"></polygon>
                        <polygon id="Fill-34" fill="#FFFFFF" points="160.34193 29.9148969 160.32799 20.0660429 162.511203 20.0660429 162.511203 29.9148969"></polygon>
                        <g id="Group-41" transform="translate(164.960754, 19.481633)" fill="#FFFFFF">
                            <path d="M2.61458922,7.14713762 C2.61458922,8.17872318 2.81440084,8.91756149 3.78093145,8.91756149 C4.94882261,8.91756149 4.94882261,7.83253794 4.94882261,7.14713762 L4.94882261,3.7255573 C4.94882261,3.03938252 4.94882261,2.20915751 3.80803768,2.20915751 C2.61458922,2.20915751 2.61458922,3.33600209 2.61458922,3.7255573 L2.61458922,7.14713762 Z M0.411240188,4.06090005 C0.411240188,3.05332287 0.587043433,2.08911565 1.27244375,1.33556253 C1.8889168,0.650936682 2.81440084,0.397687075 3.7414338,0.397687075 C4.74823653,0.397687075 5.6729461,0.637770801 6.33201465,1.35105181 C6.88265829,1.9388697 7.18934589,2.81091575 7.18934589,4.39546834 L7.18934589,6.78313972 C7.18934589,8.16633176 6.96165358,9.05231816 6.34285714,9.72377813 C5.52502355,10.6089901 4.34474097,10.7042491 3.71510204,10.7042491 C2.74779696,10.7042491 1.16324437,10.3534171 0.666813187,8.68986918 C0.453061224,7.99285191 0.411240188,7.13087389 0.411240188,6.7025955 L0.411240188,4.06090005 Z" id="Fill-35"></path>
                            <path d="M9.80788488,0.583868132 L11.8733794,0.583868132 L14.4097478,5.18727996 C14.5173982,5.3886405 14.650606,5.65815385 14.7474139,5.85796546 C14.7853626,5.94005861 14.9208938,6.3001842 14.959617,6.36911146 L15.0285442,6.36911146 L14.9727828,5.37624908 C14.9317363,4.70478912 14.9317363,4.6242449 14.9317363,4.24708111 L14.9317363,0.583868132 L16.9197844,0.583868132 L16.9197844,10.4334966 L15.1478116,10.4334966 L12.5324479,5.65815385 C12.3155981,5.26859864 12.3039812,5.22832653 11.7928352,4.03255468 L11.7254568,4.03255468 C11.7401716,4.31600837 11.7928352,5.56444375 11.7928352,5.81846782 L11.7928352,10.4334966 L9.80788488,10.4334966 L9.80788488,0.583868132 Z" id="Fill-37"></path>
                            <path d="M23.4956002,3.89872737 C23.4956002,1.64348927 24.7022145,0.369496599 26.9969503,0.369496599 C27.5886405,0.369496599 28.473078,0.491087389 29.1592527,1.02624176 C30.0436902,1.72558242 30.1513407,2.93374568 30.1784469,3.72447305 L28.0161444,3.72447305 C28.0045275,3.24120774 27.9758723,2.16780115 26.9024657,2.16780115 C26.6345013,2.16780115 26.299933,2.27622606 26.0846321,2.47603768 C25.735349,2.79821455 25.7214087,3.28147985 25.7214087,3.54866981 L25.7214087,7.29552486 C25.7214087,7.83377708 25.7214087,8.86536264 26.9171805,8.86536264 C27.8031669,8.86536264 28.0695824,8.13969021 28.0695824,7.08099843 L30.2450508,7.08099843 C30.2311104,7.79040712 30.2179445,7.8717258 30.1513407,8.28761277 C30.0707964,8.67639351 29.9375887,9.38735113 29.1174317,10.0456452 C28.4211889,10.6094547 27.4004458,10.7047138 26.9698441,10.7047138 C25.8298336,10.7047138 25.0391062,10.4336515 24.4226332,9.83111879 C24.0175887,9.44156358 23.4956002,8.87775406 23.4956002,6.86492308 L23.4956002,3.89872737 Z" id="Fill-39"></path>
                        </g>
                        <polygon id="Fill-42" fill="#FFFFFF" points="197.715144 20.0655008 204.331387 20.0655008 204.331387 21.8645798 199.861957 21.8645798 199.861957 23.9571805 202.936578 23.9571805 202.936578 25.757034 199.890612 25.757034 199.890612 28.0781015 204.638849 28.0781015 204.638849 29.9151293 197.715144 29.9151293"></polygon>
                        <path d="M207.015523,20.0655008 L209.080243,20.0655008 L211.615837,24.6689126 C211.725811,24.8702732 211.859018,25.1397865 211.952728,25.3395981 C211.993775,25.4216913 212.128532,25.7818168 212.165706,25.8507441 L212.235408,25.8507441 L212.181195,24.8578817 C212.140149,24.1864218 212.140149,24.1058776 212.140149,23.7287138 L212.140149,20.0655008 L214.128971,20.0655008 L214.128971,29.9151293 L212.35545,29.9151293 L209.738537,25.1397865 C209.523236,24.7502313 209.51007,24.7099592 209.000473,23.5141873 L208.935418,23.5141873 C208.94781,23.797641 209.000473,25.0460764 209.000473,25.3001005 L209.000473,29.9151293 L207.015523,29.9151293 L207.015523,20.0655008 Z" id="Fill-43" fill="#FFFFFF"></path>
                        <polygon id="Fill-45" fill="#FFFFFF" points="223.373744 20.0655008 223.373744 21.8645798 220.917145 21.8645798 220.917145 29.9151293 218.662681 29.9151293 218.662681 21.8645798 216.154194 21.8645798 216.154194 20.0655008"></polygon>
                        <polygon id="Fill-46" fill="#FFFFFF" points="225.278924 20.0655008 231.895167 20.0655008 231.895167 21.8645798 227.424963 21.8645798 227.424963 23.9571805 230.498809 23.9571805 230.498809 25.757034 227.454392 25.757034 227.454392 28.0781015 232.204178 28.0781015 232.204178 29.9151293 225.278924 29.9151293"></polygon>
                        <path d="M236.579743,24.3204814 C237.800297,24.3204814 237.986168,24.3204814 238.298277,24.212831 C238.98058,23.9727473 239.034792,23.4329461 239.034792,22.8977917 C239.034792,22.2131659 238.820266,21.8762742 238.392762,21.7167347 C238.055096,21.5959184 237.787131,21.5959184 236.579743,21.5959184 L236.579743,24.3204814 Z M236.579743,29.9152067 L234.443772,29.9152067 L234.443772,20.0663527 L237.625268,20.0663527 C239.222987,20.0663527 241.248984,20.2816536 241.248984,22.924898 C241.248984,24.1733333 240.753327,25.1259236 239.370909,25.5433595 L241.518497,29.9152067 L239.168,29.9152067 L237.303866,25.8903192 L236.579743,25.8903192 L236.579743,29.9152067 Z" id="Fill-47" fill="#FFFFFF"></path>
                    </g>
                    <path d="M1.69601481,30.2040816 L0,30.2040816 L0,21.1733663 L2.60730635,21.1733663 L4.12612558,27.534529 L4.15143923,27.534529 L5.5436902,21.1733663 L8.22693751,21.1733663 L8.22693751,30.2040816 L6.37904077,30.2040816 L6.37904077,23.7666461 L6.36638395,23.7666461 C6.26512933,24.4378479 6.13856106,25.0632859 6.01199279,25.6429602 C5.88542452,26.4361987 5.15132856,28.7701505 4.89819202,30.2040816 L3.16420673,30.2040816 C2.92372702,28.7548959 2.20228789,26.2683983 2.08837644,25.612451 C1.91118087,24.727685 1.79726942,24.2395382 1.70867164,23.7208823 L1.69601481,23.7208823 L1.69601481,30.2040816 Z M9.58791867,30.2040816 L12.4103911,21.1428571 L14.2709446,21.1428571 L17.093417,30.2040816 L15.0683247,30.2040816 L14.5493948,28.419295 L11.9547453,28.419295 L11.4105017,30.2040816 L9.58791867,30.2040816 Z M12.4103911,26.8938363 L14.1190627,26.8938363 L13.7140442,25.5209235 L13.296369,24.025974 L13.2583985,24.025974 L12.8280664,25.5209235 L12.4103911,26.8938363 Z M18.4543982,30.2040816 L18.4543982,21.1733663 L21.0617045,21.1733663 C23.4032175,21.1733663 25.3143984,22.2259328 25.3143984,25.6277056 C25.3143984,29.1362606 23.365247,30.2040816 21.0617045,30.2040816 L18.4543982,30.2040816 Z M20.4288632,23.0039167 L20.4288632,28.419295 L21.1629592,28.419295 C22.7956898,28.419295 23.3272766,27.5802927 23.3272766,25.6582148 C23.3272766,23.8886827 22.783033,23.0039167 21.1503023,23.0039167 L20.4288632,23.0039167 Z M32.7000292,30.2040816 L26.9285161,30.2040816 L26.9285161,21.1733663 L32.5228336,21.1733663 L32.5228336,23.0344259 L28.9156379,23.0344259 L28.9156379,24.6971758 L31.5102874,24.6971758 L31.5102874,26.4972171 L28.9156379,26.4972171 L28.9156379,28.3887858 L32.7000292,28.3887858 L32.7000292,30.2040816 Z M37.9786705,30.2040816 L37.9786705,21.1733663 L41.307416,21.1733663 C42.6363828,21.1733663 44.1298884,21.4479489 44.1298884,23.400536 C44.1298884,24.6666667 43.4337629,25.2921047 42.6616965,25.4599052 L42.6616965,25.4904143 C43.5983017,25.688724 44.3197408,26.2226345 44.3197408,27.7023294 C44.3197408,29.6396619 42.8009216,30.2040816 41.4592979,30.2040816 L37.9786705,30.2040816 Z M39.8771946,22.8361163 L39.8771946,24.9107401 L41.1049068,24.9107401 C41.9149437,24.9107401 42.2313644,24.468357 42.2313644,23.8581736 C42.2313644,23.2632447 41.9276005,22.8361163 41.1428773,22.8361163 L39.8771946,22.8361163 Z M39.8771946,26.2989074 L39.8771946,28.5718409 L41.1808477,28.5718409 C42.0161983,28.5718409 42.3832463,28.0989487 42.3832463,27.4277469 C42.3832463,26.7260359 41.9782278,26.2989074 41.1428773,26.2989074 L39.8771946,26.2989074 Z M48.0855191,30.2040816 L48.0855191,26.4056895 L45.3389877,21.1733663 L47.4400209,21.1733663 L49.1740062,24.5598846 L50.8826779,21.1733663 L52.8571429,21.1733663 L50.0852978,26.4056895 L50.0852978,30.2040816 L48.0855191,30.2040816 Z" id="madeby" fill="#222D66" fill-rule="nonzero"></path>
                </g>
            </g>
        </g>
    </g>
</svg>