<svg xmlns="http://www.w3.org/2000/svg" width="350" height="350" viewBox="0.5 568.5 350 350"><path fill="#071b36" d="M142.7 873.3a32.2 32.2 0 0 0 21.8 22.8h.2l.2.1.2.1a32.5 32.5 0 0 0 19.4-.6l1-.4h-.1c9-3.5 16-11.2 19-20.5v-.4l.2-.4-.1-.3a32 32 0 1 0-61.8-.5zm31-39c8.1 0 15.6 3 21.3 8.5l-5.8 5.8a57 57 0 0 0-8.7-1.3v-5.8h-1.3v5.8l-1.5-.1h-2.1c-3.1 0-6.4.2-9.5.8v-6.5h-1.4v6.9a36 36 0 0 0-5.3 1.7c-4.4 1.9-7 4.2-7 6.5 0 5.2 6.2 7 12.3 7.9v8.7l-2.7 2.7h-.1l-1.4 1.4-2.1 2.2c-4.5-1.3-7.9-2.7-9-3.1l-.7-.2h-.3l-.6 1.3h1c1.1.5 4.2 1.8 8.3 3l-5.8 6a30.3 30.3 0 0 1-7-12.1h.1l-.4-.7v-.2l-.1-.2a31.3 31.3 0 0 1 29.9-39zm29.6 39.4l-.2.6h.1v.7c-3 8.8-10 15.8-18.7 19l-.2.1h-.4l-.3.2-.3.2a32.6 32.6 0 0 1-17.3.4h-.2l-.6-.2h-.1c-5-1.5-9.3-4-12.8-7.5l6.2-6.2v.1l.3-.2 6 1.5v6.6h1.4v-6.3c2.5.3 4.6.5 6.5.5h.1c2.2 0 4.3 0 6.4-.3v6h1.3v-6.1c2.9-.3 5.4-1 7.7-1.8 3-1 5.1-2.4 6.3-4.3h.1l.1-.2v-.2l.2-.2v-.1l.3-.6a7 7 0 0 0 .3-2c0-6-7.2-7.8-15-8.7v-5.5l9-9c3.2.7 5.3 1.5 6 1.8l.4.1h.3l.5-1-.4-.2c-.1 0-2.1-1-5.6-1.8l5.2-5.2a30.7 30.7 0 0 1 7.4 29.8zm-40 2.8l1.5-1.5v5.9l-4.8-1 3.3-3.4zm15.9 5a59.6 59.6 0 0 1-13-.2v-5h-.1v-2.7l8.1-8.1h.1l.1-.1 4.8.5v15.6zm-6.6-16.3l-6.5 6.5v-7c2 0 4.3.3 6.5.5zm6.6-4.7v3.9l-3.7-.4 3.7-3.5zm1.3 20.8V866c7.2.9 13.6 2.4 13.6 7.3a5 5 0 0 1-.5 2.3v.2l-.3.2c-1 1.6-3 3-5.6 3.8-2 .7-4.4 1.2-7.2 1.5zm7.3-31.4l-7.3 7.3v-8.5c2.5.1 5 .4 7.5 1l-.2.2zm-21.6-.6a47.2 47.2 0 0 1 13-.7v10l-5.4 5.3h-.2l-7.3-.7v-13.9h-.1zm-1.4.5V863c-7.7-1.2-11-3.3-11-6.6 0-1.3 1.9-3.4 6-5 1.6-.8 3.2-1.3 5-1.7zm108-109.2h-13v-.1l-.2.1v-.1l-.2.1h-14l-.1-.1-.1.1H231v-.1l-.2.1v-.1l-.2.1h-14l-.1-.1-.1.1h-12.7v-51.8H141v51.8H129l-.2-.2-.2.2v-.1l-.2.1h-13.8l-.2-.2-.2.2v-.1l-.1.1H99.9l-.2-.2v.1l-.2.1h-14l-.2-.2-.1.1-.1.1H73V902H273V787.9h-.2v-47.3zm-198.3 91v-42.4H160V829h25.2v-39.7h86.4v111.4h-197v-69h-.1zm0-75.6v-10l10 10h-10zm85.5 15.8v16H74.6v-30.5h11.2l.2.2.2-.2h14l.2.2.2-.2h14.1l.2.2.2-.2H129l.1.2.2-.2h14l.2.2h.2l.2-.2H158l.2.2H172.6l.3-.2h13.8l.1.2.2-.2h14l.1.1h.1l.3.1.2-.2h13.8v.1h.1l.2.1.2-.2h13.8l.1.1h.1l.2.1.2-.2h13.9v.1h.1l.1.1.2-.2h14l.2.2.2-.2h12.3v30.5h-86.1v-16H160zm5.7 29.9c0-3.5 2.8-6.5 6.2-7v3h1.4v-2.9c3.6.3 6.3 3.3 6.3 7v3h-13.9v-3.1zm6.2-8.3c-4.3.4-7.6 4-7.6 8.4v3.2h-2.9v-15.8H172v4.2zm12 12.8v21.3h-22.6v-21.3H184zm0-1.3h-3v-3.1c0-4.4-3.3-8-7.6-8.4v-4.2h10.6V805zm0-17h-10.6v-8.5H172v8.5h-10.5V773H184V788zm87.6-43v11h-11l11-11zM186.3 756h-12.5l5.8-5.8h12.5l-5.8 5.8zm-14-.5l-5.2-5.3h10.6l-5.3 5.3zm-19.5-5.3h12.5l5.8 5.8h-12.4l-5.9-5.8zm3.6 5.8H144l-5.8-5.8h12.5l5.9 5.8h-.3zm115.1-12.8l-13 13H246l14-14.1h11.5v1.1zM244 756h-12.5l14-14h12.6L244 756zm-14.5 0h-12.4l14-14h12.5l-14 14zm-.4-13.9l-14 14h-12.4l14-14.1h12.6l-.2.1zm-21.1 6.7h-4.5V742h11.3l-6.8 6.8zm-1.4 1.4l-5.9 5.8h-12.5l5.9-5.8h12.5zm-4.4-1.4h-36.3l-.2-.2-.2.2h-14l-.2-.2h-.1l-.1.1h-8.6v-58.6h59.8v58.7h-.1zm-61.3 0H137l-6.8-6.8H141v6.8zm-5 1l.5.4 5.8 5.8h-12.5l-14-14H128l7.8 7.7zm-8.1 6.2h-12.6l-14-14h12.5l14 14zm-14.5 0H101l-14-14h12.4l14 14zm-14.6 0H86.4l-11.7-11.8v-.4h-.1V742h10.3l14 14h-.2zm59.4-18.7c2.3 0 4.1-1 4.1-2.3s-1.7-2.3-4-2.3c-2.4 0-4.2 1-4.2 2.3 0 1.4 1.8 2.3 4.1 2.3zm0-3.4c1.8 0 3 .7 3 1.2 0 .6-1.2 1.2-3 1.2-1.7 0-2.9-.6-2.9-1.2 0-.4 1.2-1.2 3-1.2zm0-7.2c2.3 0 4.1-1 4.1-2.3s-1.7-2.3-4-2.3c-2.4 0-4.2 1-4.2 2.3 0 1.4 1.7 2.3 4.1 2.3zm0-3.5c1.8 0 3 .7 3 1.3l-.2.4c-.4.3-1.4.8-2.8.8-1.7 0-2.9-.6-2.9-1.2s1.2-1.3 3-1.3zm14.7 98.4h-1.3v-9.4h1.3v9.4zm153.7-57.4c2 2.5 2.8 6 2.1 9.5-.6 3.3-2.8 6.2-5.8 7.8a10.6 10.6 0 0 0-4.4 13.6 11.8 11.8 0 0 1-7.2 16.3 10.6 10.6 0 0 0-7.1 12.3c.8 3.3.1 6.8-2 9.6a12 12 0 0 1-8.6 4.8c-5.4.5-9.6 5.2-9.5 10.6 0 2-.5 4-1.5 5.8l-.9 1.7V853c.6-1.2 1-2.8 1-4.3-.1-6.3 4.6-11.6 10.8-12 3-.3 5.7-1.9 7.4-4.3 1.9-2.5 2.5-5.6 1.8-8.5-1.4-6 2-12.2 8-14a10.3 10.3 0 0 0 6.3-14.4 11.8 11.8 0 0 1 5-15.2 11 11 0 0 0 5.2-7c.7-3 0-6.1-1.8-8.6-3.8-4.8-3-11.9 1.6-16 2.3-2 3.6-5 3.6-7.8 0-3.1-1.3-6-3.6-7.9-4.7-4-5.4-11-1.6-16 1.8-2.4 2.4-5.5 1.8-8.5-.7-3-2.6-5.6-5.2-7-5.3-3-7.5-9.7-5-15.3a10.3 10.3 0 0 0-6.4-14.4c-6-1.8-9.4-8-8-14a10.4 10.4 0 0 0-9.2-12.8 12 12 0 0 1-10.7-12c0-3-1.2-5.9-3.4-7.9a10 10 0 0 0-8.3-2.6c-6.2.7-11.8-3.4-13-9.5a10.5 10.5 0 0 0-13.6-8 12 12 0 0 1-14.7-6.6c-1.3-2.8-3.5-5-6.4-5.8-.9-.3-1.8-.5-2.8-.6-2 0-4.1.5-5.8 1.6-1.5.9-3.2 1.4-4.8 1.5-4.1.5-8.3-1.3-10.8-5a10.2 10.2 0 0 0-13.7-3c-.7.3-1.2.7-1.8 1.3l-.6.6a12 12 0 0 1-3.3 2c-1.8.7-3.8 1-5.7.7-2.4-.3-4.8-1.3-6.6-3a10.5 10.5 0 0 0-8.3-2.8 10 10 0 0 0-7.4 4.4 11.8 11.8 0 0 1-14.8 3.7l-.8-.4-.3-.2c-2-1-4.2-1.5-6.4-1.2-.6 0-1.3.3-1.8.5-3 1-5.1 3-6.4 5.8a11.9 11.9 0 0 1-14.7 6.6 10.6 10.6 0 0 0-13.6 8c-1.2 6-6.9 10.2-13.1 9.5-3-.4-6 .6-8.2 2.6-2.3 2.2-3.5 5-3.4 8 0 6.2-4.7 11.5-10.8 12-3 .2-5.8 1.8-7.5 4.2A10.1 10.1 0 0 0 48 658c1.4 6-2 12.2-7.9 14a10.3 10.3 0 0 0-6.4 14.4c2.6 5.6.5 12.2-5 15.3a11 11 0 0 0-5.2 7c-.7 3 0 6 1.9 8.5 3.7 4.8 3 11.9-1.7 16-2.3 2-3.5 5-3.5 7.9 0 3 1.2 5.9 3.5 7.8 4.7 4 5.4 11 1.7 16a10.4 10.4 0 0 0-1.9 8.5c.8 3 2.6 5.6 5.3 7 5.3 3 7.5 9.8 4.9 15.3a10.3 10.3 0 0 0 6.4 14.4c6 1.8 9.4 8 8 14a10.4 10.4 0 0 0 9.2 12.8c1.2 0 2.5.3 3.5.8h.2v1.6l-.6-.3c-1.1-.5-2.1-.8-3.2-.8-3.3-.2-6.6-2-8.6-4.8-2-2.7-2.7-6.2-2-9.6a10.4 10.4 0 0 0-7-12.3 11.8 11.8 0 0 1-7.2-16.3c2.3-5 .4-10.9-4.5-13.6-2.9-1.7-5-4.5-5.7-7.8-.8-3.3 0-6.8 2-9.5a10.6 10.6 0 0 0-1.4-14.2c-2.5-2.3-4.1-5.6-4.1-9s1.5-6.5 4.1-9c4-3.5 4.8-9.8 1.5-14a11.6 11.6 0 0 1 3.7-17.4c4.8-2.6 6.7-8.6 4.4-13.6a11.8 11.8 0 0 1 7.2-16.3c5.2-1.6 8.4-7 7.2-12.3-.9-3.3-.2-6.8 1.9-9.6a12 12 0 0 1 8.6-4.8c5.4-.5 9.6-5.2 9.5-10.6a12 12 0 0 1 13.3-12c5.3.7 10.4-3 11.5-8.3.6-3.4 2.7-6.4 5.6-8 3-1.7 6.5-2.1 9.7-1 5 1.8 11-.7 13-5.7 1.3-3 4-5.5 7.2-6.6l2.2-.4c2.4-.4 4.9 0 7 1.4l.5.2.7.4a10.6 10.6 0 0 0 13.3-3.3c1.7-3 4.9-4.8 8.1-5.1h1.5c3 0 5.8 1.2 7.9 3.2a10.5 10.5 0 0 0 11 2 9 9 0 0 0 3.1-2h.1l.5-.5c.5-.4 1-.9 1.7-1.2a12.6 12.6 0 0 1 7.2-1.5c3.3.3 6.5 2 8.5 5a10.4 10.4 0 0 0 14 2.8c2-1.2 4-1.8 6.3-1.7a11.7 11.7 0 0 1 10.6 7.1c2 5 7.7 7.5 13 5.8a12 12 0 0 1 9.6 1c3 1.7 5 4.6 5.7 7.9 1 5.4 6 9.1 11.4 8.4 3.6-.4 7 .6 9.4 3 2.4 2.3 3.9 5.5 3.9 9 0 5.4 4.1 10.1 9.5 10.6 3.3.1 6.6 1.9 8.6 4.7 2 2.8 2.7 6.2 2 9.6a10.4 10.4 0 0 0 7 12.4 11.8 11.8 0 0 1 7.2 16.3c-2.3 5-.4 10.8 4.5 13.6 3 1.6 5 4.5 5.7 7.7.8 3.3 0 6.8-2 9.5a10.6 10.6 0 0 0 1.4 14.2c2.5 2.3 4.1 5.6 4.1 9s-1.5 6.6-4.1 9c-4.2 3.7-4.9 9.9-1.7 14.2zm-172.5-51c0-1.2 1.8-2.2 4.1-2.2 2.5 0 4.1.9 4.1 2.3 0 1.2-1.8 2.2-4 2.2-2.5 0-4.2-.9-4.2-2.2zm-74.5-67.6a134.3 134.3 0 0 0-39.7 95.6 134 134 0 0 0 20.9 72v2.7l-.8-1.2a136.3 136.3 0 0 1 115.3-210.1 136 136 0 0 1 96.7 40c25.8 25.9 40 60.2 40 96.7 0 31-10.1 60.3-29.3 84.6l-.9 1v-2.2h.1a134 134 0 0 0 28.7-83.5c0-36-14-70-39.6-95.6a134 134 0 0 0-95.7-39.7c-36 0-70.1 14.1-95.7 39.7zm110.8 57.3h-18v-1.3h18v1.3zm0 11h-18v-1.3h18v1.4zm-32.2-9.4c2.3 0 4.1-1 4.1-2.3s-1.7-2.3-4-2.3c-2.4 0-4.2 1-4.2 2.3 0 1.4 1.8 2.3 4.1 2.3zm0-3.4c1.8 0 3 .6 3 1.2s-1.2 1.2-3 1.2c-1.7 0-2.9-.7-2.9-1.2s1.2-1.2 3-1.2zm32.2 23.9h-18v-1.4h18v1.4zm0 11h-18v-1.3h18v1.3zM213 629.7v-1.4h-78.4v1.4h6.3l5 6.4-5 6.4h-6.3v1.4H213v-1.4h-11.7l5-12.9h6.7zm-66 5.3l-4.1-5.3h8.3l-4.2 5.3zm0 2.3l4.1 5.3h-8.3l4.2-5.3zm.9-1.2l5-6.4h8.3l5 6.4-5 6.4h-8.3l-5-6.4zm19.3-1.1l-4.2-5.3h8.4L167 635zm-.1 2.3l4.2 5.3h-8.4l4.2-5.3zm1-1.2l5-6.4h10.7v12.9H173l-5-6.5zm17.1-6.4h9.3l5 12.9h-14.3v-13zm10.9 0h8.8l-4.3 11.2-4.5-11.2z"/></svg>