<svg height="44" viewBox="0 0 142 44" width="142" xmlns="http://www.w3.org/2000/svg" xmlns:xlink="http://www.w3.org/1999/xlink"><mask id="a" fill="#fff"><path d="m.29473125.11007245h107.61742275v15.63705845h-107.61742275z" fill="#fff" fill-rule="evenodd"/></mask><mask id="b" fill="#fff"><path d="m0 32.818867h127.367823v-32.64564856h-127.367823z" fill="#fff" fill-rule="evenodd"/></mask><g fill="none" fill-rule="evenodd"><g transform="translate(6.650485)"><path d="m5.36854357 15.3229032h76.63043953v-15.00764564h-76.63043953zm.87847752-.8805796h74.87317031v-13.24617154h-74.87317031z" fill="#242f65"/><g transform="translate(0 .141724)"><path d="m31.0959373 27.8755711c1.5198258 0 2.4799637-1.3233889 2.4799637-3.4164975 0-2.0931087-.9601379-3.3623274-2.4799637-3.3623274-1.5333312 0-2.4799637 1.2692187-2.4799637 3.3623274 0 2.0931086.9466325 3.4164975 2.4799637 3.4164975" fill="#ca1f41"/><path d="m8.71172061 2.58174211c2.49284099 0 3.57295689 1.350159 3.99947549 3.14627675l-2.0531311.60783925c-.3197319-1.14796584-.79995792-1.93122813-1.95984977-1.93122813-1.49312912 0-2.29308703 1.28276128-2.29308703 3.34909979 0 2.10633623.82665458 3.42972513 2.3197837 3.42972513 1.15989185 0 1.7333992-.7426347 2.0798277-2.10633625l2.0399398.4588714c-.4799119 2.01216835-1.6529951 3.41681245-4.13295879 3.41681245-2.57324504 0-4.48001553-1.6748648-4.48001553-5.19907273 0-3.47066764 1.9868605-5.17198766 4.48001553-5.17198766zm9.50715579 0c2.372863 0 4.6395674 1.67423495 4.6395674 5.1855302 0 3.51066539-2.2667044 5.18553019-4.6395674 5.18553019-2.3866824 0-4.6533869-1.6748648-4.6533869-5.18553019 0-3.51129525 2.2667045-5.1855302 4.6533869-5.1855302zm5.8274122.18896557h2.1731091l4.1329588 6.37380869h.0266966v-6.37380869h2.0000518v9.99281432h-2.0000518l-4.3063301-6.42766389h-.0266967v6.42766389h-1.9997377zm13.5870353 5.84722464c-1.7597817-.49981394-3.5996535-.95900027-3.5996535-3.05179397 0-1.86351547 1.4397358-2.98439624 3.5597656-2.98439624 2.0264344 0 3.2262142.98577039 3.9200136 2.05248104l-1.5066345 1.16119343c-.520114-.85066001-1.4667466-1.41787167-2.4265704-1.41787167-.92025 0-1.4268586.40501621-1.4268586.99931293 0 .79680482.7333733 1.08056812 2.0267485 1.44495673 1.7333992.47272887 3.5729568 1.02639799 3.5729568 3.09242156 0 1.60715217-1.1997798 3.03856637-3.9460821 3.03856637-2.133221 0-3.4664842-1.026398-4.1998575-2.4578122l1.6398038-.98577038c.5468106 1.09379568 1.5330171 1.70131998 2.6665264 1.70131998.9997118 0 1.7198937-.378246 1.7198937-1.1476509 0-.75617718-.7066766-1.08056807-2.0000518-1.44495668zm4.3873624-5.84722464h8.0526583v1.83674534h-2.9460562v8.15606898h-2.1734231v-8.15606898h-2.933179zm9.2006152 9.99281432h2.1599177v-9.99281432h-2.1599177zm3.3201237-9.99281432h8.0529724v1.83674534h-2.9463703v8.15606898h-2.1734231v-8.15606898h-2.933179zm8.9471538 0h2.1731091v6.11713046c0 1.44495676.5468106 2.25530406 1.8401858 2.25530406 1.2798698 0 1.8131751-.7968048 1.8131751-2.25530406v-6.11713046h2.1332211v6.15775806c0 2.45781216-1.2264765 3.99725166-3.9730929 3.99725166-2.7463022 0-3.9865982-1.5394395-3.9865982-3.98370913zm8.8538725 0h8.0526584v1.83674534h-2.9460562v8.15606898h-2.1734232v-8.15606898h-2.933179zm9.2006152 9.99281432h2.1599178v-9.99281432h-2.1599178zm8.0931745-10.18177989c2.373177 0 4.6398814 1.67423495 4.6398814 5.1855302 0 3.51066539-2.2667044 5.18553019-4.6398814 5.18553019-2.3863684 0-4.6530728-1.6748648-4.6530728-5.18553019 0-3.51129525 2.2667044-5.1855302 4.6530728-5.1855302zm5.6810516.18896557h2.1731091l4.1329591 6.37380869h.026696v-6.37380869h2.000052v9.99281432h-2.000052l-4.3063298-6.42766389h-.0266967v6.42766389h-1.9997377zm-95.02256155 12.97658072h107.61742275v-15.63721595h-107.61742275z" fill="#ca1f41" mask="url(#a)" transform="translate(12.877218 16.691959)"/><path d="m102.513522 27.8755711c1.519826 0 2.479964-1.3233889 2.479964-3.4164975 0-2.0931087-.960138-3.3623274-2.479964-3.3623274-1.533331 0-2.479964 1.2692187-2.479964 3.3623274 0 2.0931086.946633 3.4164975 2.479964 3.4164975" fill="#ca1f41"/><path d="m10.0165911 11.4790285h1.6599048v-7.60334465h-1.6599048z" fill="#242f65" mask="url(#b)"/><path d="m14.8534312 6.58850508h.0204151l3.3097591 4.89042892h1.536786v-7.60302969h-1.536786v4.84948643h-.0207292l-3.1762757-4.84948643h-1.6702694v7.60302969h1.5371001z" fill="#242f65" mask="url(#b)"/><path d="m22.9798979 11.4790285h1.6702694v-6.20562931h2.2641918v-1.39771534h-6.1886025v1.39771534h2.2541413z" fill="#242f65" mask="url(#b)"/><path d="m33.2684182 10.1226966h-3.6784873v-1.89028554h2.5308445v-1.32559348h-2.5308445v-1.63329241h3.4941232v-1.39771534h-5.1640785v7.60334467h5.3484426z" fill="#242f65" mask="url(#b)"/><path d="m36.0463482 5.24231435h1.1372782c.9629646 0 1.4240318.27746445 1.4240318 1.02765776 0 .77034965-.4610672 1.04781409-1.4240318 1.04781409h-1.1372782zm0 3.37020095h.9629646l1.5782444 2.8666077h1.7619803l-1.6906845-3.08234339c1.0147876-.30832882 1.5782444-.96592901 1.5782444-2.16806498 0-1.684943-1.1168631-2.35293629-2.9815471-2.35293629h-2.8486918v7.60334466h1.6394897z" fill="#242f65" mask="url(#b)"/><path d="m44.3470343 5.98230353h.020101l.8712537 2.58914326h-1.7830236zm-1.3015413 3.80135739h2.5820392l.5637709 1.69533608h1.6906845l-2.6847429-7.63389408h-1.5882949l-2.6841147 7.63389408h1.536786z" fill="#242f65" mask="url(#b)"/><path d="m51.5101281 11.6229573c1.9058282 0 2.8072335-1.0689152 3.1762757-2.59953636l-1.5675657-.34927137c-.2666527 1.03773593-.7069907 1.60274303-1.5983454 1.60274303-1.1476428 0-1.7830236-1.00687159-1.7830236-2.60992952 0-1.5718786.6146516-2.54757083 1.7626085-2.54757083.8913547 0 1.2600828.59555649 1.5060063 1.46920731l1.5779303-.4626507c-.3278979-1.36653602-1.1576933-2.39387884-3.0738861-2.39387884-1.9161929 0-3.4426143 1.2947291-3.4426143 3.93489306 0 2.68173642 1.4651761 3.95599422 3.4426143 3.95599422" fill="#242f65" mask="url(#b)"/><path d="m57.3006361 11.4790285h1.6702694v-6.20562931h2.2641918v-1.39771534h-6.1886025v1.39771534h2.2541413z" fill="#242f65" mask="url(#b)"/><path d="m62.322594 11.4790285h1.6599048v-7.60334465h-1.6599048z" fill="#242f65" mask="url(#b)"/><path d="m69.2083251 11.5097984 2.612819-7.63389409h-1.5678798l-1.7930741 5.4352797h-.020101l-1.7318288-5.4352797h-1.6906845l2.6128189 7.63389409z" fill="#242f65" mask="url(#b)"/><path d="m78.1239769 10.1226966h-3.6784872v-1.89028554h2.5308444v-1.32559348h-2.5308444v-1.63329241h3.4941231v-1.39771534h-5.1640784v7.60334467h5.3484425z" fill="#242f65" mask="url(#b)"/><g fill="#ca1f41"><path d="m119.295175 8.36802535h.995001v-.25541846h-.995001z" mask="url(#b)"/><path d="m117.305174 8.36802535h.995001v-.25541846h-.995001z" mask="url(#b)"/><path d="m115.315173 8.36802535h.995v-.25541846h-.995z" mask="url(#b)"/><path d="m89.446098 8.36802535h.9950007v-.25541846h-.9950007z" mask="url(#b)"/><path d="m97.4057891 8.36802535h.9950007v-.25541846h-.9950007z" mask="url(#b)"/><path d="m107.355796 8.36802535h.994686v-.25541846h-.994686z" mask="url(#b)"/><path d="m85.4660955 8.36802535h.9950006v-.25541846h-.9950006z" mask="url(#b)"/><path d="m99.3957904 8.36802535h.9950006v-.25541846h-.9950006z" mask="url(#b)"/><path d="m101.385792 8.36802535h.995v-.25541846h-.995z" mask="url(#b)"/><path d="m113.325171 8.36802535h.995001v-.25541846h-.995001z" mask="url(#b)"/><path d="m105.365794 8.36802535h.995001v-.25541846h-.995001z" mask="url(#b)"/><path d="m109.345483 8.36802535h.995v-.25541846h-.995z" mask="url(#b)"/><path d="m103.375793 8.36802535h.995001v-.25541846h-.995001z" mask="url(#b)"/><path d="m87.4560968 8.36802535h.9950006v-.25541846h-.9950006z" mask="url(#b)"/><path d="m111.33517 8.36802535h.995001v-.25541846h-.995001z" mask="url(#b)"/><path d="m91.4360993 8.36802535h.9950007v-.25541846h-.9950007z" mask="url(#b)"/><path d="m95.4157878 8.36802535h.9950007v-.25541846h-.9950007z" mask="url(#b)"/><path d="m93.4257865 8.36802535h.9950007v-.25541846h-.9950007z" mask="url(#b)"/><path d="m121.285176 8.36771041h.995001v-.25541847h-.995001z" mask="url(#b)"/><path d="m123.274864 8.36771041h.995v-.25541847h-.995z" mask="url(#b)"/><path d="m125.631395 22.9435697h.254717v-1.0141152h-.254717z" mask="url(#b)"/><path d="m125.631395 20.9153392h.254717v-1.0141152h-.254717z" mask="url(#b)"/><path d="m125.631395 10.7754467h.254717v-1.01411521h-.254717z" mask="url(#b)"/><path d="m125.631395 18.8874237h.254717v-1.0141152h-.254717z" mask="url(#b)"/><path d="m125.631395 16.8591933h.254717v-1.0138003h-.254717z" mask="url(#b)"/><path d="m125.631395 14.8315927h.254717v-1.0141152h-.254717z" mask="url(#b)"/><path d="m125.631395 12.8033622h.254717v-1.0141152h-.254717z" mask="url(#b)"/><path d="m123.263557 24.594184h.998141v-.2554185h-.998141z" mask="url(#b)"/><path d="m84.4541346 8.36802535h.0169602v-.25541846h-.0169602z" mask="url(#b)"/><path d="m125.261222 8.11244942v.25541846h.370298v.37919091h.254404v-.63460937z" mask="url(#b)"/><path d="m121.766345 24.594184h.49907v-.2554185h-.49907z" mask="url(#b)"/><path d="m125.631426 24.338923h-.371869v.2554184h.626587v-.6349243h-.254718z" mask="url(#b)"/><path d="m84.454323 8.3677419h-.4805401v-.25541846h.4805401v-.74735883l-1.3181874.82672437 1.3181874.82703931z" mask="url(#b)"/><path d="m83.9735945 8.36771041h.4805401v-.25541847h-.4805401z" mask="url(#b)"/></g><path d="m10.402939 24.338923h.4805401v.2554184h-.4805401v.6963382l1.1781084-.8323934-1.1781084-.8327083z" fill="#242f65" mask="url(#b)"/><path d="m1.44507512 8.36802535h.8787916v-.25541846h-.8787916z" fill="#242f65" mask="url(#b)"/><path d="m.00031408 22.9435697h.25471765v-1.0141152h-.25471765z" fill="#242f65" mask="url(#b)"/><path d="m.00031408 18.8874237h.25471765v-1.0141152h-.25471765z" fill="#242f65" mask="url(#b)"/><path d="m.00031408 14.8315927h.25471765v-1.0141152h-.25471765z" fill="#242f65" mask="url(#b)"/><path d="m.00031408 10.7754467h.25471765v-1.01411521h-.25471765z" fill="#242f65" mask="url(#b)"/><path d="m.00031408 16.8591933h.25471765v-1.0138003h-.25471765z" fill="#242f65" mask="url(#b)"/><path d="m.00031408 12.8033622h.25471765v-1.0141152h-.25471765z" fill="#242f65" mask="url(#b)"/><path d="m.00031408 20.9156542h.25471765v-1.0141153h-.25471765z" fill="#242f65" mask="url(#b)"/><path d="m6.04224192 24.594184h1.07540474v-.2554185h-1.07540474z" fill="#242f65" mask="url(#b)"/><path d="m8.19305139 24.594184h1.07540474v-.2554185h-1.07540474z" fill="#242f65" mask="url(#b)"/><path d="m1.74093705 24.594184h1.07540474v-.2554185h-1.07540474z" fill="#242f65" mask="url(#b)"/><path d="m3.89174652 24.594184h1.07540474v-.2554185h-1.07540474z" fill="#242f65" mask="url(#b)"/><path d="m3.2029724 8.36771041h.43908173v-.25541847h-.43908173z" fill="#242f65" mask="url(#b)"/><path d="m.25459202 23.9593856h-.25471765v.6349243h.66553231v-.2554184h-.41081466z" fill="#242f65" mask="url(#b)"/><path d="m.25459202 8.3677419h.31219402v-.25541846h-.56691167v.63460937h.25471765z" fill="#242f65" mask="url(#b)"/><path d="m10.3457453 24.594184h.0571623v-.2554185h-.0571623z" fill="#242f65" mask="url(#b)"/><path d="m10.4029076 24.5944989h.4805401v-.2554185h-.4805401z" fill="#242f65" mask="url(#b)"/></g></g><g transform="translate(.097087 36.507937)"><g transform="translate(32)"><path d="m11.0758674 5.74881468h-.8816926v-4.21026593h.9686201l.8320198 1.37971553.6954196 1.1379097h.0062091v-2.51762523h.8816927v4.21026593h-.9065291l-.8196016-1.32282004-.7699289-1.20902907h-.0062091zm3.1078389 0 1.3846301-4.2244898h.9127382l1.38463 4.2244898h-.9934565l-.2545732-.83209648h-1.2728662l-.2669915.83209648zm1.3846301-1.54329005h.8382289l-.1986913-.64007421-.2049004-.69696969h-.0186273l-.2111095.69696969zm4.3620777 1.54329005h-.9810383v-3.34260977h-1.1300568v-.86765616h3.2473611v.86765616h-1.136266zm2.8470566 0h-.9810384v-4.21026593h.9810384zm2.7104562.07823129c-.9313655 0-1.8875674-.66141002-1.8875674-2.18336425 0-1.52195424.9562019-2.18336426 1.8875674-2.18336426.9189473 0 1.8751493.66141002 1.8751493 2.18336426 0 1.52195423-.956202 2.18336425-1.8751493 2.18336425zm0-.86054422c.5526102 0 .90032-.5191713.90032-1.32282003 0-.81076067-.3477098-1.30148423-.90032-1.30148423-.5650284 0-.9127382.49072356-.9127382 1.30148423 0 .80364873.3477098 1.32282003.9127382 1.32282003zm3.5548944.78231293h-.8816927v-4.21026593h.9686201l.8320199 1.37971553.6954195 1.1379097h.0062091v-2.51762523h.8816927v4.21026593h-.9065291l-.8196016-1.32282004-.7699288-1.20902907h-.0062091zm3.1078388 0 1.3846301-4.2244898h.9127382l1.38463 4.2244898h-.9934565l-.2545732-.83209648h-1.2728662l-.2669915.83209648zm1.3846301-1.54329005h.8382289l-.1986913-.64007421-.2049004-.69696969h-.0186273l-.2111095.69696969zm5.6225257 1.54329005h-2.6574962v-4.21026593h.9748292v3.36394558h1.682667zm3.9307277.07823129c-1.0058747 0-1.806849-.66141002-1.806849-2.18336425 0-1.52195424.8320198-2.18336426 1.806849-2.18336426 1.018293 0 1.4529302.58317873 1.620576 1.33704391l-.90032.28447743c-.1055547-.41960421-.2918278-.76097712-.7264651-.76097712-.5464011 0-.8196016.51205937-.8196016 1.3157081 0 .8178726.2794096 1.35126778.8320198 1.35126778.4284282 0 .6395377-.2987013.7575107-.83920841l.9127382.22047c-.1924822.84632035-.658165 1.45794682-1.676458 1.45794682zm4.0950864 0c-.9313655 0-1.8875675-.66141002-1.8875675-2.18336425 0-1.52195424.956202-2.18336426 1.8875675-2.18336426.9189473 0 1.8751492.66141002 1.8751492 2.18336426 0 1.52195423-.9562019 2.18336425-1.8751492 2.18336425zm0-.86054422c.5526102 0 .90032-.5191713.90032-1.32282003 0-.81076067-.3477098-1.30148423-.90032-1.30148423-.5650284 0-.9127382.49072356-.9127382 1.30148423 0 .80364873.3477098 1.32282003.9127382 1.32282003zm3.5548943.78231293h-.8816927v-4.21026593h.9686201l.8320199 1.37971553.6954196 1.1379097h.0062091v-2.51762523h.8816927v4.21026593h-.9065291l-.8196017-1.32282004-.7699288-1.20902907h-.0062091zm4.9643608.09245516c-.6767923 0-1.3722119-.27025355-1.7447581-.95299938l.7264651-.56184292c.1862731.44094001.6333286.68274583 1.0120839.68274583.422219 0 .6147012-.14223872.6147012-.41960421 0-.3200371-.2173186-.39115646-.7264651-.51205937-.8258107-.19202226-1.4715575-.43382807-1.4715575-1.38682746 0-.73964131.5712375-1.23036487 1.4156756-1.23036487.8320198 0 1.3597936.36270872 1.6392033.80364873l-.6395377.59029066c-.1862731-.3200371-.602283-.56184291-.9686201-.56184291-.3477098 0-.5091465.12801484-.5091465.37693259 0 .36982065.3042461.4196042.9189473.56895485.6084922.14935065 1.2977026.37693259 1.2977026 1.2943723 0 .85343228-.6767922 1.30859616-1.564694 1.30859616zm4.0888772-.09245516h-.9810383v-3.34260977h-1.1300569v-.86765616h3.2473611v.86765616h-1.1362659zm2.8470565 0h-.9810383v-4.21026593h.9810383zm2.8470566 0h-.9810384v-3.34260977h-1.1300568v-.86765616h3.2473611v.86765616h-1.1362659zm3.3748303.07111935c-1.0990113 0-1.6143669-.65429808-1.6143669-1.74242424v-2.53896104h.9748292v2.53896104c0 .58317873.1676458.88899196.6519559.88899196.478101 0 .6395376-.30581323.6395376-.88899196v-2.53896104h.956202v2.53896104c0 1.0952381-.5029374 1.74242424-1.6081578 1.74242424zm4.3558686-.07111935h-.9810383v-3.34260977h-1.1300568v-.86765616h3.2473611v.86765616h-1.136266zm2.8470566 0h-.9810384v-4.21026593h.9810384zm2.7104562.07823129c-.9313655 0-1.8875674-.66141002-1.8875674-2.18336425 0-1.52195424.9562019-2.18336426 1.8875674-2.18336426.9189473 0 1.8751493.66141002 1.8751493 2.18336426 0 1.52195423-.956202 2.18336425-1.8751493 2.18336425zm0-.86054422c.5526102 0 .90032-.5191713.90032-1.32282003 0-.81076067-.3477098-1.30148423-.90032-1.30148423-.5650284 0-.9127382.49072356-.9127382 1.30148423 0 .80364873.3477098 1.32282003.9127382 1.32282003zm3.5548944.78231293h-.8816927v-4.21026593h.9686201l.8320199 1.37971553.6954195 1.1379097h.0062091v-2.51762523h.8816927v4.21026593h-.9065291l-.8196016-1.32282004-.7699288-1.20902907h-.0062091zm6.8552154.07823129c-1.0058748 0-1.8068491-.66141002-1.8068491-2.18336425 0-1.52195424.8320198-2.18336426 1.8068491-2.18336426 1.0182929 0 1.4529302.58317873 1.620576 1.33704391l-.90032.28447743c-.1055548-.41960421-.2918279-.76097712-.7264651-.76097712-.5464011 0-.8196017.51205937-.8196017 1.3157081 0 .8178726.2794097 1.35126778.8320199 1.35126778.4284281 0 .6395376-.2987013.7575106-.83920841l.9127382.22047c-.1924822.84632035-.658165 1.45794682-1.6764579 1.45794682zm5.2686068-.07823129h-2.8313511v-4.21026593h2.7444237v.86765616h-1.7695945v.77520099h1.2728662v.83920841h-1.2728662v.88188002h1.8565219zm1.6549087 0h-.8816927v-4.21026593h.9686202l.8320198 1.37971553.6954196 1.1379097h.0062091v-2.51762523h.8816927v4.21026593h-.9065291l-.8196017-1.32282004-.7699288-1.20902907h-.0062091zm5.2623976 0h-.981038v-3.34260977h-1.130057v-.86765616h3.247361v.86765616h-1.136266zm4.666324 0h-2.831351v-4.21026593h2.744424v.86765616h-1.769595v.77520099h1.272866v.83920841h-1.272866v.88188002h1.856522zm1.723209 0h-.949993v-4.21026593h1.52123c.97483 0 1.564694.35559679 1.564694 1.35126778 0 .66852196-.260782 1.03834261-.769928 1.22325294l.82581 1.63574521h-1.018293l-.75751-1.50773037h-.41601zm0-3.38528139v1.14502165h.533983c.447055 0 .645746-.17779839.645746-.57606679s-.2049-.56895486-.639537-.56895486z" fill="#222d66" fill-rule="nonzero"/><path d="m0 7.3015873h3.6407767v-7.3015873h-3.6407767z" fill="#252d65"/><path d="m3.6407767 1.49945397v-1.46031746h3.6407767v1.46031746zm0 2.9051518v-1.46031746h3.6407767v1.46031746zm0 2.93611804v-1.46031746h3.6407767v1.46031746z" fill="#c91f40"/></g><path d="m.80216917 6h-.80216917v-3.98653199h1.23318543l.71836045 2.80808081h.01197268l.65849707-2.80808081h1.26910346v3.98653199h-.87400521v-2.84175084h-.00598634c-.04789069.29629629-.10775406.57239057-.16761744.82828283-.05986337.35016835-.40707092 1.38047138-.52679766 2.01346801h-.82012817c-.11374041-.63973064-.45496162-1.73737374-.50883865-2.02693603-.08380872-.39057239-.13768576-.6060606-.17959012-.83501683h-.00598633zm3.73265723 0 1.33495316-4h.87999155l1.33495316 4h-.95781393l-.24543982-.78787879h-1.22719909l-.2574125.78787879zm1.33495316-1.46127946h.8081555l-.19156278-.60606061-.19754912-.65993266h-.01795902l-.20353546.65993266zm2.85865202 1.46127946v-3.98653199h1.23318543c1.10747239 0 2.01140929.46464647 2.01140929 1.96632997 0 1.54882155-.9218959 2.02020202-2.01140929 2.02020202zm.93386858-3.17845118v2.39057239h.34720754c.7722375 0 1.0236636-.37037037 1.0236636-1.21885522 0-.78114478-.2574124-1.17171717-1.0296499-1.17171717zm5.80392984 3.17845118h-2.7297697v-3.98653199h2.645961v.82154883h-1.7061061v.73400673h1.2271991v.79461279h-1.2271991v.83501684h1.7899148zm2.4966547 0v-3.98653199h1.5744067c.6285654 0 1.3349531.12121212 1.3349531.98316499 0 .55892256-.3292485.83501683-.6944151.90909091v.01346801c.442989.08754209.7842102.32323232.7842102.97643098 0 .85521885-.7183605 1.1043771-1.3529122 1.1043771zm.8979506-3.25252525v.91582491h.5806747c.3831255 0 .532784-.19528619.532784-.46464646 0-.26262626-.1436721-.45117845-.514825-.45117845zm0 1.52861953v1.003367h.6165927c.3950982 0 .568702-.20875421.568702-.50505051 0-.30976431-.1915628-.49831649-.586661-.49831649zm3.8823156 1.72390572v-1.67676768l-1.2990351-2.30976431h.9937319l.8201282 1.4949495.8081555-1.4949495h.9338686l-1.3110078 2.30976431v1.67676768z" fill="#222d66" fill-rule="nonzero"/></g></g></svg>