<?xml version="1.0" encoding="UTF-8"?>
<svg width="40px" height="40px" viewBox="0 0 40 40" version="1.1" xmlns="http://www.w3.org/2000/svg" xmlns:xlink="http://www.w3.org/1999/xlink">
    <!-- Generator: Sketch 54.1 (76490) - https://sketchapp.com -->
    <title>Media Library / Icon / Educational Video</title>
    <desc>Created with Sketch.</desc>
    <g id="Media-Library-/-Icon-/-Educational-Video" stroke="none" stroke-width="1" fill="none" fill-rule="evenodd">
        <g id="Group-8" transform="translate(3.000000, 0.000000)">
            <path d="M4.9136,5.8187 L31.0816,5.8187 C31.5876,5.8187 31.9976,5.4087 31.9976,4.9027 C31.9976,4.3967 31.5876,3.9867 31.0816,3.9867 L4.9136,3.9867 C4.4076,3.9867 3.9976,4.3967 3.9976,4.9027 C3.9976,5.4087 4.4076,5.8187 4.9136,5.8187" id="Fill-1" fill="#0D938C"></path>
            <g id="Group-5" fill="#0D938C">
                <path d="M4.6704,0.0004 C2.0904,0.0004 0.0004,2.0904 0.0004,4.6594 L0.0004,35.9704 C0.0004,38.1804 1.8104,40.0004 4.0294,40.0004 L32.6594,40.0004 C33.0294,40.0004 33.3294,39.6994 33.3294,39.3294 L33.3294,8.6594 C33.3294,8.2954 33.0344,8.0004 32.6704,8.0004 L4.6704,8.0004 C4.4404,8.0004 4.2094,7.9704 4.0004,7.9304 C2.6094,7.6204 1.5794,6.3904 1.5794,4.9094 C1.5794,3.2104 2.9594,1.8304 4.6704,1.8304 L32.4144,1.8304 C32.9204,1.8304 33.3294,1.4204 33.3294,0.9154 C33.3294,0.4094 32.9204,0.0004 32.4144,0.0004 L4.6704,0.0004 Z" id="Fill-3"></path>
            </g>
            <polygon id="Fill-6" fill="#FEFEFE" points="12.6646 29.9965 22.6646 23.9965 12.6646 17.9965"></polygon>
        </g>
    </g>
</svg>