<svg xmlns="http://www.w3.org/2000/svg" width="350" height="350" viewBox="0.5 568.5 350 350"><path fill="#071b36" d="M277.122 900.657H81.924v-.092H75.25v-63.36l.09.092V770.92l-.183-.183.183-.184v-3.748h11.978l.09-.092.093.092h14.173l.09-.092.093.092h.09l.093-.092.09.092h13.99l.09-.092.092.092h.183l.092-.092.092.092h13.987l.092-.092.09.092h.274l.092-.092.09.092h12.527V714.6h63.085v52.206h12.8l.092-.092.09.092h14.173l.092-.092.092.092.09-.092.093.092h14.354l.09-.092.093.092h14.17l.093-.092.092.092.09-.092.093.092h13.44v24.41l.09.275.087 109.167zm-4.022-1.372h2.65v-83.382H188.53V839.948l.092.184h-.092v15.816h-5.395l-.092.092-.18-.092h-10.79l-.09.092h-8.96V833h-.093v-1.372h.092v-15.725H76.71v24.045l-.092-.092v59.338h6.217v.09H273.1zm-90.88-44.616h.914l.092-.093h3.932V833h-22.766v21.67h7.68l.092-.093h9.782l.274.092zm2.743-23.042h2.194v-15.725H176.46v4.113c4.297.366 7.77 4.023 7.77 8.412v3.2h.733zm-16.183 0h14.08v-3.2c0-3.657-2.835-6.674-6.4-7.04v3.11h-1.37v-3.11c-3.567.366-6.31 3.383-6.31 7.04v3.2zm-1.372 0l.092-3.29c0-.823.092-1.738.366-2.562l.457-1.28.457-.64c.274-.365.55-.73.822-1.006l.366-.365.365-.365c1.28-1.19 2.926-1.83 4.755-2.012v-4.114H164.39v15.726h3.018v-.092zM273.1 814.53h2.65v-22.398h-.182v-8.504H204.252l-.547.092h-13.53l-.55-.092-.55.092H175.82l-.184-.092H146.837l-.365.092-.274-.092h-13.806l-.457.092-.183-.092H76.71v8.504h-.092v22.4h86.4v-16.184h25.508v16.183H273.1zm-96.64 0h10.697V799.63H164.39v14.903h10.698v-8.594h1.37v8.595zm29.166-31.816h12.434l.457-.092.184-.273 14.172-14.265h-12.617l-14.63 14.63zm-14.537 0h12.433l.274-.092.274-.273 5.944-5.944h-12.617l-6.308 6.308zm-14.357 0h12.252l.184-.092.364-.273 5.943-5.944h-12.71l-5.942 5.943-.092.364zm-14.536 0h12.25l.093-.092-6.217-6.217h-12.617l6.034 6.035.457.274zm58.057-.092h12.617l.367-.273 14.263-14.265h-12.71l-14.536 14.537zm-73.05 0h12.434l.09-.182-6.033-6.035h-12.71l6.218 6.217zm-14.538 0h12.343l-.093-.273-5.942-5.944-.274-.183-.182-.183-.458-.457-7.405-7.406h-12.617l14.628 14.445zm102.308-.09h12.068l-.09-.092.73-.092 14.263-14.264H249.33l-14.356 14.447zm14.63-.092h12.25l.55-.092 13.348-13.44-.183 1.463v-2.285h-11.612l-14.355 14.355zm14.72-.09h11.244v-11.247l-11.245 11.246zm-146.47 0h12.617l-14.262-14.265H103.59l14.264 14.264zm-2.194 0h.274l-14.263-14.265H89.056l14.263 14.264h12.342zm-14.537 0h.274l-14.263-14.265H76.62v2.195l11.978 11.977h.09l.093.092h12.343zm-24.503-.093h10.057L76.62 772.2v10.057zm93.53-5.852l5.304 5.303 5.303-5.303H170.15zm36.755-1.37h4.48l6.948-6.95h-11.43v6.95zm-9.783 0h8.412v-59.247H145.19v59.246h8.778l.092-.092.183.092h14.263l.092-.092.273.092-.272-.092.273.092h13.35l.092-.092.092.092h14.17l.092-.092.092.092h.092l.092-.092.18.092zm-53.668 0h.366v-6.95h-11.154l6.948 6.95h3.84zm3.383 122.97l-3.657-4.113v-5.852l1.555-9.144h-.092l.184-1.097-2.194-1.007-2.835-7.13 1.28-1.83v-1.006h-2.286l-1.097-2.285-1.188.183-5.67-3.2-1.553-1.828h-2.104l-6.034-7.863.183-3.75-1.463-2.192-1.463.365-1.737-3.565.457.09-1.098-1.462-3.29-.457-12.71 6.4 5.76-5.577-1.828-1.463-.365-2.377-6.126-.183-.183.09 1.646 1.556-5.12 1.28v-8.962l8.686 3.475.823 1.28-.458-3.292 4.39-2.192 15.54 1.645-1.645-1.188.915-4.023 18.377-7.04h.09l8.32.458-6.583 7.496 8.23 6.766-3.384 3.566-5.76-1.006.092.274 6.582 1.097 5.395 6.492-7.04 4.022v2.468l-1.554-.182-.73.73.182 1.463-2.65 2.286.913 2.834h-2.65l-1.1-1.646H135.5l-1.097 1.92 1.005.914h.274l1.646-1.005 1.736.913-.365 1.828 1.37.184.183 2.104h1.83l2.742-1.188 2.01.73 4.024.092.182 2.286h2.834l.366 2.65h1.463l5.852 3.84-1.92 2.195-.366 3.383-1.462 1.555h.366l-1.098 1.098-8.868 9.51c.183.64.274 1.462.183 2.285v.09l-.182.184.09.092-.273.273h.092l-.914.914 1.28 1.646-1.646 2.103zm-2.377-4.662l2.286 2.47.274-.275-1.28-1.646.64-.64h-.09l.364-.366h-.092l.915-.914c.09-.64 0-1.28-.274-1.737l-.366-.366.457-.458 8.138-8.594.55-.55h-.275l2.742-2.925.365-3.383 1.097-1.28-4.205-2.743h-2.286l-.364-2.65h-2.835l-.183-2.287-3.108-.092-1.556-.55-2.56 1.1h-3.108l.09.182h2.836v2.743l-1.006 1.554 2.377 5.943 2.65 1.28-.182 1.006-.09.548-1.647 9.69-.273 4.94zm-6.034-30.08l.823 1.737-.275-1.92-1.646-.184.364-2.377-.183-.092-1.37.73h-1.098l-2.103-2.01 2.01-3.566h4.938l1.097 1.646-.64-2.012 2.65-2.286-.182-1.463 1.554-1.554.73.09v-1.553l6.22-3.474-4.024-4.846-4.754-.824v1.646l.64.73-1.28 4.298-3.11-3.565-2.65-.914-1.92-1.554 2.56-3.383 3.11.365-.275-1.006 1.006-2.742h3.11l-.55 3.108 3.75.73 1.827-1.92-8.23-6.673 5.67-6.4-5.303-.184-17.555 6.676-.64 2.378 5.12 3.656-20.3-2.193-3.107 1.645.823 5.578 2.65 2.012-.548.548 5.212-2.65 4.205.73 4.298 4.57h-.274l2.102 3.11-.183 3.748 5.21 7.04h2.104l1.828 2.194 5.028 2.834 1.556-.453zm-19.383-18.926l.092.274.548-.182-.64-.09zm17.737-3.932l2.65.73 1.738 2.013.365-1.28-.365-.457v-3.107l-3.932-.366-1.28 1.737.824.73zm-41.783-3.108v1.463l1.098-.274-1.098-1.19zm45.898-1.463l.365 1.28.457-2.743h-.365l-.457 1.464zm-45.898-2.377v3.474l2.103-.82 4.48.182-.183-.274-6.4-2.56zm153.6 59.703l-2.103-.274-.457-2.743 3.292-3.565-1.373-2.012 1.554-2.377 1.92 2.833.367 4.206-3.2 3.93zm-1.006-1.555h.458l2.378-2.834-.183-1.37-2.835 3.108.183 1.097zm-8.41-3.29l-3.292-.275-3.474-2.56-.914-.64v.273l-7.68 1.554.822-3.017-1.188-.457v-4.023l8.777-5.668 3.2 2.01.184-1.553 1.28-.184-5.304-1.188-.183-2.47h-.183v-1.645l.55.184h.272l7.772 1.92 1.098 4.114-3.018-.64 4.48 6.857h.092l.457.73-.092.093.092.09h-.092l-3.655 6.494zm-2.743-1.647l1.92.184 2.835-5.212-.366-.64-3.84-5.852h-.183l-.183 2.65-4.297-2.833-7.406 4.754v2.376l1.463.55-.55 2.102 4.664-1.006.274-1.646 2.194 1.737 1.097.823-.093.09 2.47 1.922zm-3.657-15.085l6.31 1.37-.276-1.187-6.033-1.463v1.28zm-45.44 14.263l-4.39-.274-1.462-4.114h-.09l-1.92-5.395 1.096-1.463v-1.828l-2.926-3.566.823-.64-1.645-1.006-5.21-.183-3.384-3.018-.182-5.304h1.37l.184 4.663 2.65 2.285 5.213.183 3.565 2.377-1.372.914 2.378 2.742v2.65l-.823 1.19 1.37 4.388h.093l.55 1.37h-.093l.823 2.287 2.743.183 2.65-3.108V881l.183-.274.365-.55.55-1.005.183-2.193 1.737-1.28-.183-2.193-.823-1.006 5.304-7.77-2.103.09-2.376-1.828-2.012-4.114h1.555l1.646 3.292 1.098.822-2.01-3.84h1.462l1.828 3.657 3.2-1.188 1.097-1.464-1.006-1.006-1.644.55-2.104-3.384v-.366h.55l10.056 1.92-.183 2.47.915.273 1.463 4.022 1.37-.457v-2.103l3.292-2.47.55-2.01h2.102v2.468l3.108 6.583 1.28.365-1.372-.913-.822-3.383 1.83-.457 1.005 2.103 1.555-.914-1.646-2.377 6.675-3.933-.367-5.212 2.56-1.463.73 2.56 1.007-.64-.548-1.462 3.656-2.378.55-1.92 1.554-.183-.092-2.104-2.742.73.822-2.925 4.114-2.102 7.59-.732-.093.092 4.847-.55v-5.76l-4.663.55-1.92-.914-6.675-.55-.823-1.554-1.828 1.83-15.728-1.647 4.572-2.56-3.932-.915-8.046 3.018-.823 1.736-4.846-1.097-1.92 1.737 1.646 3.108-4.938-3.017 1.37 1.554h-4.845l-1.736 1.097V834l1.188-.82h2.286l-1.83-2.105 3.476-3.383 4.48-1.92 1.188 2.56-4.298 1.464-1.37 1.555 1.827 1.098 3.11-2.743 4.48 1.098.548-1.188 8.868-3.384 7.68 1.74-4.02 2.284 10.878 1.098 2.652-2.652 1.37 2.56 6.31.642 1.737.822 5.76-.64v8.503l-5.212.548.185 1.463-3.75 4.938.64.548-4.57 1.83-1.645-1.83-1.37.092 3.017 1.828-2.835 4.664-1.005.548 1.188.274 2.195 3.2-2.56 1.92-1.556-4.846-2.65 1.463-1.83-2.103-.73.457-.73-2.742-.367.183.366 5.213-6.126 3.565 1.646 2.377-3.384 2.012 1.736 1.188-1.188 1.188.73 2.286h.093l.184-2.47 3.108-3.108 2.285 3.2.184-.458 2.835 1.098-1.37 2.377-.093.09v.092l-.55 1.006-2.102-.183H225.647l.09-.092-.09.092-.275-.092-.183.092v.092l.365 2.01-3.018-.547-.184.09h-.09l-.916.275-1.097-.274-.457-.548h-.09.09l-6.126-6.856 2.743.183-2.65-5.943v.09l-3.02 2.378v2.378l-3.473 1.005-1.646-4.57-1.188-.366.184-2.377-4.754-.915 2.102 2.104-2.193 2.742-1.097.457.64-.09-6.4 9.142.458.55.275 2.833 2.65-2.103 1.647 1.006-1.097 3.932-.092.366-.365 1.188-.184.366-.365 1.188-2.927-2.012h.092l-.55-.366h.184l-.275-.183.64-2.286-1.28.914-.456 1.92v.548h.09l-4.02 5.03zm7.04-7.04l1.188.73 1.188-3.93h-.092l-1.828 1.462-.456 1.738zm27.154-6.217l.274.09.914-.274.366.092h.09l-2.102-.73-.73-2.195-1.28-.183-.458-1.372-1.188-.09 4.114 4.66zm2.103-2.38l1.646.458 1.098-2.194-1.005-1.463-1.646 1.647-.093 1.554zm5.212-.913l-.275.73.274-.73zm-30.905-11.43l.366.642 1.007-.367-1.372-.275zm34.103-3.016l.184.276 3.29-1.738 2.013-3.2-1.006-.64-1.1 3.292-3.382 2.01zm.183-3.29l.55 1.37 1.554-.913.823-2.47-2.926 2.013zm5.304-8.778l.183 4.846 3.932-1.828.913.822-.64-4.39.914-1.187-4.297.457-3.2 1.736v.184l2.194-.64zm5.852-.457l.273 1.83 2.01-2.652-.182-1.83-2.102 2.652zm-38.858-15.36l-.73.274.73-.274zm-84.114 55.59l-2.742-1.92 1.188-1.19-1.555.915-2.65-1.828 2.285-2.926 2.65 3.108.275-.274 2.742 1.92-2.193 2.194zm-.64-2.012l.457.274.184-.184-.457-.274-.183.183zm-3.29-2.194l.73.456.183-.092-.64-.822-.274.457zm-6.127-15.18l-2.835-1.92-1.736.915-4.938-2.834.823-2.376 5.03 2.103 2.01-1.097 2.926 2.742-1.28 2.47zm-2.377-3.29l1.92 1.28.09-.184-1.553-1.37-.457.274zm-4.937-.914l2.743 1.646.548-.274-3.29-1.372zm-4.39.274l-1.645-1.646h.457l-1.555-3.474 6.034 2.103-2.377 1.463-.822.55-.09 1.004zm98.47-5.303l-.366-5.21 1.92-1.372 1.37 1.463-1.096 1.463 1.373 2.835-3.2.822zm3.93-2.743l-.09-2.834 2.286-.275.272 2.835-2.468.274zM65.01 848.726l-.824-1.463c-1.737-3.018-4.846-5.03-8.23-5.303-3.382-.274-6.49-2.012-8.685-4.846-2.01-2.65-2.742-6.31-2.01-9.69 1.28-5.304-1.92-10.882-7.224-12.436-3.29-1.006-6.034-3.383-7.405-6.583-1.37-3.108-1.37-6.674.092-9.874 2.286-4.936.274-10.97-4.48-13.713-3.017-1.646-5.21-4.572-5.85-7.863-.64-3.383.09-6.857 2.193-9.6 3.383-4.39 2.743-10.697-1.463-14.264-2.56-2.285-4.114-5.576-4.114-9.05s1.463-6.676 4.114-9.053c4.206-3.657 4.846-9.874 1.463-14.263-2.104-2.47-2.926-6.126-2.194-9.6.823-3.475 2.927-6.31 5.943-7.863 4.846-2.65 6.766-8.594 4.48-13.713-1.463-3.2-1.463-6.766-.092-9.875 1.464-3.108 4.115-5.485 7.407-6.582 5.21-1.646 8.41-7.132 7.223-12.436-.73-3.29 0-6.947 2.012-9.69 2.103-2.835 5.303-4.57 8.686-4.847 5.485-.457 9.69-5.12 9.6-10.696 0-3.564 1.463-6.856 4.023-9.143 2.56-2.285 5.943-3.29 9.418-2.926 5.485.642 10.605-3.106 11.702-8.5.64-3.384 2.743-6.4 5.67-8.047 3.017-1.737 6.582-2.103 9.782-.915 5.303 1.738 11.062-.822 13.165-5.85 1.372-3.11 4.023-5.67 7.224-6.676 3.292-1.097 6.857-.64 9.783 1.098 4.755 2.926 10.972 1.555 14.08-3.018 1.92-2.834 5.028-4.662 8.595-5.028 3.474-.366 6.856.73 9.325 3.108 4.023 3.748 10.33 3.748 14.354 0 .092-.092.183-.183.273-.183l.184-.184c2.47-2.104 5.668-3.11 8.87-2.743 3.473.366 6.58 2.194 8.593 5.028 3.2 4.48 9.417 5.76 14.08 3.02 2.834-1.83 6.4-2.195 9.783-1.1 3.2 1.007 5.942 3.567 7.223 6.676 2.193 5.12 7.954 7.68 13.166 5.85 3.198-1.096 6.765-.82 9.78.916 2.927 1.737 5.03 4.663 5.67 8.046 1.097 5.485 6.217 9.234 11.61 8.502 3.476-.457 6.858.64 9.418 2.926 2.56 2.377 4.022 5.578 4.022 9.144-.092 5.577 4.115 10.24 9.6 10.696 3.383.275 6.492 2.012 8.687 4.846 2.01 2.652 2.743 6.31 2.01 9.69-1.278 5.305 1.92 10.882 7.225 12.437 3.29 1.004 6.034 3.382 7.405 6.58 1.372 3.11 1.372 6.675-.092 9.876-2.285 4.937-.273 10.97 4.48 13.714 3.018 1.646 5.212 4.57 5.852 7.862.64 3.383-.092 6.857-2.194 9.6-3.383 4.39-2.743 10.698 1.463 14.264 2.56 2.285 4.114 5.577 4.114 9.052s-1.463 6.766-4.114 9.05c-4.114 3.567-4.846 9.876-1.555 14.355 2.105 2.47 2.927 6.126 2.195 9.6-.822 3.475-2.926 6.31-5.942 7.863-4.846 2.65-6.766 8.595-4.48 13.714 1.463 3.2 1.463 6.766.092 9.875-1.463 3.108-4.114 5.485-7.405 6.582-5.212 1.646-8.412 7.133-7.223 12.436.73 3.29 0 6.948-2.012 9.69-2.104 2.835-5.303 4.57-8.686 4.847-2.836.273-5.304 1.554-7.133 3.656l-.823 1.006v-2.194l.092-.09c1.92-2.105 4.662-3.476 7.588-3.75 3.11-.274 5.852-1.83 7.59-4.297 1.828-2.56 2.468-5.668 1.736-8.594-1.463-6.125 2.104-12.25 8.046-14.08 2.926-.914 5.394-3.017 6.583-5.76 1.278-2.834 1.187-5.943-.093-8.777-2.65-5.67-.457-12.435 5.028-15.452 2.65-1.37 4.57-4.023 5.212-7.04.64-3.108-.092-6.126-1.92-8.595-3.75-4.937-2.926-12.068 1.737-16.182 2.377-2.01 3.657-4.937 3.657-7.954 0-3.017-1.37-5.942-3.656-7.954-4.755-4.114-5.486-11.246-1.737-16.184 1.828-2.377 2.56-5.484 1.92-8.594-.64-2.926-2.47-5.485-5.212-7.04-5.394-3.017-7.59-9.874-5.028-15.45 1.28-2.652 1.28-5.943.092-8.778-1.19-2.743-3.567-4.846-6.584-5.76-5.942-1.83-9.51-8.046-8.046-14.08.73-3.017.092-6.126-1.737-8.595-1.92-2.468-4.57-4.02-7.59-4.296-6.216-.55-10.97-5.852-10.878-12.068 0-3.108-1.28-5.943-3.475-8.046-2.194-2.01-5.212-3.017-8.32-2.65-6.217.73-11.977-3.384-13.074-9.51-.64-3.017-2.377-5.485-5.12-7.132-2.56-1.554-5.76-1.828-8.686-.914-5.852 2.012-12.343-.914-14.812-6.674-1.098-2.834-3.475-4.938-6.4-5.943s-6.033-.64-8.686 1.006c-5.303 3.2-12.25 1.737-15.908-3.383-1.828-2.56-4.57-4.113-7.497-4.39-3.2-.272-6.218.733-8.32 2.836-4.57 4.297-11.702 4.297-16.273 0-2.286-2.103-5.212-3.108-8.32-2.835-3.018.276-5.76 1.83-7.497 4.39-3.565 5.03-10.515 6.583-15.91 3.383-2.65-1.554-5.76-1.92-8.685-1.006-2.834.915-5.12 3.11-6.4 5.943-2.377 5.76-8.868 8.686-14.81 6.674-2.836-1.006-6.127-.64-8.687.914-2.743 1.463-4.572 4.023-5.12 7.132-1.188 6.126-6.95 10.24-13.166 9.51-3.02-.366-6.035.548-8.32 2.65-2.286 2.103-3.566 5.028-3.475 8.046.09 6.31-4.663 11.61-10.88 12.068-3.11.274-5.852 1.828-7.59 4.297-1.828 2.562-2.468 5.67-1.736 8.596 1.462 6.126-2.104 12.25-8.047 14.08-2.926.914-5.395 3.017-6.583 5.76-1.28 2.835-1.188 5.942.092 8.777 2.65 5.67.457 12.435-5.028 15.45-2.65 1.373-4.57 4.023-5.212 7.04-.64 3.11.092 6.127 1.92 8.595 3.75 4.938 2.926 12.07-1.737 16.184-2.377 2.012-3.656 4.938-3.656 7.954 0 3.018 1.37 5.943 3.655 7.955 4.755 4.114 5.486 11.246 1.737 16.183-1.828 2.378-2.56 5.486-1.92 8.595.64 2.926 2.47 5.485 5.212 7.04 5.394 3.018 7.588 9.875 5.028 15.45-1.28 2.835-1.37 5.944-.092 8.778 1.188 2.743 3.566 4.846 6.583 5.76 5.943 1.83 9.51 8.046 8.046 14.08-.732 3.018-.093 6.126 1.736 8.595 1.92 2.47 4.57 4.023 7.59 4.298 3.473.274 6.673 2.194 8.867 5.212l.092.09v2.744h.184zm110.993-.184h-1.37v-9.508h1.37v6.857l-.092.458v1.828l.093.366zm-19.383-8.32l-2.103-.182-3.018-4.846-1.098-5.486-1.737-1.37-2.56.73-2.012-2.56 4.662-5.67 7.955-1.005v1.463l-7.132.823-3.565 4.388.73.914 2.286-.73 2.742 2.102 1.097 5.852 2.56 3.932 1.28.092v1.554h-.09zm-91.703-13.348l-.822-1.098c-17.555-23.68-26.79-51.93-26.79-81.736 0-18.286 3.658-36.48 10.606-53.212h-.09l.183-.273c1.737-4.207 3.75-8.23 5.852-12.252v-.642h.274l.547-1.006v.184c6.218-11.154 13.99-21.395 22.95-30.445 26.33-26.058 60.98-40.412 97.827-40.412 36.754 0 71.406 14.354 97.555 40.412 6.398 6.4 12.16 13.44 17.187 20.846l.55.55v.09l.09.092-.09.092c14.902 22.4 22.856 48.64 22.856 76.07 0 28.98-8.87 56.685-25.6 80.09l-.823 1.188v-2.285l.092-.092c16.365-23.04 24.96-50.285 24.96-78.812 0-18.47-3.566-36.205-10.423-52.754-4.023 3.29-26.607 21.667-34.287 22.49-7.497.823-36.57 14.537-37.668 15.085l-.092.092h-.457l-.184-.273-2.742-6.95 11.337-5.21-18.926 6.582v-9.965l13.807-5.394-21.12 5.852-1.92-9.967 19.108-5.393-18.834 2.834-1.278-8.318h.64l39.405-11.246-2.56-1.463-18.103 2.926-1.738-6.95.275-.273.092.092c1.463-1.282 10.88-5.305 10.972-5.396 5.668-2.377 13.806-5.212 20.114-5.212 7.223 0 11.886 1.92 15.36 3.292l.365.183c2.377.914 4.39 1.737 6.674 1.828 3.018 0 6.035-1.005 8.87-2.925l-.093-.092v-.092c-4.938-7.314-10.605-14.08-16.73-20.205-25.69-25.874-60.07-40.137-96.64-40.137-36.48 0-70.857 14.263-96.64 40.138-6.127 6.218-11.612 12.892-16.458 19.84.183.092.64.458 1.37.915h.367v.183l.73.457c2.378 1.188 4.663 1.737 7.04 1.737 2.195 0 4.206-.822 6.583-1.737l.55-.183c.365-.184.822-.365 1.187-.457h.092c3.383-1.37 7.68-2.743 13.897-2.743 1.097 0 2.285.09 3.474.274v-.092h1.372v.184c5.394.914 11.245 3.017 15.27 4.754.364.092.73.274 1.004.457.184.09.366.183.55.183l.273.09c.092 0 .092.092.183.092l.274.092v.365c5.028 2.195 8.686 4.298 8.686 4.298l.184.183.183.184-1.737 6.948-18.103-2.926-2.286 1.37 20.753 5.852 8.777 2.47 10.332 2.925-1.188 8.137-8.138-1.188-.457-.092h-.458v-.09l-.366-.093-9.6-1.37 1.555.457h.458v.09h.09v.093l17.19 4.846-1.92 9.966-7.132-1.92v.183l-13.99-3.932 13.624 5.303v9.6l-18.01-6.217 1.187.548h.183v.092h.09l8.962 4.114-2.835 7.59-.64-.275c-.092 0-.274-.092-.914-.458-19.2-8.96-32.274-14.263-36.755-14.72-4.297-.366-13.623-6.492-21.668-12.252h-.09c-3.2-2.285-6.217-4.57-8.686-6.49v-.093c-2.194-1.737-3.84-3.017-4.663-3.657-6.947 16.732-10.514 34.47-10.514 52.755 0 29.166 9.052 57.05 26.15 80.457l.09.092v2.28zm162.834-104.41l1.83 4.937c3.75-1.828 29.897-14.17 37.577-14.994 6.582-.64 27.246-17.097 33.828-22.4-3.29-7.588-7.13-14.72-11.337-21.12-1.83 1.28-5.303 3.2-9.69 3.2-2.56 0-4.756-.913-7.498-2.01l-.64-.275c-3.475-1.28-7.68-2.925-14.172-2.925-10.788 0-27.43 8.686-29.897 10.058l1.19 4.846 17.28-2.927 4.022 2.377.273-.092.092.274 7.77 4.57 13.258 3.567 12.617-4.3.274 1.28-12.892 4.39-13.988-3.748-7.314-4.39-.09.092-.093-.09-40.138 11.52.822 5.667 28.617-4.296.275 1.28-28.71 8.138 1.373 7.223 32.914-9.052.273 1.188-25.69 9.967v6.766l30.81-10.515.55 1.19-23.494 10.605zm-111.267 2.192c2.193 1.006 3.93 1.83 5.028 2.378l.458.183 1.828-4.938-7.405-3.292.093 5.668zm-8.777-3.93c2.65 1.188 5.21 2.286 7.405 3.292v-5.578l-7.404-3.383v5.67zm17.463-1.92l6.673 2.286v-6.766l-6.674-2.56v7.04zm-26.15-1.738c2.286.914 4.755 1.92 7.314 3.018v-5.67l-5.85-2.742.547-1.188 5.304 1.83v-8.413h-.09l.09-.183v-19.657l-4.57-1.188-2.743 1.554v32.638zm17.463-1.188l7.313 2.468v-7.04l-7.313-2.833v7.405zm-26.24-2.103c2.103.64 4.57 1.646 7.405 2.742v-31.544L93.9 687.17l-3.657 1.006v25.6zm17.463-.823l7.405 2.56v-7.68L107.707 705v7.954zm-26.24-1.554c1.28.548 2.286.822 3.108.914 1.006.09 2.47.457 4.297 1.006v-24.777l-7.404 1.92V711.4zm52.48-.732l5.576 1.555 1.372-7.223-6.95-1.92v7.588zm-61.166-4.113c2.926 1.828 5.303 3.2 7.314 4.205v-19.84l-7.314-2.47v18.105zm52.39 1.736l7.404 2.105v-7.77l-7.405-2.105v7.77zm-8.687-2.376l7.313 2.012v-7.77l-7.313-2.105v7.864zm-52.48-5.303l.73.55c2.195 1.554 4.48 3.108 6.675 4.57v-17.92l-4.205-1.37.274-1.28 3.93 1.188v-14.445h-.364c-2.834-.092-5.212-1.006-7.04-1.92v30.628zm43.794 2.744l7.314 2.012v-7.77l-3.016-.823.273-1.28 2.743.457v-9.417l-7.405-2.104.092 18.924zm26.148-4.57l7.04 1.096.823-5.67-7.77-2.284-.093 6.857zm-78.628-4.48c.914.73 2.012 1.462 3.108 2.284 1.37 1.006 2.743 2.104 4.206 3.11v-30.63c-.456-.365-.822-.64-1.005-.73-2.286 3.382-4.39 6.855-6.31 10.422v15.543zm69.852 3.107l7.404 1.098v-6.948l-7.405-2.103v7.954zm-8.687-1.187l7.313 1.098v-8.228l-7.313-2.104v9.235zm-66.652-6.217c.275.273.732.55 1.28 1.006.732.548 1.738 1.37 2.835 2.193v-12.16c-1.554 3.018-2.925 5.852-4.022 8.504h.183l-.275.456zm22.95-3.018l7.314 2.47v-19.84h-.092c-.274.09-.457.182-.73.272l-.732.366c-1.92.73-3.75 1.463-5.76 1.646v15.086zm8.686-17.92v20.023l7.405-1.92V667.15c-2.833.366-5.118 1.19-7.404 1.92zm8.777-2.103v19.75l3.2-.824 4.114-2.56v-16.273c-1.098-.183-2.286-.273-3.475-.273-1.37 0-2.65.09-3.84.18zM99.02 682.6v.184l2.012-1.19.73-.456 3.75-2.285h.183l.64.09v-9.873c-2.65-.822-5.12-1.463-7.405-1.828v15.45l.09-.092zm17.463-2.012l6.308 1.098 1.19-4.846c-1.006-.55-3.84-2.012-7.497-3.383v7.13zm-8.777-1.37l7.405 1.187v-8.046c-2.376-1.007-4.936-2.013-7.404-2.835v9.692zm53.485 84.57c-2.376 0-4.113-1.006-4.113-2.377s1.737-2.376 4.114-2.376 4.115 1.006 4.115 2.377-1.737 2.378-4.114 2.378zm0-3.383c-1.736 0-2.742.64-2.742 1.006s1.006 1.007 2.743 1.007 2.744-.64 2.744-1.006-1.005-1.005-2.743-1.005zm32.458 1.647h-18.285v-1.372h18.285v1.372zm-32.457-9.418c-2.376 0-4.113-1.006-4.113-2.377s1.737-2.377 4.114-2.377c2.47.092 4.115 1.098 4.115 2.377 0 1.37-1.737 2.377-4.114 2.377zm0-3.29c-1.736 0-2.742.64-2.742 1.005 0 .364 1.006 1.005 2.743 1.005 1.92-.092 2.744-.823 2.744-1.006 0-.368-1.005-1.007-2.743-1.007zm32.458 1.644h-18.285v-1.37h18.285v1.37zm-32.457-9.508c-2.376 0-4.113-1.006-4.113-2.378 0-1.37 1.737-2.377 4.114-2.377 2.47.09 4.115 1.097 4.115 2.377 0 1.373-1.737 2.378-4.114 2.378zm0-3.292c-1.736 0-2.742.64-2.742 1.006 0 .365 1.006 1.005 2.743 1.005 1.92-.092 2.744-.823 2.744-1.006 0-.366-1.005-1.006-2.743-1.006zm32.458 1.646h-18.285v-1.37h18.285v1.37zm-32.457-9.417c-2.376 0-4.113-1.006-4.113-2.377 0-1.372 1.737-2.378 4.114-2.378s4.115 1.006 4.115 2.378c0 1.37-1.737 2.377-4.114 2.377zm32.458-1.646h-18.285v-1.37h18.285v1.37zm-23.77-83.38H152.14v-1.372h6.4l4.846-6.218-4.57-5.942h-6.676v-1.372h6.126l.73.092.458-.092h9.6l.915-.09.273.09h28.068v1.463h-9.508l-4.663 12.068h14.17v1.37h-28.433zm0-1.372h12.342l-4.57-12.07h-7.863l-4.663 5.943 4.753 6.128zm-1.647 0l-3.93-5.03v.093l-3.933 5.03 7.864-.092zm10.79-12.07l4.298 10.788 4.113-10.788h-8.41zm-18.56 0l3.75 4.846 3.747-4.846h-7.497z"/></svg>