<svg xmlns="http://www.w3.org/2000/svg" width="350" height="350" viewBox="0.5 568.5 350 350"><path fill="#071B36" d="M277.1 900.7h-122l-.1-.1H75.2v-63.4l.1.1v-70.5h68.5v-52.2H207v52.2H276.9v24.4h.2v109.5zm-79-1.4h77.7v-83.4h-87.3v40H163v-40H76.7v83.3H198zm-33.7-44.7h22.8V833h-22.8v21.6zm19.8-23h3V816h-10.7v4.2c4.3.4 7.6 4 7.7 8.4v3.1zm-15.4 0h14v-3c0-3.7-2.8-6.8-6.3-7.1v3H175v-3.1a7 7 0 0 0-6.3 7v3.2zm-4.4 0h3v-3.2c0-4.4 3.4-8 7.7-8.4V816h-10.7v15.7zm24.1-17h87.3V792h-.2v-8.5h-71l-.5.1H76.7V814.4H163v-16.2h25.5v16.2zm-12 0h10.7v-15h-22.8v15H175v-8.7h1.4v8.6zm29.1-31.9h12.9l.2-.3 14.2-14.3h-12.6l-14.7 14.6zm-14.5 0h12.4l.5-.3 6-6h-12.6l-6.3 6.3zm-14.4 0H189.3l.2-.3 6-6h-12.7l-6 6v.3zm-14.5 0H174.5l-6.2-6.3h-12.6l6 6 .2.2.3.1zm58 0H233l.1-.3 14.3-14.3h-12.7l-14.4 14.5zm-73 0h12.7l-.2-.3-6-6H141l6.2 6.2zm-14.5 0H145l-.2-.3-6-6-.1-.2-.3-.3-.4-.4-7.4-7.4H118l14.7 14.5zm102.3-.2h12l.7-.2 14.2-14.2h-12.6L235 782.5zm14.6 0h12.3l.5-.2 13.2-13.2v1.3-2.3H264l-14.4 14.3zm14.7-.1h11.3V771l-11.3 11.3zm-146.4 0h12.6L116.2 768h-12.6l14.3 14.2zm-2.2 0h.2L101.7 768H89l14.2 14.2h12.4zm-14.6 0h.3L87.1 768H76.6v2.2l12 12h12.5zm-24.5-.1h10l-10-10.1v10zm93.5-5.9l5.4 5.3 5.3-5.3H170zM207 775h4.5l7-7h-11.5v7zm-9.8 0h8.4v-59.2h-60.3V775h37.3-.2H197.1zm-53.6 0h.3v-7h-11.1l7 7h3.8zm-20.3 110H122v-11.6h-8.2V872h8.2v-6.2a15.4 15.4 0 1 1 1.4 0v6.2h8v1.2l.7.2h-8.8V885zm-.7-48.4a14 14 0 0 0-14 14 14 14 0 0 0 14 14 14 14 0 0 0 14-14 14 14 0 0 0-14-14zm104.3 45.8a15.8 15.8 0 0 1-12-5.8l-.3-.3h-.2l-.2-.2-.4-.8h-.1a15.3 15.3 0 0 1 2.2-18.9c5.8-5.8 15-6.1 21-.5h.2l12.1-12.1h-8.3v-1.6h9.6l.2-.1.1.1h.6v1h.1v9.5H250v-8l-12 12c1.8 2 3.1 4.5 3.6 7h.1v.6h.1l.1.6.2 2.2a15.4 15.4 0 0 1-15.3 15.3zm-11.3-7l.3.2a13.5 13.5 0 0 0 11 5.5c3.8 0 7.3-1.5 10-4.1 2.6-2.7 4-6.1 4-9.9v-1.2l-.2.1v-1l-.2-.4a13.8 13.8 0 0 0-13.7-11.2c-3.7 0-7.3 1.5-9.8 4.1a13.8 13.8 0 0 0-4.1 9.9c0 2.7.8 5.5 2.3 7.8h.1l.3.3v-.2zM65 848.6l-.8-1.4c-1.8-3-4.9-5-8.2-5.3-3.4-.3-6.5-2-8.7-4.9-2-2.6-2.8-6.3-2-9.7 1.2-5.3-2-10.9-7.3-12.4a12 12 0 0 1-7.3-16.5c2.3-4.9.3-11-4.5-13.7-3-1.6-5.2-4.6-5.8-7.8a12 12 0 0 1 2.2-9.6A10.4 10.4 0 0 0 21 753a12.1 12.1 0 0 1 0-18.1c4.2-3.7 4.9-9.9 1.5-14.3-2.1-2.4-3-6.1-2.2-9.6.8-3.4 3-6.3 6-7.8 4.8-2.7 6.7-8.6 4.4-13.8a12 12 0 0 1 0-9.8c1.4-3.1 4-5.5 7.3-6.6 5.2-1.7 8.4-7.1 7.3-12.4-.8-3.3 0-7 2-9.7A12 12 0 0 1 56 646c5.4-.4 9.6-5.1 9.6-10.7 0-3.5 1.4-6.8 4-9.1a12 12 0 0 1 9.4-3c5.5.7 10.6-3 11.7-8.4a11.8 11.8 0 0 1 15.4-9c5.3 1.7 11.1-.8 13.2-5.9a11.8 11.8 0 0 1 17-5.6c4.8 3 11 1.6 14.1-3 2-2.8 5-4.6 8.6-5 3.5-.3 6.8.7 9.3 3.1 4 3.8 10.3 3.8 14.4 0l.2-.2.2-.1c2.5-2.1 5.7-3.2 8.9-2.8a12 12 0 0 1 8.6 5c3.2 4.5 9.4 5.8 14 3 3-1.8 6.5-2.1 9.9-1 3.2 1 5.9 3.5 7.2 6.6 2.2 5.2 8 7.7 13.1 5.9 3.2-1.1 6.8-.8 9.8.9 3 1.7 5 4.7 5.7 8 1 5.5 6.2 9.3 11.6 8.6 3.5-.5 6.9.6 9.4 2.9 2.6 2.4 4 5.6 4 9.1 0 5.6 4.2 10.3 9.6 10.7a12 12 0 0 1 10.7 14.5c-1.2 5.4 2 11 7.3 12.5a12 12 0 0 1 7.3 16.5c-2.3 4.9-.3 11 4.5 13.7 3 1.6 5.2 4.5 5.8 7.8a12 12 0 0 1-2.2 9.6A10.4 10.4 0 0 0 330 735a12 12 0 0 1 0 18.1 10.7 10.7 0 0 0-1.6 14.3 11.7 11.7 0 0 1-3.7 17.5 10.6 10.6 0 0 0-4.5 13.7 12 12 0 0 1 0 9.9 12.5 12.5 0 0 1-7.3 6.6 10.7 10.7 0 0 0-7.2 12.4c.7 3.3 0 7-2 9.7a12 12 0 0 1-8.7 4.9c-2.9.2-5.3 1.5-7.2 3.6l-.8 1v-2.2h.1c2-2.2 4.7-3.5 7.6-3.8 3.1-.3 5.8-1.8 7.6-4.3 1.8-2.6 2.4-5.7 1.7-8.6a11.8 11.8 0 0 1 8-14 10.5 10.5 0 0 0 6.5-14.5 11.9 11.9 0 0 1 5-15.6c2.7-1.3 4.6-4 5.3-7 .6-3.1-.1-6.1-2-8.6-3.7-5-2.9-12 1.8-16.2 2.4-2 3.7-5 3.7-8s-1.4-5.9-3.7-7.9a12 12 0 0 1-1.7-16.2 10.5 10.5 0 0 0-3.3-15.6c-5.4-3-7.6-9.9-5-15.5 1.2-2.6 1.2-6 0-8.8a10.4 10.4 0 0 0-6.5-5.7c-6-1.8-9.6-8-8-14 .6-3.1 0-6.2-1.8-8.7-2-2.5-4.6-4-7.6-4.3a12 12 0 0 1-10.9-12c0-3.2-1.3-6-3.5-8.1-2.2-2-5.2-3-8.3-2.6-6.2.7-12-3.4-13-9.6a10.7 10.7 0 0 0-13.9-8 12 12 0 0 1-14.8-6.7c-1-2.8-3.5-5-6.4-6s-6-.6-8.7 1a12 12 0 0 1-15.9-3.3 10.4 10.4 0 0 0-7.5-4.4c-3.2-.3-6.2.7-8.3 2.9a11.9 11.9 0 0 1-16.3 0 10.7 10.7 0 0 0-8.3-2.9 10 10 0 0 0-7.5 4.4 12 12 0 0 1-15.9 3.4c-2.6-1.6-5.7-2-8.7-1-2.8.9-5 3-6.4 6a11.9 11.9 0 0 1-14.8 6.6c-2.8-1-6.1-.6-8.7 1a9.9 9.9 0 0 0-5 7 12 12 0 0 1-13.3 9.6c-3-.4-6 .5-8.3 2.6-2.3 2.1-3.5 5-3.5 8 .1 6.4-4.6 11.7-10.8 12.1-3.1.3-5.9 1.8-7.6 4.3a10.4 10.4 0 0 0-1.8 8.6 11.8 11.8 0 0 1-8 14 10.5 10.5 0 0 0-6.5 14.5c2.7 5.8.5 12.6-5 15.6-2.7 1.3-4.6 4-5.2 7-.7 3.1 0 6.1 1.9 8.6 3.7 5 3 12-1.8 16.2-2.3 2-3.6 5-3.6 8s1.4 5.9 3.6 7.9a12 12 0 0 1 1.8 16.2 10.5 10.5 0 0 0 3.3 15.6c5.4 3 7.6 9.9 5 15.5a10.5 10.5 0 0 0 6.5 14.5c6 1.8 9.5 8 8 14-.7 3.1 0 6.2 1.8 8.7 1.9 2.5 4.5 4 7.6 4.3 3.4.3 6.6 2.2 8.8 5.2h.1v2.8h.2zm111-.2h-1.4V839h1.4v9.5zM65 827l-.9-1.1A136.1 136.1 0 0 1 37.3 744a137.8 137.8 0 0 1 252.6-77l.8.9-.1.2c4.6 7 8.6 14.4 11.8 22l.2.4a138.2 138.2 0 0 1-14.9 133.7l-.8 1.2V823h.1c16.4-23.1 25-50.3 25-78.9 0-18.4-3.6-36.2-10.6-52.7-4.3 3.5-26.6 21.6-34.2 22.4-7.5.8-36.5 14.5-37.6 15l-.1.2h-.5l-.2-.3-2.7-7 11.3-5.2-18.9 6.6v-9.8l13.8-5.4-21.1 5.9-2-10 19.2-5.4-18.8 2.8-1.3-8.3h.6l39.4-11.2-2.5-1.5-18.1 3-1.8-7 .3-.3v.1c1.6-1.3 11-5.3 11-5.4a59 59 0 0 1 20.2-5.2c7.2 0 11.9 2 15.3 3.3l.4.2c2.4.9 4.4 1.7 6.7 1.8 3 0 6-1 8.8-3a137.5 137.5 0 0 0-113.4-60.4 135.6 135.6 0 0 0-117 65.9 25 25 0 0 0 12.5 3.5c2.5-.1 5-.9 7.7-1.8h.2c4-1.4 9-3 17-3.2 7.7-.3 19.8 2.2 34 6.9l.6.2.7.2-1.9 5.9-20.2-1.7-2 .8h.5l-.7.2 44.4 7.5-1.2 6.8h-.6l-29.1-4 30.2 9-2 5h-.5l-31-5.7 25.1 8.6-1.6 4.8-25.1-5.3 17 5.9-3.2 4.6h-.4l-.8-.2c-10.1-3-34.5-10.2-41.9-10.5-8.4-.4-34-13.6-38.3-15.8a136.3 136.3 0 0 0 17 129.8h.1v2.2h.2zm162.8-104.4l1.8 4.9c3.7-1.8 29.9-14.2 37.6-15 6.5-.6 27-17 33.7-22.3a140 140 0 0 0-11.3-21.1 17.2 17.2 0 0 1-9.6 3c-2.6 0-4.8-.8-7.5-2l-.7-.2c-3.5-1.3-7.7-3-14.2-3-10.7 0-27.4 8.8-29.9 10.1l1.2 4.9 17.3-3 4 2.4h.3l.1.2 7.8 4.6 13.2 3.6 12.7-4.3.2 1.2-12.9 4.4-14-3.7-7.3-4.4h-.1L210 694.3l.8 5.7 28.7-4.3.2 1.3-28.7 8 1.4 7.3 32.9-9 .3 1.2-25.7 10v6.7l30.8-10.5.5 1.2-23.4 10.6zm-179.4-29c5.8 3 30.2 15.3 37.7 15.5 7.5.3 32 7.4 42.3 10.5l.2.1 1.7-2.4-26-8.8.2-1.3 35.1 7.3.8-2.4-33-11.2.2-1.3 40 7.4 1.2-2.7-37.9-11.2.3-1.3 37.7 5.2.8-4.2-45.5-7.6-8.2 3-10.9 3.5-14.6-3 .3-1.3 14.1 2.9 10.6-3.5L109 682l19.4 1.6 1-3.6c-5.6-1.8-22.5-7-33.7-6.7-7.8.3-12.9 1.9-16.5 3l-.6.3c-2.7.8-5 1.5-7.7 1.6a26 26 0 0 1-13.1-3.6c-3.7 6-6.8 12.5-9.3 18.9zm112.8 70.3c-2.4 0-4.1-1-4.1-2.4s1.7-2.4 4-2.4 4.2 1 4.2 2.4-1.7 2.4-4.1 2.4zm0-3.4c-1.7 0-2.7.6-2.7 1s1 1 2.7 1 2.7-.6 2.7-1-1-1-2.7-1zm32.5 1.6h-18.3v-1.3h18.3v1.3zm-32.5-9c-2.4 0-4.1-1-4.1-2.4 0-1.3 1.7-2.4 4-2.4s4.2 1 4.2 2.4-1.7 2.4-4.1 2.4zm0-3.3c-1.7 0-2.8.6-2.8 1s1 1 2.8 1c2 0 2.7-.8 2.7-1 0-.4-1-1-2.7-1zm32.4 1.3h-18.2v-1.4h18.2v1.4zm-32.4-9.5c-2.4 0-4.1-1-4.1-2.4s1.7-2.4 4-2.4c2.6.1 4.2 1.1 4.2 2.4 0 1.4-1.7 2.4-4.1 2.4zm0-3.3c-1.7 0-2.8.6-2.8 1s1 1 2.8 1c2 0 2.7-.8 2.7-1 0-.4-1-1-2.7-1zm32.4 1.6h-18.2v-1.3h18.2v1.3zm-32.4-9.4c-2.4 0-4.1-1-4.1-2.4s1.7-2.3 4-2.3 4.2 1 4.2 2.3-1.7 2.4-4.1 2.4zm32.5-1.6h-18.3v-1.4h18.3v1.4zm6-83.5h-46.2.1-6v-1.4h6.8l4.9-6.1-4.8-6h-7v-1.3h59v1.4h-6.4l-4.8 6 4.8 6h6.7v1.4h-7zm-1.6-1.4h.3l-3.8-4.8-3.8 4.7v.1h7.3zm-20.4 0H189l4.6-6v-.1l-4.7-6h-11.2V644zm-12 0h10.7v-12h-10.6l-4.8 6 4.8 6zm-1.6 0l-3.8-5-4 5h7.8zm26.5-12l4 4.9 3.9-5h-7.9zm-34.3 0l3.9 4.8 3.8-4.8h-7.7z"/></svg>