<svg xmlns="http://www.w3.org/2000/svg" width="350" height="350"><path fill="#071B36" d="M190.8 332.6c-3 0-6-1.2-8-3.2-4.1-3.7-10.4-3.7-14.4 0a12 12 0 0 1-18-2 10.8 10.8 0 0 0-14-3 11.9 11.9 0 0 1-17-5.6c-2.2-5-8-7.6-13.2-5.8-3.2 1.1-6.8.9-9.8-.9a12 12 0 0 1-5.7-8c-.5-2.7-2.1-5.2-4.5-6.8l-1.3-.8h2.4c2.5 2 4 4.4 4.6 7.3a10.7 10.7 0 0 0 13.8 8 12 12 0 0 1 14.9 6.7c1 2.9 3.4 5 6.4 6 2.9 1 6 .6 8.6-1a12 12 0 0 1 16 3.4c1.8 2.5 4.5 4 7.4 4.3 3.2.3 6.3-.7 8.4-2.8a12 12 0 0 1 8.1-3.1c3 0 5.9 1.1 8 3.1 2.3 2.1 5.3 3.1 8.4 2.8a10 10 0 0 0 7.5-4.3 12 12 0 0 1 15.9-3.4c2.6 1.5 5.7 1.9 8.7 1 2.8-1 5-3.1 6.4-6 2.3-5.7 8.8-8.7 14.8-6.6 2.8 1 6.1.6 8.7-1 2.7-1.4 4.5-4 5-7 .6-3 2.2-5.5 4.6-7.3l.1-.1h2.5l-1.3.8c-2.3 1.6-4 4-4.5 6.8a11.8 11.8 0 0 1-15.5 9c-5.2-1.8-11 .8-13.2 5.8a11.8 11.8 0 0 1-17 5.6c-4.7-3-11-1.6-14 3a12 12 0 0 1-8.6 5l-1.2.1zM175.4 313a137 137 0 0 1-64-15.7l-1.6-.8h2.9a136.7 136.7 0 0 0 125.3 0h3.1l-1.7.8a137 137 0 0 1-64 15.7zM274 286l-1-1-.1.2v-.3H30.2v-.3H30v-47.2h.1v-1.1l-.2-.1v-.3l-.3-.4h.4l.1-.2h.1l.9-1.7v1.7h2.4l1-4.9.9-4.7 1.6-9.1a15 15 0 0 1 4.8-8.6l.7-.7.2-.2v.3c.8-.7 1.7-1.2 2.6-1.8l6.3-12.2 2.5-4.9v-.2c-1-1.7-2-4.2-2-6.7 0-6 2.8-11 7-12.7v-.1l14.3-7.2v-5.3l2.7 1V153c-1.6-1.9-4.8-6.2-4.8-10.8 0-1 0-1.8.2-2.7v-.4c1-5.9 4.8-10.1 9.5-10.1 1.2 0 4.4.2 7 2.1 2.8 2 4.4 5.2 4.4 9.5v16.7l3.6-1v4.6l-.1.8 7.3 3.7 7.4-3.9v-5.3l2.6 1.1V155a16 16 0 0 1-5.8-2.2l-.7-.6.8-.5c0-.1 1.4-1 2.7-2.8a14 14 0 0 1-1.9-6.5l.2-2.7v-.5l1-3.2v-.1c1.6-4 4.8-6.7 8.5-6.7 1.2 0 4.4.2 7 2l.2.2h.5v.3l1.3 1.2.2.2v.1c1 1.3 1.7 3 2 4.8v.3l.2 2.5v1h.1v.5c0 5.6 5.2 9.3 5.3 9.4l.8.5-.8.6c-.4.3-3 1.9-5.3 2v2.6l3.4-1v5.2l7.4 3.7 7.3-3.7v-5.3l2.7 1V153c-1.6-1.8-4.9-6.3-4.9-11 0-7.3 4.3-13 9.7-13 1.2 0 4.4 0 7 2l.4.2h.3v.2c2.5 1.9 3.8 5.1 3.8 9.1v16.8l3.6-1v5.3l7.3 3.7 7.3-3.7v-1.3l.1.2v-4.3l2.7 1.1V155a16 16 0 0 1-5.9-2.2l-.7-.6.8-.5c.1-.1 1.4-1 2.8-2.8a17 17 0 0 1-2-6.5v-1.1l.2-.1.1-1v-1h.2l.8-3.2v-.2h.1c1.7-4.1 4.9-6.9 8.5-6.9 1.2 0 4.4.2 7 2.1 1.3 1 2.2 1.8 2.7 2.9l.3.4-.2.1c1 1.7 1.5 3.8 1.5 6.4v16.6l3.6-1v5.3l7 3.5 6.8-3.5-1-2 1.1 1.1v-4.4l2.8 1v-4l-.1-.2c-1.5-1.9-4.8-6.4-4.8-11 0-7.3 4.3-13.1 9.7-13.1 1.2 0 4.4.2 7 2.1l.4.2h.3v.2c2.4 1.9 3.8 5 3.8 9.1v16.8l3.6-1v4.6l-.1.7 7.4 3.7.2-.1 7.2-3.8v-5.3l2.7 1.1V155a15 15 0 0 1-5.9-2.2l-.7-.6.8-.5s1.5-1 2.7-2.8a13.5 13.5 0 0 1-1.8-6.5l.2-2.6v-.5l1-3.3c1.6-4 4.8-6.7 8.5-6.7 1.2 0 4.4.2 7 2l.2.2h.3v.3c2.6 1.9 4 5 4 9v2.8c.8 5 5.1 8 5.2 8.2l.9.5-.9.6s-2.9 1.8-5.2 2v2.5l3.6-1v4.5l-.1.7 5.6 2.8c4.4 2.3 7.4 6.1 8.5 11l.7 3.6h5.6v-.3l.2.2.5-1v1.2h.3v.4l.4.2-.3.4v46.2-.2 29l.3.2-28.8 28.6v.7h-.6l.4 1.4zm-13.4-2.5h12.1l.2-.2v-46.7H31.3v.2h.1v4.4-.2 42.6h229.1zm13.7-14.1v12.6l27-27.2v-24l-.2.2v-48.1l-23.6 46-.1-.3-3.6 7h.4v.3l1.5.5h-1.5v33zM263.6 235h8.7l4.2-8-2.5-12.2c-1-4.3-3.7-8-7.7-10l-5.6-2.8c-.3.3-.6.5-1 .6l-11.3 3.7v21.3H247V207l-.6.3.3-1-6.1-3.3-.7-.6-.1.1-.1-.2-8.6 4.4c-4 2-6.9 5.9-7.6 10l-3.3 18.4h12.4v-18.3h1.4V235h28.3v-18.3h1.3v18.4zm-45 0h.2l3.3-18.4c1-4.9 4-8.9 8.4-11.2l.3-.2-7-3.4-1.2.8-11.2 3.7v.4l1.1 4.4.1-.1.2.6.1.1v.3l2.3 9 1.2 4.7-4.9 6.8-5.5-6.4.3-1.5v-.2h-.2l.2-.2 1.5-7.5-.1-.1.2-.3 2-10.1-.3-.1h.1l-5.3-3 .2.5-.8-.7-.3-.2-.8-.8-6.5 3.3-.7.2v.2h-.2l-1.8.8c-4 2-6.8 5.9-7.6 10l-3.4 18.4h12v-18.3h1.4v18.3h22.8v.3zm-58.6 0h21.3l3.3-18.5c.9-4.9 4-8.9 8.4-11.2l.7-.3-6.3-3.1-1.3.8-11.2 3.7h-.1v21.3h-1.4v-20.7l-.6.3.3-1-.3-.1.2-.1-6-3.3-.6-.6-.4.2-8.7 4.4c-4 2-6.9 5.8-7.6 10l-3.4 18.3h12.4v-18.3h1.3v18.3zm-37 0h22l3.3-18.4c1-4.9 4-8.9 8.5-11.2l.3-.2-6.8-3.3c-.4.4-.9.7-1.4.9l-11.2 3.7 1.2 4.7.1.4h.1l.4.2-.2.4-.1.2 1 4h.1v.2l1 4 .1.2v.3l1 4.5-4.8 6.9-5.4-6.4.2-1.6h.1l1.5-7.7-.1-.1v-.2l2.1-10.2h-.3.1l-6-3.3-.7-.6v.1l-.1-.2-8.7 4.5c-4 2-6.9 5.8-7.6 10l-3.3 18.3h12.2V217h1.4v18.2zm-15 0l3.3-18.5c1-4.6 3.7-8.4 7.6-10.7l.6-.4h.1l.2-.2-6.8-3.3-1.3.8-11.3 3.7v21.3H99v-20.7l-.6.3.3-1-.3-.1h.1l-5.8-3.3c-.5-.3-.9-.6-1-1l-7.5 3.8-.1.4-.2-.1h-.4l-1.4.7c-4 2-6.9 5.9-7.6 10L71 235.3H83v-18.3h1.6v18.3H108zm-38 0l3.3-18.4c.9-4.9 4-8.9 8.4-11.2l.7-.3L76 202c-.3.3-.7.6-1.3.7l-11.2 3.7 1.2 4.9v.4l.2.1v.4L67 221v.2l1.2 4.6-5 6.8-5.2-6.4.3-1.6h-.1v-.1l1.5-7.6.1-.1 2-9.9h-.1l.1-.5-.4-.1-5.8-3.4-.8-.8-8.4 4.3h-.1l-.4.3-3 2.1-.8.7-.6.5c-1.7 2-2.8 4.4-3.2 6.8l-1.7 9h.1v.1l-1.8 9.3h12.8v-18.3H49v18.3h21zm-8.4-6.5l1.5 1.9 3.8-4.9-.7-3-4.6 6zm148-.1l1.6 2 3.5-4.9-.7-3-4.5 5.9zm-73.7-.1l1.7 2 3.4-5-.6-2.9-4.5 5.9zM59.4 226l1.3 1.5 5-6.5-.7-2.9-5.3 6.9-.3 1zm148 0l1.1 1.4 5-6.6-.3-1.1-.4-1.6-5.3 6.9-.2 1zm-73.8-.2l1.3 1.5 5-6.4-.8-2.7-5.4 7.2v.4zm144-.5v.2l4.2-8.4h-.2v-33h1.4V215l13.5-26.3h-.1l-2.8-13c-.9-4.4-3.6-8-7.7-10.1l-5.6-2.9c-.4.5-.8.8-1.4 1l-11 3.7v21.8h-1v-.5h-.3v-21l-.9.3.3-.8-5.5-3 .2.4-.6-.7-.4-.1a3 3 0 0 1-1-1l-10.1 5.3.3-.1-.8.3c1.6.2 3.7.7 5.7 2l.3.3.4.1-.1.1c2.5 2 3.8 5.1 3.8 9v1.6c0 5.7 5.2 9.3 5.3 9.4l.8.6-.8.5c-.5.4-3.2 2-5.3 2.1v2.3l3.4-1v4.6c0 .3 0 .7-.2 1l.1.2 5.2 2.6c4.3 2.3 7.4 6.1 8.5 11l2.3 10.7zm-142.4-7.6l-1 4.6 4.5-5.7-.7-2.6-2.6 3.6-.1.4-.1-.3zm73.8.2l-.9 4.2 4.2-5.6-.3-1.2.2.1-.5-1.7-2.6 3.4-.1.8zM61 217.5l-.9 4.5 4.3-5.6-.4-1h.2l-.3-1.6-2.9 3.7zm75.8-8.3l-1 5.5 1.7-2.5-.7-3zm-74.1 0l-1.1 5.3 1.8-2.4-.7-3zm147.7 0l-1 5.2 1.7-2.4-.7-2.8zm-63.3-11l-6.4 1.8c-.6.2-1 .6-1.1 1l-1.6 4 10.3-3.4c.7-.2 1.1-.8 1.1-1.5v-2.6l-2.3.6zM258 198v.1l-6.5 1.9c-.6.1-1 .4-1.1.9l-1.6 4 10.4-3.4c.6-.2 1-.8 1-1.5v-2.7l-2.2.7zm-73.6 0l-6.5 2c-.6.1-1 .4-1.1.9l-1.6 4 10.4-3.4c.6-.2 1-.8 1-1.5v-2.6l-2.2.6zm36.4.1l-6.4 1.9c-.6.1-1 .5-1.1.9l-1.6 4 10.3-3.4c.7-.2 1.1-.8 1.1-1.5v-2.6l-2 .5v.1l-.3.1zm-147.8 0l-6.5 2c-.5.1-.9.4-1 .9l-1.6 4 10.3-3.4c.6-.2 1.1-.8 1.1-1.5v-2.6l-2.3.6zm37.1 0l-6.5 1.9c-.5.1-.9.4-1 .9l-1.6 4 10.3-3.4c.7-.2 1.1-.8 1.1-1.5v-2.6l-2.3.6zm-54.6-.6v3c0 .5.3 1 .8 1.3l5.5 3-.7-4.3c0-.5-.4-1-1-1.2l-1.8-.6-.5-.2-2.3-1zm148-.1v3c0 .5.2 1 .7 1.3l5.5 3.1-.6-4.4c-.1-.5-.5-1-1-1.2l.1-.3v-.1l-1.9-.8v.4l-1.5-.6-1.3-.4zm-73.6 0v3c0 .5.3 1 .7 1.3l5.5 3.1-.6-4.4c-.1-.5-.5-1-1-1.2l-2.9-1-.5-.3-1.2-.5zm110.8-.1v3c0 .5.3 1 .7 1.3l5.5 3.1-.6-4.4c-.1-.5-.5-1-1-1.2l-2-.7-1.4-.5v-.1l-1.2-.5zm-148 0v3c0 .5.3 1 .8 1.3l5.5 3.1-.7-4.4c0-.5-.4-1-1-1.2l-1.9-.7-1.4-.5-1.2-.6zm74.3 0v3c0 .5.3 1 .7 1.3l5.5 3.1-.6-4.4c-.1-.5-.5-1-1-1.2l-2-.7-1.3-.5-1.3-.6zm65.2 7.3l7.2-3.6v-5.7l2.6 1.2v-2.3c-2.4-.2-5.7-2-5.9-2.2l-.7-.6.8-.5c.1 0 1.5-1 2.7-2.7-1.2-2.2-1.9-4.5-1.9-6.7 0-2.3.5-4.5 1.2-6.4v-.1c1.2-3 3.3-5.2 5.9-6.2l5.4-2.7h-.3l.2-.2-6.4-3.2c-.4.4-.8.7-1.3.9l-10.8 3.5.2.1-.5.1 1.6 6 3.2 13-4.9 6.8-2.8-3.2-2.8-3.1 3.8-19.9-5.6-3 .3.4-.8-.8-.2-.1-1-.8-6.4 3.3-.5.2v.2h-.2l-3.9 1.8c1.6.1 4 .6 6 2 2.9 2 4.4 5.3 4.4 9.6V196l3.5-1v5.3l7.4 3.7.3-.3v.8h.2zm-73.6-.3v.3l7.1-3.6v-5.6l2.6 1.2v-2.4c-2.3-.2-5.2-1.8-5.8-2.2l-.8-.6.8-.5s1.5-1 2.8-2.7c-1.3-2.2-2-4.5-2-6.7 0-3.5 1-6.7 2.6-9v.1-.2c.8-1 1.7-2 2.7-2.7l.3-.2 1.5-.7 5.6-2.8h-.2l.2-.1-6.5-3.2-1.3.8-10.8 3.6.3.1-.4.1 4.8 19.1-4.9 6.8-2.7-3.2h-.2l-.2-.2-.3-.2-.2-.3v-.1l-1.5-1.8-.3.4.1-.6-.4-.5.1-1v-.2l.1-.2 1.5-7.5 2.1-11-5.6-3 .3.5-.8-.8-.2-.1-1-.8-11 5.6c1.6.1 3.8.7 5.9 2v.1l.6.1v.3l1.2 1.2 1 .7h-.4c.9 1.2 1.4 2.6 1.8 4.2v.5c.2.8.2 1.6.2 2.4v16.7l3.6-1V200.6l7.4 3.7h.3zm-44.8-3.4l7.7 3.7 7.1-3.6v-5.6l2.6 1v-3.9h-.1v-.1c-1.5-1.9-4.8-6.3-4.8-11l.2-2.5v-.4l1-3.4c1.3-3.1 3.4-5.5 6-6.4h.2l5-2.6h-.2l.2-.2-6.4-3.2c-.4.4-.9.7-1.3.9l-11 3.7.1.1v21.7h-1v-.5h-.4v-21l-.8.3.2-.6-.4.1.4-.4-1-.4h.2l-5.3-3c-.4-.1-.8-.4-1-.8l-11 5.6c1.6.2 4 .6 5.8 2l.4.2.4.2h.1v.2h1.3l-.9.5.8.8.9.6h-.4c1.3 2 2 4.3 2 7.1v1.5c0 5.7 5.2 9.3 5.3 9.4l.8.5-.8.6c-.4.4-3.1 2-5.3 2.1v2.4l3.6-1.1v4.6l-.2.9zm-30 3.5l.3.1 7.3-3.7v-5.3l2.6 1v-3.8H94v-.2c-1.5-1.9-4.7-6.2-4.7-10.8 0-1 0-2 .2-2.9v-.2c0-.3.2-.6.3-.8v-.2c.2-.9.5-1.6.8-2.3.9-2.3 2.3-4.1 4-5.3v-.1l.2-.1 1.6-.8.4-.2 5.1-2.7h-.3.1l-6.3-3.3c-.3.4-.8.7-1.3.9l-11 3.6.2.1h-.3l1.5 6h.2v.1l1.6 6.3H86l1.7 6.8-4.8 6.8-2.9-3.2-2.8-3.1V186l.1-.1.7-3.9h.1l2.9-14.8-5.6-3.2.3.6-.9-.8-.2-.1-.9-.9-10.2 5.2-.7.4c1.5.1 3.9.6 6 2l.4.2.6.2-.2.2 1.1 1 .3.3-.1.1c0 .1 0 .2.2.3l.4.3h-.2a12.7 12.7 0 0 1 2 7v4.9h-.2v11.8l3.7-1.1v4.5l-.1.9 7 3.4zM188 201l7.2 3.4 7-3.5v-5.3l2.7 1v-4.1c-1.6-2-4.8-6.3-4.8-11 0-.8 0-1.7.2-2.5v-.5c.9-4.7 3.5-8.4 7-9.7l5.6-2.9-6.3-3-1.3.8-11 3.6V189h-1v-.5h-.3v-20.8l-.9.2.3-.8h.1v-.2l-6.1-3.3-1-.8-10.9 5.6c1.6.2 3.8.6 5.8 2 0 .1.1.2.3.2l.4.1h-.1l1.6 1.7.5.5h-.3a12 12 0 0 1 2 7v1.6c0 5.7 5.2 9.3 5.2 9.4l.9.6-.9.5c-.4.4-3 2-5.3 2.1v2.4l3.6-1.1v4.6c0 .3 0 .6-.2.9zm-133.8-9.6l-6.8 13 6.9-3.4v-5.3l2.7 1 .1-3.9h-.3l.1-.2-.4-.5-1-1h.1l-.7-1-.7 1.3zm4 5.8l2.4 1c1 .3 1.7 1.2 1.8 2.2l.6 3.5 1.2-3.4c.4-.8 1.1-1.5 2-1.7l5.6-1.6v-12.5l.2-.1v-5.8c-.8.2-1.3 1.5-1.5 2v.6h-2.7v-.8c0-.1 0-6.1 1.2-8.3l-.2-.2c-1 1.3-4 4.4-14.6 4.4l-.5 1.9h4.1v8H61v1.3h-4.4v-8h-3v1.8c0 2 .7 4.1 2 6.4l.1.2v.2l.9 1.4.4.6.3.3.6.9.1.1.4-.2v.6c.4.2 1.7.7 3.7.7 2.3 0 3.2-1.1 3.4-1.3v-.8l1.6.9-.5.4c-1 1.4-2.6 2-4.6 2-1.7 0-2.9-.2-3.7-.5v3.8zm148 0l2.2.8c1 .4 1.8 1.3 1.8 2.3l.6 3.4 1.2-3.2c.3-.8 1-1.5 1.9-1.7l5.9-1.7v-18.4c-1 .4-1.4 2.2-1.4 2.2v.5h-2.8v-.8c0-.1 0-6.1 1.2-8.2a10.9 10.9 0 0 0-7.2-2.6 6 6 0 0 0-2 .4v-.1l-1.5.7a11 11 0 0 0-4.6 7.7h4.2v8h3v1.3h-4.4v-8h-3v1.8c0 5 4 9.7 4.6 10.1h.1v.1c.5.3 1.7.8 3.8.8 2.5 0 3.4-1.3 3.5-1.4l.1-.4 1 .5v.2c0 .3-.2.7-.5 1-.5.5-2 1.4-4.1 1.3-1.7 0-3-.3-3.7-.6v4h.1zm-73.7 0l2.4 1c1 .3 1.7 1.2 1.8 2.2l.6 3.2 1-3c.4-.8 1.2-1.6 2-1.7l5.7-1.6v-18.6c-.9.6-1.2 2-1.2 2v.6h-2.6v-.7c0-.1 0-5.9 1.1-8.2l-.3-.2c-1 1.4-4.2 4.2-14.6 4.3l-.4 1.9h4.2v8h3v1.3h-4.4v-8h-3v1.8c0 4.6 3.5 9 4.4 10l.2.1s1.3 1 4 1c2.3 0 3.2-1.1 3.4-1.3v-.7l1.5.9-.4.4c-1 1.4-2.7 2-4.6 2-1.8 0-3-.3-3.8-.6v4zm110.8 0l2.3 1c1 .3 1.8 1.2 1.9 2.2l.5 3.2v-.2.2l1.3-3c.3-1 1-1.6 1.9-1.8l5.7-1.6v-18.4c-1 .4-1.3 2.1-1.3 2.1v.5h-2.7v-.6c0-.1 0-6.4 1.2-8.4h-.2c-1.2 1.7-4.7 4.2-14.8 4.3l-.4 2h5.3l-1 7.8v.1h3v1.4h-3c-.4 0-.8-.4-1-.5-.3-.2-.3-.7-.3-1v-.2l.6-6.3h-3.9v1.8c0 2.4 1 4.8 2.1 6.6l.2.1-.1.1 1.8 2.7.7.6s1.2 1 3.8 1c2.3 0 3.2-1.2 3.4-1.4v-.6l1.5.8-.4.5c-1 1.4-2.7 2-4.7 2-1.5 0-2.7-.4-3.5-.6v3.6h.1zm-143 6.2v.2l1.1-3c.4-1 1.1-1.6 2-1.8l5.6-1.6v-18.4c-.9.5-1.2 2.1-1.2 2.1v.5H105v-.6c0-.1 0-6.3 1.2-8.3l-.3-.1c-.8 1.1-3.4 3.4-10.5 4H95c-1 .2-2.3.2-3.6.2h-.1l-.2.7c0 .2 0 .4-.2.7v.3l-.2.4H96l-1 7.8v.1h3v1.4h-3c-.4 0-.9-.4-1-.5-.3-.2-.4-.6-.4-1v-.2l.7-6.3h-3.8v1.8c0 5.2 4.5 10 4.6 10.1 0 0 1.3 1 3.9 1 2.5 0 3.4-1.4 3.4-1.5l.2-.4 1 .5v.2c0 .4-.4.8-.6 1-.6.5-1.8 1.3-4.2 1.2-1.6 0-2.8-.3-3.6-.5v3.9l2.3 1c1 .3 1.7 1.1 1.8 2.2l.7 3.1.3-.2zm74.2 0v.2l1.2-3c.3-1 1-1.6 1.9-1.8l5.7-1.6v-18.5c-1 .5-1.3 2.2-1.3 2.2v.5h-2.8v-.8c0-.1 0-6 1.2-8.2l-.1-.2c-1 1.5-4.4 4.3-14.7 4.4-.3.6-.4 1.2-.5 1.9h5.2l-1 7.8v.1h3v1.4h-2.8c-.5 0-1-.4-1.1-.5-.3-.2-.4-.6-.4-1v-.1l.6-6.4h-3.8v1.8c0 2.5 1 5 2.1 6.7a20 20 0 0 0 2.5 3.4s1.3 1 3.8 1c2.3 0 3.2-1.2 3.4-1.3v-.7l1.3.7v.2c0 .4-.5.9-.7 1-.5.5-1.8 1.3-4.2 1.2-1.5 0-2.7-.2-3.5-.5v4l2.2.8c1 .4 1.8 1.2 1.9 2.3l.6 3.1h.3zm-10.4-12c1 .7 2.8 1.5 4.2 1.5v-.2h-.2v-.2c-.5-.6-1.3-1.6-2.1-2.9l-2 1.9zm73.7 0c1 .7 2.8 1.5 4.2 1.5v-.2h-.3l.2-.2-.1-.1c-.5-.6-1.3-1.6-2.1-2.9l-2 2zm20.4-4.6v6.1c1.3-.2 2.9-.9 3.8-1.4a16 16 0 0 1-3.8-4.7zm-147.9 0v6.1c1.3-.2 2.8-.9 3.8-1.4a16 16 0 0 1-3.8-4.7zm74.3 0v6.1c1.2-.2 2.8-.9 3.7-1.4-1.1-1-2.7-2.6-3.7-4.7zM81 189.4l1.5 1.8 3.5-4.9-.6-2.6-4.4 5.7zm147.8-.1l1.6 1.8 3.4-4.9-.6-2.6-4.4 5.7zm-73.4-.1l1.5 1.8 3.5-4.9-.7-2.7-4.3 5.8zm-76.7-2.6l1.3 1.7 4.8-6.4-.2-.4h.1l-.5-2v-.4l-.6.7-5 6.5v.3zm147.8 0l1.4 1.6 4.8-6.2-.1-.4-.6-2.4-5.5 7.2v.2zm-73.6 0l1.5 1.7 5-6.5-.8-2.8-5.7 7.5zm143-6.2l1.4 6.7 3.4-6.7h-4.8zm-141.4-1.8l-1 4.9 4.6-6.1-.7-2.7-3 3.9zm-75 3.8l-.3.8.2-.2 4.3-5.5-1-2 .8.9-.3-1.7-2.9 3.6v.6l-.9 3.5zm148.5-3.3l-.8 4.1 4.3-5.7-.9-1.9.9.9-.4-1.6-3 3.7-.1.5zm26.2.8h.1c.4-1 1-2.3 2.4-2.6v-.2a9 9 0 0 0-1.6-3.8c-.5 1.4-.8 4.7-.9 6.6zm-147.8 0c.4-1 1-2.3 2.4-2.6a9 9 0 0 0-1.6-3.9 35 35 0 0 0-.8 6.5zm110.7 0c.5-1 1.1-2.4 2.5-2.7v-.1a9.3 9.3 0 0 0-1.6-3.8c-.5 1.5-.8 4.6-.9 6.5zm-36.5 0h.1c.4-1 1-2.3 2.3-2.7a9 9 0 0 0-1.6-3.9c-.4 1.5-.7 4.7-.8 6.5zm-37 0c.4-.8.9-2.2 2.2-2.7-.3-1.4-.7-2.6-1.4-3.6-.5 1.6-.7 4.5-.8 6.2zm-74.3 0c.4-1 1-2.4 2.5-2.7v-.1h.1c-.4-1.6-.9-2.8-1.7-4-.6 1.5-.9 4.8-1 6.7zm160.5-10l-1.2 5.8 2-2.5-.8-3.3zm-73.6-.1l-1 5.7 1.7-2.4-.1-1-.6-2.3zm-74.2 0l-1.1 5.7 1.9-2.4-.8-3.2zm13.5 1a9.7 9.7 0 0 0-3.6 4.4c1.7 0 3.1-.2 4.4-.3h.4c4.6-.6 6.8-2 7.8-2.8l.3-.4.2-.3a11.4 11.4 0 0 0-8-1.3l-.3.2v.1l-1.2.4c0-.1 0 0 0 0zm147.7 0a8.9 8.9 0 0 0-3.4 4.3c10-.2 12.6-3 13.1-3.9a11.3 11.3 0 0 0-8-1.2l-1.7.9zm-111 .2c-1.3.9-2.4 2.3-3.2 4 9.7-.1 12.4-2.8 13-3.7-2.6-1.6-5.5-1.5-6-1.5a5 5 0 0 0-2.2.3l-1.6.9zm37 0c-1.2.9-2.3 2.3-3.1 4 9.8-.1 12.4-2.8 13-3.8a11.3 11.3 0 0 0-6-1.5c-.5 0-1 0-1.6.2l-2.2 1zM58 171c-1.2 1-2.3 2.3-3 4.2 9.7-.2 12.3-3 12.9-4a11.8 11.8 0 0 0-5.9-1.4c-.7 0-1.5.2-2.2.4l-1.3.7-.5.2zm182-12.2l-6.3 1.8c-.6.2-1 .6-1.1 1l-1.6 4 10.3-3.4c.7-.2 1.1-.8 1.1-1.5v-2.6l-2 .5v.1l-.3.1zm-36.4 0l-6.5 1.8c-.6.2-1 .6-1.1 1l-1.6 4 10.4-3.4c.6-.2 1-.8 1-1.5v-2.6l-2 .6v.1h-.2zm73.7 0l-6.5 1.8c-.6.2-1 .6-1.1 1l-1.6 4 10.4-3.4c.6-.2 1-.8 1-1.5v-2.6l-2.2.7zm-185 0l-6.5 1.8c-.5.2-.9.6-1 1l-1.6 4 10.3-3.4c.6-.2 1-.8 1-1.5v-2.6l-2.1.6v.1h-.2zm74.2 0l-6.4 1.8c-.6.2-1 .6-1.1 1l-1.6 4 10.3-3.4c.7-.2 1.1-.8 1.1-1.5v-2.6l-2 .5v.1l-.3.1zm-43.7 1.8c-.5.1-.9.5-1 1l-1.5 4 .9-.3 9.3-3 .8-.5.3-.7v-3l-2 .6v.1l-.7.2-6.1 1.6zm-10.7-2.4v2.8c0 .6.2 1.1.7 1.4l5.5 3-.7-4.3c0-.6-.4-1-1-1.2l-2-.7-1.4-.5-1.1-.5zm147.8 0v2.8c0 .6.3 1.1.7 1.4l5.5 3-.6-4.3c-.1-.6-.5-1-1-1.2l-2-.7-1.3-.6-1.3-.4zm-73.6 0v2.8c0 .6.3 1.1.7 1.4l5.5 3-.6-4.3c-.1-.6-.5-1-1-1.2l-2-.7-1.4-.5-1.2-.5zm-37.2 0v2.7c0 .6.3 1.1.7 1.4l5.5 3-.6-4.3c-.1-.5-.5-1-1-1.2l-2-.7-1.3-.5-1.3-.4zm-74.3 0v2.7c0 .6.3 1.1.8 1.4l5.5 3-.7-4.3c0-.5-.4-1-1-1.2l-2-.7-1.3-.5-1.3-.4zm147.9 0v2.7c0 .6.3 1.1.7 1.4l5.5 3-.6-4.3c-.1-.5-.5-1-1-1.2l-1.9-.6-1-.4-1.7-.6zm40-.4l2.1.8c1 .4 1.8 1.3 1.9 2.3l.5 3.6 1.3-3.4a3 3 0 0 1 2-1.7l5.6-1.6V139.2c-1 .5-1.3 2.1-1.3 2.1v.5H272v-.6c0-.1 0-6.3 1.1-8.4l-.2-.1c-1 1.3-4.1 4.2-14.7 4.3l-.4 2h5.2l-1 7.8v.1h3v1.4h-3c-.4 0-.8-.4-1-.5-.3-.2-.3-.7-.3-1v-.2l.7-6.3h-3.8V142.3c0 2.4 1 4.8 2 6.6l.2.1v.1c.5 1.1 1.2 2 1.6 2.5v-.1l.9.8s1.2 1 3.8 1c2.6 0 3.4-1.4 3.5-1.5l.2-.4 1.2.6-.4.5c-1 1.4-2.7 2-4.7 2a10 10 0 0 1-3.4-.6h-.1v3.9h.1zm-111 0l2.4.8c1 .4 1.8 1.3 1.8 2.3l.6 3.5 1.2-3.2c.3-.8 1-1.6 1.9-1.7l5.7-1.6v-18.6c-1 .5-1.3 2.1-1.3 2.1v.6H161v-.8c0-.1 0-6.3 1.3-8.4l-.2-.1c-1 1.5-4.3 4.4-14.7 4.4l-.4 2h4.2v8h3v1.3H150v-8h-3v1.8c0 4.5 3.4 8.7 4.4 9.8l.3-.3v.7l1 .5h.1c.7.2 1.6.3 2.8.3 2.3 0 3.2-1 3.4-1.2v-.7l1.5.8-.4.5c-1 1.3-2.7 2-4.7 2-1.8 0-3-.3-3.6-.5l-.2-.1v3.7h.1zm-74.1 0l2.3.7c1 .4 1.7 1.3 1.8 2.3l.6 3.5 1.1-3.2c.4-.8 1.1-1.6 2-1.7l5.6-1.6h.1v-17.2c0-9.2-7.1-10.2-10.1-10.2-3.9 0-7.2 3.5-8 8.7H77v8h3.1v1.3h-4.4v-8h-3v1.8c0 4.5 3.4 8.7 4.4 9.8l.4-.3v.7c.4.3 1.6.8 3.7.8 2.3 0 3.2-1 3.4-1.2v-.7l1.6.8-.5.5c-1 1.4-2.5 2-4.6 2-1.6 0-2.9-.4-3.6-.6v3.7zm147.8 0l2.3.7c1 .4 1.7 1.3 1.8 2.3l.6 3.5 1.2-3.2c.3-.8 1-1.6 1.9-1.7l5.8-1.7v-18.5c-1 .5-1.3 2.1-1.3 2.1v.6h-2.8v-.7c0-.1 0-6 1.2-8.3l-.2-.1c-.9 1.4-4 4.2-14.6 4.3-.2.7-.4 1.3-.4 2h4v8h3.2v1.3h-4.4v-8h-3v1.8c0 4.5 3.4 8.7 4.4 9.8l.3-.3v.7c.4.2 1.7.8 3.9.8 2.5 0 3.3-1.3 3.4-1.4l.2-.4 1.3.6-.5.5c-1 1.4-2.6 2-4.5 2-1.8 0-3-.3-3.8-.6v3.8zM193 161l.6 3.3 1.2-3.1c.4-.8 1-1.6 2-1.8l5.6-1.5v-18.6c-.8.5-1.2 1.8-1.3 2v.6h-2.7v-.7c0-.4 0-3.2.4-5.6l.2-.8v-.3l.6-1.6h.1l-.2-.2c-.9 1.3-4 4.3-14.6 4.4a13 13 0 0 0-.4 2h3l.3-.1h2.5l-.8.3-.8 7.4v.1h2.9v1.4h-2.8c-.5 0-1-.4-1.1-.5-.3-.2-.4-.6-.4-1l.7-6.4h-3.8v.4l.3.5h-.3v1c0 2.4 1 4.7 2 6.6v.1l1.8 2.5.9.7s1.2 1 3.8 1c2.6 0 3.4-1.4 3.5-1.5l.1-.4 1 .5v.3l-.5.9c-.5.5-2 1.4-4.2 1.2-1.6 0-2.7-.2-3.6-.5v4l2.3.8c.8.6 1.6 1.5 1.7 2.6zm-78.4-3.2l2.3 1c1 .3 1.7 1.2 1.8 2.2l.6 3.2 1-3c.4-.8 1.2-1.6 2-1.8l5.8-1.6v-18.3c-.9.6-1.2 2-1.2 2v.5H124v-.7s0-6 1.2-8.2l-.3-.3c-1 1.5-4.2 4.2-14.6 4.3-.3.7-.5 1.3-.5 2h5.2l-1 7.8v.1h3v1.4h-2.9c-.4 0-.9-.4-1-.5-.3-.2-.4-.6-.4-1v-.2l.6-6.3h-3.7v.1h-.1v1.8c0 2.4 1 4.8 2 6.6l.3.1-.1.1a18 18 0 0 0 1.7 2.5v-.1l.7.7h.2v.1c.4.2 1.6.8 3.8.8 2.5 0 3.4-1.3 3.4-1.4l.2-.4 1 .5v.2c0 .3-.3.7-.5 1-.6.5-2 1.4-4.2 1.2-1.6 0-2.8-.2-3.6-.5v4.1h.1zM257 152c1 .7 2.9 1.5 4.3 1.5l-.3-.2v-.2c-.5-.6-1.3-1.6-2.1-2.9-.7.7-1.4 1.4-2 1.8zm-73.6 0c1 .7 2.8 1.5 4.2 1.5h-.2l.2-.3-.2-.2c-.5-.5-1.3-1.5-2.1-2.8a30 30 0 0 1-2 1.8zm-74.3 0c1.1.7 2.9 1.5 4.2 1.5l-.2-.2.1-.2c-.5-.6-1.3-1.6-2.1-2.9-.8.7-1.4 1.4-2 1.8zm20.5-4.6v6.1c1.3-.2 2.8-1 3.8-1.5a16 16 0 0 1-3.8-4.6zm148 0v6.1c1.2-.2 2.8-1 3.6-1.5-.8-.8-2.5-2.3-3.7-4.5zm-4-6.8c.4-1 1-2.3 2.3-2.6a9 9 0 0 0-1.6-3.9 35 35 0 0 0-.8 6.5zm-148 0h.2c.3-.9 1-2.3 2.2-2.6a9.7 9.7 0 0 0-1.5-3.8c-.5 1.6-.7 4.6-.8 6.4zm110.8 0c.5-1 1.1-2.4 2.4-2.7a9 9 0 0 0-1.6-3.9 33 33 0 0 0-.8 6.5zm-36.5 0h.1c.6-1.5 1.3-2.5 2.2-2.8a7 7 0 0 0-1.4-3.1l-.2-.3-.2.5a43 43 0 0 0-.5 5.6zm-37.2 0h.1c.4-1 1-2.4 2.3-2.7a9 9 0 0 0-1.6-3.9c-.4 1.4-.7 4.6-.8 6.5zM118 130.3c-3 0-5.5 2-7 5.4 9.8-.1 12.5-2.8 13.1-3.9a13 13 0 0 0-6.1-1.5zm148 0c-3 0-5.6 2-7 5.4 9.8-.1 12.4-3 13-3.9a12.7 12.7 0 0 0-6-1.5zm-73.7 0c-3 0-5.5 2-7 5.4 9.9-.1 12.5-3 13-3.9a12.7 12.7 0 0 0-6-1.5zm-37.1-.1c-3 0-5.5 2-7 5.5 10.2-.2 12.6-3.1 13-4a12.3 12.3 0 0 0-6-1.5zm73.7 0c-3 0-5.5 2-7 5.5 10.4-.2 12.6-3.2 13-4a12 12 0 0 0-6-1.5zm98.7 82.8l-.7-1.4.1-.2a10.6 10.6 0 0 0-.4-12.3c-3.7-5-2.9-12.1 1.8-16.3 2.3-2 3.6-4.9 3.6-8 0-3-1.3-5.9-3.6-7.9a12 12 0 0 1-1.8-16.2 10.5 10.5 0 0 0-3.3-15.6 12 12 0 0 1-5-15.4c1.3-2.7 1.3-6 .1-8.8a10.4 10.4 0 0 0-6.6-5.8c-6-1.8-9.5-8-8-14 .7-3 0-6.2-1.8-8.6-1.9-2.5-4.5-4-7.6-4.3a12 12 0 0 1-10.8-12.1c0-3.1-1.3-6-3.5-8s-5.2-3-8.3-2.7a12 12 0 0 1-13.2-9.5 10.7 10.7 0 0 0-13.8-8 12 12 0 0 1-14.8-6.7c-1.1-2.9-3.5-5-6.4-6-3-1-6-.6-8.7 1A12 12 0 0 1 199 23a10.5 10.5 0 0 0-15.8-1.6 11.9 11.9 0 0 1-16.3 0 10.7 10.7 0 0 0-8.3-2.7 10 10 0 0 0-7.5 4.3 12 12 0 0 1-16 3.4c-2.6-1.5-5.7-1.9-8.6-1-2.8 1-5.1 3.1-6.4 6a11.9 11.9 0 0 1-14.8 6.6c-2.9-1-6.1-.6-8.7 1a9.9 9.9 0 0 0-5.1 7 12 12 0 0 1-13.2 9.6 10.5 10.5 0 0 0-11.8 10.7c.1 6.3-4.6 11.6-10.9 12-3 .3-5.8 1.9-7.6 4.4a10.4 10.4 0 0 0-1.7 8.5 11.8 11.8 0 0 1-8 14.1 10.5 10.5 0 0 0-6.5 14.5c2.6 5.7.4 12.5-5 15.5-2.7 1.4-4.6 4-5.3 7-.6 3.2.1 6.2 2 8.6 3.7 5 2.9 12.1-1.8 16.2-2.4 2-3.6 5-3.6 8s1.3 6 3.6 8a12 12 0 0 1 1.8 16.1c-1.2 1.7-2 3.7-2.4 6v.2l-1.4.6v-.7c.1-2.6 1-4.9 2.4-6.8a10.4 10.4 0 0 0-1.5-14.3 12 12 0 0 1 0-18.1c4.2-3.6 4.9-9.8 1.5-14.2a11.7 11.7 0 0 1 3.7-17.5c4.9-2.7 6.8-8.6 4.5-13.7a12 12 0 0 1 0-9.9c1.4-3.1 4-5.5 7.3-6.6 5.2-1.6 8.4-7.1 7.2-12.4-.7-3.3 0-7 2-9.7a12 12 0 0 1 8.7-4.8c5.5-.5 9.7-5.2 9.6-10.7 0-3.6 1.5-6.9 4-9.2a12 12 0 0 1 9.5-3c5.5.7 10.6-3 11.7-8.4a11.8 11.8 0 0 1 15.4-9c5.3 1.8 11.1-.8 13.2-5.8a11.8 11.8 0 0 1 17-5.6c4.8 3 11 1.6 14-3a12 12 0 0 1 18-2c4 3.8 10.3 3.8 14.4 0l.2-.1.2-.2a12 12 0 0 1 17.5 2.3c3.2 4.5 9.4 5.7 14 3a11.8 11.8 0 0 1 17 5.6c2.3 5 8 7.7 13.2 5.8 3.2-1 6.8-.8 9.8 1 3 1.7 5 4.6 5.7 8 1 5.5 6.2 9.2 11.6 8.5 3.5-.5 6.9.6 9.4 3 2.6 2.3 4 5.5 4 9 0 5.6 4.2 10.3 9.6 10.8 3.4.2 6.5 2 8.7 4.8a12 12 0 0 1 2 9.7c-1.2 5.3 2 10.9 7.3 12.4a12 12 0 0 1 7.3 16.5c-2.3 5-.3 11 4.5 13.7 3 1.6 5.2 4.6 5.8 7.9a12 12 0 0 1-2.2 9.6 10.4 10.4 0 0 0 1.5 14.2c2.5 2.3 4.1 5.6 4.1 9 0 3.5-1.5 6.8-4.1 9.1a10.4 10.4 0 0 0-1.5 14.3c2.1 2.5 3 6.1 2.2 9.6a13 13 0 0 1-2 4.6l-.5.5zm-288.4-15l-.1-.5A137.1 137.1 0 0 1 77.7 77.3a138.2 138.2 0 0 1 235.8 97.6l-.2 7.1-.1 2.2-1.2-2.7v-.1l.2-6.5c0-36.5-14.3-70.9-40.2-96.6A135.5 135.5 0 0 0 175.4 38a136 136 0 0 0-96.6 40.2 135.5 135.5 0 0 0-38.3 119v.3l-1.3.5zM251 179.7h-5.3v-1.3h5.3v1.3zm-37.1 0H208v-1.3h5.9v1.3zm-36.6 0H172v-1.3h5.3v1.3zm-37 0h-6v-1.3h6v1.3zm-37.1 0h-5.3v-1.3h5.3v1.3zm-37.2 0H60v-1.3H66v1.3zm204.2-39.2H265v-1.3h5.3v1.3zm-37.1 0h-5.9v-1.3h5.9v1.3zm-36.6 0h-5.3v-1.3h5.3v1.3zm-37 0h-6v-1.3h6v1.3zm-37.2 0H117v-1.3h5.3v1.3zm-37.1 0h-5.9v-1.3h5.9v1.3zm113-65.2h-50.4V74H159l-4.7-12.2h-6.7v-1.4h50.5v1.4h-13.2V74h13.4v1.3zM173.4 74h10.2V61.8h-10.2V74zm-12.2 0h10.8V61.8h-6L161 74zm-5.3-12.2l4.2 11 4.3-11h-8.5z"/></svg>