<svg xmlns="http://www.w3.org/2000/svg" width="350" height="350" viewBox="0.5 568.5 350 350"><path fill="#071b36" d="M277.1 900.7h-122l-.1-.1H75.2v-63.4l.1.1v-70.5h68.5v-52.2H207v52.2H276.9v24.4h.2v109.5zm-79-1.4h77.7v-83.4h-87.3v40H163v-40H76.7v83.3H198zm-33.7-44.7h22.8V833h-22.8v21.6zm19.8-23h3V816h-10.7v4.2c4.3.4 7.6 4 7.7 8.4v3.1zm-15.4 0h14v-3c0-3.7-2.8-6.7-6.3-7.1v3H175v-3.1a7 7 0 0 0-6.3 7v3.2zm-4.4 0h3v-3.2c0-4.3 3.4-8 7.7-8.4v-4h-10.7v15.6zm24.1-17h87.3V792h-.2v-8.5h-70.9l-.6.1H76.8v8.4h-.2v22.4H163v-16.2h25.5v16.2zm-12 0h10.7v-15h-22.8v15H175v-8.7h1.4v8.6zm29.1-31.9h12.5l.5-.2.1-.1 14.2-14.3h-12.6l-14.7 14.6zm-14.5 0h12.4l.4-.2.2-.1 6-6h-12.7l-6.3 6.3zm-14.5 0h12.3l.5-.3 6-6h-12.6l-6.2 6.2.1.1h-.1zm-14.4 0H174.5l-6.2-6.3h-12.6l6 6 .2.2.3.1zm58 0h12.9v-.3l14.3-14.3h-12.7l-14.4 14.5zm-73 0h12.6v-.2l-6.1-6H141l6.2 6.1zm-14.5 0H145l-.2-.3-6-6h-.1l-.3-.3-.4-.5-7.4-7.4H118l14.7 14.4zm102.3-.2h12l.7-.1 14.2-14.3h-12.6L235 782.5zm14.6 0h12.3l.5-.1 13.6-13.6-.3 1.6V768H264l-14.4 14.4zm14.7-.1h11.3V771l-11.3 11.3zm-146.4 0h12.6L116.2 768h-12.6l14.3 14.3zm-2.2 0h.2L101.7 768H89l14.2 14.3h12.4zm-14.6 0h.3L87.1 768H76.6v2.2l12 12h12.5zm-24.5-.1h10l-10-10v10zm93.5-5.9l5.4 5.3 5.3-5.3H170zM207 775h4.5l7-6.9h-11.5v7zm-9.8 0h8.4v-59.2h-60.3V775h8.7l.2-.1.2.1h14.3l.2-.1.2.1H197zm-53.6 0h.3v-6.9h-11.1l7 7h3.8zm-33.6 105.4h-1.4v-37.7l-6.2 3.5-.5-1.2 8.1-4.7v40.1zm22-.5c-5.7 0-10.7-3.8-12.1-9.3l-.2-.1v-.5l-.1-.3v-.3l-.2-2c0-5.4 3.3-10 8.2-11.8h-.1l.3-.1a8.8 8.8 0 0 1 3.2-17c4.9 0 8.8 4 8.8 8.9 0 3.3-2 6.3-4.8 7.7l.4.1-.2.1a12.6 12.6 0 0 1 5.3 21.3l.2.1-.4.3c-.1 0-.2 0-.3.2l-.3.2-.3.1c-2 1.5-4.6 2.4-7.4 2.4zm-10.8-9.5a11 11 0 0 0 10.8 8c2.2 0 4.1-.5 5.9-1.5l-.1-.1 1-.5.3-.2.2-.1a11.3 11.3 0 0 0-7-19.8h-1.6c-5.6.7-10 5.4-10 11.2 0 .9 0 1.7.4 2.5l.1.5zm10-15.7h.7a7.5 7.5 0 0 0 6.6-7.4c0-4-3.4-7.4-7.4-7.4s-7.4 3.3-7.4 7.4 3.3 7.4 7.4 7.4zm94.2 18.8l-.4-.4-.3-.3-.2-.3-.4-.4h.1l-10.8-10.7 1-1 11.2 11.2 28.8-28.7.9.9-26.3 26.3-.1.4-2.2 2.2h-.1l-1.2.8zM65 848.7l-.8-1.4c-1.8-3-4.9-5-8.2-5.3-3.4-.3-6.5-2-8.7-4.9-2-2.6-2.8-6.3-2-9.7 1.2-5.3-2-10.8-7.3-12.4a12 12 0 0 1-7.3-16.5c2.3-4.9.3-11-4.5-13.7-3-1.6-5.2-4.5-5.8-7.8a12 12 0 0 1 2.2-9.6A10.4 10.4 0 0 0 21 753a12.1 12.1 0 0 1 0-18.1c4.2-3.7 4.9-9.9 1.5-14.3-2.1-2.4-3-6-2.2-9.6.8-3.4 3-6.3 6-7.8 4.8-2.7 6.7-8.6 4.4-13.7a12 12 0 0 1 0-10c1.4-3 4-5.4 7.3-6.5 5.2-1.6 8.4-7.1 7.3-12.4-.8-3.3 0-7 2-9.7A12 12 0 0 1 56 646c5.4-.4 9.6-5 9.6-10.7 0-3.5 1.4-6.8 4-9.1a12 12 0 0 1 9.4-3c5.5.7 10.6-3 11.7-8.4a11.8 11.8 0 0 1 15.4-9c5.3 1.7 11.1-1 13.2-5.9a11.8 11.8 0 0 1 17-5.6c4.8 3 11 1.6 14.1-3 2-2.8 5-4.6 8.6-5 3.5-.3 6.8.8 9.3 3.1 4 3.8 10.3 3.8 14.4 0 2.4-2.3 5.8-3.5 9.3-3a12 12 0 0 1 8.6 5c3.2 4.4 9.4 5.7 14 3 3-1.9 6.5-2.2 9.9-1.1 3.2 1 5.9 3.5 7.2 6.6 2.2 5.2 8 7.7 13.1 5.9 3.2-1.1 6.8-.8 9.8 1 3 1.6 5 4.6 5.7 8 1 5.4 6.2 9.2 11.6 8.5 3.5-.5 6.9.6 9.4 2.9 2.6 2.4 4 5.6 4 9.1 0 5.6 4.2 10.3 9.6 10.7a12 12 0 0 1 10.7 14.5c-1.2 5.4 2 11 7.3 12.5a12 12 0 0 1 7.3 16.5c-2.3 4.9-.3 11 4.5 13.7 3 1.6 5.2 4.5 5.8 7.8a12 12 0 0 1-2.2 9.6A10.4 10.4 0 0 0 330 735a12 12 0 0 1 0 18.1 10.7 10.7 0 0 0-1.6 14.4c2.1 2.4 3 6 2.2 9.6-.8 3.4-2.9 6.3-6 7.8a10.6 10.6 0 0 0-4.4 13.7 12 12 0 0 1 0 10 12.5 12.5 0 0 1-7.3 6.5 10.7 10.7 0 0 0-7.2 12.4c.7 3.3 0 7-2 9.7a12 12 0 0 1-8.7 4.9c-2.9.2-5.3 1.5-7.2 3.6l-.8 1v-2.2h.1c2-2.2 4.7-3.5 7.6-3.8 3.1-.3 5.8-1.8 7.6-4.3 1.8-2.6 2.4-5.7 1.7-8.6a11.8 11.8 0 0 1 8-14 10.5 10.5 0 0 0 6.5-14.5 11.9 11.9 0 0 1 5-15.6c2.7-1.3 4.6-4 5.3-7 .6-3.1-.1-6.1-2-8.6-3.7-5-2.9-12 1.8-16.2 2.4-2 3.7-5 3.7-8s-1.4-5.9-3.7-7.9a12 12 0 0 1-1.7-16.2 10.5 10.5 0 0 0-3.3-15.6c-5.4-3-7.6-9.9-5-15.5 1.2-2.6 1.2-6 0-8.7a10.4 10.4 0 0 0-6.5-5.8c-6-1.8-9.6-8-8-14 .6-3.1 0-6.2-1.8-8.7-2-2.4-4.6-4-7.6-4.3a12 12 0 0 1-10.9-12c0-3.2-1.3-6-3.5-8-2.2-2.1-5.2-3.1-8.3-2.7-6.2.7-12-3.4-13-9.5a10.7 10.7 0 0 0-13.9-8 12 12 0 0 1-14.8-6.8c-1-2.8-3.5-4.9-6.4-6s-6-.5-8.7 1.1a12 12 0 0 1-15.9-3.4 10.4 10.4 0 0 0-7.5-4.4c-3-.2-6 .8-8.1 2.7l-.6.5a12 12 0 0 1-15.9-.3 10.7 10.7 0 0 0-8.3-2.9 10 10 0 0 0-7.5 4.4 12 12 0 0 1-15.9 3.4c-2.6-1.6-5.8-2-8.7-1-2.8.9-5.1 3.1-6.4 6a11.9 11.9 0 0 1-14.8 6.6c-2.8-1-6.1-.6-8.7 1a9.9 9.9 0 0 0-5 7 12 12 0 0 1-13.3 9.6 10.5 10.5 0 0 0-11.8 10.7c.1 6.3-4.6 11.6-10.8 12-3.1.3-5.9 1.9-7.6 4.3a10.4 10.4 0 0 0-1.8 8.6 11.8 11.8 0 0 1-8 14.1 10.5 10.5 0 0 0-6.5 14.5c2.7 5.7.5 12.5-5 15.5-2.7 1.4-4.6 4-5.2 7-.7 3.1 0 6.2 1.9 8.6 3.7 5 3 12-1.8 16.2-2.3 2-3.6 5-3.6 8s1.4 5.9 3.6 8a12 12 0 0 1 1.8 16.1 10.6 10.6 0 0 0 3.3 15.6c5.4 3 7.6 9.9 5 15.5a10.5 10.5 0 0 0 6.5 14.5c6 1.8 9.5 8 8 14.1-.7 3 0 6.1 1.8 8.6 1.9 2.5 4.6 4 7.6 4.3 3.4.3 6.6 2.2 8.8 5.2h.1v2.8h.2zm111-.1h-1.4V839h1.4v9.6zM65 826.9l-.9-1.1A136.1 136.1 0 0 1 37.3 744 137.8 137.8 0 0 1 273 646.5c6.4 6.3 12.2 13.3 17.2 20.8l.5.5.1.2a136.7 136.7 0 0 1 22.8 76.1c0 29-8.9 56.7-25.6 80.1l-.8 1.2v-2.3a137.1 137.1 0 0 0 14.5-131.6c-4 3.3-26.5 21.6-34.2 22.5-7.5.8-36.5 14.5-37.6 15l-.1.1h-.5l-.2-.2-2.7-7 11.3-5.2-19 6.6v-10l13.9-5.4-21.1 5.9-2-10 19.2-5.4-18.9 2.9-1.2-8.4h.6l39.4-11.2-2.6-1.5-18 3-1.8-7 .3-.3v.1c1.5-1.2 11-5.3 11-5.4a59 59 0 0 1 20.1-5.2c7.3 0 12 2 15.4 3.3l.4.2c2.4 1 4.4 1.7 6.6 1.8 3 0 6-1 9-2.9h-.2v-.2a137.5 137.5 0 0 0-113.3-60.3 136 136 0 0 0-96.7 40.1 135.3 135.3 0 0 0-40.1 96.7c0 29.1 9 57 26.1 80.4l.1.1v2.3zm162.8-104.4l1.8 5c3.7-2 29.9-14.3 37.6-15 6.5-.7 27.2-17.2 33.8-22.5a140 140 0 0 0-11.4-21.1 17.2 17.2 0 0 1-9.6 3.2c-2.6 0-4.8-1-7.5-2l-.7-.3c-3.5-1.3-7.7-3-14.2-3-10.7 0-27.4 8.8-29.8 10.1l1.1 4.9 17.3-3 4 2.4.4.2 7.8 4.6 13.2 3.6 12.7-4.3.2 1.2-12.9 4.4-14-3.7-7.3-4.4h-.1L210 694.3l.8 5.7 28.7-4.3.2 1.3L211 705l1.4 7.2 32.9-9 .3 1.2-25.7 10v6.7l30.8-10.5.6 1.2-23.6 10.6zm-66.6 41.3c-2.4 0-4.1-1-4.1-2.4s1.7-2.4 4-2.4 4.2 1 4.2 2.4-1.7 2.4-4.1 2.4zm0-3.4c-1.7 0-2.8.7-2.8 1s1 1 2.8 1 2.7-.6 2.7-1-1-1-2.7-1zm32.4 1.7h-18.2v-1.4h18.2v1.4zm-32.4-9.5c-2.4 0-4.1-1-4.1-2.3s1.7-2.4 4-2.4c2.6 0 4.2 1 4.2 2.4 0 1.3-1.7 2.3-4.1 2.3zm32.5-1.6h-18.3v-1.4h18.3v1.4zm-32.5-9.5c-2.4 0-4.1-1-4.1-2.4s1.7-2.4 4-2.4c2.6.1 4.2 1.1 4.2 2.4 0 1.4-1.7 2.4-4.1 2.4zm0-3.3c-1.7 0-2.7.6-2.7 1s1 1 2.7 1c2 0 2.7-.8 2.7-1 0-.4-1-1-2.7-1zm32.5 1.6h-18.3v-1.3h18.3v1.3zm-32.5-9.4c-2.4 0-4.1-1-4.1-2.3s1.7-2.4 4.1-2.4 4.1 1 4.1 2.4-1.7 2.3-4.1 2.3zm0-3.4c-1.7 0-2.7.7-2.7 1s1 1 2.7 1 2.7-.6 2.7-1c0-.3-1-1-2.7-1zm32.5 1.8h-18.3v-1.4h18.3v1.4zm9.2-83.6h-15.2v.1h-13.9.1-20.5.1-18V644h5.8l4.8-6-4.7-6h-5.7v-1.4h75.5v1.4H203v12h8.2v1.4H203zm-16.4-1.3h.3l-4.8-12h-9.3l-4.7 6 4.7 6h13.8zm-15.4 0l-3.9-4.9-3.9 5h7.8zm-9.5 0l4.8-6-4.7-6h-9.2l-4.8 6.1 4.7 6h9.2zm-11 0l-3.8-4.9-3.9 5h7.8zm38.1 0h12.8v-12h-8.1l-4.7 12zm-5.2-12l4.2 10.8L192 632h-8.4zm-16.4 5l4-5h-7.8l3.8 5zm-24.2-5l4 5 3.8-5h-7.8z"/></svg>