<svg xmlns="http://www.w3.org/2000/svg" width="350" height="350" viewBox="0.5 568.5 350 350"><path fill="#071b36" d="M272.37 900.472H74.61V744.678l-.092-.09.09-.093v-3.84h11.887l.09-.092.092.092h14.08l.09-.092.093.092h13.988l.092-.092.09.092h13.898l.09-.092.093.092.092-.092.09.092h12.344v-51.2h61.898v51.2h12.617l.093-.092.09.092h13.99l.09-.092.092.092h13.898l.09-.092.092.092.092-.092.092.092h13.895l.092-.092.092.092h.09l.09-.092.093.092h12.893v15.268h.09v1.372h-.09v30.17h.365v108.527h-.09v4.48zm-196.39-1.37h195.475v-3.11h-.365V788.84h-85.486v39.314h-25.052v-39.314H75.98V899.1zm85.944-72.322h22.31v-21.12h-22.31v21.12zm19.474-22.49h2.834v-15.452h-10.424v4.114c4.207.365 7.498 3.84 7.498 8.23l.092 3.107zm-15.086 0h13.624v-3.11c0-3.474-2.744-6.49-6.127-6.856v3.018h-1.372v-3.018c-3.475.366-6.217 3.292-6.126 6.857v3.11zm-1.372 0l.09-3.11c0-4.296 3.293-7.77 7.5-8.228v-4.114h-10.516v15.45h2.926zm20.755-16.824h85.12v-30.17h-12.16l-.093.09-.09-.09h-13.99l-.09.09-.092-.09h-13.896l-.092.09-.092-.09h-.092l-.092.09-.092-.09H216.23l-.09.09-.093-.09h-.184l-.09.09-.092-.09h-13.714l-.092.09-.09-.09h-.275l-.093.09-.092-.09h-13.53l-.09.09-.093-.09h-.365l-.092.09-.092-.09h-13.44l-.09.09-.093-.09-.092.09-.092-.09h-.365l-.182.182-.092-.092.092.092-.915-.183H158.72l-.092.09-.092-.09h-13.988l-.09.09v-.09l-.093-.09h-13.897l-.09.09-.092-.09-.092.09-.09-.09H116.3l-.09.09-.092-.09h-.092l-.09.09-.092-.09h-13.99l-.09.09h-.09l-.093-.09H87.593l-.09.09-.093.09-.184-.18H75.98v30.17h84.57v-15.91h25.053v16h.092zm-11.886 0h10.423V772.93h-22.31v14.536h10.515v-8.41h1.37v8.41zm86.215-31.543h10.79v-10.788l-10.79 10.788zm-14.353 0h12.434l12.252-12.25.457.365v-2.012H259.57l-13.898 13.897zm-14.264 0h12.344l13.896-13.896h-12.342l-13.898 13.896zm-14.262 0h12.342l13.898-13.896h-12.344l-13.896 13.896zm-14.263 0h12.344l13.896-13.896H216.78l-13.897 13.896zm-14.262 0h12.343l5.76-5.76H194.38l-5.76 5.76zm-14.263 0H186.7l5.76-5.76h-12.343l-5.76 5.76zm-15.177 0h12.343l-5.76-5.76H153.42l5.76 5.76zm-14.263 0h12.343l-5.76-5.76h-12.343l5.76 5.76zm-2.285 0h.274l-5.76-5.76h-.457v-.457l-7.68-7.68h-12.344l13.897 13.896h12.07zm-14.263 0h.273l-13.897-13.896h-12.25l13.896 13.896h11.977zm-14.264 0h.274l-13.897-13.896H88.14l13.99 13.896h11.976zm-14.263 0h.274l-13.99-13.896H75.98v2.194l11.794 11.703h12.07zm-23.863 0h9.783l-9.783-9.782v9.783zm91.704-5.76l5.21 5.212 5.212-5.212h-10.422zm35.93-1.37h4.39l6.766-6.767h-11.154v6.766zm-9.51 0h8.23v-57.967H143.18v57.966h8.412l.09-.183.184.182.09.092h13.898l.09-.092.093.092.092-.092.09.092h13.075l.092-.092.092.092h.09l.09-.092.093.092h13.715l.092-.092.09.092h.184l.092-.092h.18zm-52.844 0h.457v-6.767h-10.79l6.767 6.766h3.566zm-7.406 133.942h-1.097l-8.045-8.046 5.303-5.213-1.006-1.006-1.098-1.096-.457-.457-.274.365-.182-.09-.366.364h-.09l-5.76 5.395 1.645 1.647-.915.914-1.646-1.645-7.77-7.77.913-.915 6.856 6.857 6.125-5.852h.092l.274-.274-1.097-1.096v-4.023h-3.932l-21.12-21.12h20.023l9.327 9.327v-4.206h-2.103v-1.37h2.103v-3.29h7.77v8.685l9.052-9.144H166.4l-21.12 21.12h-3.932v4.024l-1.097 1.097 6.583 6.218 6.857-6.856.914.914-6.766 6.857-.182.183-.274.09-2.286 2.287-.914-.914 1.646-1.647-1.28-1.28-.366-.274-4.846-4.572-2.65 2.65.64.64h.09l4.48 4.48-8.044 8.047zm-7.222-8.046l6.674 6.673 6.674-6.674-3.84-3.84h-.09l-.367-.458-.09.09v.093l-1.373 1.37v-.09l-.73.548h-.64l-1.006-1.006v.184l-1.097-1.097-4.115 4.206zm5.76-4.755l.915.915.823-.823V854.94h1.372v13.715l1.646-1.646v-12.07h1.372v10.697l1.463-1.463v-12.982h-3.2l-.183.183-.183-.183h-6.4l-.183.183-.183-.183h-3.107v12.982l1.462 1.463V854.94h1.372v12.068l.183.184 1.463 1.28V854.94h1.37v13.258h.093v1.463h-.092v.275zm8.777-10.514h3.382l18.47-18.468h-16.184l-8.87 8.87-.09.09h3.292v9.51zm-19.293 0h3.292v-9.508h3.382l-.09-.09-8.778-8.87H103.41l18.467 18.47zm8.87-9.508h4.48l-.092-.09h.64v-8.32h-5.12l.09 8.41zm83.565 32.732h-1.098l-8.045-8.046 5.118-5.12-2.56-2.56-6.49 6.034.73.914.183.184.093.183.547.548-.914.916-1.645-1.83-.364-.182-.184-.183-.275-.365-6.855-6.856.914-.916 6.857 6.857 6.582-6.125-1.19-1.188v-3.932h-3.93l-21.12-21.12h20.023L209.83 849v-4.023h-2.01v-1.372h2.01v-3.292h4.39v.092h3.29v8.777l9.327-9.326h19.932l-21.122 21.12h-3.932v3.932l-1.188 1.188 1.28 1.188.09.092.733.823.183.182 4.207 3.932 6.947-6.95.914.915-7.68 7.68-.09.09-1.646 1.647-.914-.915 1.553-1.554-5.027-4.57-.184-.275-1.28-1.188-2.01 1.554-.185.09-.457.458 5.303 5.303-7.95 8.044zm-7.314-7.955l6.674 6.673 6.674-6.674-4.02-4.207-.185.092-.09-.092-.73.73-1.374 1.28h-.64l-1.462-1.462v-.09l-.55-.55-4.296 4.3zm6.033-4.48l.733.548.457-.457.092-.09v-15.27h1.37v13.715l.093-.092.092-.092 1.553-1.553V854.94h1.373v10.697l1.46-1.463v-12.982h-3.198l-.092.092-.092-.092-.09.092-.09-.092h-6.493l-.092.092-.09-.092h-3.293v12.982l1.463 1.463V854.94h1.373v12.068l1.645 1.646V854.94h1.37v14.994l.458.275zm8.597-10.79h3.383l18.47-18.468h-16.276l-8.777 8.87h3.2v9.6zm-19.383 0h3.383v-9.6h3.2l-8.87-8.868h-16.182l18.47 18.47zm13.348-9.6h.457v-8.228h-3.02v-.092h-2.01v8.32h4.572zm65.28 5.395v-3.108c.548-1.188.915-2.742.915-4.297-.092-6.126 4.57-11.338 10.695-11.795 2.926-.273 5.67-1.828 7.406-4.205 1.828-2.56 2.47-5.486 1.738-8.412-1.373-5.942 2.193-11.977 7.953-13.805 2.743-.915 5.21-3.018 6.4-5.67 1.188-2.65 1.188-5.76-.093-8.594-2.56-5.486-.365-12.16 4.938-15.087 2.65-1.554 4.48-3.932 5.12-6.948.64-3.017 0-6.126-1.83-8.41-3.747-4.94-3.017-11.98 1.647-15.91 2.285-2.01 3.564-4.845 3.564-7.77 0-3.018-1.37-5.852-3.564-7.77-4.572-4.116-5.303-11.064-1.646-15.91 1.828-2.377 2.47-5.394 1.828-8.41-.64-2.927-2.377-5.396-5.12-6.95-5.302-2.926-7.497-9.6-4.937-15.086 1.28-2.743 1.28-5.943.092-8.595-1.1-2.742-3.476-4.846-6.4-5.668-5.944-1.83-9.417-7.863-7.954-13.807.64-2.926 0-5.942-1.738-8.41-1.736-2.378-4.39-3.932-7.406-4.207-6.033-.457-10.787-5.668-10.695-11.794 0-3.018-1.28-5.852-3.383-7.863-2.104-2.012-5.12-2.926-8.14-2.56-6.032.73-11.702-3.292-12.798-9.327-.64-2.925-2.47-5.485-5.03-7.04-2.468-1.554-5.667-1.828-8.5-.913-5.76 2.01-12.16-.823-14.538-6.492-1.098-2.65-3.475-4.846-6.31-5.76-2.835-.914-5.942-.64-8.503 1.006-5.21 3.11-12.068 1.647-15.635-3.29-1.828-2.47-4.57-4.023-7.404-4.298-2.926-.366-5.852.55-7.955 2.56l-.64.64c-4.48 3.75-11.154 3.658-15.543-.364-2.193-2.012-5.12-3.018-8.136-2.743-3.017.274-5.668 1.737-7.405 4.297-3.475 5.028-10.332 6.49-15.634 3.292-2.56-1.555-5.668-1.92-8.502-1.006-2.834.914-5.21 3.017-6.31 5.76-2.376 5.668-8.776 8.503-14.536 6.49-2.743-.913-5.852-.64-8.503.916-2.744 1.645-4.48 4.113-5.03 7.04-1.188 6.034-6.766 10.057-12.89 9.325-2.927-.458-5.944.456-8.138 2.56-2.286 2.01-3.475 4.845-3.383 7.862.09 6.126-4.573 11.337-10.698 11.794-2.926.274-5.668 1.828-7.406 4.206-1.83 2.468-2.47 5.485-1.737 8.41 1.37 5.944-2.195 11.978-7.955 13.807-2.743.914-5.21 3.016-6.4 5.668-1.188 2.65-1.188 5.76.09 8.594 2.56 5.486.367 12.16-4.936 15.086-2.652 1.555-4.48 3.932-5.12 6.95-.64 3.016 0 6.124 1.828 8.41 3.657 4.937 2.926 11.886-1.646 15.908-2.286 2.012-3.566 4.846-3.566 7.77 0 3.018 1.372 5.853 3.566 7.772 4.57 4.114 5.303 11.063 1.646 15.91-1.83 2.376-2.47 5.393-1.83 8.41.64 2.925 2.378 5.394 5.12 6.948 5.304 2.926 7.498 9.6 4.938 15.086-1.28 2.742-1.28 5.942-.09 8.594 1.096 2.743 3.564 4.846 6.4 5.67 5.942 1.828 9.416 7.86 7.953 13.805-.64 2.927 0 5.944 1.736 8.413 1.737 2.377 4.39 3.93 7.406 4.205 1.188.092 2.377.365 3.474.822l.274.092v1.463l-.64-.273c-.914-.458-2.01-.732-3.108-.824-3.383-.273-6.492-2.01-8.503-4.754-2.012-2.742-2.652-6.217-1.92-9.508 1.187-5.212-1.92-10.606-7.132-12.16-3.292-1.098-5.943-3.475-7.223-6.492-1.37-3.2-1.28-6.674.092-9.69 2.286-4.847.366-10.79-4.39-13.44-3.108-1.737-5.12-4.48-5.76-7.77-.73-3.384.093-6.858 2.104-9.418 3.2-4.39 2.56-10.515-1.462-13.99-2.56-2.284-4.023-5.394-4.023-8.867 0-3.384 1.463-6.584 4.023-8.87 4.114-3.474 4.754-9.69 1.463-13.987-2.01-2.56-2.742-6.035-2.102-9.418.73-3.383 2.926-6.217 5.852-7.77 4.754-2.652 6.674-8.503 4.39-13.44-1.373-3.018-1.464-6.492-.092-9.69 1.28-3.02 3.93-5.396 7.223-6.493 5.212-1.554 8.32-6.948 7.132-12.16-.73-3.383-.09-6.766 1.92-9.508 2.012-2.743 5.03-4.48 8.503-4.754 5.303-.55 9.417-5.12 9.326-10.515 0-3.383 1.464-6.675 3.933-8.96 2.377-2.194 5.852-3.383 9.234-2.926 5.394.64 10.33-3.02 11.428-8.32.64-3.384 2.65-6.218 5.577-7.864 2.926-1.736 6.4-2.103 9.6-.914 5.12 1.737 10.79-.73 12.892-5.668 1.37-3.11 3.93-5.486 7.13-6.583 3.11-1.005 6.584-.64 9.6 1.098 4.664 2.743 10.698 1.463 13.807-3.017 1.92-2.742 4.938-4.57 8.412-4.937 3.383-.366 6.766.73 9.234 3.018 3.932 3.658 10.148 3.658 14.08 0 2.47-2.285 5.852-3.383 9.234-3.017s6.31 2.103 8.412 4.938c3.107 4.48 9.234 5.76 13.805 3.018 2.834-1.828 6.31-2.193 9.6-1.097 3.2 1.007 5.852 3.475 7.133 6.584 2.102 4.938 7.77 7.405 12.89 5.668 3.202-1.097 6.767-.73 9.6.914 2.927 1.738 4.94 4.48 5.58 7.863.913 5.302 6.032 9.05 11.337 8.32 3.473-.366 6.766.73 9.232 2.925 2.468 2.193 3.93 5.395 3.93 8.96-.09 5.485 4.024 10.058 9.42 10.515 3.382.273 6.49 2.01 8.5 4.754 2.013 2.742 2.653 6.125 1.92 9.508-1.187 5.212 1.92 10.606 7.134 12.16 3.29 1.098 5.94 3.475 7.223 6.492 1.37 3.2 1.28 6.674-.092 9.69-2.285 4.847-.365 10.79 4.39 13.44 3.106 1.737 5.118 4.48 5.76 7.77.73 3.384-.093 6.858-2.105 9.42-3.2 4.387-2.56 10.513 1.463 13.987 2.56 2.286 4.023 5.396 4.023 8.87 0 3.382-1.463 6.582-4.023 8.867-4.02 3.383-4.754 9.69-1.645 13.897 2.012 2.56 2.742 6.034 2.102 9.417-.73 3.384-2.926 6.218-5.76 7.772-4.754 2.652-6.674 8.503-4.39 13.44 1.374 3.017 1.464 6.49.093 9.69-1.28 3.018-3.932 5.395-7.223 6.492-5.21 1.555-8.32 6.95-7.13 12.16.73 3.383.09 6.766-1.92 9.508-2.013 2.744-5.03 4.48-8.505 4.755-5.395.55-9.508 5.12-9.416 10.515.09 1.828-.368 3.84-1.464 5.76l-.825 1.643zm.366-29.165v-2.195l.092-.09c18.56-23.682 28.434-52.207 28.434-82.47 0-35.75-13.988-69.394-39.314-94.72s-58.97-39.314-94.72-39.314-69.395 13.99-94.72 39.315-39.315 58.97-39.315 94.72c0 25.51 7.13 50.194 20.57 71.314l.092.09v2.56l-.823-1.28c-13.806-21.668-21.12-46.81-21.12-72.685 0-36.114 14.08-70.126 39.588-95.726 25.6-25.6 59.52-39.59 95.726-39.59 36.207 0 70.217 14.08 95.727 39.59 25.6 25.69 39.588 59.61 39.588 95.725 0 30.812-10.057 59.794-28.982 83.75l-.822 1.005zm-107.886-5.12h-1.37v-9.326h1.37v9.325zm-14.446-83.2c-2.286 0-4.023-1.007-4.023-2.287 0-1.37 1.646-2.286 4.023-2.286 2.285 0 4.022 1.006 4.022 2.286-.09 1.28-1.737 2.286-4.022 2.286zm-.183-3.11c-1.83 0-2.743.64-2.743.915s.914.914 2.743.914 2.743-.64 2.743-.915c0-.366-.914-.915-2.743-.915zm32 1.463h-17.92v-1.37h17.92v1.37zm-31.817-9.234c-2.286 0-4.023-1.006-4.023-2.286 0-1.37 1.646-2.285 4.023-2.285 2.285 0 4.022 1.005 4.022 2.284 0 1.28-1.737 2.285-4.022 2.285zm-.183-3.2c-1.83 0-2.743.64-2.743.913s.914.914 2.743.914 2.743-.64 2.743-.914-.914-.914-2.743-.914zm32 1.554h-17.92v-1.28h17.92v1.28zm-31.817-9.326c-2.286 0-4.023-1.006-4.023-2.285 0-1.28 1.737-2.286 4.023-2.286 2.285 0 4.022 1.005 4.022 2.286-.09 1.28-1.737 2.285-4.022 2.285zm-.183-3.11c-1.83 0-2.743.642-2.743.916s.914.914 2.743.914 2.743-.64 2.743-.914-.914-.915-2.743-.915zm32 1.555h-17.92v-1.37h17.92v1.37zm-31.817-9.325c-2.286 0-4.023-1.006-4.023-2.286 0-1.37 1.646-2.285 4.023-2.285 2.285 0 4.022 1.006 4.022 2.285-.09 1.28-1.737 2.286-4.022 2.286zm31.817-1.555h-17.92v-1.37h17.92v1.37zm-35.383-58.88l-.64-.092h-6.125v-1.37h6.49l4.573-5.852-4.663-5.942h-6.4v-1.372h6.217l.915-.09-.09.09h21.85v-.09h.457v.09h14.537v-.09h.457v.09h8.044v1.372h-7.588V643.1h7.588v1.37h-7.588v.185h-1.37v-.184H178.38v.185h-1.37v-.184h-10.79l-.366.185-.64-.184h-9.6l-.276.093zm23.04-1.462h13.624v-11.793H178.38V643.1zm-12.526 0h11.155v-11.793h-11.065l-4.662 5.942 4.57 5.85zm-1.737 0l-3.75-4.753-3.748 4.754h7.497zm-3.748-6.948l3.84-4.846h-7.59l3.75 4.846z"/></svg>