<svg xmlns="http://www.w3.org/2000/svg" width="350" height="350" viewBox="0.5 568.5 350 350"><path fill="#071b36" d="M190.3 896.7c-3 0-5.8-1.1-8-3.1a10.1 10.1 0 0 0-13.7 0c-2 1.9-4.8 3-7.7 3h-1.2c-3.3-.3-6.3-2-8.2-4.8A10 10 0 0 0 138 889a11 11 0 0 1-9.4 1c-3.2-1-5.7-3.3-7-6.5-.4-1-1-1.7-1.6-2.5l-.5-.8h1.8v.2c.5.7 1.2 1.6 1.6 2.6a10.2 10.2 0 0 0 14.5 4.8 11.5 11.5 0 0 1 15.4 3.1c1.7 2.5 4.3 4 7.2 4.3 2.9.4 5.7-.5 8-2.6 2-2 4.9-3 7.7-3 3 0 5.7 1 7.8 3 2 1.9 4.9 2.9 8 2.6 2.7-.3 5.4-1.9 7-4.3a11.7 11.7 0 0 1 15.4-3.2 10 10 0 0 0 8.3 1c2.9-1 5.1-3 6.2-5.6l1-2 .4-.6.1-.3h1.8l-.5.8c-.7.8-1.2 1.6-1.6 2.6a11.5 11.5 0 0 1-16.4 5.5 10 10 0 0 0-13.5 3c-2 2.7-5 4.4-8.2 4.7h-1.2zm-72.1-31.4l-.4-.3h-15.7v-1.4h15.2v-56.2c-13.7-.5-24.7-15.5-24.7-33.7 0-6.6 1.4-13 4.2-18.5l.2-.4 1.1.6-.1.5c-2.7 5.1-4 11.2-4 17.7v.5c.1 17.7 11 32.2 24 32.2 13.2 0 24-14.5 24.1-32.2v-.5c0-6.5-1.4-12.6-4-17.7l-.2-.4 1.2-.5.2.4a41.8 41.8 0 0 1 4.2 18.5c0 18.2-11 33.2-24.6 33.7v56.2h14.5v1.3h-15v.2h-.2zm114.6-.3h-15.6v-1.4h15.2v-56.2c-13.7-.5-24.6-15.5-24.6-33.7 0-6.6 1.4-13 4.2-18.5l.2-.4 1.2.6-.2.5c-2.7 5.1-4 11.3-4 17.9 0 17.8 10.7 32.4 24 32.4s24-14.6 24-32.4c0-6.3-1.3-12.5-4-18l-.2-.3 1.2-.5.2.4c2.7 5.6 4.2 12 4.2 18.5 0 18.2-11 33.2-24.6 33.7v56h14.6v1.4h-15.8zm72.6 0h-31.2v-1.4h15.3v-56.2c-13.6-.5-24.7-15.5-24.7-33.7 0-6.6 1.5-13 4.2-18.5l.2-.4 1.2.6-.2.4c-2.6 5.1-4 11.3-4 18 0 17.7 10.8 32.3 24.1 32.3l1.9-.1h.4l.4-.1c12.2-2 21.5-15.7 21.5-32.2 0-6.3-1.4-12.5-4-18l-.2-.3 1.2-.5.1.4c2.8 5.6 4.2 12 4.2 18.5 0 17.5-9.7 32-22.8 33.6h-.7l-1.1.1v56.2h14.5v1.3h-.3zm-114.7 0h-31.2v-1.4h15.2v-56.2h-.2c-4.1-.1-8.3-1.7-12-4.5-1.3-1-2.5-2-3.4-3a36.3 36.3 0 0 1-9.1-26.2c0-6.6 1.5-13 4.2-18.5v-.2h.2v-.1c2-5 5-10.4 8.3-15.6v-.1h.2l.7-1.1.8-1.3c6-9 12.2-16.1 13.8-18l-8.2-8.2 7.2-7.2 3.6 3.6 21.8-21.7V656l42.7-42.7h-.1l1.3-1.3h.1l30.8-30.7 3-3 2.8 2.9 41.8 41.7-29.8 29.8-.4.5-13.4 13.4-16.7 16.7-17.3 17.4h-29.2l-21.7 21.5 3.6 3.6-7.2 7.2-4.4-4.4c-1.6 1.6-5.4 5.8-9.5 11.1l-.1.2h-.2c-9.4 12.4-14.2 23-14.2 31.3 0 16.7 7.3 19.1 11.5 19.1 5 0 8.8-7.3 8.8-13.8 0-3.6-.8-6.2-2.6-8-2-2-4.7-2.1-4.7-2.1h-.4V765h.4s3.2 0 5.8 2.5c2 2 3 5 3 9 0 3.6-1 7.4-2.8 10.3-2 3-4.5 4.8-7.3 4.8-8.2 0-12.9-7.5-12.9-20.5 0-8.5 4.8-19.2 14.2-31.9l.2-.1h.2c4.3-5.6 8.3-10 9.8-11.4l-8.2-8.2a156.1 156.1 0 0 0-15.2 20.2l-.1.2h-.1a74.6 74.6 0 0 0-12.4 30.4v3.3c0 10.5 3.9 20.4 10.2 26.5a23.8 23.8 0 0 0 6.4 4.2l.9.4a18.6 18.6 0 0 0 16-1.4c2-1.2 4-2.7 5.8-4.6a34.2 34.2 0 0 0 8-16.9v-.4c.5-2.7.6-5.3.6-7.9a19 19 0 0 0-10.8-18c-5.3-2.6-11-3-11-3h-.5v-1.3h.5c.2 0 14.5.7 20.6 11.4-.7-2.3-1.5-4.6-2.7-6.9l-.2-.4 1.2-.5.2.4a42.1 42.1 0 0 1 3.4 27.1 35.5 35.5 0 0 1-7 16 22.5 22.5 0 0 1-17 9.1v56.2H191v1.4h-.3zm-10.4-146.5l12.7 12.7 5.2-5.2-2.6-2.6v.1l-10-10-3.4 3.2c-1 .8-1.6 1.3-2 1.8zm8.3-4l7 7 21.7-21.9v-.3h29.4l34-33.8.3-.4h.1l12.2-12 .2-.4 29.7-29.8-42.8-42.7-2 2-19.6 19.5 7 7c3.7-1.6 18.5-6.9 28.5 3 3.2 3.1 4.4 11 2.7 18a24 24 0 0 1-4.7 9.5l-.3.3-.4.4c-2 2-4.5 3.5-7.3 4.4l-2.3.8h-.6v.2l-.5.1h-.3l-.2.1-.7.2c-3.6 1.2-7.7 2.5-12.1 4.1h-.5l-.3.3h-.2l-.1.2H266.2c-8.6 3.5-16.5 7.6-24.5 13v.1l-.5.4c-6.3 4.2-12.8 9.2-19.4 15-5.9 5.1-22 20.7-35.4 33.7l2.2 2zm-16.6-4l7.2 7.2v-.1c1-1 2.8-2.8 5.3-5l-7.3-7.3-5.2 5.2zm9.8-2.8l3.8 3.7c10.3-10.2 29-28.2 35.2-33.7 7-6 13.3-10.8 19-14.7v-.1l.5-.4c8.6-5.8 16.6-10.1 25-13.4l-.1-.2h1l.4-.3c4.6-1.7 9-3 12.7-4.3.3 0 .7-.2 1-.4l.4-.2h.1l3-.7c2.7-1 5-2.4 6.8-4.3l.3-.3a21 21 0 0 0 4.7-9.3c1.8-7.3.2-14.2-2.3-16.7-9.3-9-23-4.4-26.6-2.8l.3.3.7.9 6 6-.6.4-12 12-23.9 24-14.9-15.2-5.2 5.2-.7.8-12.6 12.6v29.1l-22 22zm41.5-70.5l14 14 34.5-34.4h-.1l-.2-.3-1.3-1.2-1.7-2-3-3-.3.1-.1-.5-7.1-7.2-9.5 9.5h.2l-1.4 1.2-13 13-11 10.8zM76.1 865H45v-1.4h15.2v-55.3l.1.2v-.9H58.3c-13-1.8-22.9-16.2-22.9-33.6 0-6.6 1.5-13 4.2-18.5l.2-.4 1.2.6-.2.5c-2.6 5-4 11.2-4 17.7v.4c0 16.1 8.9 29.6 20.7 31.8h1.2v.2H61c13.2 0 24-14.4 24-32.1v-.5c0-6.5-1.4-12.6-4-17.7l-.1-.4 1.2-.5.1.4a41.8 41.8 0 0 1 4.2 18.5c0 18.2-11 33.2-24.5 33.7v4.7l-.1-.2v51.7h14.6v1H76zm-21.8-67l-.6-.4-.2-.1a2.7 2.7 0 0 1-1-2.2v-.4l.1-.7.2-.2.1-.2h.3v-.3a3 3 0 0 1 2-.7c1.5 0 2.7 1.2 2.7 2.8 0 1.4-1.2 2.6-2.6 2.7h-.5l-.5-.3zm.4-1.4l.7.1c.9 0 1.4-.7 1.4-1.4 0-1-.7-1.5-1.4-1.5s-1.2.5-1.4 1.1c-.1.7 0 1.5.7 1.6zm70.7-2.9c-1.6 0-2.7-1.2-2.7-2.7s1.1-2.8 2.7-2.8 2.7 1.2 2.7 2.8-1.2 2.7-2.7 2.7zm0-4.2c-.7.1-1.4.8-1.4 1.5s.6 1.4 1.5 1.4c.7 0 1.5-.5 1.5-1.4 0-.7-.6-1.5-1.5-1.5zM74 786c-.6 0-1.2-.3-1.7-.7-.6-.5-.8-1.3-.8-2 0-1.6 1.2-2.8 2.7-2.8s2.7 1.2 2.7 2.7-1.1 2.8-2.7 2.8H74zm.3-4.2c-1 0-1.5.7-1.5 1.4s.6 1.5 1.5 1.5c.7 0 1.5-.6 1.5-1.5 0-.7-.6-1.4-1.5-1.4zm37 2c-.7 0-1.3-.2-1.8-.6a3 3 0 0 1-.8-2c0-1.6 1.2-2.8 2.7-2.8 1.6 0 2.8 1.2 2.8 2.7 0 1.5-1.3 2.8-2.8 2.8h-.2zm.1-4.2c-.7 0-1.4.8-1.4 1.5s.5 1.5 1.4 1.5c.7 0 1.5-.6 1.5-1.5 0-.7-.6-1.5-1.5-1.5zm81-7.6h-1.4v-.5c0-4.8-2.2-8.5-6.5-10.8-3.3-1.7-6.8-2-6.8-2h-.5v-1.4h.5c.2 0 14.6 1.1 14.6 14.2v.5zm134-32h-1.6v-.1c-.6-.8-1.2-1.5-2-2.1-4.4-4-5.1-10.8-1.6-15.6 1.9-2.3 2.5-5.3 1.9-8.2-.7-2.8-2.5-5.3-5-6.8a11.5 11.5 0 0 1-4.9-14.8c1.2-2.6 1.3-5.7 0-8.4a10 10 0 0 0-6.2-5.6 11.8 11.8 0 0 1-7.7-8v-.1l1-1.4.2 1a10 10 0 0 0 7 7.3 11.4 11.4 0 0 1 7 15.9 10.3 10.3 0 0 0 4.3 13.1c2.8 1.6 5 4.4 5.6 7.6.6 3.3-.1 6.7-2.1 9.3a10.2 10.2 0 0 0 1.4 13.8c1 .8 1.7 1.6 2.2 2.5l.6.7zm-282 0H43v-.4a132.2 132.2 0 0 1 132.5-126.8c17.2 0 33.8 3.2 49.5 9.4l.6.3-1 1h-.4a130.2 130.2 0 0 0-141.4 29 131 131 0 0 0-38.4 87.1v.5zm263.9 0h-1.5v-.5c-1-20.4-6.3-39.6-16-57.3v-.3l1-1.2.3.7c9.9 17.9 15.3 37.5 16.3 58.1l-.1.5zm-281.8-.1h-1.8l.6-.8c.8-1 1.5-2 2.3-2.6a10 10 0 0 0 1.4-13.7 11.5 11.5 0 0 1 3.5-17c4.6-2.5 6.5-8.3 4.3-13.1a11.5 11.5 0 0 1 7-15.8c5-1.5 8.1-6.7 7-11.9-.7-3.3 0-6.7 2-9.3 2-2.8 5-4.4 8.2-4.7 5.3-.5 9.3-5 9.2-10.2 0-3.4 1.4-6.5 3.8-8.8 2.4-2.2 5.7-3.3 9-2.8 5.3.6 10.2-3 11.1-8.2.7-3.2 2.7-6 5.5-7.7 2.9-1.6 6.2-2 9.4-.9 5 1.8 10.6-.7 12.7-5.6a11.5 11.5 0 0 1 16.4-5.4 10 10 0 0 0 13.5-3c2-2.7 4.9-4.4 8.2-4.7 3.4-.3 6.7.8 9 3 3.9 3.6 10 3.6 13.8 0 2.4-2.3 5.6-3.4 9-3 3.2.3 6.2 2 8.2 4.7 3 4.4 9 5.7 13.5 3a11 11 0 0 1 9.4-1c3.2 1 5.7 3.2 7 6.4 1 2.2 2.7 4 5 5.2l.6.2-1.1 1-.3-.1a10.7 10.7 0 0 1-5.4-5.8 10 10 0 0 0-6.2-5.7c-2.8-.9-5.8-.5-8.3 1a11.5 11.5 0 0 1-15.4-3.2 9.7 9.7 0 0 0-7-4.3c-3-.3-5.8.6-7.9 2.5l-.6.6c-4.4 3.6-11 3.5-15.2-.4-2-2-5-3-8-2.7-2.8.4-5.4 2-7 4.3a11.7 11.7 0 0 1-15.4 3.2 10.6 10.6 0 0 0-8.3-1c-2.9 1-5.2 3-6.3 5.7a11.4 11.4 0 0 1-14.2 6.4 10 10 0 0 0-13.3 7.7c-1.2 6-6.7 10-12.7 9.2-3-.3-6 .6-8 2.6-2.1 2-3.2 4.7-3.2 7.7 0 6-4.5 11.1-10.6 11.6-2.8.2-5.4 1.7-7.2 4a10.5 10.5 0 0 0-1.6 8.3 11.5 11.5 0 0 1-7.8 13.5c-3 1-5.2 3-6.3 5.6a10 10 0 0 0 0 8.4c2.6 5.4.5 12-4.8 14.8a9.8 9.8 0 0 0-5 6.8c-.5 3 .2 6 1.8 8.2 3.7 4.9 3 11.6-1.6 15.6-.7.5-1.4 1.3-1.8 2l-.1.2zm204.3-52.1c-.6 0-1.2-.3-1.6-.7a3 3 0 0 1-1-2c0-1.6 1.3-2.8 2.8-2.8 1.6 0 2.7 1.2 2.7 2.7 0 1.6-1.1 2.8-2.7 2.8h-.2zm.2-4.2c-.7 0-1.5.7-1.5 1.4 0 .8.6 1.5 1.5 1.5.7 0 1.5-.6 1.5-1.5 0-.7-.6-1.4-1.5-1.4zm19.4 4.2c-.7 0-1.2-.3-1.7-.7-.6-.5-.9-1.3-.9-2 0-1.6 1.2-2.8 2.8-2.8 1.5 0 2.7 1.2 2.7 2.7 0 1.6-1.2 2.8-2.7 2.8h-.2zm.2-4.2c-.8 0-1.5.7-1.5 1.4 0 .8.6 1.5 1.5 1.5.7 0 1.4-.6 1.4-1.5 0-.8-.5-1.4-1.4-1.4zm2.8-15.4c-1.5 0-2.7-1.2-2.7-2.7s1.2-2.8 2.7-2.8 2.7 1.2 2.7 2.8-1.1 2.7-2.7 2.7zm0-4.2c-1 0-1.5.7-1.5 1.5 0 .7.6 1.4 1.5 1.4 1 0 1.4-.7 1.4-1.4 0-.8-.6-1.5-1.5-1.5zm22.2-2.8a2.7 2.7 0 0 1-2.7-2.7c0-.5 0-1 .3-1.3l.3-.5h.1l.4-.3.2.1c.5-.4 1-.6 1.7-.6 1.5 0 2.7 1.2 2.7 2.8 0 .9-.4 1.6-1.2 2.3l-.2.2-.2-.1-.5.1h-.9zm-.3-1.4h.2l.3.2.4-.2.2-.1.3-.3.1.1c.3-.3.4-.6.4-1 0-.8-.7-1.5-1.5-1.5-.4 0-.7 0-.8.4l-.3.1-.3.8v.2c0 .6.4 1.1 1 1.3zm-92.7-9.2H149v-1.3h5.7l4.3-5.7-4.5-5.8h-5.8v-1.4h16v-.1h35.5v1.5h-9v11.4h9v1.4h-17.8.1zm-.5-1.3h7.6v-11.5h-6.8.1-.8l-4.6 5.9 4.3 5.6h.2zm-8.8 0h7l-3.5-4.5-3.5 4.5zm-1.8 0l4.4-5.6-4.6-5.9h-1 .2-5.1l-4.6 5.8 4.5 5.7h6.2zm-15 0h7l-3.5-4.6-3.5 4.6zm20.3-6.8l3.8-4.8H173l3.7 4.8zm-16.8 0l3.7-4.8h-7.4l3.7 4.7zM280.5 598a2.7 2.7 0 0 1-2.8-2.8c0-1.5 1.2-2.7 2.8-2.7s2.7 1.2 2.7 2.7c0 1.6-1.2 2.8-2.7 2.8zm0-4.3c-.7 0-1.4.7-1.4 1.4 0 .8.5 1.5 1.5 1.5.7 0 1.4-.5 1.4-1.5 0-.7-.5-1.4-1.4-1.4z"/></svg>