<svg xmlns="http://www.w3.org/2000/svg" width="350" height="350" viewBox="0.5 568.5 350 350"><path fill="#071B36" d="M190.6 901.2c-3 0-6-1.2-8-3.2-4-3.7-10.3-3.7-14.4 0a12 12 0 0 1-18-2 10.8 10.8 0 0 0-14-3 11.9 11.9 0 0 1-17-5.6c-2.2-5-8-7.6-13.1-5.8-3.2 1.1-6.8.9-9.8-.9a12 12 0 0 1-5.7-8 10.6 10.6 0 0 0-11.6-8.5c-3.5.4-6.9-.7-9.4-3-2.6-2.3-4-5.5-4-9 0-5.7-4.2-10.3-9.6-10.8-3.4-.3-6.5-2-8.7-4.8-2-2.7-2.8-6.3-2-9.7 1.2-5.3-2-10.9-7.3-12.5-3.3-1-6-3.3-7.4-6.5a12 12 0 0 1 .1-10c2.3-4.8.3-10.9-4.5-13.6-3-1.7-5.2-4.6-5.8-7.9a12 12 0 0 1 2.2-9.6 10.4 10.4 0 0 0-1.5-14.3c-2.5-2.2-4-5.5-4-9s1.4-6.8 4-9c4.2-3.7 4.9-10 1.5-14.3a11.7 11.7 0 0 1 3.8-17.5c4.8-2.6 6.7-8.6 4.4-13.7a12 12 0 0 1 0-9.9c1.4-3 4-5.5 7.3-6.6 5.2-1.6 8.4-7 7.3-12.4-.8-3.3 0-7 2-9.7a12 12 0 0 1 8.6-4.8c5.5-.5 9.7-5.1 9.6-10.7 0-3.6 1.5-6.9 4-9.2 2.6-2.3 6-3.3 9.5-2.9 5.5.6 10.6-3.1 11.7-8.5a11.8 11.8 0 0 1 15.4-9c5.3 1.8 11.1-.8 13.2-5.8a11.8 11.8 0 0 1 17-5.6c4.8 3 11 1.6 14.1-3a12 12 0 0 1 8.6-5c3.3-.4 6.8.8 9.3 3 4 3.8 10.4 3.8 14.4 0 2.4-2.3 5.8-3.5 9.3-3a12 12 0 0 1 8.6 5c3.2 4.5 9.4 5.8 14 3 3-1.8 6.5-2.2 9.9-1 3.2 1 5.9 3.5 7.2 6.6 2.2 5.1 8 7.7 13.1 5.8 3.2-1 6.8-.8 9.8 1 3 1.7 5 4.6 5.7 8 1 5.5 6.2 9.2 11.6 8.5 3.5-.4 6.9.6 9.4 3 2.6 2.3 4 5.5 4 9 0 5.7 4.2 10.3 9.6 10.8 3.4.2 6.5 2 8.7 4.8a12 12 0 0 1 2 9.7c-1.2 5.3 2 10.9 7.3 12.4a12 12 0 0 1 7.3 16.5c-2.3 5-.3 11 4.5 13.7 3 1.7 5.2 4.6 5.8 7.9a12 12 0 0 1-2.2 9.6 10.4 10.4 0 0 0 1.5 14.2 12.1 12.1 0 0 1 0 18.1c-4.2 3.8-4.9 10-1.5 14.3a11.7 11.7 0 0 1-3.7 17.5 10.6 10.6 0 0 0-4.5 13.7 12 12 0 0 1 0 9.9 12.6 12.6 0 0 1-7.3 6.5 10.7 10.7 0 0 0-7.3 12.5c.8 3.3 0 7-2 9.7a12 12 0 0 1-8.7 4.8c-5.4.5-9.6 5.1-9.6 10.7 0 3.6-1.4 6.9-4 9.2a12 12 0 0 1-9.4 2.9 10.7 10.7 0 0 0-11.7 8.5 11.8 11.8 0 0 1-15.4 9c-5.3-1.8-11.1.9-13.2 5.8a11.8 11.8 0 0 1-17 5.6c-4.8-3-11-1.6-14.1 3a12 12 0 0 1-8.6 5l-1.3.1zm-49-10.8a12 12 0 0 1 9.7 5.1c1.8 2.6 4.6 4.2 7.5 4.4 3.2.3 6.2-.7 8.3-2.8a12.1 12.1 0 0 1 16.2 0c2.3 2.1 5.2 3.1 8.3 2.8 3-.2 5.8-1.8 7.5-4.4a12 12 0 0 1 16-3.3 10.4 10.4 0 0 0 15.2-5c2.3-5.7 8.8-8.7 14.7-6.6 2.9 1 6.2.6 8.7-1 2.8-1.4 4.6-4 5.1-7A12 12 0 0 1 272 863c3 .4 6-.6 8.3-2.7 2.2-2 3.5-4.9 3.5-8-.1-6.3 4.7-11.6 10.9-12 3-.3 5.8-1.9 7.6-4.4 1.8-2.5 2.4-5.6 1.7-8.6a11.8 11.8 0 0 1 8-14 10.5 10.5 0 0 0 6.5-14.5 11.9 11.9 0 0 1 5-15.5c2.7-1.4 4.6-4 5.3-7 .7-3 0-6.2-2-8.7-3.7-4.9-2.9-12 1.8-16.1 2.4-2 3.7-5 3.7-8s-1.4-6-3.7-8a12 12 0 0 1-1.7-16.1 10.5 10.5 0 0 0-3.3-15.7 12 12 0 0 1-5-15.4c1.2-2.7 1.2-6 0-8.8a10.4 10.4 0 0 0-6.6-5.8c-5.9-1.8-9.5-8-8-14 .7-3 0-6.2-1.7-8.6-2-2.5-4.6-4-7.6-4.3a12 12 0 0 1-11-12.1A10.5 10.5 0 0 0 272 624c-6.1.7-11.9-3.4-13-9.5a10.7 10.7 0 0 0-13.8-8 12 12 0 0 1-14.8-6.7c-1.2-2.9-3.5-5-6.5-6s-6-.6-8.7 1a12 12 0 0 1-15.9-3.3 10.5 10.5 0 0 0-15.8-1.6 11.9 11.9 0 0 1-16.3 0 10.7 10.7 0 0 0-8.3-2.8 10 10 0 0 0-7.5 4.4 12 12 0 0 1-15.9 3.3c-2.6-1.5-5.8-1.9-8.7-1-2.9 1-5.2 3-6.5 6a11.9 11.9 0 0 1-14.8 6.6c-2.8-1-6.1-.6-8.7 1a9.9 9.9 0 0 0-5 7 12 12 0 0 1-13.3 9.6 10.5 10.5 0 0 0-11.8 10.7c.1 6.3-4.6 11.6-10.8 12-3.1.3-5.9 1.9-7.6 4.4a10.4 10.4 0 0 0-1.8 8.6 11.8 11.8 0 0 1-8 14 10.5 10.5 0 0 0-6.5 14.5c2.7 5.7.5 12.5-5 15.5a10.5 10.5 0 0 0-3.3 15.7c3.7 4.9 3 12-1.7 16.1-2.4 2-3.7 5-3.7 8s1.4 6 3.7 8a12 12 0 0 1 1.7 16.1 10.5 10.5 0 0 0 3.3 15.7c5.4 3 7.6 9.8 5 15.4a10.5 10.5 0 0 0 6.5 14.6c6 1.8 9.5 8 8 14-.7 3 0 6.2 1.8 8.6 1.9 2.5 4.6 4 7.6 4.3a12 12 0 0 1 10.9 12.1A10.5 10.5 0 0 0 78.5 863c6.2-.7 12 3.4 13 9.5a10.7 10.7 0 0 0 13.8 8 12 12 0 0 1 14.8 6.7c1.2 2.9 3.5 5 6.5 6s6 .6 8.7-1a12 12 0 0 1 6.2-1.8zm33.8-8.7c-35.8 0-69.7-13.6-95.6-38.4h-1.4V842l-.2-.2-.5-.5c-7.5-7.5-14-15.7-19.5-24.5l-1.2-.5.3-.8c-3.8-6.3-7.4-13.3-10.4-20.8h-.3v-.7a139 139 0 0 1-9.1-40.8l-.1-.5v-.9l-.2-8.1c0-36.9 14.4-71.5 40.4-97.7a137.5 137.5 0 0 1 97.8-40.5A137 137 0 0 1 273 646c26 26.2 40.4 60.8 40.4 97.7 0 25.6-7 50.5-20.3 72.1l.2.3-.5.4c-5.7 9-12.4 17.2-19.8 24.7l-.6.7v1.3H271a137.3 137.3 0 0 1-95.6 38.5zm-75.3-24a134.2 134.2 0 0 0 75.3 22.6c27 0 53-7.8 75.2-22.5H100.1zm-2-1.2l154.3.1c6.2-4.3 11.6-8.7 16.5-13.3h-187c5 4.9 10.5 9.3 16.2 13.2zm2.3-14.3h25.2v-47.4h-13.5l-1.5 8.6c.9.2 2.4.6 3.7 1.5l.4.1-.7 1.2-.4-.3a8.4 8.4 0 0 0-3.2-1.1l-.3 2c0 .2 0 .2.2.3h.1l.5-1.3 1.4.2-1.6 4.8-1.3-.5-5 8.6-.5 1.6.7 1-4.2 20.7zm-20 0h12.2l-5.6-.5 13.8-30L99 810l1.6-5 3.2-.2 2-10H92.3l-1.5 8.7c.8.2 2.3.6 3.6 1.4l.3.1-.6 1.2-.5-.2a8.4 8.4 0 0 0-3-1.2l-.4 2 .1.3h.2l.5-1.3 1.4.2-1.8 4.8-1.3-.5-5 8.6-.5 1.6.7 1-4.1 20.5s0 .2.2.3zm179.6-.3h9.8l-4.1-20.5.8-1.1-.6-1.6-5-8.6-1.2.4-1.6-4.8 1.4-.3.4 1.4.2-.3-.3-2c-.8.2-2.2.5-3.2 1.2l-.3.2-.8-1 .3-.3a10 10 0 0 1 3.7-1.5l-1.5-8.7h-13.8l2.1 9.9 3.3.4 1.6 5-2 1.8 13.8 30-3 .4zm-35.7 0h25.4l-4.1-20.5.8-1.1-.6-1.6-5-8.6-1.3.4-1.6-4.8 1.4-.3.4 1.4.2-.3-.4-2c-.7.2-2 .5-3 1.2l-.4.2-.9-1.1.4-.3a10 10 0 0 1 3.7-1.5l-1.5-8.7h-13.7V842h.2zm-97.3-.1h96V697.7l-.3-1.3h.2v-39.3H127v12.3l.2.9h-.3V696l1 .1v.6l-.9 6v139zm-37.9-1.3l10.1.7 3.8-19-3.6 9.2-1.3-.6 5.1-12.6 5-8.7-2 2.7h-.1l-.6.2h-.4a1 1 0 0 1-.5-.4v-.7l.5-2.8v-1-.5l1.6-9.8c.3-1.2 1-1.8 1.8-1.7 1.1.2 1.1 1.3 1.1 2l.1.9.6-.4 3.3-20.9-1-.2-1 6.7-1.3-.2 1-6.8h-.3l-6.4 30.5-15.5 33.4zm178-18.4l3.9 19.1 1-1c2-2 4-4 5.9-6.2l-12.4-27-1.6-8 1.2 7.5.4 1c.1.5.1.8-.2 1.3l.5 2.6c0 .4 0 .8-.3 1l.1.7-.4-.5h-.3c-.3 0-.6 0-.9-.3l-1.4-1.9 4.5 7.7 5 12.6-1.2.6-3.7-9.2zm-20-.2l3.9 19.3 10-.7-15.4-33.4-6.5-30.4h-.3l1.1 6.8-1.4.3-1-6.7-1 .2 3.3 20.8.1.3.5.1v-.8c0-.7 0-1.8 1-2 .6 0 1.2.1 1.6.6l.3.9v.2l1.6 9.3.2.7.1.3c0 .3 0 .6-.2 1l.6 2.6c.2.5-.2 1-.6 1.1v.1h-.3c-.3 0-.6 0-.9-.2l-1.6-2.3 4.7 8 5 12.6-1.1.6-3.7-9.3zM72.3 833.5l6.4 6.8.6.6 3.7-18.7-3.6 9.2-1.2-.7 5.1-12.5 5-8.7-2 2.6c-.3.2-.5.3-.8.3H85a1 1 0 0 1-.5-.4v-.7l.5-2.8c0-.4-.2-.7 0-1 0-.3 0-.5.2-.8l1.5-9.6c.2-1.2.9-1.8 1.8-1.7 1.1.2 1.1 1.3 1.1 2v.9c.3 0 .5-.2.6-.4l.6-3.5h-.2v-1.3h.4l2.6-16.1-1-.3-1 6.8-1.4-.3 1-6.8H91L84.6 807l-12.3 26.5zm197-21.5l9.6 21c3.3-4 6.5-8 9.6-12.3l-.8-1.8-5-8.6-1.3.5-1.5-4.9 1.3-.2.5 1.3.2-.2-.4-2c-.7.1-2 .5-3.1 1.1l-.4.2-.8-1 .4-.3a10 10 0 0 1 3.6-1.5l-1.4-8.7h-15.6l2.1 9.9 3.3.3 1.6 5-2 2.2zm-207.5 7.8c2.8 4.2 5.9 8.3 9.5 12.6l9.5-20.6L79 810l1.6-5 3.3-.5 2-9.8H70.2l-1.4 8.6c.8.2 2.3.6 3.6 1.5l.4.1-.7 1.2-.4-.2a8.4 8.4 0 0 0-3.1-1.2l-.4 2 .2.3h.2l.4-1.4 1.4.3-1.7 4.7-1.3-.4-5.6 9.6zm222.5-9.7l4.7 8 .5 1 .9-1.4 1.3-1.9-4-8.8-2-8.7 1.3 8.4.3.7v.3l-.1 1 .5 2.6c.2.5-.2 1-.5 1.1l-.1.1h-.3c-.3 0-.5 0-.8-.2l-1.7-2.2zM59 815.4l2 3.3 5.4-9.1-2 2.7h-.1l-.5.2-.4.7v-.7h-.1a1 1 0 0 1-.6-.4v-.8l.6-2.7c-.1-.3-.2-.6-.1-1v-.5l1.4-8.8-1.9 9-3.7 8zm232.3-3.7l1.2 2.7c3.7-6.4 7.1-13 9.9-19.8h-16l2 9.9 3.4.3 1.5 5-2 2zm-242.8-17c2.6 6.5 5.8 13 9.6 19.2l1-2.1-2-2 1.5-5 3.3-.3 2.1-9.9H48.4zm52 14.9l1.2 1 .4-1-.9-.2.3-1.4 1.2.2.7-1.6.2-.8-2 .2-1 3.6zm-41.9 0l1.1 1 .5-1-1-.2.3-1.4 1.2.2.8-1.6.1-.8-1.9.2-1 3.6zm21.9 0l1 1 .5-1-.9-.3.3-1.3 1.2.1.7-1.6.2-.8-2 .2-1 3.6zm188 0l.4 1 1-1-1-3.5-2-.2.2.7.7 1.7 1.3-.2.3 1.4-1 .1zm-20.2 0l.5 1 1-1-1-3.5-1.8-.2v.8l.8 1.6 1.3-.2.2 1.4-1 .1zm42 0l.4 1 1-1-1-3.5-2-.2.2.8.8 1.6 1.2-.2.3 1.4-.9.1zm-50-1.5l.3.7.2-.1.2-.6h-.6zm42 0l.1.7.3-.1.2-.6h-.7zm-172.6.6h.4l.3-.6h-.8l.1.6zm-20 0h.3l.3-.6h-.8l.1.6zm170.8-.7l.2.7.3-.1.1-.6h-.6zm-192.8.6h.2l.2-.6h-.6l.2.6zm174-1h.2l.3.3c.5.4 1 .8 1.4.8.4-.1.5-.7.5-.8l-.4-.8c-.3-.1-.7-.3-1.3-.2-1 0-1.2.7-1.2.7v.3-.4l.3.2h.2zm42 0h.2l.2.3c.4.4 1 .8 1.4.8.4-.1.5-.7.5-.8 0-.2-.2-.5-.5-.8-.2-.1-.6-.3-1.2-.2-1 0-1.1.5-1.2.7v.4l.2-.2v-.1h.3zm-218-1c-.3 0-.6.2-.8.4-.3.2-.5.6-.5.8v.5l.4.3c.5 0 1.2-.5 1.4-.8l.1-.2H67v.2h.1v-.3s-.3-.5-1.2-.7l-.3-.1zm196.2 1h.1l.3.2c.5.4 1 .8 1.4.8.2 0 .3 0 .4-.3h.1l.2-.5-.4-.8c-.3-.1-.7-.3-1.3-.2-1 0-1.1.5-1.2.7v.3c0-.2.2-.2.4-.2zm-154-.8l-1 .2c-.3.2-.5.5-.5.8l.1.6.4.3c.4 0 1-.4 1.4-.8v-.1h.6l.4.2v-.5c-.1 0-.3-.6-1.2-.7h-.1zm-20.1-.1c-.4 0-.7 0-.8.3-.4.2-.6.6-.6.8l.1.5.4.3c.3 0 .9-.4 1.3-.8l.1-.1h.7v.2c.2 0 .2 0 .2.2v-.6s-.2-.6-1.1-.7l-.3-.1zm194.5-7l1 6 .7-.2h1.5l-1.2-7.8-.1-.5-.1.6v.3c-.1.6-.2 1.6-1.2 1.8-.2 0-.4 0-.6-.2zm-174.4 5.8h.4c.2 0 .4 0 .7.2l1-6a1 1 0 0 1-.8 0c-.8-.2-1.2-.9-1.2-2.2v-.6l-.2.6-1.2 8h1.3zm-20.2-.1h.6l.7.3.9-6H89c-.9-.2-1.2-.9-1.2-2.2v-.6l-.2.5-1.2 8h1zm-21.2 0l.6.2 1-6c-.2.1-.5.1-.8 0-.8 0-1.2-.8-1.2-2v-.7l-.2.6-1 8a5 5 0 0 1 1.6 0zm173.9-5.7l.9 5.9.7-.2h1.5l-1.2-7.8v-.5l-.2.6v.3c0 .6-.2 1.6-1.2 1.8h-.5zm20 0l1 5.9.7-.2h1.5l-1.3-7.9v-.5l-.2.6v.3c0 .6-.1 1.6-1.2 1.8h-.4zM282 798v.3l.5.1.1-.8c0-.7 0-1.8 1-2 .7 0 1.1.1 1.3.3l.3.3-.4-1.5h-3.4l.6 3.3zm-22-.1l.1.3.5.2v-.9c0-.7 0-1.8 1-2 .7 0 1.2.1 1.4.3l.2.3-4-19.6h-.3l1.1 6.9-1.3.2-1-6.7-1 .2 2.6 16h.4v1.4h-.2l.5 3.4zm-193.6-2.5h.2c1 .2 1 1.3 1 2 0 .6.2.8.2.9l.5-.4.5-3.5h-3.4l-.5 2.1c.2-.7.7-1 1.5-1zm177.7-2.3h14l-6.6-40h-14.8l2.8 17.7 1.1 5.5 3.5 16.8zm-173.7 0H86l3.6-17.3v-.6l1-4.5 2.8-17.7H76.8l-6.4 40.1zm-4.8 0H69l2.7-16-1-.3-1 6.7-1.4-.2 1-6.8h-.2l-3.5 16.6zm220.5 0h16.7c5-12.8 8-26.3 8.9-40.1h-33l2.7 17.7.8 4.2h.1l.1.5v.4l3.7 17.2zm-5 0h3.5l-3.5-16.7-.2.1 1 6.8-1.4.2-1-6.6-1 .2 2.6 16zm-17 0h15.6l-6.4-40.1h-16.6l2.8 17.6.8 4.3.2.3.2 1h-.1l3.5 16.8zm-39.8 0h13.5l-6.4-40.1h-7.1v40zm-112 0h13.3V753h-6.8l-6.4 40zm-20 0h13.9l3.5-16.9v-.5l.2-.8 1-4.2 2.7-17.7H98.7l-6.4 40zm-44.6 0h16.4l3.6-16.9v-.5l.1-.8h.1l.9-4.2 2.7-17.7H38.9c1 14 3.9 27.4 8.8 40zm188.5-18.4l.1 1 1-.2v-.5l1.3-.2.1.4h.2l-.5-1.8c-.7.7-1.6 1-2.2 1.3zm20-.1l.3 1.2 1-.3-.1-.5 1.4-.2v.5h.1l-.3-2c-.8.8-1.8 1.1-2.3 1.3zm22 0l.1 1.2 1-.3v-.6l1.3-.2v.5h.3l-.5-1.8a5 5 0 0 1-2.3 1.2zm-207.4.8l1 .3.2-1.1c-.7-.2-1.6-.6-2.4-1.3l-.5 1.7.5.1 1.3-.8-.1 1.1zm42 0l1 .3.1-1.2c-.6-.1-1.5-.5-2.4-1.2l-.3 1.8.2.1v-.4l1.4.2v.4zm-20.2 0l1 .2.2-1.1a4 4 0 0 1-2.3-1.3l-.3 1.8.1.1.1-.3h1.3v.5zm158-36.6l5.5 34.5c.5 0 1.6-.6 2.2-1.7l-.1-.6-5-32.6-2.7.4zm-20 0l5.6 34.4a3 3 0 0 0 2.2-1.6l-.2-.6-2.9-18.6-2.2-14-2.5.4zM112 771.7a3.1 3.1 0 0 0 2.2 1.6l5.7-34.4-2.6-.3-2.3 14v.1l-2.8 18.5-.2.5zm-20.1-.1a3.2 3.2 0 0 0 2.2 1.7l5.6-34.5-2.7-.4-5.1 33.2zm-21.9 0a3.3 3.3 0 0 0 2.2 1.7l3.2-20.1H73l-2.8 18-.2.5zM274.8 753l3.2 20.2c.6 0 1.6-.4 2.1-1.6v-.5l-2.8-18h-2.5zm-.3-1.2h2.5l-2-13.2-2.5.3 2 13zm-37.9 0h14.8l-6.5-41h-15.7l4 26.4 1.2-.2v.7l2.2 14.1zm-159.5 0h16.5L96 737l1.2.2 4-26.3H83.7l-6.6 41zm201.3 0h33.4l.3-7.5v-.5c0-11.4-1.3-22.4-4-33.1H271l4 26.3 1.3-.2v.8l2.2 14.1zm-21.8 0H273l-6.7-41.1h-17.3l4 26.3 1.3-.2v.8l2.2 14.1zm-32.3 0h6.8l-6.8-42.5v42.4zm-105.3 0h6.6V711l-6.6 40.6zm-20.2 0h14.8l2.3-14.9 1.2.2 4-26.4h-15.7l-6.6 41zm-25.7 0h2.6l2.1-12.9-2.6-.4-2 13.2zm-34.2 0h32.9l2.3-14.9 1.2.2 4-26.3H42.5a141.4 141.4 0 0 0-3.6 41zm206.9-42.1l4.4 27.9 1.6-.3-4.2-26.8c-.6-.6-1.3-1-1.5-1 0 0-.2 0-.3.2zm-127.1 27.7l1.3.2 4.6-27.7-.4-.3c-.2 0-.6.3-1.3 1l-4.2 26.8zm149.2-26.5l4.3 26.7 1.4-.2-4-26.5h-1.7zM76.6 737.4l1.4.2 4.3-26.8h-1.7l-4 26.6zm149.2-27.7l4.6 27.9 1.3-.2-4-26.8-1.5-1.1-.4.2zM98.4 737.3l1.5.3 4.5-27.8-.4-.2s-.6.3-1.4 1l-4.2 26.7zm-55.5-27.7h36.6l2-13.8 1.4.2-.9 6 1-6.2 3 .3v.6l-2 12.6h17.4l2.1-13.8 1.4.3v-.2l2.9.4v.7l-2 12.8h15.7l2.1-13.8 1.4.3-1 6h.2l.9-6.3h.5v-25.3H60a137.2 137.2 0 0 0-17.1 39.2zm186.1-.1h15.4l-.1-.1.3-.3-2.1-13 3-.4v.2l1.4-.3 2 13.8h17.4l-2.2-13.3 3-.3 1.2 6.2-1-6 1.4-.3 2.1 13.8H308c-3.5-14-9.3-27-17-39.1h-66V696l.7-.2 1.1 6.2-.9-6 1.4-.3 1.8 13.8zm-147.2-6l-.8 5.3c.4-.3.8-.5 1.1-.5h.2s.3 0 .4.2l.9-5.1h-1.8zm42-.1l-.8 5.3c.3-.3.8-.5 1-.5l.7.2.8-5.1h-1.7zm102.8 4.8c.3 0 .7.2 1 .4l-.9-5.2-1.6-.1.8 5h.7zm-122.8-5l-.8 5.4 1-.5h.2l.5.2.8-5.1h-1.7zm142.6 5c.3 0 .6 0 1 .4l-.8-5.3-1.7-.1.9 5.1.4-.2h.2zm21.8 0c.3 0 .7.1 1 .3l-.9-5.2-1.6-.1.8 5.1c.2 0 .3 0 .5-.2h.2zm-44.4-5.5v.7h.4l-.1-.6h-.3zm22.5-.8l-.6-4.4.6 4.4zm-142.3 0l.7-4.4-.7 4.4zm22.2-4.7l-.8 4.7h.3l.8-4.6h-.3zm-42 0l-.7 4.7h.3l.8-4.6h-.4zm160.4 4.6h.2l-.7-4.7h-.3l.8 4.7zm-20.1 0h.2l-.4-2.8v1.3l.2 1.5zm42 0h.2l-.7-4.7h-.3l.7 4.7zm-161 0h.1l1-4.6h-.6l-.6 4.5zM60.7 669h64.8v-13.2h99v13h65.1A138 138 0 0 0 175.4 607c-36.5 0-70.9 14.2-96.7 40.1-6.7 6.6-12.8 14-17.9 21.9zm157.5 167.2h-86.8V662.6h86.8v173.7zm-85.5-1.3H217V664h-84.2v171zm72.3-12.9h-23.3v-45.4H205V822zm-22-1.3h20.5V778H183v42.7zm-12.9 1.3H147v-45.4h23.3V822zm-21.9-1.3h20.6V778h-20.6v42.7zm62.5-48.8c-2 0-3.6-1.6-3.6-3.6s1.6-3.7 3.6-3.7 3.7 1.7 3.7 3.7-1.7 3.6-3.7 3.6zm0-5.8c-1.2 0-2.2 1-2.2 2.3s1 2.2 2.2 2.2c1.3 0 2.3-1 2.3-2.2s-1-2.3-2.3-2.3zm-5.7-7.3h-23.3v-45.5H205V759zm-22-1.5h20.5v-42.7H183v42.7zm-12.9 1.5H147v-45.5h23.3V759zm-21.9-1.5h20.6v-42.7h-20.6v42.7zm56.8-54.4h-23.3v-25H205v25zm-22-1.4h20.5v-22.3H183v22.3zm-12.9 1.4H147v-25h23.3v25zm-21.9-1.4h20.6v-22.3h-20.6v22.3zm37-56.7h-28.9v-1.4h10v-12.1h-10V630h38.9v1.4h-10v12h10v1.4h-10v.1zm-8.7-1.4h7.4v-12h-7.4v12zm-8.7 0h7.4v-12h-7.4v12z"/></svg>