<svg xmlns="http://www.w3.org/2000/svg" width="350" height="350" viewBox="0.5 568.5 350 350"><path fill="#071B36" d="M190.6 901.2c-3 0-6-1.2-8-3.2-4-3.7-10.3-3.7-14.4 0a12 12 0 0 1-18-2 10.8 10.8 0 0 0-14-3 11.9 11.9 0 0 1-17-5.6c-2.2-5-8-7.6-13.1-5.8-3.2 1.1-6.8.9-9.8-.9a12 12 0 0 1-5.7-8 10.6 10.6 0 0 0-11.6-8.5c-3.5.4-6.9-.7-9.4-3-2.6-2.3-4-5.5-4-9.1 0-5.6-4.2-10.2-9.6-10.7-3.4-.3-6.5-2-8.7-4.8-2-2.7-2.8-6.3-2-9.7 1.2-5.3-2-11-7.3-12.5-3.3-1-6-3.3-7.4-6.5a12 12 0 0 1 .1-10c2.3-4.9.3-10.9-4.5-13.6-3-1.7-5.2-4.6-5.8-7.9a12 12 0 0 1 2.2-9.6 10.4 10.4 0 0 0-1.5-14.3c-2.5-2.2-4-5.5-4-9s1.4-6.8 4-9c4.2-3.7 4.9-10 1.5-14.3a11.7 11.7 0 0 1 3.8-17.5c4.8-2.6 6.7-8.6 4.4-13.7a12 12 0 0 1 0-9.9c1.4-3 4-5.5 7.3-6.6 5.2-1.6 8.4-7 7.3-12.4-.8-3.3 0-7 2-9.7a12 12 0 0 1 8.6-4.8c5.5-.5 9.7-5.2 9.6-10.7 0-3.6 1.5-6.9 4-9.2 2.6-2.3 6-3.3 9.5-2.9 5.5.6 10.6-3.1 11.7-8.5a11.8 11.8 0 0 1 15.4-9c5.3 1.8 11.1-.8 13.2-5.8a11.8 11.8 0 0 1 17-5.6c4.8 3 11 1.6 14.1-3a12 12 0 0 1 18-2c4 3.8 10.3 3.8 14.3 0l.2-.1.2-.2a12 12 0 0 1 17.5 2.3c3.2 4.5 9.4 5.8 14 3 3-1.8 6.5-2.2 9.9-1 3.2 1 5.9 3.5 7.2 6.6 2.2 5.1 8 7.7 13.1 5.8 3.2-1 6.8-.8 9.8 1 3 1.7 5 4.6 5.7 8 1 5.5 6.2 9.2 11.6 8.5 3.5-.5 6.9.6 9.4 3 2.6 2.3 4 5.5 4 9 0 5.6 4.2 10.3 9.6 10.8 3.4.2 6.5 2 8.7 4.8a12 12 0 0 1 2 9.7c-1.2 5.3 2 10.9 7.3 12.4a12 12 0 0 1 7.3 16.5c-2.3 5-.3 11 4.5 13.7 3 1.7 5.2 4.6 5.8 7.9a12 12 0 0 1-2.2 9.6 10.4 10.4 0 0 0 1.5 14.2 12.1 12.1 0 0 1 0 18.1c-4.2 3.8-4.9 10-1.5 14.3a11.7 11.7 0 0 1-3.7 17.5 10.6 10.6 0 0 0-4.5 13.7 12 12 0 0 1 0 9.8 12.6 12.6 0 0 1-7.3 6.6 10.7 10.7 0 0 0-7.3 12.5c.8 3.3 0 7-2 9.7a12 12 0 0 1-8.7 4.8c-5.4.5-9.6 5.1-9.6 10.7 0 3.6-1.4 6.9-4 9.1a12 12 0 0 1-9.4 3 10.7 10.7 0 0 0-11.7 8.5 11.8 11.8 0 0 1-15.4 9c-5.3-1.8-11 .8-13.2 5.8-1.4 3-4 5.6-7.2 6.7-3.3 1-6.9.6-9.8-1.1-4.8-3-11-1.6-14.1 3a12 12 0 0 1-8.6 5l-1.3.1zm-49-10.8a12 12 0 0 1 9.8 5.1c1.8 2.6 4.6 4.1 7.5 4.4 3.2.3 6.2-.7 8.3-2.8 2.4-2.1 5.1-3.1 8.2-3.1s5.8 1 8 3c2.3 2.2 5.2 3.2 8.3 3 3-.4 5.8-2 7.5-4.5a12 12 0 0 1 16-3.3c2.6 1.5 5.7 1.9 8.6 1 2.9-1 5.1-3.2 6.4-6 2.4-5.7 8.9-8.7 14.8-6.7 2.9 1 6.2.7 8.7-.9 2.8-1.4 4.6-4 5.1-7.1A12 12 0 0 1 272 863c3 .4 6-.6 8.3-2.7 2.2-2 3.5-4.9 3.5-8-.1-6.3 4.7-11.6 10.9-12 3-.4 5.8-2 7.6-4.4 1.8-2.5 2.4-5.6 1.7-8.6a11.8 11.8 0 0 1 8-14 10.5 10.5 0 0 0 6.5-14.5 11.9 11.9 0 0 1 5-15.5c2.7-1.4 4.6-4 5.3-7 .7-3 0-6.2-2-8.7-3.7-5-3-12 1.8-16.2a10.6 10.6 0 0 0 0-16 12 12 0 0 1-1.7-16 10.5 10.5 0 0 0-3.3-15.7c-5.4-3-7.6-9.9-5-15.4 1.2-2.7 1.2-6 0-8.8a10.4 10.4 0 0 0-6.6-5.8c-5.9-1.8-9.5-8-8-14 .7-3 0-6.2-1.7-8.6-2-2.5-4.6-4-7.6-4.3a12 12 0 0 1-10.9-12.1c0-3.1-1.3-6-3.5-8s-5.2-3-8.3-2.7c-6.2.7-12-3.4-13-9.5a10.7 10.7 0 0 0-13.9-8 12 12 0 0 1-14.8-6.7c-1-2.9-3.5-5-6.4-6s-6-.6-8.7 1a12 12 0 0 1-15.9-3.4 10.5 10.5 0 0 0-15.8-1.6 11.9 11.9 0 0 1-16.3 0 10.7 10.7 0 0 0-8.3-2.7 10 10 0 0 0-7.5 4.3 12 12 0 0 1-15.9 3.4c-2.7-1.5-5.8-1.9-8.7-1-2.8 1-5.1 3.1-6.4 6a11.9 11.9 0 0 1-14.8 6.6c-2.8-1-6.1-.6-8.7 1a9.9 9.9 0 0 0-5.1 7 12 12 0 0 1-13.2 9.6 10.5 10.5 0 0 0-11.8 10.7c.1 6.3-4.6 11.6-10.8 12-3.2.3-5.9 1.9-7.6 4.4a10.4 10.4 0 0 0-1.8 8.6 11.8 11.8 0 0 1-8 14 10.5 10.5 0 0 0-6.5 14.5c2.6 5.7.4 12.5-5 15.5-2.7 1.4-4.6 4-5.2 7-.7 3.2 0 6.2 1.9 8.7 3.7 4.9 2.9 12-1.8 16.1-2.3 2-3.6 5-3.6 8s1.3 6 3.6 8a12 12 0 0 1 1.8 16.1 10.5 10.5 0 0 0 3.3 15.7c5.4 3 7.6 9.8 5 15.4a10.5 10.5 0 0 0 6.5 14.6c6 1.8 9.5 8 8 14-.7 3 0 6.2 1.8 8.6 1.9 2.5 4.5 4 7.6 4.3a12 12 0 0 1 10.8 12c0 3.2 1.3 6 3.5 8.1 2.2 2 5.2 3 8.3 2.7a12 12 0 0 1 13.2 9.5 10.7 10.7 0 0 0 13.8 8 12 12 0 0 1 14.8 6.7c1.1 2.9 3.5 5 6.4 6 3 1 6 .6 8.7-1 2-1.2 4-1.8 6.1-1.8zm33.7-8.8c-36.9 0-71.5-14.3-97.7-40.4-26-26-40.4-60.7-40.4-97.6 0-36.8 14.4-71.5 40.5-97.7 26.2-26 60.8-40.4 97.7-40.4 36.7 0 71.4 14.4 97.5 40.4 26 26 40.4 60.7 40.4 97.7 0 36.8-14.3 71.5-40.4 97.6a137.4 137.4 0 0 1-97.6 40.4zm0-274.7c-36.4 0-70.8 14.3-96.6 40.1a136.1 136.1 0 0 0 0 193.2c25.8 25.9 60 40.2 96.7 40.2 36.4 0 70.8-14.3 96.6-40.2a135.7 135.7 0 0 0 40.1-96.5c0-36.5-14.2-70.9-40-96.7a135.3 135.3 0 0 0-96.7-40.1zM174 849.6l-2.6-.7a128.1 128.1 0 0 1-63.2-43H60.3V695.2h24.5c1.2-5 3-10.1 5-15.4l3.3-8 8.2 3a65 65 0 0 0 66.4-13.3l6.1-5.7 6.1 5.7a64.2 64.2 0 0 0 66.4 13.2l8.2-3 3.3 8c2 5.3 3.8 10.5 5 15.4h26.4v110.5H240a129.1 129.1 0 0 1-63.5 43.2l-2.6.7zM109.9 806c16 19.7 37.8 34.5 61.8 41.6l2.2.7 2.2-.7c24-7.1 46-22 62.2-41.7h-.4l.2-.1h-9.2A118.4 118.4 0 0 1 174 841h-.4c-21-6.3-40-18.4-54.7-35h-9.1zm10.7-.1c14.4 15.9 32.7 27.6 53.2 33.8a118 118 0 0 0 52.9-33.5l-1.4.2 1-.5H120.6zm-10.5-1.2h8.6l-.1-.2h.3l.2-.3.3.3H239l.2-.2.2.2h48.3v-13.1L196 755.7v.6l-.2.3-.1.3c-2 8-8 14-15.8 15.8l-.2.3-.2-.2c-2.4.6-5 .6-7.5.4h-1.8.1c-1.8-.5-3.4-1.1-5-2a21.7 21.7 0 0 1-9.9-10l-.2-.2h.1c-.7-1.5-1.2-3.2-1.5-4.9v-.2l-.1-.3-92 35.6v13.4H108l.4-.2c.2 0 .3 0 .5.2h1.3zm86.3-50.2l91.4 35.5v-75.4l-91.7 35.6.1 2c0 .7 0 1.4-.2 2.3h.4v-.2.2zm-134.7-40v75.4l91.9-35.6V752 750l-91.9-35.7zm111.7 57.5c1.8.2 3.5 0 5.2-.3l.7-.1 15.4-15.5.1-.8-.1-.1.2-.6.1-.8v-.2l.1-1.7v-1.5l-21.7 21.6zm-7-1.7a28 28 0 0 0 5.2 1.6l22-22h-.7l1-.3.5-.4c-.3-1.9-.8-3.6-1.6-5.2l-26.3 26.3zm27.2-11.2L182 770.6c5.2-2 9.5-6.3 11.6-11.6zm-32.4 7.6c1.3 1.2 2.6 2.2 4 3l27-27.2c-.7-1.5-1.7-2.7-2.8-4l-28.2 28.2zm-3.8-5c.8 1.6 1.9 3 2.8 4l28.1-28.1a16.5 16.5 0 0 0-3.9-2.9l-27 27zm-2.2-6.3c.3 1.8.8 3.5 1.6 5.1l26.4-26.4a21 21 0 0 0-5-1.7l-23 23zm0-7.4a23.5 23.5 0 0 0-.3 5.7l21.5-21.4c-2-.2-4 0-5.8.3L155.2 748zm40.6.5l.2.2 91.8-35.6v-16.4h-226v16.3l91.9 35.7c0-.3 0-.6.2-1h-.1v-.2l.2-.2a21.5 21.5 0 0 1 29.8-14.5v-.2l.3.4a23 23 0 0 1 6 4.3h.6l-.3.3c2.8 3 4.7 6.7 5.4 11zm-28-15.2c-5.3 2-9.7 6.4-11.8 12l11.9-12zm93-37.9h.7c-1.3-5-3-10-5-14.8l-2.7-6.9-7 2.6a65.8 65.8 0 0 1-67.7-13.4l-5.2-4.9-5.1 4.9a65.8 65.8 0 0 1-67.8 13.4l-7-2.6-2.7 6.8c-2 5.1-3.7 10-4.9 14.8h7.4c1.3-4.6 2.7-8.6 4.1-12.2l.3-.7.5.3a72.9 72.9 0 0 0 74.9-15l.4-.4.5.5a72.6 72.6 0 0 0 74.7 14.9l.4-.2.6.4h.1c1.5 3.7 2.9 7.8 4.2 12.3h6.4v.2zm-8.5 0h.8c-1.2-4-2.5-7.8-3.8-11.1a74.7 74.7 0 0 1-75.1-15 74 74 0 0 1-75.2 15c-1.6 3.9-2.8 8-3.7 11.1h157zM188 644.8h-33v-1.3h15.9l-4.8-12.1H155V630h33v1.4h-10.4l-4.8 12H188v1.4zm-20.5-13.4l4.3 10.9 4.3-10.9h-8.6z"/></svg>