<svg xmlns="http://www.w3.org/2000/svg" width="350" height="350" viewBox="0.5 568.5 350 350"><path fill="#071b36" d="M190.8 901.3c-3 0-6-1.2-8-3.2-4-3.8-10.4-3.8-14.4 0a12 12 0 0 1-18-2 10.8 10.8 0 0 0-14-3 11.9 11.9 0 0 1-17-5.6c-2.2-5-8-7.6-13.2-5.8a11.9 11.9 0 0 1-14.7-6.3l-.3-.7h1.5l.1.3c.8 1.8 2.3 3.5 4.2 4.7 2.6 1.5 5.8 1.8 8.7.9a12 12 0 0 1 14.8 6.7c1.1 2.8 3.5 5 6.4 6s6 .6 8.7-1a12 12 0 0 1 15.9 3.3c1.8 2.5 4.6 4.1 7.5 4.4 3.2.3 6.2-.8 8.3-2.9a12 12 0 0 1 8.2-3c3 0 5.8 1 8 3 2.3 2.1 5.2 3.2 8.3 2.9a10 10 0 0 0 7.5-4.4 12 12 0 0 1 16-3.4c2.6 1.6 5.7 2 8.6 1 2.8-.9 5.1-3.1 6.4-6 2.4-5.7 8.9-8.6 14.8-6.6 2.9 1 6.2.6 8.7-1 1.8-1 3.4-2.6 4.3-4.6l.1-.3h1.6l-.2.7a11.8 11.8 0 0 1-5 5.4c-3 1.7-6.5 2-9.7.9-5.3-1.7-11 .8-13.2 5.8a11.8 11.8 0 0 1-17 5.6c-4.8-2.9-11-1.5-14.1 3a12 12 0 0 1-8.6 5c-.3.2-.8.2-1.2.2zm-15.4-19.6c-14 0-27.7-2-40.6-6l-3-1h4.7a138.6 138.6 0 0 0 77.7 0h4.7l-3 1c-12.8 4-26.5 6-40.5 6zm101.5-19.8h-31.7.2-141.5l-.1-.1H71.6v-.1h-.3v-14.1l1.3-2.8v-.4l.2-.2.2-.5v-62.9h-1.5c-1.4 0-2.5-1-2.5-2.4s1.1-2.5 2.5-2.5h19.1l1.6-11H92l1.5-9.8.2-.6v-.6h.1v-.8l1.2-7.5v-.9l.2-.7v-.5l1.2-7.5-.1-.2v-.1l1.4-9.3 1.4-9.6.1-.6v-.5l.2-.3v-.6l.2.1 1-7.7.1-.1v-.2l6.7-45.4v-1.2H112.1v48.9h-.1v.3l8 66.3h.2v.1H140v-13.5c0-1 .4-1.8 1.2-2.5.6-.6 1.6-.9 2.5-.6l6.4 1.3c15.7 3.2 31.5 3.4 47 .5l10-2a3 3 0 0 1 2.6.7c.8.7 1.2 1.6 1.2 2.5v13.6h11.6a4.8 4.8 0 0 1 4.3-4v-.1h.1l4.1-14.5 1.4.2-4.1 14.3c2 .5 3.6 2.1 3.8 4.1h5.2l7.5-62v-53.6h4.4v.5l7.8 52.9h.1v.2l6.6 45.8V760l2.4 15.8h13.4c1.4 0 2.5 1.1 2.5 2.5s-1.1 2.5-2.5 2.5h-4V844l.3.6 1.3 3v13.9h-.2v.4h.1zm-2.2-1.3h1V848l-1.4-3.2h-1l1.4 3v12.8zm-13.1 0h11.8v-12.7l-1.4-3h-3.6l.1-.1H263l-1.4 3.2v12.6zm-12.8 0h11.4v-13l1.3-2.8h-33.1l1.3 3v12.7h19.2-.1zm-32.6-.1h12.1v-12.6l-1.4-3.1h-9.2l-1.5 3.2v12.5zm-3.5 0h2.2v-13l1.2-2.7h-2l-1.4 3.2v12.5zm-76.4 0h75v-13l1.3-2.7H135l1.3 3v12.7zm-3.3 0h2v-12.6l-1.4-3.1h-1.9l1.3 3v12.7zm-12.9 0h11.6v-12.6l-1.4-3.1h-8.7l-1.5 3.2v12.5zm-15.8 0h14.5v-13l1.2-2.7v-.1H86.7l1.3 3v12.7h16.3zm-29.1 0h11.4V848l-1.4-3.2h-4v-.1h-4.6l-1.4 3.3v12.5zm-2.5 0h1v-13l1.4-2.7h-1l-1.5 3.2v12.5zm201.3-17l.1-49.8h-1v49.8h1zm-2.4 0h.1v-49.8h-8.1v49.7h6.8-.1 1.3zm-43.6 0h34.2v-49.8H228v49.8zm-9.5 0h8.2v-49.8h-8.2v49.8zm-1.7 0h.3v-49.8h-85.7v49.8h1.8v-37.7a10 10 0 0 1 10-10H205a10 10 0 0 1 10 10v37.7h1.8zm-3.4 0h.3v-37.7c0-4.7-4-8.7-8.7-8.7h-61.7c-4.8 0-8.7 4-8.7 8.7v37.6h78.8zm-83.5 0h.1v-49.8H122v49.8h8zm-55.5 0h1v-49.8h-1v49.8zm12-.1h34.1v-49.7H86.3v49.7zm-1.6 0h.1v-49.7h-8.1v49.6h8zm188.3-51.2h1v-.8h-1v.8zm-9.5 0h8.1v-.8h-8.1v.8zm-35.6 0h34.2v-.8H228v.8zm-9.5 0h8.2v-.8h-8.2v.8zm-87.1 0H217v-.8h-85.7v.8zm-9.5 0h8.1v-.8H122v.8zm-35.6 0h34.2v-.8H86.3v.8zm-9.5 0h8.1v-.8h-8.1v.8zm-2.4 0h1v-.8h-1v.8zm198.7-2.2h1v-9.2h-1v9.2zm-9.5 0h8.1v-9.2h-8.1v9.2zm-35.6 0h34.2v-9.2H228v9.2zm-9.5 0h8.2v-9.2h-8.2v9.2zm-87.1 0H217v-9.2h-85.7v9.2zm-9.5 0h8.1v-9.2H122v9.2zm-35.6 0h34.2v-9.2H86.3v9.2zm-9.5 0h8.1v-9.2h-8.1v9.2zm-2.4 0h1v-9.2h-1v9.2zm-2.8-12.7c-.6 0-1.1.5-1.1 1s.5 1.2 1 1.2h208c.6 0 1.1-.6 1.1-1.1s-.6-1.1-1.1-1.1H71.6zM246 776h1.7V661.6H246V776zm3 0h15.6l-2.3-15.4a37.3 37.3 0 0 1-6.8-46.9l-6.5-44v106.2zm-10.5 0h6.2v-50.7l-6.2 50.6zm-14.8 0h6.9a3.5 3.5 0 0 0-3.4-2.8c-1.7 0-3 1-3.5 2.7zm-82.5 0h68.2v-13.6a1.9 1.9 0 0 0-2.2-1.8l-10 2c-15.8 3-31.7 2.8-47.5-.5l-6.4-1.4c-.6 0-1.1.1-1.6.4-.4.3-.6.8-.6 1.4v13.4zm-29.2 0h6.6l-6.6-54.5V776zm-3 0h1.6v-66.3l-.2-1h.1v-.2h.1v-46.8h-1.6V776zm-8.2 0h5.7l-11.8-19-1 7 .1.6 7 11.3zm-8.8 0h7.2l-5.9-9.5-1.3 9.4zm3-21l12.5 20v-.3l.1.2v-9.4l-.2-.2-11.2-18-1.1 7.7zm12.4 7.7l.2.3V753.7l-10-16-1.1 7.4 11 17.6zM256 715.8a35.3 35.3 0 0 0 6.2 42.5L256 716zM98 735.7l9.7 15.4v-9.4L99 728.1l-1 6.9v.7zm1.6-9.6l8.1 13.2V730l-7.1-11.5-1 7v.6zm1.3-9.7l6.7 10.8v-9.3l-5.6-9-1.1 7.5zm1.4-9.4l5.3 8.5v-44.8l-5.3 36.3zm188 135.8v-1.6l.4-.1c1.2-.6 2.6-1 4-1 3.1-.3 5.8-1.8 7.6-4.3 1.8-2.6 2.4-5.7 1.7-8.6a11.8 11.8 0 0 1 8-14 10.5 10.5 0 0 0 6.5-14.5 11.9 11.9 0 0 1 5-15.6c2.7-1.3 4.6-4 5.3-7 .6-3.1-.1-6.1-2-8.6-3.7-5-2.9-12 1.8-16.2 2.4-2 3.7-5 3.7-8s-1.4-5.9-3.7-7.9a12 12 0 0 1-1.7-16.2 10.5 10.5 0 0 0-3.3-15.6c-5.4-3-7.6-9.9-5-15.5 1.2-2.6 1.2-5.9 0-8.7a10.4 10.4 0 0 0-6.5-5.8c-6-1.8-9.6-8-8-14 .6-3 0-6.2-1.8-8.7-2-2.4-4.6-4-7.6-4.3a12 12 0 0 1-10.9-12c0-3.1-1.3-6-3.5-8s-5.2-3.1-8.3-2.7c-6.2.7-12-3.4-13-9.5a10.7 10.7 0 0 0-13.9-8 12 12 0 0 1-14.8-6.8c-1-2.8-3.5-4.9-6.4-6s-6-.5-8.7 1.1a12 12 0 0 1-15.9-3.4 10.4 10.4 0 0 0-7.5-4.4c-3-.2-6 .8-8.1 2.7l-.6.5a12 12 0 0 1-15.9-.3 10.7 10.7 0 0 0-13.7-.8 12 12 0 0 0-2 2.2l-1.2 1.4c-2.4 2.7-6.1 4-9.7 3.7-1.7-.2-3.4-.7-5-1.6-2.6-1.6-5.8-2-8.7-1-2.8 1-5.1 3.1-6.4 6a11.9 11.9 0 0 1-14.8 6.6c-2.8-1-6.1-.6-8.7 1a9.9 9.9 0 0 0-5.1 7 12 12 0 0 1-13.2 9.6 10.5 10.5 0 0 0-11.8 10.7c.1 6.3-4.6 11.6-10.8 12-3.1.3-5.9 1.9-7.6 4.3a10.4 10.4 0 0 0-1.8 8.6 11.8 11.8 0 0 1-8 14.1 10.5 10.5 0 0 0-6.5 14.5c2.6 5.7.5 12.5-5 15.5-2.7 1.4-4.6 4-5.2 7-.7 3.1 0 6.2 1.9 8.6 3.7 5 2.9 12-1.8 16.2-2.3 2-3.6 5-3.6 8s1.4 5.9 3.6 8a12 12 0 0 1 1.8 16.1 10.5 10.5 0 0 0 3.3 15.6c5.4 3 7.6 10 5 15.5a10.5 10.5 0 0 0 6.5 14.5c6 1.9 9.5 8 8 14.1-.7 3 0 6.1 1.8 8.6 1.9 2.5 4.5 4 7.6 4.3 1.2 0 2.4.4 3.5.8l.3.1v1.5l-.6-.3c-1-.5-2-.7-3.2-.8-3.4-.3-6.5-2-8.7-4.9-2-2.6-2.8-6.3-2-9.7 1.2-5.3-2-10.8-7.3-12.4a12 12 0 0 1-7.3-16.5c2.3-4.9.3-11-4.5-13.7-3-1.6-5.2-4.5-5.8-7.8a12 12 0 0 1 2.2-9.6 10.4 10.4 0 0 0-1.5-14.3 12.2 12.2 0 0 1-4-9c0-3.5 1.4-6.8 4-9.1 4.2-3.7 4.9-9.9 1.5-14.3-2.1-2.4-3-6-2.2-9.6.8-3.4 3-6.3 6-7.8 4.8-2.7 6.7-8.6 4.4-13.7a12 12 0 0 1 0-10c1.4-3 4-5.4 7.3-6.5 5.2-1.6 8.4-7.1 7.3-12.4-.8-3.3 0-7 2-9.7a12 12 0 0 1 8.6-4.9c5.5-.4 9.7-5 9.6-10.7a12 12 0 0 1 13.4-12c5.6.6 10.7-3.1 11.8-8.5a11.8 11.8 0 0 1 15.4-9c5.2 1.7 11.1-1 13.2-5.8a11.8 11.8 0 0 1 17-5.6 11 11 0 0 0 4.3 1.4c3.3.3 6.6-.9 9-3.3l.9-1.1a13.1 13.1 0 0 1 5.7-4.4c1-.3 1.9-.6 2.8-.7 3.5-.3 6.8.8 9.3 3.1 4 3.8 10.3 3.8 14.4 0 2.4-2.3 5.8-3.5 9.3-3a12 12 0 0 1 8.6 5c3.2 4.4 9.4 5.7 14 3a11.9 11.9 0 0 1 17 5.6c2.3 5 8 7.6 13.2 5.8 3.2-1.1 6.8-.8 9.8 1 3 1.7 5 4.6 5.7 8 1 5.4 6.2 9.2 11.6 8.5 3.5-.5 6.9.6 9.4 2.9 2.6 2.4 4 5.6 4 9.1 0 5.6 4.2 10.3 9.6 10.7a12 12 0 0 1 10.7 14.5c-1.2 5.4 2 11 7.3 12.5a12 12 0 0 1 7.3 16.5c-2.3 4.9-.3 11 4.5 13.7 3 1.6 5.2 4.5 5.8 7.8a12 12 0 0 1-2.2 9.6 10.4 10.4 0 0 0 1.5 14.3 12 12 0 0 1 0 18.1c-4.1 3.7-4.9 10-1.6 14.3 2.1 2.4 3 6 2.2 9.6-.8 3.4-3 6.3-6 7.8a10.6 10.6 0 0 0-4.4 13.7 12 12 0 0 1 0 10 12.6 12.6 0 0 1-7.3 6.5 10.7 10.7 0 0 0-7.2 12.4c.7 3.3 0 7-2 9.7a12 12 0 0 1-8.7 4.9 10 10 0 0 0-3.9 1l-.7.4zm-30.2-1.5h-29.2V805h3.7a10 10 0 0 1 10-9.3h1.4a10 10 0 0 1 10 9.3h4.1v36.2zm-27.8-1.5h26.5v-33.4h-4v-.7c0-4.7-4-8.7-8.8-8.7h-1.2c-4.8 0-8.7 4-8.7 8.7v.7h-3.8v33.4zm-23 1.5h-14v-36.7h2.1a5 5 0 0 1 5-4.4 5 5 0 0 1 4.9 4.4h2v36.7zm-12.6-1.4h11.3v-34h-2v-.7c0-2-1.7-3.6-3.7-3.6s-3.5 1.6-3.5 3.6v.8h-2.1v34zm-4.5 1.4h-37v-36.7h4.9c4-2.8 8.5-4.4 13.4-4.4s9.4 1.6 13.2 4.4h5.5v36.7zm-35.6-1.4h34.2v-34H186a20.6 20.6 0 0 0-25.3 0h-4.2v34zm-4.6 1.4h-14.1v-36.7h2c.4-2.4 2.5-4.4 5-4.4s4.7 2 5 4.4h2v36.7zm-12.7-1.4h11.3V806h-2.1v-.8c0-2-1.7-3.6-3.6-3.6s-3.5 1.7-3.5 3.6v.8h-2.1v34zm-21.4 1.4H88.5V805h3.8a10 10 0 0 1 10-9.3h1.3a10 10 0 0 1 10 9.3h4.2v36.2zm-28-1.5h26.6v-33.4h-4.1v-.7c0-4.7-4-8.7-8.7-8.7h-1.3c-4.7 0-8.7 4-8.7 8.7v.7H90v33.4zm83.8-8.3h-.7l-3.2-3.2 1.8-1.7-.7-.8-2.1 2-.8-1 2.3-2v-.8H169l-8-8h8l2.4 2.4v-2.3h3.6v2.5l2.6-2.6h8.1l-8 8h-1v1l2 1.8-.9 1.1-2-2-.2.1-.6.5 2 1.7-3.4 3.3zm-2-3.2l1.7 1.7 1.6-1.7-.8-.8-.5.4h-.6l-.5-.4-.9.8zm.4-3.3l1.3 1.3 1.4-1.7.2-.1.3-.3v-3.5h-3.7v3.9l.5.4zm4.5-2.4h.5l5.4-5.4h-4.3l-2 2.1h.4v3.3zm-6.4 0v-3.3h.4l-2-2H164l5.4 5.3h.6zm2.9-3.2h.3-.1.5v-2h-.9v2h.2zm117.6.6v-2.5c14.1-22 21.5-47.5 21.5-73.8 0-36.4-14.2-70.8-40.1-96.6a136 136 0 0 0-193.3 0 136.5 136.5 0 0 0-19.2 169.5h.1v2.6l-.8-1.3a138.1 138.1 0 1 1 232.6.8l-.8 1.3zm-23.2-30.5c-1.8 0-3.3-1.8-3.3-4s1.5-4.2 3.3-4.2 3.3 1.8 3.3 4.1-1.4 4.1-3.3 4.1zm0-6.7c-1 0-1.9 1.2-1.9 2.7 0 1.5 1 2.8 2 2.8s1.9-1.3 1.9-2.8c0-1.5-.9-2.7-2-2.7zm-44.7 6.7c-1.8 0-3.3-1.8-3.3-4s1.5-4.2 3.3-4.2 3.3 1.8 3.3 4.1-1.4 4.1-3.3 4.1zm0-6.7c-1 0-1.9 1.2-1.9 2.7 0 1.5 1 2.8 2 2.8s1.8-1.3 1.8-2.8c0-1.5-.8-2.7-1.9-2.7zm-97 6.7c-1.8 0-3.3-1.8-3.3-4s1.5-4.2 3.3-4.2c1.8 0 3.3 1.8 3.3 4.1s-1.5 4.1-3.3 4.1zm0-6.7c-1 0-1.9 1.2-1.9 2.7 0 1.5 1 2.8 2 2.8s1.8-1.3 1.8-2.8-.9-2.7-1.9-2.7zM81 789.5c-1.8 0-3.3-1.8-3.3-4s1.5-4.2 3.3-4.2c1.8 0 3.3 1.8 3.3 4.1s-1.5 4.1-3.3 4.1zm0-6.7c-1 0-2 1.2-2 2.7 0 1.5 1 2.8 2 2.8s2-1.3 2-2.8-1-2.7-2-2.7zm94-37.1a5 5 0 0 1-5-5 5 5 0 0 1 5-5.1 5 5 0 0 1 5.1 5 5 5 0 0 1-5 5zm0-8.7c-2 0-3.6 1.6-3.6 3.6s1.7 3.7 3.7 3.7 3.6-1.7 3.6-3.7-1.6-3.6-3.6-3.6zm4.8-5.5h-8.5v-15.8l7.8-2s3.6-1 7.3-3.4v-25.8a24 24 0 0 0-25 4h.6c.8 0 5 .2 5 5.3 0 4.2-3 6-5 6-2.3 0-4.6-1.9-4.6-6 0-.5 0-1.2.2-1.7h-.2l.2-.2c1.7-5.2 9.4-10.7 18.4-10.7 4.7-.1 8.6.6 11.5 2.2h.3v.2c1.1.6 2.1 1.2 3 2.2 3.6 3.6 4 8.6 4 12.2 0 6.3-3.3 10.4-7 13v.3h-.2a28.4 28.4 0 0 1-7.8 3.7v16.5zm-7-1.4h5.8v-14.9l-5.9 1.5V730zm15-44.9v24.2c2.7-2.2 5.7-5.9 5.7-11.4 0-4.4-.7-9.7-5.7-12.8zm-28.9 8.4c0 3.2 1.7 4.7 3.3 4.7 1.5 0 3.6-1.5 3.6-4.7 0-2.6-1.2-4-3.6-4-3 0-3.3 4-3.3 4zm28-49.4l-.1-.1H147.7v-1.4h7.6l5-6.5-4.4-5.6h-8.3v-1.3h68.3v1.3H206l-4.7 12.1H216v1.4h-29.1zm.5-1.5h12.3l-4.7-12H187l-4.5 5.6 5 6.4zm-10 0h8.4l-4.2-5.3h-.1l-4 5.1v.2zm-10.4 0h8.6l5-6.4-4.4-5.7h-9.7l-4.6 5.8 5.1 6.3zm-10 0h8.3l-4.1-5.3-4.1 5.3zm39.5-12l4.2 10.4 4.2-10.5h-8.4zm-18.6 0l3.7 4.5 3.6-4.6H178zm-20.3 0l3.6 4.4 3.6-4.5h-7.2z"/></svg>