<svg height="350" width="350" xmlns="http://www.w3.org/2000/svg"><path d="M191.2 332.6l-1-.1c-3 0-5.8-1-8-3.1-4-3.8-10.3-3.8-14.3 0-2.6 2.3-6 3.4-9.5 3.1a12 12 0 0 1-8.5-5 10.5 10.5 0 0 0-14-3c-3 1.8-6.5 2.2-9.8 1-3.3-1-6-3.4-7.4-6.7-2.1-5-7.8-7.5-13-5.8a12 12 0 0 1-10-.8c-2.9-1.8-5-4.9-5.7-8.1-.7-4-3.8-7-7.6-8.2l-3.7-1h5.5c3.8 1.6 6.4 4.9 7.2 8.9a10.7 10.7 0 0 0 13.8 8 12 12 0 0 1 15 6.6c1 2.9 3.6 5 6.4 6 3 1 6 .5 8.6-1a12 12 0 0 1 16 3.3c2 2.6 4.7 4.1 7.5 4.4 3 .4 6-.6 8.3-2.7a12 12 0 0 1 16.2 0c2.2 2 5.2 3 8.3 2.7 2.9-.3 5.7-1.8 7.4-4.4a12 12 0 0 1 16-3.3c2.7 1.5 5.8 1.8 8.7 1 2.8-1 5.2-3.1 6.5-6a12 12 0 0 1 15-6.6c2.7 1 6 .6 8.6-1 2.6-1.5 4.5-4 5-7a12 12 0 0 1 7-8.8h7.1l-4.7 1c-4.2.8-7.5 4-8.3 8.2a12 12 0 0 1-5.7 8c-3.1 1.7-6.7 2.1-9.9 1-5.2-1.8-10.9.7-13 5.7a12 12 0 0 1-17.2 5.6 10.4 10.4 0 0 0-14 3c-2 3-5.1 4.8-8.5 5zM175 312.9c-23.3 0-46.3-5.9-66.6-17l-1.6-1h3l.1.2a136.5 136.5 0 0 0 130.5 0v-.1h3.1l-1.6.8A138.8 138.8 0 0 1 175 313zm157.5-29.7h-48.9v-.1H17.8V164.6h-4l-7.3-7.2h85.1v-13.4h1.5v19.7l3.3 7.2h.3v.7l.2.4h-.2v2.8-.2 3.1h-.2v6.8h.1v1.5l-.9 43.7-.2 7.3-.4 25.8h1.4l1.7-90.8-4.2-9h13.7l-4 9 1.6 90.8h1.5L105 172H104.8l.2-.8v-.4h.4l3.5-7.7h32.8l3.7 7.7h.3v.7l.2.4h-.2v1.7-.1l-1.6 89.2h1.4L147 172l-4-9h13.7l-4.2 9 1.7 90.8h1.4L154 172h-.2l.2-.5v-.7h.4l3.6-7.8h33.4v-1.2l.5 1.3h.6l3.7 7.7h.3v.7l.2.4h-.2v1.7-.1l-1.6 89h1.3l1.6-90.8-4-9h13.7l-4.2 9 1.7 90.8h1.3l-1.7-90.7v-1.1h.4l3.7-7.7h32.6l3.6 7.7h.4v1l.1.1v1.7-.1l-1.7 89h1.4l1.7-90.9-4.1-9h13.7l-4.2 9 1.7 90.8h1.4l-.5-25.1-.2-8.8-.7-42.7-.1-.5v-1l-.2-12.6h-.1v-1h.5l3.3-7.3v-19.7h1.5v13.7h54l-1.8-.7-.1-.1-5.6-2-.5-.3-14.5-5.4v6.8h-1.5V129l1.5-6.3-3-2h-10.2L275 122l2.2 7.9v12.4h.1v13.2h-1.5v-12l-7.2-2.6v5.5h-.5l-.2.3-93-35-92 34.6-1 .3-.1-.3h-.5v-5.5l-7.2 2.6v12h-1.5v-25.8l2.2-7.6-2.1-1.3h-9.9.3l-3 1.9 1.7 6.5v26.4h-1.5v-6.7l-22.6 8.5.6-1.2v-.7l2-.8 4.6-1.7v-5.5l1.5-5-1.2-.7h-6.6l-2 1.2 1 4.3v9.8h-1.4v-9.7l-1.2-5 3.7-2.5v.6h2.5l.5-.1h3.8l2.7 1.5-1.8 6v4.8l13.6-5.1v-18.3l-1.4-5.8-.4-1.3 4.2-3h6.8l-.3.2h4.5l3.5 2-2.6 8.7v12l100.8-37.8L275.8 142v-12l-2.6-8.7 3.5-2h11l4.2 2.7-1.8 7.2v18.2l13.6 5v-4.6l-1.8-6 2.7-1.5h3v-.1h4.5l3 2-1.2 5v9.2l2.8 1h26.8l-7.4 7.3h-3.8v15.2h-.1v103.3h.3zm-9.4-1.5h7.9V164.6h-8v50.7l.1-.1v66.5zm-37.6 0h36.2v-10.2h-23.2v-.1h-5.7V266h4.8v-28.2h-4.8V228h28.9v-8.6H319l.1-.1H292.8V214h4.8v-28.2h-5v-9.7h29v-11.7h-63l-3.5 7.4v4.3h18.6v9.7H269v28.3h4.7v5.3H256l.2 8.6h17.6v9.8H269v28h4.7v5.5h-2l.1-.1H262v10.3h23.5zm-111 0l13.5-.1v-15.3h2.5v-3.6h2.9l1.6-90.9-3.4-7.2H175v-.1h-16l-3.5 7.3 1.7 90.8h3v3.7h2.3v15.4h12zm-14.5 0h1v-14h-1zm-18.9 0h17.3v-14h-2.8v-3.5h-2.9l-1.6-92.6 3.3-7.1h-9.1l3.3 7.1v.1l-1.7 92.4h-3v3.5h-2.8v14zm-2.4 0h1v-14h-1zm-25.2 0h23.8v-15.4h2.6v-3.6h2.7l1.6-90.9-3.3-7.3H110l-3.4 7.3 1.6 90.8h2.9v3.7h2.3v15.4zm-2.4 0h.9v-14h-1zm-18.7 0h17.3v-14h-2.9v-3.5H104l-1.7-92.6 3.3-7.1h-9.2l3.4 7.1v.1L98 264.1h-2.8v2h.2v1.4h-.2v.2h-2.8v14zm-2.5 0h1v-14h-1v14zm-2.3 0h.8v-10.3H76.7V266h4.7v-28.3h-4.7V228h17.6l.2-8.5H76.7v-5.3h4.7v-28.3h-4.7v-9.7h18.5v-4.4l-3.3-7.3H29v11.7h28.8v9.7H53v28.3h4.8v5.3h-13v-.1H28.8v8.7h29v9.8h-4.9v28.3h4.8v5.3h-6.2v-.1H28.7l.1 10.3h58.7zm-68.3 0h8V164.6h-8zm240.2-.1h1v-13.9h-1v13.9zm-18.7 0H258v-13.9h-2.8v-.2h-.2v-1.4h.2v-1.9h-3l-1.6-92.6 3.4-7.1h-9.2l3.3 7.1v.1l-1.7 92.4h-3v3.5h-2.6v14zm-2.5 0h1v-13.9h-1zm-25.2 0h23.8v-15.3h2.3v-3.6h2.9l1.6-90.7-3.4-7.5h-30.8l-3.4 7.4 1.6 90.7h3v3.7h2.4v15.3zm-2.5 0h1v-13.9h-1zm-18.7 0h17.3v-14h-2.8v-3.4h-3l-1.6-92.6 3.3-7.1H196l3.3 7.1v.1l-1.7 92.4h-3v3.5H192v14zm-2.4 0h1v-13.9h-1zm112-11.6h19.7v-2.4h-27v2.3h7.3v.1zM51 270h5.1v-2.4H29.1v2.3H51l.2.1zm27-.1h10.3v-2.4H78.2zm183.8-.1h10.2v-2.4H262zm-21.1-3.5h1.3v-2.1h-1.3zm-31.7 0l.1-2.2H208v2.2h1.2zm-17.2 0h1.3v-2.1H192zm-33.6 0h.2V264h-1.4v2.2zm-17 0h1.2v-2.1h-1.2zm-31.7 0l.1-2.2h-1.4v2.2zm208.3-.1h3.7v-28.3h-3v-.1h-.8v3h.1v25.4zm-13.5 0h12V237.8H299V266h5.4zm-253 0h.1v-28.3H34v4.6h.1V266h17.4v.2zm208-.1h8v-28.2h-11.2l.5 24.7h2.8v3.5zm-2.6 0h1.3v-2h-1.3zm-164.4 0h1.3v-1.9h-1.4v1.9zm-9.4 0h7.8v-3.4h2.9l.5-25H83v28.4zm-54.2 0h3.8v-23.4l-.1-.1v-4.7h-3.7zm291.8-29.7h.7v-6.8h-27v6.8h3.3v-.1h23zm-64.3 0h16v-6.8H256l.1 6.8zm-203.4 0h3.2v-6.8h-27v6.8h22.5v-.1H53zm25.3-.1H94v-6.8h-16v6.8zM255.9 218h16.3v-2.3H256v2.3zm-177.7 0h16.3v-2.3H78.2v2.3zm-32.9 0h10.8v-2.3H42.8v-.1H29v1h.1v1.3l16.2.1zm274.4 0h1.5v-2.3h-15v-.1h-12v2.3h25.5zm-1.8-3.8h3.7v-28.3h-3.8l.1 28.3zm-10.6 0h9.1v-28.3h-17.3V214h8.2zm-51.5 0h11.7v-28.3h-12.2zm-172.8 0h11.6l.5-28.3H83v28.3zm-38.7 0h7.1v-28.3H34V214h10.4zm-15.5-.1h3.8v-28.2h-3.8V214zm284-29.7h8.4v-6.8h-27v6.8zm-57.5 0h17v-6.8h-17zm-160.3 0v-6.8H78.3v6.8H95zm-56.2 0h17.4v-6.8H29.3v6.8H39zM332.5 163h3.2l4.4-4.2h-81.4v4.2h73.8zm-293.7 0h52.8v-4.2H10.3l4.3 4.2h24.2zm273-7.7l1 .4V147l1-4.2-2-1.2h-6.6l-1.2.8 1.4 5.2v5.4l6.3 2.2v.1zM83 140.3v4.5l92-34.7v.1l92.1 34.5v-4.4l-92-34.5L83 140.3zm105 9.6a8 8 0 0 1-6.6-3.3l-.2-.3-.3-.1.2-.2-.3-.6h.7l5.4-13.3h-1l.2-.2c-1.1-.5-2.2-1.2-3.3-2.1-2-1.5-4.3-3.2-7.5-3.4l-.6 1.4v-1.4c-2.8.2-4.9 1.7-7 3l-.5.5c-1 .7-2 1.3-2.9 1.7l1 .3h-1.8l-.2.1 5.3 13.2h.8l-.4.7v.2l-.4.2c-1.5 2-4 3.3-6.5 3.3s-5-1.2-6.4-3.3l-.1-.1-.5-.2.1-.1h-.1l.2-.2-.5-.6h1l5.4-13c-3-.6-3.6-3.4-3.6-3.4l-.1-.5 1.5-.3v.6s.4 1.9 2.6 2.2V129l.7 1.7.7-.3v.2c1-.2 2.2-1.1 3.7-2.2l.2-.1c2-1.5 4.3-3.1 7.3-3.4v-7.4h1.3v.5h.1v6.6c3.3.3 5.8 2.1 7.9 3.6 1.6 1.2 2.8 2 4 2.3v-1l.2.6.5-1v1.4c2.7-.2 3-2.3 3-2.3v-.6l1.4.3v.4c0 .4-.5 2.5-2.7 3.3l.2.1h-.6l-.5.1 5.4 13.3h1l-.4.6.2.2-.4.2h-.2v.3a8.2 8.2 0 0 1-6.7 3.4zm-4.4-3.1c1.2 1 2.6 1.5 4.2 1.5 1.6.1 3.2-.4 4.3-1.5h-8.5zm-25.7 0c1.2 1 2.7 1.5 4.3 1.5s3-.5 4.2-1.5H158zm30.7-1.4h4.1l-4.1-10zm-5.5 0h4.1v-10.1l-4.1 10.1zm-20-.1h4l-4-10zm-5.6 0h4v-10l-4 10zm-136-7.8l2.1-1.7c.7-.6 1.4-1.2 2.3-1.7 4.8-2.7 6.8-8.6 4.4-13.6a12 12 0 0 1-.1-9.9c1.4-3.1 4.1-5.5 7.5-6.6 5.2-1.5 8.3-7 7.1-12.4-.7-3.4 0-7 2-9.7 2-2.8 5.1-4.6 8.7-4.9 5.5-.5 9.6-5.1 9.5-10.6a12 12 0 0 1 4-9.1c2.6-2.4 6-3.5 9.5-3 5.3.7 10.5-3.1 11.4-8.4a11.8 11.8 0 0 1 15.7-9c5.2 1.8 10.9-.8 13-5.8a12 12 0 0 1 17.2-5.6c4.8 2.9 11 1.5 14-3 2-2.9 5.1-4.7 8.5-5 3.6-.3 7 .8 9.5 3.1 4 3.7 10.1 3.7 14.1.1l.6-.5a12 12 0 0 1 17.5 2.3c3.1 4.5 9.2 5.8 14 3 3-1.9 6.5-2.2 9.8-1 3.3 1 6 3.4 7.4 6.6 2.1 5 7.8 7.6 13 5.8a12 12 0 0 1 10 .9c2.9 1.8 5 4.8 5.6 8 1 5.5 6.1 9.2 11.5 8.5 3.5-.4 7 .7 9.5 3s4 5.6 4 9a10.5 10.5 0 0 0 9.5 10.7c3.4.3 6.5 2 8.7 5 2 2.7 2.7 6.3 2 9.6-.3 1.1-.3 2.2-.3 3.3.2 4.1 3.1 7.9 7.3 9.1 3.4 1 6 3.4 7.5 6.6a12 12 0 0 1-.1 10 9 9 0 0 0 0 7.7l.5 1-2-.6v-.2c-.9-2.7-.7-5.7.5-8.4 1.3-2.7 1.4-6 .1-8.7-1.4-2.9-3.7-5-6.6-5.7a11.9 11.9 0 0 1-8-14.2 10.6 10.6 0 0 0-9.4-12.8 12 12 0 0 1-10.9-12.1c0-3-1.3-6-3.4-8-2.3-2-5.2-3-8.3-2.6-6.2.7-12-3.6-13.2-9.7a10.7 10.7 0 0 0-13.8-8 12 12 0 0 1-15-6.6c-1.1-2.8-3.5-5-6.4-5.9-3-1-6.1-.6-8.7 1a12 12 0 0 1-16-3.3 10.7 10.7 0 0 0-7.4-4.5c-3-.4-6 .6-8.3 2.8a11.9 11.9 0 0 1-16.3 0c-2.2-2-5.2-3-8.3-2.8-3 .3-5.7 1.9-7.4 4.5a12 12 0 0 1-16 3.3 10.7 10.7 0 0 0-8.7-1c-2.8.9-5.2 3-6.5 6a12 12 0 0 1-15 6.6 10.7 10.7 0 0 0-13.8 8c-1 6-6.9 10.3-13 9.6-3-.4-6 .6-8.3 2.6-2.3 2.1-3.5 5-3.4 8a12 12 0 0 1-11 12c-2.9.4-5.7 2-7.5 4.4a10.6 10.6 0 0 0-1.8 8.6 12 12 0 0 1-8 14.1c-2.9.9-5.3 3-6.6 5.7-1.3 2.9-1.2 6 0 8.7a12 12 0 0 1-5 15.5c-.1.2-.4.3-.6.4l-4.3 1.5zm23.3-9.2l.4-1A137.5 137.5 0 0 1 175 36.8 137.2 137.2 0 0 1 303 122.4l.4 1-1.9-.5v-.2a133.7 133.7 0 0 0-29.8-44.2 136 136 0 0 0-193 0C64.6 92.5 54 109 47 127.6v.2l-2 .5zm123-52.5v-.2h-.4l-.2-.2h-19.7V74h19.2L162 62h-14.5v-1.5H201V62h-18v12h18v1.4h-18.5v.1h-14l-.2.1h-.2l-.1.2zm1.2-1.8h12.4V62h-7.7L169 74zm-5.6-12l4.4 11 4.3-11h-8.7z" fill="#071b36"/></svg>