<svg xmlns="http://www.w3.org/2000/svg" width="350" height="350" viewBox="0.5 568.5 350 350"><path fill="#071b36" d="M214 901.9h-87.5V892H213V885h-8.6v.2h-1.4v-.2h-76v-1.4h9.8v-14.3h-.1v-6.5.1-1h-.1l.1-.1v-45.3h.2l32.7-32.7-12.8-12.8h-.2L136.5 751v-1l-.1-.2.1-.2V737l-.1-.1.1-.1-.2-.2.2-.2v-54.1h-10v-9.9h86.2v-7h-86.2V664h87.5v9.8h-86.3v7h86v1.4h-9.7v54.1l.2.2-.2.2v13.9l-32.9 32.8 32.1 32.2h.7V861.8l.2.2-.2.2v12.9h.3l-.2.3v8.1h10v9.9h-86.4v7H214v1.5h.1zm-17.9-18.3h6.8v-6.8l-6.8 6.8zm-2 0l8.7-8.7v-8.1h-.1v-3.1l-9.5 9.5-10.4 10.4H194zm-24.4 0h11.2l21.8-21.8-5.6-5.5-27.4 27.3zm-13.2 0h11.3l1.7-1.7.4-.4 11.1-11.2 15-14.8h-.2l.4-.3-1-1-4.7-4.6-22.8 22.8-11.2 11.2zm-2 0l8.2-8.1.1-.2 2-2 17.6-17.6 7-7-5.6-5.6-38.5 38.5-2.1 2.1h11.2zm-16.6 0h3.5l1.7-1.7.4-.4 9.6-9.6h-.1l.9-1 14.2-14 14.8-14.7-5.7-5.7-18.3 18.3-11 11-10 10v7.8zm0-16v6.2l38.4-38.4-5.9-5.7-23.7 23.7-8.8 8.7v5.5zm-.1-16.3v9l7.8-7.8 24.3-24.2V785l-32 32v34.3h-.1zm60.4 4.1l4.7 4.7v-6.4h-.1V817l-31.6-31.6v43.3l6 6 1 .8v.1l5.7 5.8.2-.2 1 1h-.1l12.5 12.6.2.3.2.3.3.1zm-34-79l6 6 32.5-32.4V738l-38.5 38.6zm-1-.9L203 736v-8h-3.4v.2l-41.9 41.7 5.7 5.6zM151 763.2l5.5 5.8h.2l40.9-40.8h-11.4l-35.2 35zm-6.5-6.6l5.6 5.7 34.2-34.2H173l-28.5 28.5zm-6.5-6.5l5.5 5.6 27.7-27.6h-11.3l-22 22zm-.1-13.2v11.3l20-20.1h-11.2l-8.8 8.8zm0-8.8v6.8l6.8-6.8H138zm48-1.4h16.9v-44.5H138v44.5h48zm45 131.7v-1.6h.3c2.7-1.4 5.7-1.5 8.5-.6a9.7 9.7 0 0 0 12.6-7.3 11 11 0 0 1 12.1-8.9c2.8.4 5.5-.5 7.6-2.4 2-1.8 3.2-4.5 3.2-7.3a11 11 0 0 1 10-11.1 9.7 9.7 0 0 0 7-4 10 10 0 0 0 1.6-7.8 11 11 0 0 1 7.5-13c2.7-1 4.9-2.9 6-5.3a9.5 9.5 0 0 0-.1-8 11.2 11.2 0 0 1 4.7-14.4 9.2 9.2 0 0 0 4.7-6.4c.7-2.9 0-5.7-1.7-7.9a11 11 0 0 1 1.6-15 9.6 9.6 0 0 0 0-14.4 11 11 0 0 1-1.6-15 10 10 0 0 0 1.7-7.9c-.5-2.6-2.3-5-4.6-6.4-5-2.7-7-9-4.7-14.3a9.6 9.6 0 0 0-6-13.3 11 11 0 0 1-7.4-13c.6-2.8 0-5.7-1.6-7.8a10 10 0 0 0-7-4 11 11 0 0 1-10-11.1 10 10 0 0 0-3.2-7.3 9.6 9.6 0 0 0-7.6-2.4c-5.7.6-11-3.3-12.2-8.9-.4-2.6-2-5-4.6-6.5a10 10 0 0 0-8-.8 11 11 0 0 1-13.7-6.1 9.7 9.7 0 0 0-13.9-4.5c-5 3-11.4 1.5-14.7-3.1a9.3 9.3 0 0 0-6.9-4.1c-2.7-.3-5.4.6-7.4 2.3l-.6.6a11.1 11.1 0 0 1-14.5-.4 9.7 9.7 0 0 0-7.6-2.5 9.7 9.7 0 0 0-6.9 4 11 11 0 0 1-14.7 3.2c-2.4-1.4-5.3-1.8-8-1s-4.7 3-6 5.5c-2.1 5.2-8.2 8-13.6 6a9.7 9.7 0 0 0-12.6 7.4 11 11 0 0 1-12.1 8.9c-2.7-.4-5.5.4-7.6 2.4a9.9 9.9 0 0 0-3.2 7.3 11 11 0 0 1-10 11.1 9.7 9.7 0 0 0-7 4c-1.6 2.2-2.2 5.2-1.6 7.8a11 11 0 0 1-7.5 13 10 10 0 0 0-6 5.3 9.5 9.5 0 0 0 .1 8c2.4 5.3.4 11.6-4.7 14.4a9.2 9.2 0 0 0-4.7 6.4c-.7 2.8 0 5.7 1.7 7.9a11 11 0 0 1-1.6 15 9.6 9.6 0 0 0 0 14.4 11 11 0 0 1 1.6 15 10 10 0 0 0-1.7 7.9c.5 2.6 2.3 5 4.7 6.4 5 2.7 7 9 4.6 14.2a9.6 9.6 0 0 0 6 13.4 11 11 0 0 1 7.5 13c-.7 2.8-.1 5.7 1.5 7.8a9.7 9.7 0 0 0 7 4 11 11 0 0 1 10 11.1 10 10 0 0 0 3.2 7.3 9.7 9.7 0 0 0 7.6 2.4c5.7-.6 11 3.3 12.2 8.9.4 2.6 2 5 4.6 6.5a10 10 0 0 0 8 .8c1.8-.7 3.7-.7 5.7-.4l.4.1v1.4l-.5-.1a8.5 8.5 0 0 0-5 .4 10.9 10.9 0 0 1-14.4-8.2c-1-5-5.7-8.5-10.6-7.8-3.2.3-6.3-.7-8.7-2.8a11.5 11.5 0 0 1-3.7-8.4c.1-5-3.7-9.3-8.7-9.8-3.2-.3-6-1.9-8-4.5-1.8-2.5-2.5-5.8-1.8-9 1.2-4.9-1.7-9.9-6.6-11.4a11 11 0 0 1-6.8-15.1 9.9 9.9 0 0 0-4.1-12.6 10.4 10.4 0 0 1-5.4-7.4c-.5-3.2.2-6.5 2-9 3-4 2.4-9.7-1.3-13-2.5-2-3.9-5.1-3.9-8.3 0-3.1 1.4-6.1 3.9-8.3 3.8-3.3 4.4-9 1.3-13.1a11 11 0 0 1 3.4-16.3c4.4-2.4 6.3-8 4.1-12.5-1.3-3-1.4-6.2 0-9.2 1.3-3 3.9-5.2 6.8-6a9.6 9.6 0 0 0 6.5-11.4c-.8-3.3-.1-6.5 1.8-9a11 11 0 0 1 8-4.5c5-.4 8.8-4.7 8.7-9.7 0-3.2 1.2-6.3 3.7-8.4a11 11 0 0 1 8.7-2.8c5 .6 9.7-2.8 10.6-7.8.5-3 2.5-5.8 5.2-7.4 2.8-1.5 6.2-1.9 9.1-.8 4.8 1.7 10.1-.7 12.1-5.3a11.1 11.1 0 0 1 15.8-5.2 9.5 9.5 0 0 0 12.8-2.7c1.9-2.7 4.7-4.4 7.9-4.7 3.2-.4 6.4.6 8.7 2.8a9.6 9.6 0 0 0 13.1 0 11 11 0 0 1 8.7-2.8c3.2.4 6 2.1 7.9 4.7 3 4 8.5 5.3 12.8 2.7 2.8-1.6 6-2 9-1.1 3.2 1.1 5.6 3.3 6.8 6.2 2 4.7 7.3 7 12 5.3a10.9 10.9 0 0 1 14.4 8.2c1 5 5.7 8.5 10.6 7.8a11 11 0 0 1 8.7 2.8c2.3 2.2 3.7 5.2 3.7 8.4-.1 5 3.7 9.3 8.8 9.8 3 .2 6 1.9 8 4.4 1.7 2.6 2.4 5.9 1.7 9-1.1 5 1.7 10 6.6 11.4a11 11 0 0 1 6.8 15.2 9.9 9.9 0 0 0 4.1 12.6c2.8 1.5 4.8 4.1 5.4 7.3.6 3.2-.2 6.5-2 9a9.7 9.7 0 0 0 1.4 13c2.4 2 3.8 5.2 3.8 8.4 0 3-1.4 6.1-3.8 8.3a9.6 9.6 0 0 0-1.4 13 11 11 0 0 1-3.4 16.4 9.7 9.7 0 0 0-4.1 12.5c1.3 2.9 1.4 6.2 0 9.1-1.3 3-3.8 5.2-6.8 6a9.6 9.6 0 0 0-6.5 11.5 11 11 0 0 1-9.7 13.4c-5 .5-9 4.8-8.8 9.8 0 3.2-1.2 6.3-3.7 8.4a11.2 11.2 0 0 1-8.7 2.8c-5-.7-9.7 2.8-10.6 7.7-.5 3.1-2.4 5.9-5.2 7.4a11 11 0 0 1-9.1.9 9.6 9.6 0 0 0-7.6.6l-.8.3zm0-13.6v-1.6l.3-.1a125.2 125.2 0 0 0 70-112.7c0-33.7-13-65.2-36.8-88.9a124.8 124.8 0 0 0-88.9-36.8c-33.6 0-65.1 13-88.8 36.8a124.5 124.5 0 0 0-36.9 88.8c0 33.7 13.1 65.3 36.9 88.9 8.8 8.8 19 16.4 30.3 22.6l.3.1v1.5l-.6-.4a126.3 126.3 0 0 1-68.2-112.8A126.8 126.8 0 0 1 175.6 603a126.8 126.8 0 0 1 127.2 127.2 126.8 126.8 0 0 1-70.8 114l-1 .4zm-60.2-123.1h-1l-5.8-5.9 3.6-3.5-.7-.8-.2-.2-.5-.4-.2-.3h-.1l-4.3 4 1.2 1.2-1 1-1.2-1.2-5.6-5.7.9-1 4.7 4.8 4.5-4.2-.5-.5v-2.7h-3l-15.3-15.2h14.7l6.2 6.2V695h-1.3v-1.4h1.3v-2.4h5.8v6-.1l6.3-6.1h14.6l-15.2 15.2H176v2.7l-1 .9 4.3 4v-.2l4.8-4.8 1 .9-7 6.9-.8-1 1-1-4.1-4-.7.5-.2.2-.1.1-.5.5 3.7 3.6-5.8 6zm-5-5.9l4.5 4.4 4.3-4.4-2.6-2.7-.3.3-.3.1-.3.4-.6.6h-.6l-1-1-.1-.3-.3-.1-2.6 2.7zm4-3.3l.5.4.3-.4v-10.7h1.4v9.4l.6-.7v-.2l.1-.1v-8.4h1.4v7.5l1-.9v-8.8h-9.2v8.8l.3.4v-7h1.4v8.5l.7.8v-9.3h1.4v10.6zm6.2-7.5h2.1l12.5-12.6h-10.7l-5.9 5.8h2v6.8zm-11.7 0h.3v-6.8h1.7l-5.8-5.8h-10.8L162 705h2.1zm6.9-6.8h.5v-5.5h-3.2v5.5h2.7zm-14.7-58.6v-.2H141.4V638h5.4l4-5.2.1-.3-4.3-5.6h-5.2v-1.3h5.7v-.1h.2v.2h9.1l.1-.1h44v1.5h-6.9v11h6.8v1.4h-27.8l-.2.2v-.2H156.3zm25.4-1.6h10.7v-11h-10.7v11zm-8.4 0h6.9v-11h-7.2l-4.4 5.5 4.4 5.5h.3zm-8.8 0h7l-3.6-4.5-3.4 4.3v.2zm-7.2 0h5.3l4.4-5.5-4.3-5.5h-5.7l-4.4 5.5 4.3 5.5h.4zm-9 0h7l-3.4-4.4-3.5 4.4zm0-11l3.6 4.4 3.4-4.4h-7zm19.6 4.4l3.4-4.4h-6.8l3.4 4.4z"/></svg>