<svg xmlns="http://www.w3.org/2000/svg" width="350" height="350" viewBox="0.5 568.5 350 350"><path fill="#071B36" d="M190.77 901.202c-3.018 0-5.943-1.188-8.047-3.2-4.022-3.748-10.33-3.748-14.354 0-2.47 2.378-5.853 3.566-9.327 3.11-3.475-.367-6.583-2.195-8.594-5.03-3.2-4.57-9.42-5.85-14.08-3.017-2.927 1.828-6.493 2.194-9.784 1.097-3.2-1.005-5.942-3.565-7.223-6.674-2.104-5.028-7.954-7.59-13.166-5.852-3.2 1.098-6.766.823-9.783-.914-2.925-1.737-5.028-4.663-5.668-8.046-1.006-5.395-6.126-9.143-11.703-8.503-3.475.366-6.857-.73-9.417-2.926-2.56-2.285-4.022-5.577-4.022-9.143.09-5.577-4.114-10.24-9.6-10.697-3.384-.274-6.492-2.012-8.687-4.846-2.012-2.65-2.743-6.308-2.012-9.69 1.28-5.395-1.92-10.88-7.223-12.434-3.29-1.006-6.034-3.383-7.405-6.584-1.372-3.107-1.372-6.674.09-9.874 2.287-4.937.275-10.972-4.478-13.714-3.02-1.737-5.12-4.48-5.853-7.863-.823-3.382 0-7.038 2.194-9.6 3.292-4.388 2.652-10.604-1.462-14.263-2.56-2.285-4.114-5.576-4.114-9.05s1.463-6.767 4.114-9.052c4.206-3.566 4.846-9.875 1.463-14.264-2.102-2.74-2.833-6.216-2.193-9.6s2.834-6.308 5.942-7.862c4.845-2.65 6.765-8.594 4.48-13.714-1.464-3.2-1.464-6.767-.093-9.874 1.463-3.11 4.114-5.486 7.406-6.584 5.303-1.645 8.503-7.13 7.223-12.434-.73-3.29 0-6.95 2.012-9.69 2.194-2.835 5.21-4.572 8.686-4.847 5.485-.457 9.69-5.12 9.6-10.697 0-3.475 1.463-6.766 4.023-9.143 2.56-2.377 5.942-3.475 9.417-2.926 5.485.73 10.605-3.02 11.61-8.504.64-3.383 2.744-6.4 5.67-8.046 3.017-1.737 6.582-2.103 9.782-.914 5.212 1.828 10.972-.73 13.166-5.852 1.37-3.108 4.022-5.577 7.223-6.674 3.29-1.098 6.857-.64 9.783 1.097 4.846 2.835 10.88 1.554 14.08-3.017 2.01-2.835 5.028-4.664 8.594-5.03 3.475-.364 6.857.732 9.326 3.11 4.022 3.748 10.33 3.748 14.354 0l.184-.184.182-.183c2.378-2.103 5.67-3.108 8.87-2.743 3.474.365 6.582 2.194 8.593 5.03 3.202 4.57 9.42 5.85 14.08 3.016 2.927-1.83 6.493-2.194 9.784-1.097 3.2 1.005 5.852 3.473 7.223 6.673 2.195 5.03 7.955 7.59 13.166 5.852 3.2-1.098 6.766-.822 9.783.914 2.926 1.736 5.028 4.662 5.668 8.045 1.006 5.394 6.126 9.143 11.703 8.503 3.475-.365 6.857.73 9.417 2.926 2.56 2.285 4.022 5.577 4.022 9.143-.09 5.577 4.115 10.24 9.6 10.697 3.384.274 6.492 2.012 8.687 4.846 2.012 2.65 2.743 6.31 2.012 9.69-1.28 5.396 1.92 10.88 7.223 12.435 3.292 1.006 6.034 3.383 7.405 6.584 1.372 3.106 1.372 6.673-.09 9.873-2.287 4.937-.275 10.972 4.478 13.714 3.02 1.737 5.12 4.48 5.853 7.863.73 3.475-.09 7.13-2.194 9.6-3.292 4.39-2.652 10.605 1.462 14.264 2.56 2.285 4.114 5.576 4.114 9.05s-1.463 6.675-4.114 9.052c-4.205 3.658-4.846 9.875-1.463 14.264 2.103 2.742 2.834 6.217 2.193 9.6-.64 3.383-2.834 6.31-5.942 7.863-4.845 2.65-6.765 8.594-4.478 13.714 1.462 3.2 1.462 6.767.09 9.874-1.462 3.11-4.113 5.487-7.404 6.585-5.303 1.645-8.504 7.13-7.223 12.434.73 3.29 0 6.948-2.012 9.69-2.195 2.834-5.212 4.57-8.686 4.846-5.486.457-9.69 5.12-9.6 10.697 0 3.475-1.464 6.766-4.023 9.143-2.56 2.377-5.943 3.475-9.418 2.926-5.485-.73-10.605 3.018-11.61 8.503-.64 3.383-2.743 6.4-5.67 8.046-3.017 1.738-6.582 2.104-9.782.915-5.12-1.828-10.97.73-13.166 5.852-1.37 3.108-4.022 5.577-7.223 6.674-3.29 1.1-6.857.642-9.783-1.096-4.846-2.834-10.88-1.555-14.08 3.018-2.01 2.834-5.027 4.662-8.594 5.028-.275.092-.823.092-1.19.092zm-15.178-7.223c3.017 0 5.852 1.097 8.045 3.107 2.104 2.012 5.212 3.11 8.32 2.835 3.018-.274 5.76-1.83 7.497-4.39 3.565-5.027 10.515-6.582 15.91-3.382 2.65 1.554 5.76 1.92 8.685 1.006 2.925-1.006 5.302-3.2 6.4-5.943 2.376-5.76 8.867-8.686 14.81-6.674 2.926 1.005 6.126.64 8.686-.916 2.652-1.646 4.48-4.114 5.12-7.13 1.098-6.127 6.857-10.24 13.166-9.51 3.017.366 6.034-.55 8.32-2.65 2.194-2.013 3.474-4.94 3.474-8.047-.092-6.308 4.663-11.61 10.88-12.068 3.108-.275 5.853-1.83 7.59-4.298 1.827-2.47 2.468-5.577 1.736-8.595-1.463-6.034 2.103-12.25 8.046-14.08 2.926-.914 5.395-3.017 6.582-5.76 1.28-2.834 1.19-5.943-.09-8.777-2.652-5.577-.458-12.434 5.027-15.45 2.65-1.556 4.57-4.115 5.212-7.04.64-3.11-.093-6.22-1.92-8.596-3.658-5.028-2.927-12.068 1.736-16.183 2.377-2.102 3.656-4.936 3.656-7.953 0-3.108-1.37-5.943-3.656-7.954-4.663-4.114-5.395-11.246-1.737-16.183 1.827-2.47 2.56-5.486 1.92-8.595-.642-2.926-2.47-5.485-5.213-7.04-5.395-3.018-7.588-9.783-5.028-15.45 1.28-2.652 1.28-5.944.09-8.778-1.188-2.742-3.564-4.846-6.582-5.76-5.943-1.828-9.51-7.955-8.046-14.08.73-2.926.09-6.034-1.737-8.594-1.92-2.47-4.57-4.023-7.588-4.298-6.31-.548-11.063-5.852-10.88-12.068 0-3.108-1.28-5.942-3.476-8.046-2.192-2.01-5.21-3.017-8.318-2.65-6.218.73-11.978-3.383-13.074-9.51-.64-3.017-2.47-5.576-5.12-7.13-2.56-1.555-5.852-1.83-8.686-.914-5.852 2.103-12.343-.823-14.812-6.675-1.188-2.834-3.565-5.027-6.4-5.94-2.925-.916-6.034-.642-8.686 1.005-5.303 3.2-12.25 1.736-15.908-3.384-1.83-2.56-4.57-4.113-7.497-4.387-3.11-.275-6.127.73-8.32 2.834-4.572 4.297-11.703 4.297-16.275 0-2.103-2.012-5.21-3.11-8.32-2.834-3.017.273-5.76 1.828-7.496 4.388-3.567 5.03-10.516 6.584-15.91 3.385-2.65-1.555-5.76-1.92-8.686-1.006-2.926 1.005-5.303 3.198-6.4 5.94-2.377 5.76-8.868 8.687-14.81 6.676-2.927-1.006-6.127-.64-8.688.914-2.65 1.646-4.48 4.113-5.12 7.13-1.097 6.127-6.948 10.24-13.165 9.51-3.017-.366-6.033.55-8.32 2.65-2.284 2.105-3.473 4.94-3.473 8.047.09 6.31-4.663 11.61-10.88 12.068-3.11.274-5.852 1.83-7.59 4.298-1.828 2.56-2.468 5.668-1.736 8.594 1.464 6.034-2.102 12.252-8.045 14.08-2.926.914-5.395 3.018-6.583 5.76-1.28 2.834-1.188 5.943.092 8.777 2.65 5.577.457 12.434-5.028 15.45-2.65 1.556-4.572 4.115-5.212 7.04-.64 3.11.092 6.22 1.92 8.596 3.75 4.937 3.018 11.977-1.737 16.183-2.377 2.103-3.657 4.937-3.657 7.954 0 3.108 1.372 5.943 3.657 7.954 4.663 4.115 5.395 11.247 1.737 16.184-1.828 2.47-2.56 5.486-1.92 8.595.64 2.925 2.47 5.484 5.212 7.04 5.394 3.017 7.588 9.782 5.028 15.45-1.28 2.834-1.37 5.943-.092 8.777 1.188 2.743 3.566 4.846 6.583 5.76 5.943 1.83 9.51 7.955 8.046 14.08-.73 2.926-.09 6.035 1.738 8.595 1.92 2.468 4.57 4.022 7.588 4.297 6.31.548 11.063 5.85 10.88 12.067 0 3.108 1.28 5.943 3.475 8.046 2.195 2.012 5.213 3.018 8.32 2.65 6.218-.73 11.978 3.384 13.167 9.51.64 3.017 2.468 5.577 5.12 7.13 2.56 1.556 5.85 1.83 8.686.916 5.852-2.105 12.343.82 14.812 6.673 1.188 2.834 3.565 5.028 6.4 5.943 2.833.914 6.033.64 8.685-1.006 5.303-3.2 12.252-1.737 15.91 3.383 1.827 2.56 4.57 4.114 7.496 4.39 3.108.273 6.125-.732 8.32-2.836 2.192-2.01 5.118-3.108 8.136-3.108zm-.092-12.434c-36.846 0-71.497-14.354-97.646-40.412-26.148-26.148-40.503-60.8-40.503-97.646s14.355-71.497 40.412-97.646c26.058-26.15 60.8-40.41 97.737-40.41 36.845 0 71.496 14.353 97.645 40.41 26.058 26.148 40.41 60.8 40.41 97.646s-14.353 71.497-40.41 97.646c-26.148 26.057-60.8 40.412-97.645 40.412zm-.09-274.835c-36.48 0-70.767 14.265-96.55 40.23-25.874 25.875-40.138 60.252-40.138 96.64 0 36.572 14.264 70.95 40.138 96.64 25.966 25.875 60.25 40.138 96.64 40.138 36.57 0 70.95-14.263 96.64-40.137 25.783-25.873 40.046-60.25 40.046-96.73 0-36.57-14.263-70.95-40.137-96.64-25.693-25.875-60.07-40.14-96.64-40.14zm35.198 231.04l-.274-.273c-1.736.092-2.47.184-2.56.184h-.183l-.183-.09-5.76-5.212 3.018-.366-3.29-11.886-.185-.55v-.182l-.092-.366v-1.28l.275.274c0-.457.09-1.005.182-1.645.275-2.56.64-6.492.64-7.314 0-.184-.364-1.372-1.097-3.475l-.183-.184v-.09c-.73-2.012-1.737-4.847-3.017-8.504v-.092l-.092.092v-.914l-.457-.64c-1.1-3.018-2.378-6.31-3.567-9.6-1.28-3.384-2.468-6.675-3.564-9.6l-.185-.185.092-.09-.092-.092c-.914-2.56-1.828-4.846-2.47-6.674l-.272-.823 12.25-1.92.092-.09.092.09 14.902-2.284.822-.092.183-.184.184.184 6.856-1.098-2.652 6.492c.64.457 1.19.914 1.92 1.463l.092-.09.092.09.183-.183.824.823-.092.09 1.646 1.282c12.708 9.6 17.28 13.165 17.554 13.896.366.822 6.767 8.046 11.43 13.258l2.56 2.834 4.206 2.834v.365l-1.646 9.966-.09.09v.184l-.093.092-2.47 14.63h-.548c-1.37-.185-2.743-.458-4.023-.642-1.19-.183-2.194-.365-2.927-.457l-.365 7.863h-3.29v-.823c.09-.366.09-1.28-.093-1.646l-.092-.092c-.274 0-2.377.092-5.395.365l-.183.184-.183-.184c-5.852.366-14.812 1.006-21.577 1.463-3.017.184-5.212.366-6.766.457l-.092.37zm-5.85-4.388l3.383 3.018c.183 0 .458 0 .73-.092.367 0 .733-.09 1.19-.09l39.496-39.5c-2.103-2.376-3.932-4.478-5.394-6.216l-38.767 38.766 1.098 3.84-1.735.274zm41.965 2.652h.55l.364-8.045h.732c.09 0 3.747.64 6.947 1.187l1.92-11.245-15.817 15.817c2.104-.185 3.566-.185 3.748-.185.457 0 .823.184 1.19.457.365.55.365 1.372.365 2.012zm3.657-38.217l-38.034 38.034c3.29-.273 7.863-.547 12.525-.913l30.995-30.995-.365-.273-1.37-1.556c-1.28-1.37-2.562-2.834-3.75-4.297zm6.49 7.04l-29.895 29.897c4.48-.274 8.868-.64 12.25-.823h.093l18.286-18.285 1.554-9.416-2.012-1.373-.09.183-.185-.183zm-54.398 14.08l2.468 9.052.092-.093 38.31-38.217c-1.1-1.372-1.83-2.286-2.013-2.652-.092-.09-.64-.64-3.75-3.107h-.09l-35.018 35.017zm0-13.35c.183.55.274 1.007.457 1.372.456 1.37.547 1.827.547 2.103 0 .55-.182 2.103-.365 3.932-.092 1.188-.274 2.56-.365 3.564l.092-.092 33.46-33.463c-1.827-1.463-4.113-3.2-6.49-4.937l-27.338 27.52zm-3.475-9.964c1.28 3.383 2.286 6.218 3.017 8.41l26.79-26.787c-2.195-1.646-4.48-3.383-6.583-4.938l-23.223 23.315zm-3.657-9.692c.365.915.64 1.83 1.006 2.744.73 1.92 1.37 3.748 2.104 5.576l22.674-22.674c-.73-.55-1.463-1.097-2.104-1.555l-.365-.364 2.104-5.21-4.756.73-20.664 20.755zm-.274-1.644l18.56-18.56-13.714 2.194-8.23 8.23c.916 2.376 1.922 5.21 3.02 8.044l.364.092zm-4.023-9.784l.092.184 6.4-6.4-8.32 1.28c.182.456.365 1.005.64 1.645.274.915.73 2.013 1.188 3.292zM109.49 817.82l-.916-.915L241.328 684.15l.914.915-.365.366L109.49 817.82zm46.17-37.486l-.914-.914 49.006-49.006.914.914-.366.365-48.64 48.64zm-8.685-8.686l-.914-.914 49.007-49.006.914.914-.365.365-48.64 48.64zm11.337-35.382l.183-.184h-.547c-3.658 0-8.688-3.29-15.27-9.873-7.132-7.134-11.43-13.533-14.354-17.83l-.55-.73c-1.462-2.105-2.65-3.84-3.747-4.847l-8.138-8.137-7.315 7.223 1.006 1.005c.184.182.275.64.275.914 0 .364-.092.64-.365 1.005l-2.012 2.01c-.183.093-.457.275-.73.275s-.55-.092-.732-.274l-.092-.09-19.29-19.293c-.458-.64-.458-1.37 0-1.828l1.92-1.92c.64-.458 1.37-.458 1.827 0l1.007 1.005.092-.09 18.833-18.836-1.188-1.188c-.457-.64-.457-1.372 0-1.83l1.92-1.92c.64-.456 1.37-.456 1.83 0l19.29 19.293c.457.638.457 1.37 0 1.827l-1.92 1.92c-.183.183-.64.274-.914.274s-.548-.09-.73-.273l-.092-.092-.914-.914-.092.093v-.092l-6.766 6.767 8.046 8.046c.914 1.006 2.377 2.01 4.206 3.292.457.273.914.64 1.37 1.005.55.366 1.098.73 1.647 1.097 1.372.915 2.926 2.012 4.57 3.292l.367.273c3.932 2.834 7.59 6.034 11.245 9.69 5.03 5.03 8.138 9.144 9.326 12.436.73 1.736.823 3.29.457 4.478l-.183.64-.55.823.093.093-.457.273c-.092.092-.184.092-.274.184l-.55.55v-.275c-.366.183-.823.274-1.28.366l-.458.366zm-24.046-21.944c2.926 3.932 5.943 7.498 9.326 10.88 7.68 7.68 13.53 10.88 16.365 8.96 0-.09.092-.09.184-.09l.184-.184s0-.092.09-.092l.275-.55c.548-1.278.183-2.74-.275-3.93-1.188-3.018-4.297-7.132-9.05-11.886-3.566-3.566-7.04-6.584-10.79-9.326l-6.31 6.218zm-4.39-6.034c1.007 1.463 2.105 3.018 3.384 4.846l.092.183 6.126-6.125c-1.92-1.37-3.565-2.56-5.028-3.475l-4.573 4.57zm-12.98-14.72l8.228 8.23c1.188 1.187 2.47 3.017 4.022 5.394l4.206-4.206c-.457-.274-.822-.64-1.28-.914-1.828-1.28-3.29-2.286-4.297-3.292l-7.954-8.137-2.925 2.925zm-10.06 11.977l1.83-1.828v-.092l-.914-.914-.092.093-.365-.365-16.64-16.64-1.28-1.28h-.092l-1.737 1.736v.092l19.29 19.2zm-14.353-20.023l15.36 15.36 7.313-7.314-15.36-15.36-7.313 7.314zm8.23-8.228l15.268 15.27 2.835-2.835-15.27-15.27-2.833 2.834zm3.747-3.75l15.27 15.36 6.948-6.947-15.36-15.27-6.858 6.858zm24.96 9.42l1.83-1.738-19.2-19.2h-.093l-1.736 1.737v.09l.915 1.007 17.28 17.28 1.005.823zm-25.325 26.88L83.34 689.087l.915-.914 20.754 20.754-.915.915zm30.72-30.72l-20.755-20.756.914-.914 20.754 20.755-.914.913zm37.12-35.202H152.187v-1.37h8.504l5.212-6.675-4.206-5.395h-9.51v-1.37h44.71v1.37h-12.344v12.068h11.887v.457h.364v.914h-24.87v.002zm.823-1.37h10.422v-12.07h-11.428l-4.206 5.396 5.212 6.673zm-10.332 0h8.686l-4.39-5.577-4.296 5.576zm4.297-7.773l3.383-4.298h-6.674l3.29 4.297z"/></svg>