<svg xmlns="http://www.w3.org/2000/svg" width="350" height="350" viewBox="15.5 459.5 350 350"><path fill="#071B36" d="M205.6 792.1c-3 0-6-1.2-8-3.2-4-3.7-10.3-3.7-14.4 0a12 12 0 0 1-18-2 10.8 10.8 0 0 0-14-3 11.9 11.9 0 0 1-17-5.6c-2.2-5-8-7.6-13.1-5.7a11.9 11.9 0 0 1-15.3-8l-.1-.3 1.1-1 .2.7c.7 2.7 2.5 5 5 6.5s5.7 1.8 8.6.9a12 12 0 0 1 14.8 6.6c1.2 2.9 3.5 5 6.5 6s6 .6 8.7-1a12 12 0 0 1 15.9 3.4c1.8 2.5 4.6 4 7.5 4.4 3.2.2 6.2-.8 8.3-2.9a12 12 0 0 1 8.2-3c3 0 5.8 1 8 3 2.3 2.1 5.2 3.1 8.3 2.9 3-.3 5.8-1.9 7.5-4.4a12 12 0 0 1 16-3.4 10.4 10.4 0 0 0 15.2-5c2.3-5.7 8.8-8.6 14.7-6.6 2.9 1 6.1.6 8.7-1 .8-.4 1.7-1 2.1-1.8l.3-.4 1 1-.2.4c-.8 1-2 1.7-2.6 2.1-3 1.8-6.6 2.1-9.8 1-5.2-1.8-11 .8-13.2 5.8-1.4 3.1-4 5.6-7.2 6.7-3.3 1-6.9.6-9.8-1.1-4.7-3-11-1.6-14 3a12 12 0 0 1-8.7 5h-1.2zm96.1-8.2l-.3-1-3.8-6.6-20-36-15.8-28.7-6.9 1.3-7.3-9.7 4.1-7.3-50-55.5-.5.3-.8-1 .5-.4-3.6-4h-6.1v6.5h-1.4v-6.5h-17.3V634h17.3v-6.5l-57.6-57.6 2.1-2.1L98.8 532l-14.4-14.4L58.9 492l.9-.9 11.4 11.6 1.3-2-11.2-11.4 4-4 .4.6 22.7 23h.6l.2.9 4.3 4.5 25.2 25.3 140 142-.3.3.3.2.2-.2 5 5c.7 0 1.3 0 1.6.2l.1-.1c.4-.4.8-1 1.5-1.5l.8-.4 4 5.6-2.7 2 10.5 23.8 2.5 4h3.6l6.2 6.9 9 9.9.3.3 20.4 22.5-8.2 9.7-11.8 14zm-99-144.5l53.5 59.5 31 55.6 11.7 21.2 3.2 5.7 10-11.9 8-9.4-29-31.8-.3-.4-5.5-6H283l14.4 23.2-1.2.6-9-14-8.8-14.4-10.6-24c-.5 0-1-.3-1.3-.5h-.2v2.2l2.6 7.8c.3.8 0 1.5-.5 1.7-.3.3-.7.3-.9.3-.4 0-.8-.2-1-.5l-5-5.4c-.8-.1-1.5-.5-2-1-.6-.5-1-1.1-1.1-1.7l-.1.1-.4-.4-17-17a5 5 0 0 1-1.4-2c-.5-1.2-.2-2.2.6-3 1.1-1.2 2.7-.2 4 .7l.2.2c1.2.8 2.5 1.7 3 1.1.7-.6.7-2.3.6-2.8l-.1-.5-38.5-39-1 .9v1h-1l-1.7 1.3 12.5 12.4-1 1-12.4-12.5-2 1.7zm46.4 63.6l6.4 8.4 5.4-1.1-2.5-4.7-2 2-1-.9 2.3-2.3-2.7-4.8-2.5-2.7-3.3 6zm14.1-4.2l4.2 4.5h.1l.1-.2-2-6-.5.7c-.4.5-1.1.9-1.9 1zm1-10.5c-1 0-2.2.2-3.4 1.5a5.6 5.6 0 0 0-1.8 3.9 4 4 0 0 0 1.3 2.9c.5.5 1.1.8 1.7.8.9 0 1.6-.3 2-.8 1.2-1.1 1-3.8.9-4.8v-.3l.2-.2c.8-.8 1.7-.2 2.2 0 .2.3.4.3.5.3l2-1.4-2.5-3.4c-.7.7-1.2 1.4-1.2 1.5l-.5.4-.2-.3a3 3 0 0 0-1.3-.1zm-23-13.8l-.2.1c-.4.6-.5 1-.4 1.6.2.5.7 1 1.2 1.5l16 16c0-1 .3-3 2-4.7.9-.8 1.7-1.3 2.5-1.7L249.1 674c0 .8-.1 2-.9 2.6-1.4 1.6-3.4 0-4.6-.9-1.2-1-1.9-1.2-2.3-1.2zM199 635.2l2.8 3 2-1.7-1.2-1.2h.1-3.7zm5.5 0l.3.4.5-.4h-.8zm-13.2-1.3h4.8l-2.9-3.3-1.8-1.9v5.2h-.1zm6.5-.1h9.1l1.6-1.3-3.6-3.6c-.9 1-3.6 3.6-7.8 3.6h-.4l1 1.3zm-2.8-3c4.5 1 7.6-1.6 8.8-2.8l-63.5-64.4-6.2 6.3 60 59.8 1 1.1zM85.8 517.2l14.2 14.2 35.3 35.3 4-4-21.6-22-13.1-13.4-16.5-16.7c-.8.3-2 .7-2.3 1.1-.2.2-.5 1.7-.2 5 .2.2.2.3.2.5zm-13.6-13.4l12 12c-.3-2.8 0-4.4.5-5 .5-.5 1.3-.8 2.2-1.2l-11.2-11.3-3.5 5.5zm-9-14.3l4.6 4.6 5.5 5.5 1.5-2.3-3.4-3.4-6.2-6.3-2 1.9zm127.2 283.1a137 137 0 0 1-73.5-21l-.3-.3.7-1.3.4.2a136.3 136.3 0 0 0 139.1 3.7l.3-.2 1 1-.5.3a134.9 134.9 0 0 1-67.2 17.6zm-108.1-1.3a9.3 9.3 0 0 1-6-2.1C71.2 764 69.6 754 72 742c.5-3 1.3-6 2.3-9l.1-.2v-.1l.1-.1a47.6 47.6 0 0 1 7-13.8l.2-.2.1-.3.2-.1 1.2-1.4v-.2c-.7 0-2 0-2.7-.7a4 4 0 0 1-1-1.7v-.2l-.3-.6-.6-.4h-.3v-.3l-.2-1h.5c.2 0 .8-.1 1.6.6.4.4.6.8.7 1.4l.2.3.2.4c0 .2.2.3.4.5.3.3 1.2.3 1.8.4.2-1 .7-3.3 2-4.4 1.3-1.3 4-1.2 4.9-1l69.9-70 5 5 .2.1-1.3 1.5 3 2-.6.5-47 50v-.1c-1 1.3-4.1 5.4-10.8 12.6-1 1-2 2.2-3 3.5-2.3 2.3-4.8 5-7.7 8.2l2.1 8.8-9.1 8-5-2.8a25 25 0 0 0-3.7 9.8v.2c-.6 5.7 2.1 8.5 2.3 8.6.7.8 1.4.8 2 .8 1-.1 2.2-.1 3.6 1.1 1.1 1.2 1.7 3.2 1.2 5.3a12 12 0 0 1-3.2 6.2 9.4 9.4 0 0 1-6 2zm-7-38.4l-.1.2v.1c-1 3.2-1.8 6.2-2.3 8.8-2.2 11.7-.6 21.1 4.2 26 1.6 1.6 6.5 3 9.6-.1a9.8 9.8 0 0 0 2.8-5.3c.3-1.8 0-3.3-1-4.2-.9-1-1.5-1-2.4-1-.9.2-1.9.2-3-1-.9-.8-3.4-3.8-2.6-9.7v-.6l.1-.6.1-.6.1-.7a38 38 0 0 1 9.4-16c1.1-1.4 2.5-2.8 4-4.3a253.7 253.7 0 0 0 24-26.4v-.4h.3l43.4-51 .3-.4.8-1-1.4-1.5-61.4 63.6c.5.2 1 .1 1.5-.2.8-.3 1.6-1.2 2.4-1.9.9-.8 1.6-1.3 2.3-1.4.7 0 1.4.2 2 .9.6.5.9 1.2.7 2-.1.5-.6 1.2-1.3 2l-5 5-7 6.9-3.3 3.7-.6.8-2.3 2.8c0 .2-.3.4-.4.4l-.2.3-2.1 2.3c-2.4 2.4-5.7 4.8-5.8 4.9l-1.7 1.1 4.6-12.6-.2-.7v-1l.2-.4h.1c.1-.3.3-.4.4-.5l.7-.5c-.3-.6-1-1.8-1.5-2.4-.1 0-.2-.1-.2-.3l-1 1v.3l-.2.2a46 46 0 0 0-7 13.4zm11.1 3l4 2.2 7.8-6.9-1.7-7.2-1.2 1.2a86.5 86.5 0 0 0-4 4.2l2.2 3-1 .8-2-2.6a92.5 92.5 0 0 0-4 5.3zm-1.3-10.7l-2.7 7.2c1-.9 2.5-2 3.6-3.2l2-2.2.3-.2.4-.5H87.6c-.8 0-1.6-.3-2.2-.8l-.3-.3zm.2-2.6v.5c.1.5.5 1 1.1 1.6.3.3.6.5 1 .6l.5-.1c.3 0 .8-.4 1.2-.8 1.4-1.5 0-4-1.3-6.3l-.1-.2c-1.2-2.3-2.2-4-1.1-5 .8-.9 2-1 2.7-1l.1-1c-1.3-.1-2.7 0-3.5.7-1 1-1.5 3.5-1.7 4.5v.2c0 .3 0 1 .4 1.4.3.3.9 1 1.3 2 .8 1.2 1 2 .5 2.4l-.4.4-.4-.3h-.2v.4zm3.7-6c0 .2 0 .4.2.5v.1c1 1.9 2.2 4 2 6l.9-1c1-1.4 2-2.6 2.8-3.1l7-7 2.8-2.7 2-2 .2-.2 1-1.2c0-.2 0-.4-.4-.7-.5-.5-.7-.5-.8-.5a4 4 0 0 0-1.6 1.1c-.7.7-1.7 1.7-2.7 2.2-1 .6-2.1.6-3 0h-.1l-2.5 2.6c0 1.2-.4 2.3-1.3 3.2-1.5 1.5-3.7 1-4.5.9l-2 1.9zm.5-3.5c-.5 0-1.4.1-1.9.6-.1.2-.1.6.5 1.8l2.1-2.1-.4-.3h-.3zm1.6.2c1.4.4 2.6.2 3.4-.5 1.2-1.3 1-2.5 1-2.6v-.2l.1-.3 65.2-67.4-.8-.9-68.7 68.7h1l-.3 3.2h-1zm33.7-22.1l-2.5 3 2.7-3h-.2zm38-44l-26 30.7 27.8-29.5-1.8-1.2zm28 87.7h-7.5V732h3v-73h1.4v73h3v2.8zm114.7-.7l-.9-1.1.5-.3c1.6-1 3.1-1.4 4.7-1.5 3-.3 5.8-1.8 7.6-4.3 1.8-2.5 2.4-5.6 1.7-8.6a11.8 11.8 0 0 1 8-14 10.5 10.5 0 0 0 6.5-14.5 11.9 11.9 0 0 1 5-15.5c2.7-1.4 4.6-4 5.3-7 .6-3.2-.1-6.2-2-8.7-3.7-5-2.9-12 1.8-16.2 2.4-2 3.6-4.9 3.6-8 0-3-1.3-5.9-3.6-7.9a12 12 0 0 1-1.8-16.2 10.5 10.5 0 0 0-3.2-15.6c-5.4-3-7.6-9.9-5-15.4 1.2-2.7 1.2-6 0-8.8-1.2-2.8-3.6-5-6.6-5.8-5.9-1.8-9.5-8-8-14 .7-3 0-6.2-1.7-8.6-2-2.5-4.6-4-7.6-4.3l-.9-.2-.7-.1-.9-.2 1.2-1.2.3.1 1.2.2c3.5.3 6.5 2 8.7 4.8a12 12 0 0 1 2 9.7c-1.2 5.3 2 10.9 7.3 12.5 3.3 1 6 3.3 7.4 6.5a12 12 0 0 1-.1 10c-2.3 4.8-.3 10.9 4.5 13.6 3 1.7 5.2 4.6 5.8 7.9a12 12 0 0 1-2.2 9.6 10.4 10.4 0 0 0 1.5 14.3 12 12 0 0 1 0 18.1 11 11 0 0 0-1.6 14.6 11.7 11.7 0 0 1-3.7 17.5 10.6 10.6 0 0 0-4.5 13.7 12 12 0 0 1 0 9.8 12.6 12.6 0 0 1-7.3 6.6 10.7 10.7 0 0 0-7.2 12.5c.7 3.2 0 6.9-2 9.6a12 12 0 0 1-8.7 4.9c-1.5 0-2.9.5-4.2 1.2l-.2.3zm-240.4-4l-.3-.3c-1-.7-2-1.8-2.5-2.5-2-2.7-2.8-6.3-2-9.7 1.2-5.3-2-10.9-7.3-12.4a12 12 0 0 1-7.3-16.5c2.3-5 .3-11-4.5-13.7-3-1.7-5.2-4.6-5.8-7.9a12 12 0 0 1 2.2-9.6 10.4 10.4 0 0 0-1.5-14.2 12.2 12.2 0 0 1-4-9c0-3.6 1.4-6.9 4-9.1 4.2-3.7 4.9-10 1.5-14.3a11.7 11.7 0 0 1 3.7-17.5c4.9-2.6 6.8-8.6 4.5-13.7a12 12 0 0 1 0-9.9c1.4-3 4-5.4 7.3-6.5 5.2-1.7 8.4-7.2 7.3-12.5-.8-3.3 0-7 2-9.7a12 12 0 0 1 8.7-4.8c2.6-.2 5-1.4 6.9-3.4l.4-.4.8 1.1-.5.2c-1.9 2.1-4.7 3.6-7.7 3.9-3 .2-5.8 1.8-7.5 4.3a10.4 10.4 0 0 0-1.8 8.6 11.8 11.8 0 0 1-8 14 10.5 10.5 0 0 0-6.5 14.5c2.6 5.7.4 12.5-5 15.5a10.6 10.6 0 0 0-3.3 15.7c3.7 4.9 2.9 12-1.8 16.1-2.3 2-3.6 5-3.6 8s1.3 6 3.6 8a12 12 0 0 1 1.8 16.1 10.5 10.5 0 0 0 3.3 15.7c5.4 3 7.5 9.8 5 15.4a10.5 10.5 0 0 0 6.5 14.6c6 1.8 9.5 8 8 14-.7 3 0 6.2 1.8 8.6.6.8 1.3 1.7 2 2l.7.2-1 1zm231.5-7.4l-.8-1 .3-.4a134.7 134.7 0 0 0 31.2-87c0-31.7-10.5-61.3-30.3-85.8l-.3-.3 1-1 .2.4a138.3 138.3 0 0 1-1 174.6l-.3.5zM74.8 710.2l-.3-.5c-15.9-21.8-22.1-43-22.1-75.2 0-33.5 12.2-65.7 34.2-90.8l.4-.4.7 1-.3.3a136.5 136.5 0 0 0-33.7 90c0 31.8 6.1 52.7 21.8 74.4l.3.3-1 .9zm30.9-58.5L97 643l8.7-8.7 8.7 8.7-8.7 8.7zm-6.5-8.7l6.8 6.8 6.7-6.8-6.7-6.8-6.8 6.8zm181.7 7.7c-.8 0-1.5-.3-2-.7-.5-.6-.7-1.1-.7-2 0-.7.3-1.3.8-1.9.5-.5 1.1-.7 1.9-.7s1.3.3 1.9.7c.5.6.7 1.1.7 2a3 3 0 0 1-.7 1.9c-.6.3-1.2.6-2 .7zm-.2-3.9c-.4 0-.6.1-.8.4l-.4.8c0 .2.1.7.4.9.2.1.4.3.8.3s.7 0 1-.3l.3-.9c0-.3-.1-.6-.4-.8-.2-.2-.5-.4-1-.4zm-5-1.3c-.7 0-1.4-.3-2-.8-.5-.5-.8-1.2-.8-2 .1-.6.4-1.3 1-1.6.4-.5 1-.7 1.7-.7s1.3.2 1.8.7.7 1 .7 1.8c0 .7-.2 1.4-.7 1.8-.4.5-1 .8-1.7.8zm-.1-3.9c-.4 0-.7.1-.9.4-.4.5-.4 1.3 0 1.7s1.3.5 1.8 0 .4-1.2 0-1.7c-.1-.2-.3-.4-1-.4zm10.4 3.8c-.6 0-1.4-.3-2-.7-.4-.5-.7-1.1-.7-1.9s.3-1.3.8-1.8c1-1 2.7-1 3.7 0 .5.5.8 1 .8 1.8s-.3 1.4-.8 1.9-1.2.7-1.8.7zm0-3.8c-.4 0-.6.1-.8.4-.2.2-.4.5-.4.8 0 .4.1.7.4.8.4.5 1.3.5 1.7 0 .3-.1.4-.5.4-.8 0-.3-.2-.6-.4-.8 0-.2-.3-.4-.9-.4zm-169.8-.3l-8.7-8.7 8.7-8.7 8.7 8.7-8.7 8.7zm-6.7-8.7l6.8 6.7 6.8-6.7-6.8-6.8-6.8 6.8zM95.3 641l-8.7-8.7 8.7-8.7 8.7 8.7-8.7 8.7zm-6.8-8.7l6.8 6.8 6.7-6.8-6.7-6.8-6.8 6.8zm192.4 8a3 3 0 0 1-2-.8c-.5-.5-.7-1.2-.7-1.9s.3-1.4.8-2c.5-.5 1.1-.6 1.9-.6s1.3.2 1.9.7c.5.4.7 1.2.7 1.9s-.2 1.4-.7 2c-.7.4-1.3.7-2 .7zm0-4c-.4 0-.7.1-.8.4-.2.2-.4.5-.4.8 0 .3 0 .6.4.8.1.2.4.4.8.4.3 0 .7-.1.9-.4.3-.2.4-.4.4-.8s-.1-.6-.4-.8a2 2 0 0 0-1-.4zm10.5 3.9c-.6 0-1.4-.3-2-.8-.4-.4-.7-1-.7-1.8s.3-1.4.8-1.8c.4-.6 1-.8 1.8-.8s1.4.2 2 .7c.5.5.7 1.2.7 1.9s-.2 1.4-.7 2a4 4 0 0 1-2 .6zm-.2-3.9c-.4 0-.6.1-.8.4-.2.2-.4.5-.4.8 0 .4.1.6.4.8.4.5 1.3.5 1.7 0 .3-.2.4-.4.4-.8s-.1-.6-.4-.8a2 2 0 0 0-.9-.4zm-20.7 3.9a3 3 0 0 1-2-.8c-.5-.5-.7-1-.7-1.9 0-.7.3-1.4.7-2 .6-.5 1.1-.6 2-.6a3 3 0 0 1 1.9.7c.5.5.7 1.2.7 2a3 3 0 0 1-.7 1.8c-.6.5-1.3.8-2 .8zm-1-3.6c-.2.4-.3.5-.3 1 0 .3 0 .5.3.7.2.2.5.4.8.4.3 0 .7-.1.9-.4.2-.2.3-.5.3-.8 0-.3 0-.6-.3-.8-.3-.5-1.2-.5-1.7-.1zm16.6-1.6c-.7 0-1.4-.2-2-.7-.5-.5-.7-1.2-.7-2 0-.6.3-1.3.8-1.8 1-1 2.6-1 3.6 0s1 2.5.1 3.7c-.4.6-1 .8-1.8.8zm-.1-3.9c-.4 0-.6.1-.8.4-.2.2-.4.5-.4.8s.1.6.4.8c.4.5 1.3.5 1.7 0 .3-.2.4-.5.4-.8 0-.4-.2-.6-.4-.8-.3-.2-.5-.4-.9-.4zm-10.3 4c-.7 0-1.4-.3-2-.8-.5-.5-.7-1.2-.7-2 0-.6.3-1.3.7-1.7.5-.6 1.1-.9 1.9-.9.7 0 1.4.3 2 .9.5.5.7 1.2.7 1.9s-.3 1.4-.7 1.9c-.6.4-1.2.6-2 .6zm-.1-4c-.4 0-.7.1-.9.4-.1.2-.3.5-.3.8s0 .6.4.8c.4.5 1.2.5 1.7 0 .4-.2.4-.4.4-.7 0-.5-.2-.7-.4-1-.2-.1-.6-.3-1-.3zm20.8 3.9c-.7 0-1.4-.4-1.8-.8-.6-.5-.8-1.2-.8-1.9s.2-1.4.7-2c.5-.5 1.1-.6 2-.6a3 3 0 0 1 1.8.7c.6.5.8 1.2.8 1.9s-.3 1.4-.8 2a3 3 0 0 1-1.9.7zm0-3.9c-.3 0-.6.1-.8.4h-.1c-.3.2-.4.4-.3.7 0 .5.2.7.4 1l.7.3c.4 0 .8-.1 1-.4.1-.2.3-.5.3-.8s0-.6-.4-.8c0-.2-.5-.4-.8-.4zm-31 3.9c-.7 0-1.4-.3-2-.8-.4-.4-.7-1-.7-1.8s.3-1.4.7-1.8c.5-.6 1.1-.9 1.8-.9a3 3 0 0 1 2 .8c.5.5.8 1.2.8 1.9a3 3 0 0 1-.7 2c-.8.3-1.3.6-2 .6zm0-3.9c-.4 0-.7.1-.9.4-.4.4-.4 1.3 0 1.7.5.5 1.3.5 1.7 0 .2-.2.4-.5.4-.8 0-.3 0-.7-.4-.8-.2-.3-.6-.5-.9-.5zm-138.7-.5L118 622l8.7-8.7 8.7 8.7-8.7 8.7zm-6.6-8.7l6.8 6.7 6.8-6.7-6.8-6.8-6.8 6.8zm-14.5 8.7L97 622l8.7-8.7 8.7 8.7-8.7 8.7zM99 622l6.8 6.7 6.8-6.7-6.8-6.8L99 622zM85 630.7l-8.7-8.7 8.7-8.7 8.6 8.7-8.6 8.7zm-6.7-8.7l6.7 6.7 6.8-6.7-6.8-6.8-6.7 6.8zm202.7 8a3 3 0 0 1-2-.8c-.5-.5-.7-1.2-.7-2 0-.6.3-1.3.8-1.8.5-.6 1.1-.8 1.9-.8s1.3.3 1.9.8c.5.4.7 1.1.7 1.9s-.2 1.4-.7 1.9c-.7.5-1.3.7-2 .7zm0-4c-.4 0-.7 0-.8.4-.2.2-.4.5-.4.8 0 .3 0 .6.4.8.1.2.4.4.8.4.3 0 .7-.1.9-.4.4-.2.4-.4.4-.7 0-.5-.2-.7-.4-1-.2-.1-.6-.3-1-.3zm-21 4c-.7 0-1.4-.3-2-.8-.5-.5-.7-1.2-.7-2 0-.6.3-1.3.7-1.8a3 3 0 0 1 2-.8c.7 0 1.3.3 1.8.9.4.4.7 1 .7 1.8s-.3 1.4-.7 1.8c-.5.6-1 .8-1.9.8zm0-4c-.4 0-.7 0-.9.4-.2.2-.3.5-.3.8 0 .3 0 .6.3.8.5.5 1.3.5 1.8 0 .2-.2.3-.5.3-.8 0-.3-.2-.7-.3-.8-.3-.2-.6-.4-1-.4zm41.7 3.8c-.6 0-1.3-.2-1.9-.7-.5-.5-.8-1.3-.6-2 0-.5.2-1.2.7-1.7 1-1 2.6-1 3.7 0 .5.5.7 1.2.7 1.9a3 3 0 0 1-.7 1.9 3 3 0 0 1-1.9.6zm0-3.8c-.3 0-.6 0-.8.4-.4.2-.5.4-.4.7 0 .5.2.7.4 1 .5.4 1.3.4 1.7 0 .2-.3.4-.6.4-1 0-.2 0-.6-.4-.7-.1-.2-.5-.4-.9-.4zm-10.2 3.8c-.6 0-1.4-.2-2-.7-.4-.4-.7-1-.7-1.8a2.6 2.6 0 0 1 4.4-1.8c.5.4.8 1 .8 1.7s-.2 1.5-.7 2a3 3 0 0 1-1.8.6zm-.2-3.8c-.4 0-.6 0-.8.4-.2.2-.4.5-.4.8 0 .3.1.6.4.8.4.5 1.3.5 1.7 0h.1c.3-.2.4-.4.3-.7 0-.5-.2-.7-.4-1a2 2 0 0 0-.9-.3zm-20.7 3.8c-.8 0-1.4-.2-1.9-.7-.5-.4-.8-1-.8-2 0-.6.3-1.3.7-1.8.6-.6 1.1-.8 2-.8a3 3 0 0 1 1.9.8c.5.5.7 1.2.7 1.9a3 3 0 0 1-.7 2c-.6.4-1.3.6-2 .6zm-.1-3.8c-.4 0-.7 0-.9.4-.1.2-.3.5-.3.8 0 .3 0 .6.3.8.2.2.5.4.8.4.3 0 .7-.1.9-.4.2-.2.3-.5.3-.8 0-.3 0-.7-.3-.8-.1-.2-.5-.4-.8-.4zm-36.7 0a9.4 9.4 0 0 1-6-2.1c-5.2-5.2-6.8-15-4.4-27.2 2-10.2 6.5-20.3 11.2-25.3v-.3c-.8 0-2-.1-2.7-.8-.5-.4-.8-1-1-1.4v-.2l-.2-.3-.3-.5-.5-.4h-.4v-.4l-.2-1h.6c.2 0 .7 0 1.5.7.4.3.6.9.8 1.3v.2c.2.4.3.8.6 1 .3.4 1.2.4 1.7.4.2-1.1.8-3.2 2-4.3 1.4-1.4 4.2-1.2 5-1.1l36-36 .3-.2 13.7-13.8 16.7-17 3.5-3.4 5 5v.3l.3.2-1.2 1.3 3 2-.6.6-2.3 2.4L287 536l-.3.4-15.4 16.4c-.3.2-1 1.3-2.9 3.6-2.8 3.6-8.5 10-19 20.8l2 8.7-9 8-4.9-2.7c-7.7 12.7-2 18.6-1.7 19 .7.7 1.4.7 2.1.7 1 0 2.1 0 3.5 1.2 2.5 2.6 1.6 8-2 11.5a7.8 7.8 0 0 1-5.7 2.3zm1.4-53a54.3 54.3 0 0 0-10.4 24c-2.2 11.6-.6 21.1 4.2 26 1.7 1.6 6.5 3 9.6-.1 3.3-3.3 3.8-7.8 2-9.6-1-1-1.6-1-2.4-1-1 .2-2 .2-3.1-1a11 11 0 0 1-2.8-7c-.2-5 2-13.5 14-25.4a398.3 398.3 0 0 0 24-26.7l14.9-17.5 29.9-35.1-1.7-1.5-18.3 19-14 14.5-22.4 23.2-6.7 7c.5.2 1 .1 1.5-.2.9-.3 1.7-1.2 2.5-1.9.8-.8 1.6-1.3 2.3-1.4.6 0 1.4.2 2 .9.7.7 1 1.4.7 2.2-.2.6-.8 1.2-1.3 1.8l-2.5 2.5-2.4 2.3-7.1 7-3.3 3.8-.7.8c-1.9 2.2-3.7 4.4-5 5.7-2.3 2.4-5.6 4.8-5.7 4.9l-1.8 1.2 4.7-12.5c-.5-1-.4-2 .4-2.7.2-.3.4-.4.7-.5-.4-.6-1-1.8-1.6-2.4l-.2-.3zm3 17.2l4.1 2.2 7.7-6.9-1.8-7-1.1 1.1a54 54 0 0 0-4.2 4.5l2.2 2.8-1 .8-2-2.5a39.5 39.5 0 0 0-3.8 5zm-1.4-10.2l-2.6 7.2c1-.9 2.4-2 3.5-3.2.9-.7 1.9-1.8 2.9-3a3 3 0 0 1-3.5-.7l-.3-.3zm.6-3l-.2.2c-.1 0-.3.2-.3.5s.1 1 1 1.9c.8.8 1.8.7 2.8-.3 1.4-1.5 0-4-1.3-6.3l-.1-.2c-1.2-2.3-2.2-4-1.1-5 .8-.9 2-1 2.7-1l.1-1c-1.3-.1-2.7 0-3.5.7-1 1-1.6 4.3-1.7 4.6 0 .2.1 1 .5 1.4 0 0 2.9 3.3 1.8 4.4l-.5.5-.2-.4zm3-5.5c.2.1.2.3.3.4v.2c1.1 1.9 2.4 4.2 2 6.2l1-1.3c1.2-1.4 2.2-2.6 2.9-3.1l2-1.8 5.1-5.2 4.9-4.8c.5-.6.9-1 .9-1.3 0-.2 0-.4-.3-.7-.5-.5-.7-.5-.8-.5a4 4 0 0 0-1.6 1.1c-.7.8-1.7 1.7-2.7 2.2-1.2.5-2.2.5-3.1-.2l-2.6 2.7c.2.8 0 2-1.2 3.2-1.5 1.4-3.8 1-4.6.9l-2.1 2zm.5-3.6c-.6 0-1.4.1-1.9.6 0 .2 0 .6.6 1.8l2.3-2.4h.5l.2-2.8h1.3l-.2 3.1c1 .1 1.7-.2 2.3-.7 1.2-1.3 1-2.5 1-2.6v-.3l.2-.2 10.3-10.6 37.1-38.2 18-18.5-.8-.8-33 33h-.6l-35.9 36-.3 2.8h-.5l-.6-.2zm73.7-65.9L299 520.5l-.4.4-10.7 12.6 11-11.8 17.4-18.4-1.8-1.3zm-7.8 122.6a3 3 0 0 1-1.9-.7c-1-1-1-2.7 0-3.7.6-.5 1.2-.7 2-.7s1.3.3 1.9.7c.4.5.7 1.1.7 1.9s-.3 1.3-.7 1.8c-.4.5-1 .7-2 .7zm.2-3.8c-.3 0-.6 0-.8.3-.3.2-.4.6-.4.9 0 .3.2.6.4.8.2.3.5.4.8.4.4 0 .8-.1 1-.4.4-.5.4-1.3 0-1.7l-1-.3zm-10.5 3.8a3 3 0 0 1-1.9-.7c-1-1-1-2.7 0-3.7.5-.5 1.1-.7 2-.7a3 3 0 0 1 1.8.7c1 1 1 2.7 0 3.7a3 3 0 0 1-1.9.7zm0-3.8c-.3 0-.6 0-.8.3-.2.2-.4.6-.4.9 0 .3.1.6.4.8l.7.4c.4 0 .8-.1 1-.4.4-.5.4-1.3 0-1.7l-.9-.3zm-10.3 3.8c-.7 0-1.4-.2-2-.7-.4-.5-.7-1.1-.7-1.8s.3-1.4.8-1.9c1-1 2.6-1 3.6 0s1 2.7.1 3.7c-.4.5-1 .7-1.8.7zm-.1-3.8c-.4 0-.6 0-.8.3-.2.2-.4.6-.4.9 0 .3.1.6.4.8.4.5 1.3.5 1.7 0 .3-.2.4-.6.4-.8 0-.4-.2-.7-.4-.9-.3-.1-.5-.3-.9-.3zm-10.3 3.8c-.7 0-1.4-.2-1.9-.7-.5-.5-.8-1.2-.8-1.8 0-.8.4-1.4 1-1.9.4-.4 1-.7 1.8-.7s1.3.3 1.8.7.7 1.1.7 1.9-.3 1.3-.7 1.8a3 3 0 0 1-2 .7zm-.1-3.8c-.4 0-.7 0-.8.3-.2.2-.4.6-.4.9 0 .3 0 .6.4.8.4.5 1.2.5 1.7 0 .4-.5.4-1.3 0-1.7-.2-.1-.6-.3-1-.3zm-10.3 3.8c-.6 0-1.3-.2-1.9-.7-.4-.5-.7-1.1-.7-1.8s.3-1.4.7-1.9c1-1 2.7-1 3.7 0 .5.5.8 1.1.8 1.9s-.3 1.3-.7 1.8c-.7.5-1.2.7-1.9.7zm0-3.8c-.3 0-.6 0-.8.3-.4.5-.4 1.3 0 1.8.5.4 1.3.4 1.7 0 .5-.5.5-1.3 0-1.7a2 2 0 0 0-.9-.4zm-10.6 3.8a3 3 0 0 1-1.9-.7c-1-1-1-2.7 0-3.7.5-.4 1.2-.7 2-.7a3 3 0 0 1 1.8.7c1 1 1 2.7 0 3.7a3 3 0 0 1-1.9.7zm0-3.8c-.3 0-.6 0-.8.3-.2.2-.4.6-.4.9 0 .3.1.6.4.8l.7.4c.4 0 .8-.1 1-.4.3-.5.3-1.3 0-1.7-.1-.1-.4-.3-.9-.3zm-159.4-.6l-8.7-8.7 8.7-8.6 8.7 8.6-8.7 8.7zm-6.8-8.6l6.8 6.7 6.7-6.7-6.7-6.8-6.8 6.8zm27.8 8.5l-8.7-8.6 8.7-8.7 8.7 8.7-8.7 8.6zm-6.8-8.7l6.8 6.7 6.8-6.7-6.8-6.8-6.8 6.8zm171.4 8.1a3 3 0 0 1-2-.7c-.5-.6-.7-1.2-.7-2s.3-1.3.8-1.9c.5-.5 1.1-.7 1.9-.7s1.3.3 1.9.7c.4.5.7 1 .7 1.9a3 3 0 0 1-.7 1.9 3 3 0 0 1-2 .8zm0-3.8c-.4 0-.7 0-.8.3-.2.2-.4.6-.4.9s0 .6.4.8c.1.2.4.3.8.3.3 0 .7 0 .9-.3.3-.3.4-.6.4-.8 0-.4-.1-.7-.4-.9s-.6-.3-1-.3zm-20.9 3.8a3 3 0 0 1-1.9-.7c-.5-.5-.7-1.2-.7-2s.3-1.3.7-1.9c1-1 2.7-1 3.7 0 .5.5.8 1.1.8 1.9a3 3 0 0 1-.7 1.9c-.5.5-1.2.8-1.9.8zm-.2-3.8c-.3 0-.6 0-.8.3-.2.2-.3.6-.3.9s0 .6.3.8c.5.4 1.3.4 1.8 0 .2-.3.4-.7.4-1 0-.3-.2-.6-.3-.7l-1-.3zm41.8 3.7c-.7 0-1.3-.3-1.8-.8s-.7-1.1-.7-1.8.2-1.4.7-2c1-1 2.7-1 3.7 0 .5.6.7 1.2.7 2a3 3 0 0 1-.7 1.9c-.5.4-1.1.7-1.9.7zm0-3.8c-.3 0-.6 0-.8.3-.4.4-.4.6-.4.8a1.3 1.3 0 0 0 2.1 1c.2-.3.4-.7.4-1 0-.2 0-.6-.4-.8-.1-.1-.5-.3-.9-.3zm-10.2 3.8c-.6 0-1.4-.3-2-.7-.4-.5-.7-1.1-.7-1.8s.3-1.4.8-1.9c1-1 2.6-1 3.6 0 .4.4.8 1 .9 1.7 0 .7-.3 1.4-.8 1.9s-1.2.8-1.8.8zm-.2-3.7c-.4 0-.6 0-.8.3-.2.2-.4.6-.4.9 0 .3.1.6.4.8.4.4 1.3.4 1.7 0 .3-.3.4-.5.4-.8 0-.4-.1-.7-.4-.9a2 2 0 0 0-.9-.3zm-20.7 3.7c-.8 0-1.4-.3-1.9-.7-.5-.5-.8-1.1-.8-2 0-.7.3-1.3.7-1.9.6-.5 1.1-.7 2-.7a3 3 0 0 1 1.9.7c.5.6.7 1.2.7 2a3 3 0 0 1-.7 1.9 3 3 0 0 1-2 .7zm-1-3.5c-.2.4-.3.6-.3 1 0 .3 0 .6.3.8.2.2.5.3.8.3.3 0 .7 0 .9-.3.2-.2.3-.6.3-.8s0-.7-.3-.9c-.3-.4-1.2-.4-1.7 0zm16.6-1.6c-.7 0-1.4-.3-2-.7-.5-.6-.7-1.2-.7-2s.3-1.3.8-1.9c1-1 2.6-1 3.6 0s1 2.6.1 3.8c-.4.5-1 .8-1.8.8zm-.1-3.8c-.4 0-.6 0-.8.3l-.4.8c0 .3.1.7.4.9.4.4 1.3.4 1.7 0 .3-.3.5-.7.5-1s-.2-.5-.4-.7c-.2-.2-.4-.3-1-.3zm-10.3 3.8c-.7 0-1.4-.3-2-.7-.5-.6-.7-1.2-.7-2s.3-1.3.7-1.9a2.7 2.7 0 0 1 4.6 2 3 3 0 0 1-.7 1.9 3 3 0 0 1-2 .7zm-.1-3.8c-.4 0-.7 0-.8.3l-.4.8c0 .3 0 .7.4.9.4.4 1.2.4 1.7 0 .3-.3.4-.5.4-.9s-.1-.6-.4-.8c-.1-.2-.3-.3-1-.3zm20.8 3.7a3 3 0 0 1-1.9-.7c-.6-.5-.7-1.2-.7-2s.2-1.3.7-1.9c.5-.5 1.1-.7 2-.7a3 3 0 0 1 1.8.7c.6.6.8 1.2.8 2a3 3 0 0 1-.8 1.9 3 3 0 0 1-1.9.7zm0-3.8c-.3 0-.6 0-.8.3-.3.3-.4.5-.4.9s.1.6.4.8c.2.2.5.3.7.3.4 0 .8 0 1-.3l.3-.8c0-.2 0-.7-.4-.9 0-.2-.5-.3-.8-.3zm-31 3.8c-.9 0-1.6-.4-1.9-1-1-1-1-2.6.1-3.6 1-1 2.6-1 3.7 0 .5.6.7 1.2.7 2a3 3 0 0 1-.7 1.9c-.8.4-1.3.7-2 .7zm-1.3-3.5c-.3.6-.3 1.3 0 1.8.4.3 1.3.4 1.8 0 .2-.2.3-.6.3-.9 0-.2 0-.6-.3-.8-.1-.2-.3-.3-.8-.3a1 1 0 0 0-1 .2zm-158.2-1l-8.7-8.7 8.7-8.6 8.7 8.6-8.7 8.7zm-6.7-8.7l6.8 6.8 6.7-6.8-6.7-6.7-6.8 6.7zm181.7 8a3 3 0 0 1-2-.6c-.5-.6-.7-1.2-.7-2 0-.7.3-1.3.8-1.9.5-.5 1.1-.7 1.9-.7s1.3.3 1.9.7c.5.5.7 1.2.7 2a3 3 0 0 1-.7 1.9c-.7.4-1.3.7-2 .7zm0-3.8c-.4 0-.7.1-.8.4l-.4.8c0 .3 0 .7.4.9.1.1.4.3.8.3.3 0 .7 0 .9-.3.3-.3.4-.5.4-.9 0-.3-.1-.6-.4-.8a2 2 0 0 0-1-.4zm10.5 3.8c-.6 0-1.4-.3-2-.7-.4-.5-.7-1.1-.7-1.9a2.6 2.6 0 0 1 4.4-1.8c.5.5.8 1.1.9 1.7 0 .8-.3 1.5-.8 2-.5.4-1.2.7-1.8.7zm-.2-3.8c-.4 0-.6.1-.8.4l-.4.8c0 .4.1.7.4.9.4.4 1.3.4 1.7 0 .3-.3.4-.5.4-.9 0-.3-.1-.6-.4-.8-.2-.2-.5-.4-.9-.4zm-20.8 3.8a3 3 0 0 1-2-.7c-.5-.5-.7-1.2-.7-2s.3-1.3.7-1.9c.6-.5 1.1-.7 2-.7a3 3 0 0 1 1.9.7c.5.6.7 1.2.7 2s-.3 1.3-.7 1.9a3 3 0 0 1-2 .7zm-.9-3.5c-.2.4-.3.6-.3 1s0 .6.3.8c.2.1.5.3.8.3.3 0 .7 0 .9-.3.2-.2.4-.6.4-.9 0-.2-.1-.6-.4-.8-.3-.4-1.2-.4-1.7 0zm16.6-1.7c-.7 0-1.4-.3-2-.8-.4-.4-.7-1-.7-1.8s.3-1.3.8-1.8c1-1 2.6-1 3.6 0s1 2.7.1 3.7c-.4.4-1 .7-1.8.7zm-.1-3.8c-.4 0-.6.1-.8.4-.2.2-.4.5-.4.8 0 .3.1.7.4.8.4.5 1.3.5 1.7 0 .3-.2.5-.6.5-1 0-.2-.2-.5-.4-.6-.4-.2-.6-.4-1-.4zm-10.3 3.8c-.7 0-1.4-.3-2-.7a2.6 2.6 0 0 1 3.7-3.7c1 1 1 2.7 0 3.7-.4.4-1 .7-1.7.7zm-.1-3.8c-.4 0-.7.1-.8.4-.2.2-.4.5-.4.8 0 .3 0 .7.4.8.4.5 1.2.5 1.7 0 .3-.2.4-.6.4-1 0-.2-.1-.5-.3-.6a2 2 0 0 0-1-.4zm5.3-1.3a3 3 0 0 1-2-.8c-.5-.5-.7-1.2-.7-1.9s.3-1.4.8-2c.5-.5 1.1-.6 1.9-.6s1.3.2 1.9.7c.4.4.7 1 .7 1.8s-.2 1.4-.7 2c-.7.5-1.3.8-2 .8zm0-3.9c-.4 0-.7.1-.8.4-.2.2-.4.5-.4.8s0 .6.4.8c.1.2.4.4.8.4.3 0 .7-.1.9-.4.3-.2.4-.4.4-.8s-.1-.6-.4-.8a2 2 0 0 0-1-.4zm-86-7.8l-9.7-9.7 1.1-.9 3.6 3.6v-9.9h1.4v11.3l4.6 4.6-1 1zm-1.9-15h-1.4v-28.7h-2v28.8h-1.4V542h4.8v30zm80.7-46l-.4-.2a136.7 136.7 0 0 0-159.6-4.5l-.3.2-1-1 .5-.2a137.1 137.1 0 0 1 77.6-23.9c30.6 0 59.5 9.8 83.6 28.3l.4.3-.8 1zm9.2-11l-.3-.2a11.8 11.8 0 0 1-8.6-9.2 10.7 10.7 0 0 0-13.8-8 12 12 0 0 1-14.8-6.7c-1.2-2.9-3.5-5-6.5-6s-6-.6-8.7 1a12 12 0 0 1-15.9-3.4 10.4 10.4 0 0 0-7.5-4.3c-3.2-.3-6.2.7-8.3 2.8a11.9 11.9 0 0 1-16.3 0 10.7 10.7 0 0 0-8.3-2.8c-3 .2-5.8 1.8-7.5 4.4a12 12 0 0 1-15.9 3.3c-2.7-1.5-5.8-1.9-8.7-1-3 1-5.2 3-6.5 6a11.9 11.9 0 0 1-14.8 6.6c-2.8-1-6.1-.6-8.7 1a9.9 9.9 0 0 0-5.1 7c-.5 2.6-1.6 4.6-2.6 5.8l-.3.5-1-1 .3-.3c1.4-1.4 2.3-3.3 2.7-5a11.8 11.8 0 0 1 15.4-9c5.3 1.7 11-.8 13.2-6 1.4-3 4-5.5 7.2-6.6 3.3-1 6.9-.6 9.8 1.1 4.8 3 11 1.6 14-3a12 12 0 0 1 18-2c4 3.8 10.3 3.8 14.4 0 2.4-2.3 5.8-3.5 9.3-3a12 12 0 0 1 8.6 5c3.2 4.5 9.4 5.8 14 3 2.9-1.8 6.5-2.2 9.9-1 3.2 1 5.9 3.5 7.2 6.6 2.2 5.1 8 7.7 13.1 5.8 3.2-1 6.8-.8 9.8 1 3 1.7 5 4.6 5.7 8 .6 4 3.7 7.2 7.7 8.2l.8.2-1 1.1zm-77.2 7.4V521h-30.6v1.4h10v12h-10v1.4h10v.1H195.2h-.8 11.4v-1.4h-10.4v-12h10.3zm-11.7 12h-7.4v-12h7.4v12z"/></svg>