<svg xmlns="http://www.w3.org/2000/svg" width="350" height="350" viewBox="0.5 568.5 350 350"><path fill="#071B36" d="M170.837 902.77l-.548-.55-5.944-8.41h.092l-13.715-19.84h-.183l-12.982-18.835.457-.824h12.617v-44.89h1.37v46.264H139.57l12.067 17.37h.183l.457.73 13.897 20.024.365.457 4.48 6.4 8.228-10.24-.092-.092.64-.64 11.704-14.628 15.635-19.475h-12.16v-37.395l.457-.092v-.092l.09.093.46-.092.18.185c1.1 1.28 11.247 12.342 39.772 12.342h.64v7.498l22.858-13.896-22.857-15.18v8.87h-.64c-9.784 0-20.206-3.018-28.618-8.412-7.588-4.846-12.342-10.697-12.342-15.178v-.457h1.37v.457c0 3.932 4.755 9.6 11.886 14.08 8.048 5.12 17.92 8.047 27.063 8.137V807.5l.367-.184.457-.273.182.182 25.782 17.006-25.965 15.82-.824-.458v-7.59c-15.633-.182-25.6-3.564-31.268-6.31-3.748-1.827-6.125-3.655-7.68-5.118v34.012h12.434l.183.365.273.458-15.178 18.834-13.074 16.184-.182.273-9.965 12.07zm19.75-6.4h-.915l1.096-1.372h.824c2.926-.275 5.576-1.83 7.404-4.39 3.475-5.028 10.424-6.49 15.727-3.292 2.65 1.555 5.668 1.92 8.594 1.006 2.926-1.006 5.12-3.016 6.4-5.852 2.377-5.668 8.87-8.594 14.72-6.582 2.743.914 5.942.64 8.595-.914 2.65-1.555 4.48-4.205 5.027-7.13 1.188-6.036 6.856-10.15 13.075-9.42 2.924.366 5.94-.64 8.23-2.65 2.1-1.92 3.382-4.937 3.382-7.954-.092-6.217 4.662-11.52 10.787-11.98 3.018-.272 5.76-1.827 7.498-4.296 1.828-2.47 2.47-5.576 1.736-8.502-1.37-6.035 2.104-12.16 7.955-13.988 2.926-.914 5.303-2.926 6.49-5.67 1.28-2.834 1.19-5.94-.09-8.686-2.652-5.576-.457-12.25 4.938-15.268 2.65-1.555 4.57-4.115 5.212-7.04.73-2.927 0-6.034-1.828-8.503-3.75-4.846-3.018-11.887 1.645-16 2.286-2.012 3.565-4.938 3.565-7.863 0-3.107-1.28-5.943-3.566-7.863-4.663-4.02-5.396-10.97-1.646-16 1.828-2.376 2.47-5.483 1.828-8.5-.732-3.02-2.56-5.58-5.21-7.042-5.306-2.926-7.5-9.69-4.94-15.268 1.28-2.652 1.372-5.852.09-8.686-1.278-2.744-3.563-4.846-6.49-5.67-5.942-1.828-9.417-7.953-7.954-13.988.64-2.834 0-6.033-1.736-8.502-1.828-2.47-4.48-4.023-7.498-4.297-6.125-.55-10.88-5.852-10.787-11.98.09-3.106-1.19-5.94-3.383-7.952-2.195-2.104-5.12-3.018-8.23-2.652-6.218.732-11.886-3.383-12.983-9.416-.638-3.11-2.468-5.67-5.026-7.133-2.56-1.553-5.67-1.828-8.596-.914-5.76 2.012-12.25-.914-14.72-6.582-1.28-2.834-3.474-4.938-6.4-5.852-.913-.273-1.827-.457-2.74-.55-2.105-.09-4.208.458-5.944 1.556-1.28.822-2.742 1.28-4.205 1.463-4.3.64-8.778-1.098-11.43-4.938-1.83-2.56-4.48-4.113-7.407-4.39-3.016-.272-5.94.642-8.045 2.653l-.64.64c-1.646 1.372-3.657 2.286-5.67 2.56-1.735.273-3.474.184-5.118-.273-1.738-.457-3.383-1.373-4.846-2.652-1.19-1.098-2.652-1.92-4.115-2.377-1.098-.365-2.286-.457-3.475-.457h-.64c-2.925.274-5.668 1.83-7.405 4.39-2.012 2.834-5.03 4.57-8.23 4.938-2.467.365-5.027-.092-7.313-1.463-2.012-1.19-4.297-1.738-6.492-1.555-.73.092-1.463.273-2.103.457-2.926 1.006-5.12 3.018-6.4 5.852-2.377 5.667-8.868 8.593-14.72 6.58-2.743-.913-5.943-.638-8.594.915-1.372.824-2.377 1.83-3.383 3.293l-.274.457-.914-.914.183-.274c.913-1.28 2.193-2.377 3.656-3.29 3.017-1.737 6.49-2.105 9.69-.915 5.03 1.737 10.88-.82 12.984-5.76 1.28-3.108 3.93-5.485 7.223-6.583.823-.273 1.737-.457 2.56-.55 2.377-.272 4.846.276 7.04 1.556 2.103 1.28 4.48 1.738 6.766 1.463 2.833-.365 5.485-1.92 7.222-4.39 2.103-2.833 5.12-4.66 8.502-4.937h.823c.822 0 1.555.09 2.377.183 2.285.365 4.39 1.463 6.125 3.018 1.28 1.19 2.743 2.013 4.297 2.378 1.463.365 3.017.457 4.48.273 2.01-.272 3.93-1.187 5.485-2.65 2.56-2.376 5.943-3.474 9.326-3.108 3.383.275 6.49 2.104 8.502 4.938 2.285 3.2 6.125 4.846 9.783 4.39 1.463-.185 2.926-.642 4.205-1.464 2.012-1.19 4.207-1.736 6.492-1.646 1.098 0 2.102.275 3.2.55 3.29 1.097 5.942 3.474 7.222 6.583 2.104 5.027 7.77 7.496 12.984 5.76 3.29-1.098 6.855-.732 9.69.914 2.927 1.736 5.028 4.662 5.67 7.955 1.005 5.393 6.032 9.143 11.427 8.41 3.475-.365 6.766.64 9.326 2.926 2.56 2.47 3.93 5.668 3.93 9.05-.09 5.487 4.114 10.15 9.51 10.608 3.292.182 6.583 1.92 8.595 4.754 2.01 2.742 2.65 6.217 1.92 9.6-1.28 5.303 1.828 10.79 7.13 12.344 3.2.914 5.853 3.29 7.315 6.49 1.37 3.11 1.37 6.584-.092 9.783-2.377 5.03-.457 10.88 4.39 13.623 3.017 1.645 5.12 4.57 5.76 7.77.73 3.292 0 6.767-2.103 9.51-3.293 4.388-2.56 10.604 1.463 14.17 2.56 2.286 4.113 5.58 4.113 8.962s-1.462 6.582-4.112 8.96c-4.023 3.565-4.756 9.874-1.463 14.17 2.01 2.562 2.742 6.034 2.102 9.51-.64 3.29-2.834 6.216-5.852 7.77-4.754 2.652-6.674 8.594-4.39 13.623 1.464 3.2 1.464 6.674.093 9.783-1.28 3.018-3.932 5.395-7.314 6.492-5.21 1.645-8.32 7.13-7.13 12.342.82 3.29.18 6.766-1.92 9.6-2.105 2.744-5.122 4.48-8.595 4.754-5.396.55-9.603 5.213-9.51 10.607.09 3.473-1.372 6.766-3.933 9.05-2.56 2.286-5.94 3.292-9.326 2.927-5.392-.64-10.42 3.11-11.52 8.412-.638 3.383-2.74 6.31-5.667 7.953-3.018 1.738-6.492 2.104-9.69.914-5.03-1.737-10.882.823-12.983 5.76-1.28 3.108-3.932 5.485-7.223 6.583-3.2 1.006-6.676.64-9.69-1.098-4.665-2.834-10.79-1.463-13.9 3.018-2.01 2.742-5.118 4.572-8.5 4.938h-1.37zm-60.162-6.766c-1.188 0-2.468-.184-3.657-.55-3.292-1.097-5.943-3.474-7.223-6.583-2.103-5.026-7.77-7.495-12.983-5.76-3.292 1.1-6.857.733-9.69-.913-2.927-1.736-5.03-4.662-5.67-7.953-1.005-5.395-6.033-9.145-11.428-8.412-3.383.365-6.766-.732-9.326-2.926-2.56-2.47-3.93-5.668-3.93-9.05.09-5.487-4.115-10.15-9.51-10.608-3.292-.182-6.583-1.92-8.594-4.754-2.01-2.742-2.65-6.217-1.92-9.6 1.28-5.303-1.83-10.79-7.13-12.344-3.2-.914-5.853-3.29-7.315-6.49-1.373-3.11-1.373-6.584.09-9.783 2.377-5.03.457-10.88-4.39-13.623-2.924-1.555-5.027-4.48-5.76-7.77s0-6.767 2.104-9.51c3.29-4.388 2.56-10.604-1.463-14.17-2.56-2.286-4.113-5.58-4.113-8.962s1.463-6.582 4.114-8.96c4.023-3.565 4.755-9.874 1.464-14.17-2.012-2.562-2.834-6.126-2.103-9.51.64-3.29 2.835-6.216 5.853-7.77 4.754-2.652 6.674-8.594 4.388-13.623-1.46-3.2-1.46-6.675-.09-9.784 1.28-3.018 3.932-5.395 7.314-6.492 1.463-.365 2.926-1.188 4.114-2.377l.09-.09h1.647l-.823.822c-1.188 1.187-2.743 2.103-4.57 2.65-3.018.915-5.304 2.925-6.492 5.67-1.28 2.833-1.19 5.94.09 8.685 2.652 5.576.458 12.252-4.936 15.268-2.65 1.555-4.572 4.115-5.21 7.04-.732 2.927 0 6.034 1.828 8.503 3.75 4.846 3.017 11.887-1.646 16-2.286 2.012-3.565 4.938-3.565 7.863 0 3.108 1.28 5.942 3.566 7.862 4.663 4.023 5.395 10.97 1.646 16-1.83 2.377-2.47 5.486-1.83 8.502.732 3.018 2.56 5.578 5.212 7.04 5.303 2.927 7.497 9.692 4.937 15.27-1.28 2.743-1.37 5.85-.09 8.685 1.28 2.743 3.565 4.845 6.49 5.67 5.944 1.827 9.418 7.952 7.955 13.987-.64 2.834 0 6.033 1.737 8.502 1.83 2.468 4.48 4.022 7.497 4.296 6.125.55 10.88 5.852 10.788 11.98-.09 3.106 1.188 5.94 3.383 7.952 2.195 2.104 5.12 3.018 8.23 2.652 6.217-.732 11.885 3.383 12.982 9.418.64 3.107 2.47 5.668 5.03 7.13 2.56 1.556 5.667 1.83 8.593.915 5.76-2.012 12.25.914 14.72 6.582 1.28 2.836 3.474 4.938 6.4 5.852 2.926 1.006 5.943.64 8.594-1.006 3.107-1.827 6.856-2.192 10.056-.82l.09.09 1.28 1.92-1.37-.64c-3.11-1.37-6.584-1.098-9.51.64-1.643.913-3.838 1.554-5.94 1.554zm78.08-17.19l1.464-1.736h.18c22.95-6.035 44.07-18.195 61.075-35.2 25.602-25.6 39.68-59.52 39.68-95.636 0-36.205-14.078-70.217-39.68-95.633-25.508-25.6-59.428-39.68-95.633-39.68-23.68 0-46.903 6.216-67.2 17.827l-.275.182-1.005-1.005.548-.275c20.48-11.795 43.977-18.104 68.022-18.104 36.572 0 70.95 14.172 96.732 39.863 25.875 25.874 40.045 60.16 40.045 96.73 0 36.57-14.263 70.858-40.046 96.73-17.28 17.282-38.766 29.624-62.264 35.66l-1.644.274zm-72.41-1.555l-1.19-.366c-21.303-6.674-40.137-18.012-56.045-33.92-25.875-25.965-40.137-60.252-40.137-96.732 0-21.76 5.21-43.336 14.994-62.354l.274-.55 1.007 1.007-.183.275c-9.783 19.107-14.72 39.86-14.72 61.62 0 36.208 14.08 70.22 39.68 95.636 15.452 15.543 33.92 26.79 55.04 33.555l.183.093 1.097 1.736zm6.4-74.057l-.275-.273-34.103-36.664 1.006-1.006 33.646 36.115 97.736-57.053.55 1.19-.368.183-98.194 57.508zm-.092-11.155l-34.47-36.938 1.098-.822 33.555 36.023 97.83-56.96.548 1.19-98.56 57.508zm-.092-11.154l-.273-.273-34.194-36.663 1.097-.822 33.554 36.023 97.736-57.053.55 1.19-.366.18-98.103 57.42zm-.09-11.062l-34.65-37.303 99.017-57.784 34.56 37.303-.73.364-98.197 57.418zm-32.64-36.938l32.73 35.11 96.55-56.413-32.73-35.198-96.55 56.502zm42.33 23.223l-.365-.365c-2.47-2.56-7.314-3.018-10.97-1.006l-.367.365-15.543-16.73.73-.366c1.83-1.096 3.018-2.742 3.293-4.387.183-1.463-.274-2.744-1.28-3.842l-.548-.547.548-.275 69.76-40.686.365.365c2.377 2.56 7.406 3.018 10.88.914l.366-.365 15.542 16.733-.73.365c-1.83 1.098-3.018 2.742-3.293 4.39-.183 1.462.274 2.74 1.28 3.84l.55.548-70.22 41.05zm-6.307-3.932c2.56 0 4.846.824 6.492 2.287l67.93-39.682c-.913-1.188-1.278-2.65-1.005-4.205.273-1.92 1.463-3.656 3.29-4.938l-13.53-14.537c-4.023 2.012-9.143 1.646-11.885-.914l-67.932 39.498c.915 1.188 1.28 2.65 1.006 4.205-.275 1.92-1.464 3.655-3.293 4.937l13.532 14.537c1.735-.824 3.564-1.19 5.393-1.19zm-13.715-43.976H71.363l-.092-.276h-.182l.183-.182-.09-.55L81.42 690.2l-10.332-10.332-.09.092-10.973-11.246-.274-.365-12.524-12.71-4.663-4.845-.73-.64-7.498-7.68 1.097-.823 11.246 11.52 13.257 13.53.183-.09.55.73 10.604 10.97.092-.09L83.067 690.2l-9.874 10.332h57.326v-54.035l-8.23 8.23-12.982-13.075-.092.092-13.076-13.076-8.87-8.777-.547-.55-.274-.273-11.43-11.612v-.092l-5.028-5.03.914-.913 5.67 5.576v.092l11.52 11.52 9.782 9.692-.09.09 11.793 11.703.64.64 12.16 12.16 8.687-8.685.366.182.09-.09v.09l.46.184v57.234h-.095zm33.646-59.888H154.47l-6.582.092v-1.37h6.766l.092-.093 4.663-5.94-4.664-5.943h-6.857v-1.37h6.308l.366-.093h46.172v1.37h-8.686v11.978h8.777v1.37H176.23l-2.284-.09h-7.314l.092.09h-1.19zm12.708-1.28h12.525v-11.976h-7.77l-4.755 11.977zm-14.08 0l-3.84-4.845-3.84 4.846h7.68zm1.647-.09h10.24l-4.573-11.886H165.9l-4.664 6.033 4.573 5.85zm7.13-11.886l4.296 10.97 4.297-10.97h-8.594zm-16.366 0l3.84 4.846 3.84-4.846h-7.68z"/></svg>