<svg xmlns="http://www.w3.org/2000/svg" width="350" height="350" viewBox="0.5 568.5 350 350"><path fill="#071B36" d="M190.8 901.2c-3 0-6-1.2-8-3.2-4.1-3.7-10.4-3.7-14.4 0a12 12 0 0 1-18-2 10.6 10.6 0 0 0-14-3c-3 1.9-6.5 2.3-9.8 1.2-3.2-1-6-3.6-7.2-6.7-2.1-5-8-7.6-13.2-5.9-3.2 1.1-6.8.9-9.8-.9a12 12 0 0 1-5.7-8c-1-5.4-6-9.2-11.7-8.5-3.4.3-6.8-.8-9.4-3-2.5-2.2-4-5.5-4-9.1 0-5.6-4.1-10.2-9.6-10.7-3.4-.3-6.5-2-8.7-4.8-2-2.7-2.7-6.3-2-9.7 1.3-5.4-2-11-7.2-12.5-3.3-1-6-3.3-7.4-6.5a12 12 0 0 1 0-10c2.4-4.9.3-10.9-4.4-13.6-3-1.8-5.1-4.5-5.9-7.9-.8-3.4 0-7 2.2-9.6a10.6 10.6 0 0 0-1.4-14.3c-2.6-2.2-4.1-5.5-4.1-9s1.4-6.8 4-9c4.3-3.6 5-10 1.5-14.3-2-2.8-2.8-6.2-2.2-9.6s2.9-6.3 6-7.9c4.8-2.6 6.7-8.6 4.5-13.7a12 12 0 0 1-.1-9.9c1.4-3 4-5.5 7.4-6.6 5.3-1.6 8.5-7 7.2-12.4-.7-3.3 0-7 2-9.7a12 12 0 0 1 8.7-4.8c5.5-.5 9.7-5.2 9.6-10.7 0-3.5 1.5-6.8 4-9.2 2.6-2.3 6-3.4 9.4-2.9 5.5.7 10.6-3 11.6-8.5a11.8 11.8 0 0 1 15.5-9c5.2 1.9 11-.7 13.2-5.8a11.8 11.8 0 0 1 17-5.6 10.5 10.5 0 0 0 14-3c2-2.8 5-4.7 8.6-5 3.5-.4 6.9.7 9.4 3 4 3.8 10.3 3.8 14.3 0l.2-.1.2-.2a12 12 0 0 1 17.5 2.3c3.2 4.6 9.4 5.8 14 3 3-1.8 6.5-2.2 9.8-1 3.2 1 6 3.5 7.2 6.6 2.2 5 8 7.6 13.2 5.8 3.2-1 6.8-.8 9.8 1 3 1.7 5 4.6 5.7 8 1 5.4 6 9.1 11.7 8.5 3.4-.4 6.8.7 9.4 3 2.5 2.2 4 5.5 4 9-.1 5.6 4.1 10.3 9.6 10.8 3.4.2 6.5 2 8.7 4.8 2 2.7 2.7 6.3 2 9.7-1.3 5.4 2 10.9 7.2 12.4a12 12 0 0 1 7.3 16.5c-2.3 5-.2 11 4.5 13.7 3 1.7 5.1 4.5 5.9 7.9.7 3.4-.1 7.1-2.2 9.6a10.6 10.6 0 0 0 1.4 14.2c2.6 2.3 4.1 5.6 4.1 9s-1.4 6.8-4 9.1a10.4 10.4 0 0 0-1.5 14.3 12 12 0 0 1 2.2 9.6c-.7 3.4-2.9 6.3-6 7.9a10.6 10.6 0 0 0-4.5 13.7 12 12 0 0 1 .1 9.8 12.5 12.5 0 0 1-7.4 6.6 10.6 10.6 0 0 0-7.2 12.5c.7 3.3 0 7-2 9.7a12 12 0 0 1-8.7 4.8c-5.5.5-9.7 5.1-9.6 10.7 0 3.5-1.5 6.8-4 9.1-2.6 2.4-6 3.5-9.4 3-5.5-.8-10.6 3-11.6 8.5a11.8 11.8 0 0 1-15.5 9c-5.1-1.9-11 .7-13.2 5.8-1.3 3-4 5.6-7.2 6.7-3.3 1-6.8.6-9.8-1.1a10.5 10.5 0 0 0-14 3c-2 2.8-5 4.6-8.6 5l-1.2.1zm-15.1-7.2c3 0 5.8 1 8 3 2.1 2.1 5.2 3.2 8.3 3a10 10 0 0 0 7.5-4.5 12 12 0 0 1 16-3.4c2.6 1.6 5.7 2 8.6 1 3-1 5.3-3.1 6.4-5.9 2.4-5.7 9-8.7 14.9-6.7 2.9 1 6 .7 8.6-.9a11 11 0 0 0 5.2-7.1c1-6.1 7-10.2 13.1-9.5 3 .3 6-.6 8.3-2.7 2.2-2 3.5-5 3.5-8 0-6.3 4.7-11.6 10.9-12 3.1-.4 5.9-2 7.6-4.4 1.8-2.5 2.5-5.6 1.7-8.6-1.4-6 2.1-12.2 8-14 3-1 5.5-3 6.7-5.8 1.2-2.8 1.1-6-.1-8.8a12 12 0 0 1 5-15.4 10.5 10.5 0 0 0 3.3-15.6c-3.9-5-3.1-12.1 1.7-16.3a10.5 10.5 0 0 0 0-15.9 12.1 12.1 0 0 1-1.7-16.2 10.6 10.6 0 0 0-3.3-15.6 12 12 0 0 1-5-15.4c1.2-2.7 1.2-6 0-8.8a10.4 10.4 0 0 0-6.5-5.8c-6-1.8-9.5-8-8-14 .7-3 0-6-1.8-8.6-2-2.5-4.6-4-7.6-4.3-6.3-.6-11-5.9-10.9-12.1 0-3.1-1.3-6-3.5-8-2.1-2-5.2-3-8.3-2.7-6.2.7-12-3.4-13-9.5-.7-3-2.5-5.6-5.2-7.2a10.7 10.7 0 0 0-8.7-.9 11.8 11.8 0 0 1-14.8-6.6 10.4 10.4 0 0 0-15-5 12 12 0 0 1-16-3.4 10.4 10.4 0 0 0-7.5-4.3c-3-.3-6 .7-8.3 2.8a11.9 11.9 0 0 1-16.3 0c-2-2-5.2-3.1-8.3-2.8a10 10 0 0 0-7.5 4.3 12 12 0 0 1-15.9 3.4c-2.6-1.5-5.7-1.9-8.7-1-2.9 1-5.3 3.2-6.4 6a11.9 11.9 0 0 1-14.8 6.6c-2.9-1-6.1-.6-8.7 1a11 11 0 0 0-5 7c-1.2 6.2-7 10.3-13.2 9.6a10.5 10.5 0 0 0-11.8 10.7c0 6.3-4.7 11.6-11 12-3 .3-5.8 1.9-7.5 4.4a10.4 10.4 0 0 0-1.7 8.5c1.4 6-2.2 12.3-8 14.1-3 1-5.5 3-6.7 5.8-1.3 2.8-1.2 6 .1 8.8a12 12 0 0 1-5 15.4 10.5 10.5 0 0 0-3.3 15.6c3.7 5 3 12-1.7 16.2a10.5 10.5 0 0 0 0 16 12.1 12.1 0 0 1 1.7 16.1 10.6 10.6 0 0 0 3.3 15.7 12 12 0 0 1 5 15.4 10.5 10.5 0 0 0 6.5 14.5c6 1.9 9.5 8 8 14.1-.7 3 0 6 1.8 8.6 2 2.5 4.6 4 7.6 4.3 6.3.6 11 5.9 10.9 12A10.5 10.5 0 0 0 79 863c6.2-.6 12 3.5 13 9.6a10.7 10.7 0 0 0 13.8 8c5.9-2 12.4.9 14.8 6.7 1.2 2.8 3.6 5 6.4 6 3 .9 6 .6 8.7-1a12 12 0 0 1 16 3.3 10.4 10.4 0 0 0 15.8 1.6c2.2-2 5.2-3.1 8.2-3.1zm-.3-12.4c-23.1 0-45-5.4-65-16.2h-.2l-.2-.1-.1-.1-.3-.1v-.1c-2.7-1.5-5.3-3-7.9-4.7h-.2v-.1c-2-1.2-3.8-2.5-5.6-3.8h-.4v-.3c-6.3-4.5-12.2-9.5-17.7-15l-4-4h-.2v-.3a137.5 137.5 0 0 1-36.2-93.3c0-36.8 14.3-71.5 40.5-97.7a137.6 137.6 0 0 1 195.3.2c26 26.2 40.4 60.8 40.4 97.7a137.3 137.3 0 0 1-46.3 103.2v.2h-.2a83.1 83.1 0 0 1-4.2 3.5l-.7.7v-.1c-3.8 3-7.8 6-12.2 8.8h-.3l-.6.5h-.2a134.6 134.6 0 0 1-36.6 16.2l-2 .5-1 .3v.1h-.4c-4.1 1-8.3 2-13 2.6h-.6a145 145 0 0 1-19.9 1.4zm-2.3-134.5l2.8 133.2c6 0 12-.5 18.9-1.4v-.1l4.7-99.5L190 755l5.4-30.7v-.8h.1v-.2h.1l.8.2 8.7-.2V720l9.7-.2v-3.5l9.1-.2h.2v-2.9l10.2-.2h.8l-.2.2 12.8 9.2.5 24h-.1L231.4 776l.9 92c5.6-2.6 11-5.6 16.3-9l1.3-39.4-8.4-21.8 5.9-28.6 7.6-.2v-2.7l8.6-.2v-3.1l8.6-.2V760l8.9-.2.3-.2.2.2h.5l-.2.2 11.4 8.3.3 21.5v.1l-14.8 24.7h.1l-.3.3-.2.3.3 17.8.2-.2v.1a137 137 0 0 0-6.7-186.3 136.5 136.5 0 0 0-193.3.2 136 136 0 0 0-5.2 188l.9-39.4-17.9-30 .5-25.3 13.3-9.6v-.2h.3l.3-.2.3.3h.2l10.4.2-.1 3 10 .2v3.6l10 .2v3l9.1.3h1v1.1l5.7 32.6-10 25.4 3 64c4 2.2 8 4.1 12.8 6l5.4-116.7-13.3-34.2v-.1l8-44.5v-.3h.8l12.7-.3v-4l13.5-.3v-5l13.2-.2h.2l-.1-4.1 14-.3.2-.2.1.1h.6l-.2.3 18 12.8v.4l.6 33.3-24 40.3zM152 878.3c7.5 1.2 15 2 22.6 2l-2.8-132.7h-19l-.8 130.7zm48.8-98.3l-4.5 98.7 6.6-1.2 2.9-97.5h-5zm-57.6 96.4c2.5.7 5 1.1 7.4 1.6l.8-130.4h-5.2l-3 128.8zM207 780l-2.8 97.2 3.6-.8 2.6-96.4H207zm4.8 0l-2.7 96c7.5-1.9 14.7-4.3 21.7-7.4L230 775l16.8-29-.4-22.9-11.7-8.5-4.1 6 4.9 7.7.3 16-17.2 2.5-6.2 13.4v.8l-.5 17.4h.4v1.4h-.4v.2zM125 870.6A139 139 0 0 0 142 876l3.4-149-.3-.2 5.3-11.8-12-8.8h-.1v-.1l-14 .3-.4-25-6.7 37.4 13.2 34-5.5 117.6h.2zm-22-11.2l6.6 4-3-62.7h-5.2l1.5 58.7zm-6-4c1.5 1.2 3 2.2 4.5 3.1l-1.4-57.9h-4l.9 54.9zm145.8-57.7l8.4 21.7-1.3 38.8c4.2-2.7 8-5.5 11.7-8.5l-1.4-46.8v-.7l3-6.7-7.2-5.6-9.2.2-.3-13.3-3.7 20.9zM75 836.4l3.7 3.7a131 131 0 0 0 16.8 14.3L94.5 781v-.7l-3.3-7.1-.4-.2.2-.2-3.3-7-18-2.7.2-16.7 5.1-8-4.3-6.3-12.3 8.8-.5 24.3 17.9 30-.7 41.2zm188 12v.3l2.7-2.4v-30H262l1 32.1zm4.1-32.1V845a114.4 114.4 0 0 0 10-10h-.2l.3-.3-.3-18.4h-9.8v-.1zm-5.3-1.3h15.2v-.1l15-25.3-.4-20.5-10.4-7.5-3.6 5.2 4.4 6.9.3 14.3-15.5 2.3-2 4.7-.2.1-3.3 7.5.5 12.4zM96.1 799.4h10.6l9.6-25-4.4-25.3-.4 16.2-9.9-.1h.1-.6l-8.3 8 2.9 6.6v.8l.4 18.8zm160.7-10.6l7.1 5.3 2.3-5h.3l14.6-2v-5.8l-7.3.2v4.6l-8.5.2v1.7l-8.5.2v.6zm-9-18.2l.4 18.1 7.2-.1v-.9l-.4-17.3-7.2.2zm8.5-1.7l.5 18 7.1-.2-.4-19.2-7.2.2v1.2zm8.5-4.6l.5 20.7 7.2-.2-.5-20.6-7.2.1zm8.6-.4l.5 16.3 7-.1v-5.9l-4.7-7.3 3.7-5.5-6.5.2.1 2.2zm-63 14.7l.6-17.8v-.8l4-8.6-8-4.7-.7-.4-10.2.2-.3-15.6-4.3 24 9.1 23.7h9.8zM71.2 762l17.5 2.7L92 772l8-7.7v-1l-10-.2v-2h-.3l-9.8-.2v-5.4h-.1l-8.5-.2-.1 6.8zm30.2 1.8l8.8.2.5-21.7-8.8-.2-.5 21.7zm-10-2.1h8.7l.4-20.1.1-2.6-8.8-.2-.4 22.9zm-10-2.3l8.6.2.4-22.1.2-2.3-8.7-.2-.4 20.4-.2 4zm-10-5.6l8.6.2.4-20.4h.1l.1-1.6-8.1-.2 4.4 6.6-5.4 8.6-.2 6.7h.2v.1zM207 745l8.6 5 2-4.5h.3l16.4-2.5-.1-6.4-8.1.2v5.2l-9.6.2v2l-9.6.1v.7zm-60.8 1.3h26l23.5-39.7-.7-32.7-16.8-12.1-6 8.7 7 11 .4 22.1-24.2 3.7-3.5 7.6-5.3 11.6h.1v.8l-.5 19zm50.7-21.6l.5 20.5 8.2-.2v-1.3l-.4-19.1-8.3.1zm9.7-1.6l.4 20 8.2-.3-.5-21.5-8.2.2v1.6zm9.6-2.1l.4 20 8.2-.3-.1-3.7h-.1l-.4-19.4-8.1.2v3.2zm9.5-3.7l.4 18.2 8-.1v-6.6l-5.3-8.3 4.3-6-7.6.1.1 2v.7zm-86.5-12.2l11.7 8.8 3.7-8h.3l23.3-3.5-.2-9.7-12 .2.2 7.3-13.6.3v2.8l-13.4.2v1.6zM125 675.6l.7 29.5 12.1-.3v-4.6l-.6-25-12.2.4zm13.6-.7l.6 27.4 12-.3-.7-31-12 .3v3.6zm14 22.1v2.1l12.2-.2-.2-6.9-.5-26.2-12.2.3.1 3.5h.1l.5 27.4zm12.8-31.7l.6 26.3 12-.2-.1-9.5-7.3-11.5 6.3-9.1-11.5.3v3.7zm4.9-20.5h-6.5v-1.3h6.5l4.8-6.3-4.5-5.8h-6.7V630H188v1.4h-6.7l-4.6 5.8 4.8 6.3h6.4v1.3h-17.3m9.3-1.3l-4-5.2-4 5.2h8zm-7.8-12.1l3.8 4.8 3.7-4.8h-7.5z"/></svg>