<svg xmlns="http://www.w3.org/2000/svg" width="350" height="350" viewBox="0.5 568.5 350 350"><path fill="#071b36" d="M190.8 901c-3 0-6-1.1-8-3.1-4-3.8-10.4-3.8-14.4 0a12 12 0 0 1-18-2 10.8 10.8 0 0 0-14-3 11.9 11.9 0 0 1-17-5.6c-2.2-5-8-7.6-13.2-5.8-3.2 1.1-6.7.8-9.7-1a12 12 0 0 1-5.7-8 10.6 10.6 0 0 0-11.6-8.5c-3.5.5-6.9-.6-9.4-2.9-2.6-2.4-4-5.6-4-9.1 0-5.6-4.2-10.3-9.7-10.7a12 12 0 0 1-10.7-14.5c1.3-5.4-1.9-11-7.2-12.5a12 12 0 0 1-7.3-16.5c2.3-4.9.3-11-4.5-13.7-3-1.6-5.2-4.5-5.8-7.8a12 12 0 0 1 2.2-9.6 10.4 10.4 0 0 0-1.5-14.3 12.2 12.2 0 0 1-4.1-9c0-3.5 1.5-6.8 4.1-9.1 4.2-3.7 4.8-9.9 1.5-14.3-2.1-2.4-3-6-2.2-9.6.8-3.4 2.9-6.3 6-7.8 4.8-2.7 6.7-8.6 4.4-13.7a12 12 0 0 1-.1-10c1.5-3 4.1-5.4 7.4-6.5 5.2-1.6 8.4-7.1 7.2-12.4-.7-3.3 0-7 2-9.7l.3-.4.3-.4.4-.4.8 1.2-.1.2-.3.3v.1c-2 2.6-2.5 5.8-2 8.7a11.8 11.8 0 0 1-8 14 10.5 10.5 0 0 0-6.5 14.5c2.7 5.8.5 12.6-5 15.6-2.6 1.3-4.5 4-5.2 7-.6 3.1.1 6.1 2 8.6 3.7 5 2.9 12-1.8 16.2-2.4 2-3.7 5-3.7 8s1.4 5.9 3.7 7.9a12 12 0 0 1 1.7 16.2 10.5 10.5 0 0 0 3.3 15.6c5.4 3 7.6 9.9 5 15.5a10.5 10.5 0 0 0 6.5 14.5c6 1.8 9.6 8 8 14-.6 3.1 0 6.2 1.8 8.7 2 2.5 4.6 4 7.6 4.3a12 12 0 0 1 10.9 12c0 3.2 1.3 6 3.5 8 2.2 2.1 5.2 3.1 8.3 2.7 6.2-.7 12 3.4 13 9.6a10.7 10.7 0 0 0 13.9 8 12 12 0 0 1 14.8 6.7c1 2.8 3.5 5 6.4 6s6 .6 8.7-1a12 12 0 0 1 15.9 3.3c1.8 2.6 4.5 4.1 7.5 4.4 3.2.3 6.2-.8 8.3-2.9 2.4-2 5.1-3 8.1-3s5.9 1 8 3c2.4 2.1 5.3 3.2 8.4 2.9a10 10 0 0 0 7.5-4.4c1.3-1.8 3.1-3.2 5-4.1 2.2-1 4.8-1.3 7.2-.8 1.2.3 2.5.8 3.7 1.4 2.7 1.6 5.8 2 8.7 1 2.8-.9 5.1-3 6.4-6 2.4-5.7 8.9-8.6 14.8-6.6 2.8 1 6.1.6 8.7-1 2.7-1.4 4.6-4 5.1-7 1.2-6.2 7-10.4 13.2-9.5 3 .3 6-.6 8.3-2.7 2.2-2 3.5-5 3.5-8-.1-6.4 4.6-11.7 10.8-12.1 3.2-.3 5.9-1.8 7.6-4.3 1.9-2.6 2.5-5.7 1.8-8.6a11.8 11.8 0 0 1 8-14 10.5 10.5 0 0 0 6.5-14.5 11.9 11.9 0 0 1 5-15.6c2.7-1.3 4.6-4 5.2-7 .7-3.1 0-6.1-1.9-8.6-3.7-5-2.9-12 1.8-16.2 2.3-2 3.6-5 3.6-8s-1.3-5.9-3.6-7.9a12 12 0 0 1-1.8-16.2 10.5 10.5 0 0 0-3.3-15.6c-5.4-3-7.6-9.9-5-15.5a10.4 10.4 0 0 0-6.5-14.5 11.9 11.9 0 0 1-8.2-13.4v-.1l2.5-5.3-1 5c-1.3 5.3 1.9 10.9 7.2 12.4a12 12 0 0 1 7.3 16.5c-2.3 5-.3 11 4.5 13.7 3 1.6 5.2 4.6 5.8 7.9a12 12 0 0 1-2.2 9.6 10.4 10.4 0 0 0 1.5 14.2 11.9 11.9 0 0 1 0 18.1c-4.2 3.8-4.8 10-1.3 14.3a11.7 11.7 0 0 1-3.7 17.5 10.6 10.6 0 0 0-4.5 13.7 12 12 0 0 1 0 9.8 12.5 12.5 0 0 1-7.3 6.6 10.7 10.7 0 0 0-7.3 12.5c.8 3.2 0 7-2 9.6a12 12 0 0 1-8.7 4.9c-5.4.5-9.6 5.1-9.6 10.7 0 3.6-1.4 6.8-4 9.1-2.5 2.3-6 3.3-9.4 3a10.7 10.7 0 0 0-11.7 8.5 11.8 11.8 0 0 1-15.4 9c-5.3-1.8-11 .7-13.2 5.8a11.8 11.8 0 0 1-17 5.6 11 11 0 0 0-9.7-.6c-1.7.6-3.2 2-4.4 3.6a12 12 0 0 1-8.6 5c-.2.3-.8.3-1 .3zm-15.5-19.5c-36.9 0-71.5-14.4-97.7-40.4a137.4 137.4 0 0 1-40.4-97.7c0-26.3 7.4-51.8 21.4-73.8l.4-.7.8 1.4-.2.3A136 136 0 0 0 78.7 840c25.8 25.9 60 40.1 96.7 40.1a135.6 135.6 0 0 0 123.1-77.6l.1-.1.2-.2a135.9 135.9 0 0 0 13.2-59c0-22.7-5.6-45.3-16.4-65.2l-.1-.3.8-1.4.4.8a139 139 0 0 1 16.4 77.4l-.1 1.1a135.2 135.2 0 0 1-12.5 46v.2l-.2.2c-7 14.4-16.1 27.5-27.5 38.7a136.4 136.4 0 0 1-97.5 40.7zm2.2-22.3h-.1v-.3l-.1.1-.1-.2-.4-.6-.3-.7-6.3-11.3-9.5 5.2-.1.6-.5-.2-.5.3-.1-.5h-.2v-.5l-4.1-12.4-6.9 2-.3.5-.3-.3h-.4l-.1-.4-.3-.1.1-.2.1-.1-1.5-6.6-8.7.3v-.8h-.2v-.1l.2-.1V824h.4l22-20.1h-.2l1-1.1c.4-1.1.6-2.5.8-4.2l-.3-.3.4-.3.2-5v-57.2h7.7v60.7l4.7 3.2v-64h8.3v64l4.9-3.4v-60.6h7.8v57.1l.1 5.3.3.2h-.2c.2 2 .5 3.4 1 4.6l.3.6 13 12.2v.2l9 8.2v8.3l.2.4-.2.2v.7h-1l-4.3-.1v-.2h-3.2l-1.5 7h-.1l-.2 1-.7-.1v-.1l-7-2-4 12.2v.1l-.4 1-1-.5-9.6-5.2-6 10.8-.4.8h.1l-.2.2v.1l-.3.1-.2.4v.4-.2l-.2.2v.4l-.2-.2-.2-.6zm.8-44.7v41.1l6-10.2-5.3-31h-.7zm-7.2 30.8l5.8 10v-41h-.6l-5.2 31zm14.3-.2l8.7 4.7-12-36.1-1.7.4v.1l5 31zm-12.3-31.4l-12 36 8.8-4.8 5.1-30.8c-.6 0-1.1-.3-1.7-.4h-.2zm10.2-.5l11.8 35.8.1-.4 3.7-10.7-14.3-25.3-1.3.6zm-27 24.6l3.8 11 11.9-35.6h-.1l-1.2-.5-14.4 25.1zm43.7-.4l5.9 1.8-18.6-28.2-.7.5-.5.2v.1h-.1l-.2.1 14.2 25.5zM168 811l-18.5 28 5.7-1.7 14.3-25.4a5 5 0 0 1-1.5-.9zm20.6-.8l18.6 28.2 1.3-5.5-18.5-23.7h-.1c-.2 0-.2.2-.3.2l-1 .8zM147 832.7l1.3 5.7 18.7-28.2v-.1l-1-.8v.3l-.5-.4-18.5 23.5zm66.9-.6l2.2.1-3.3-3.8-19.9-21.9-1.8 1.7 14.7 18.6 4 5h4.2l-.1.3zm-74.6 0h6.2l.2-.2.1-.1 18.5-23.6c-.7-.6-1.3-1.1-1.7-1.7l-.2.3h-.1l-23 25.2zm-.7-7.4v6.3l23-25.4-1-1-22 20.1zm73.3.7l5 5.5v-6.3l-8.5-8-13.5-12.2v.2l-.1-.2-1 1 16.8 18.4 1.3 1.6zM176.6 813l.3.1h.5l.4-.2.3.2h.3l.7-.2h.6l1.9-.6-.1-.2.9-.2.5-.2 1-.4-.1-.1V811h.5l.5-.3.2-.1v.1l1.9-1.2.3-.2.4-.3 1.5-1 .3-.3v-.4l.3.2 2.1-1.9.4-.3.3-.3.2-.4h.1l1.1-1.4.1-.1c-.4-1-.6-2-.8-3.5-2 2-8 8.3-15.1 8.7h-1c-6.6-.4-12.4-5.7-15-8.4v.2h-.2c-.2 1.2-.4 2.2-.7 3v.2l1 1.2v-.2l.2.1.4.3.5.7 2.1 2 .3.2v.1l.4.3 1.3 1 .1-.1.3.3 1 .3-.3.3 1.3.8v-.1l.8.5h.6l-.2.3h.2l.7.4.6.1.8.3c.5.3 1 .5 1.6.5v-.3l.6.4.2.1h.6l.3.3zm-14.3-15c6.8 7.2 12 8.8 15.2 8.9v-.1c7 0 13.7-7 15.6-9.2V737h-5v60l-6.3 4.3v.3h-1.4V737h-5.5v64.6h-1.4v-.3l-6-4.3v-60h-5V793l-.2 4.7v.5zm81 42.3l-2.4-2.6-3.8.2-.5-.8 2.2-3.6-3.4-.4 4.8-7.8-8.6 10.5-1.8-3-4.6-1.4 2.6-2.8-4.9-3.3 4.7-3.6-4.3-3.7 15.1-8 2.2 2.3 2.6-.8-.5-1.7v-1.4l.3-.9.4-.6.2-.6-.1-.1L232 799a41 41 0 0 1-11.8-.1h-.3c-1-.2-1.9-.6-2.6-1-4.1-2.2-14.8-9.3-17.4-11h-.7v-51h7.7v45l.4.3a80.5 80.5 0 0 0 16.5 10.7h.6c3 1.1 6.4 1.3 9.5.6l-7.3-4.7.1-.1-4.6-3.1c-.8-.3-1.4-.7-2-1.2-5.8-4.4-9.8-7.1-10-7.2l-.3-.3.8-1h.1c.5 0 8.4 6 10 7.2h.2l2.2 1.4a20 20 0 0 0 5.4 1.5h.3c2.4.2 4.6.1 6.2 0l-3.7-2.6-.7-.6-18.7-13.3v-33h.7s5.4-.6 11.6-4.2a35 35 0 0 0 16.2-21.7 55 55 0 0 0 .3-21h-.2l-.2-1.3h.2c-1.1-8.5-2.9-16-3.6-19l-8.4 5.4c2 2.6 12.7 17.4 8.5 34.2-4.7 18.8-20.6 20.4-20.8 20.4h-.6v-.7l-.8-4.2h-74l-1 4.9h-.6c-.1 0-16-1.6-20.7-20.4-4.1-16.7 6.2-31.2 8.5-34.2l-8.5-5.4c-.7 3-2.6 10.5-3.7 19v1.4h-.7l-.6 7h.1v1.3h-.1v6.5h.4v1.4h-.2c.1 1.2.3 2.3.6 3.3l.3 1.1v.2a26 26 0 0 0 1.4 4v.1l.8 2 .6 1.2a34 34 0 0 0 10.4 12.4l.4.3c1 .8 2 1.4 3 2l2 1h.6v.3h.3v.1c1.4.7 2.6 1.1 3.7 1.5h.5v.2h.3c2.3.7 3.8.9 3.8.9h.7v32.8l-23 16.4c2.8.3 9.4.6 14-2.8l9.9-7.3.4-.2.8 1-.4.3-9.4 6.8v.2l.2.3h-.2v.1l-13.7 9.2c1.8.4 5.6.9 9.9-.8 3.7-1.4 9.3-5 16.6-10.7l.4-.3v-45.2h7.6v51h-.7c-2.2 1.5-13 8.8-17.4 11.1-2 1.1-5 1.6-9 1.6-3 0-5.2-.2-5.9-.3l-11.3 7.2.7 1.4c.5 1 .5 2.4 0 3.5l-1 1.5a58 58 0 0 1 14.8 21.2l.1.2.4.4-1.4.6-.2-.4v-.1c-1.2-3-5.8-13.5-14.8-21a7.4 7.4 0 0 1-4 1.4h-.6c-1.5-.1-2.8-.7-3.8-1.7h-.2c-.5.6-1.5 1.2-2.8 1.2-.7 0-1.4-.2-2-.5a5.4 5.4 0 0 1-2.2-6.3c-1.1-.5-3-1.4-3.2-3.7-.2-2 .7-3.7 2.6-5-1.5-1.2-2.9-2.5-4.3-3.9l-2 3.5c-.8 1.6-1.4 3.2-2 5.1-1.2 5-4 9.3-8 12.3l-5.7 4.3-.9-.5.5-6.5c.3-3.7 2-7.3 4.8-10l11.4-10-.6-.6-2.1 1.8-5.7 4.9a21.8 21.8 0 0 1-17.8 4.9l-.3-.1h-.5l-.2-.6 1.3-.8c2.7-1.4 5.4-3.4 8-6l1.5-1.5a13 13 0 0 1 9.2-3.8h4.7a50 50 0 0 1-3-3.3l-.1-.2c-3.5-1-7.3-1-11 .2l-2 .7a18.8 18.8 0 0 1-10.7.5l-9-2.2v-.5h-.3l.2-.1v-.7l3.3-1.3H53l.8-.2c-5-1.7-6.5-7.4-6.7-8.3l-.3-1 5.3 1.2c3.2.8 6.6 1.4 10 1.7 4.7.3 9.3 1.2 14 2.6h.2l.3.2a58.4 58.4 0 0 1-4.4-6.5l-2 .6c-1.6.6-3.5.9-5.4.9-2.2 0-4.7-.5-7.2-1.5-3-1.4-6-3.7-8-6.7l-2.1-2.9.1-.5.2-.5 5 1 1.5.2a21.8 21.8 0 0 1-4.5-9L49 753l.5-.3.4-.3 3.1 2.5a12 12 0 0 0 5 2.3c2 .3 4 1.2 5.7 2.6l2.5 2-.6-1.4v-.1l-.4-1.5-5.2-2.6a19 19 0 0 1-8.4-7.6 20 20 0 0 1-2.7-7.9l-.4-4.4.4-.3h.1l.4-.1 2 1.8c1 .9 2.2 1.7 3.5 2.5 1.4.7 2.9 1.7 4.2 3l2-16.4h.4v-.4l.1.3h.4l1.7 3.9c.9 1.6 1.6 3.2 2.1 4.8l5.2-6.2h.5v.2h.5v6.6c.1 6.4-.9 12.6-3 18.6l-2 6 .5.9-.2-.1 1 2.2.2.5.2.6.1.2.4 1 .2.3.5.7-.2-.2.2.5.6 1.1.4.7.3-.4v.2l2-1.6-2.2-10.3c-.3-2.8.6-5.6 2.8-7.5l7.3-6.5.4.2.2-.2v.3l.3.2-2.4 9.2c-.2 1-.4 2.4-.2 3.7a14 14 0 0 1-5 11.7l-2.9 2v.2c2.1 3.9 4.8 7.9 8.2 12.3l.4.2h.4-.1l.2.2-1-2.4c-1.7-4-1.5-8.7.3-12.7l6-13h.7l.2-.3v.3h.3l1 6.5c.2 2.5.3 5.2.2 7.7a39.7 39.7 0 0 1-3.6 14.8h-.1l-1.7 2.3.4.4.3.3.9.9h-.2l4.3 4.6c-.4-4.4-.2-13.8.8-17l.5-1.5c1.9-6.1 6-11.2 11.3-14.4l.3-.1.7.7-1 3.5c-.4 1.6-.6 3.4-.6 5.5 0 1.4 0 2.7-.3 4l.2-.2-.3.7c2.4-1.6 5-2.8 7.6-3.4l4.8-1 .3.2h.2v.2l.3.4-2.6 4.9c-1.5 3-3.7 5.7-6.7 7.9l-12.9 8.7-.2.6-.1-.1-1 1.8c2 1.5 3.5 2.7 5 4.8l.2-.1a8 8 0 0 1 1.7-.5c.6 0 1.1 0 1.7.3 0-.2 1.2-6.4 6.1-6.5 3.3 0 5 2.9 5.7 5.8v-.1l8.8-5 .7-.4.4-.3v.3l7.6-5.3-.4.2 1.8-1.2c-2.3.6-4.2.7-5.3.7l-.8.1c-2.9 0-5-.4-5.2-.4l-.2-.1-.1-.5h-.2.2l-.1-.5 24.1-17v-31l-3.3-.9v.2h-.1l-.3 13.2c-.3 3.7-2 7.2-4.7 10l-2.7 2.9-.5-.2-.4-.3v-6.7c-1 1.4-2.4 2.7-4 3.9l-3 2.3-.5-.1h-.2v-.1l-.4-.2 2-8.5-2.5 2-3.1 2.2-.4-.2-.2.2v-.3l-.3-.2 2-10.3c-1.4 1.6-3.3 3-5.3 3.8l-3.5 1.8-.4-.4-.4-.4 4-10a17.2 17.2 0 0 1-7.7 3.2l-4 .4-.1-.3-.3-.6 5.2-6 .6-.5c-1.9.7-3.9 1.1-5.9 1.2l-3.8.2-.2-.4h-.1v-.6l5.2-5.3a17 17 0 0 1-4.4.6h-.8l-4-.1v-.4H93l.2-.2-.1-.4 8-6.7-2.3.2c-2.9 0-6-.7-9.4-2l-.4-.2v-.5h-.1v-.4l7.7-3.2c-4.5-.6-9.6-2-11.3-2.6l-.6-.2h-.4v-.6l-.4-.2.4-.1v-.4l8.9-2h-.4l1.7-.4a38.7 38.7 0 0 1-14.3-7.3l-.2-.2.1-.4-.2-.2h.3v-.4l9.9-.1c-6.8-2.5-12.6-8-12.6-8l-.1-.3v-.2l-.1-.2h.2l.1-.5h9.8a52.8 52.8 0 0 1-14-9.8l-.2-.2.1-.4-.1-.2h.2l.2-.3 19.2 1.6-5.3-1c-6.8-.7-13-6.1-16.4-9.5l-.4-.3-2.8-3-.1-.3.1-.3-.3-.5.3.1.2-.4 6.7 1.3 3.3.7A42 42 0 0 1 66.3 661l-.5-.5-.1-.2-.1-.2-.3-.2-1.6-2.1v-.4l.2-.5.3-.5 4 1.3h.6l-.1.2 15 4.4 1 .3L92 665l-4.4-2-2.6-1.3-1-.4c-3.8-1.8-7-3.2-9.5-4.2-1.3-.6-2.5-1.2-3.5-1.9l-.1.1-.3-.3-.4-.1a32 32 0 0 1-9.3-9.6l-.4.3v-1.2L59 642l-.2-.3.7-.7 2.9 1.2 1.1.7 12.8 6 15 7-5.2-3c-2.8-1.8-5.6-3.4-8.4-5l-.3-.3-.5-.2c-1.8-1.1-3.6-2.1-5.1-3.2l-6.8-4H65l-.2-.2-5.6-3.5a37 37 0 0 1-11.6-17.2v-.2l.2-.3v-.2l.1.1.3-.2 15 9v-.3l-2-4.8.4-.3v-.2l.2.1.4-.2 6.7 4.7.6.5 16.4 11.6v-.1l.7.5 29.2 20.8 3.3 4.7.2-.2v.5h1.8l-.5.3c4.2.8 7.3 2.6 9.2 5.1 4.3 5.9 2.7 15.2 1.1 24.2-2.2 13-4.3 25.2 9 28v-.2h.2l2.5-12.9.8.6h.2a30 30 0 0 0 4 2.2l-.4-.3 11.2-12.7v-.2l-.3-1.2.8.9.1-.1.1-.2 8.7-6 4.2-7-8.3-8.8h-.1l-3.7-.5-4 4.8-3.8-10 11.5-4.8.4-.4v.1l8.8-4 21.1-.9v.4h.5l-.6.2.1.4-1.5 1h.2l9.1 35.8.1.4 4.7 13.7c3-1 5-2.3 5.7-2.7l.3-.2.8-.5 2.5 12.8c13.3-2.7 11.2-14.9 9-27.8v-.2c-1.6-9-3.2-18.4 1-24 2.3-3 5.8-5 10.7-5.5l3.7-4.9 12-8.6 14.8-10.6 15.4-11 .9-.5.3-.2 9.8-7 .3.1.4-.2-.1.4.3.3-1.9 4.8.2-.1-.2.2 15-9 .3.3.4.4-.1.4c-1.3 3.6-5 12.6-11.7 16.9-1.5 1-4.7 3-8.5 5.2h.1l-.5.4h-.2c0 .2-.2.2-.3.2l-.3.2-11.2 6.7-.2.2-.5.5-.1-.1-11.4 6.7 13.4-6.3v.1l.5-.2 11.8-5.7.4-.1.6-.4h.1l5.7-2.6.3.3.3-.2-.1.3.2.3v.3l-1.9 3.2h.4l-.8.8h-.1l-.2.2a31 31 0 0 1-11.8 10.3h-.2l-.3.2h-.2l-.2.2h-.3c-3.6 1.5-9.4 4.3-16.2 7.4l-.4.1-1 .5 1.4-.4v-.1l18.2-5.5v-.1l.6-.2 7.7-2.3.4.5.2-.1-.1.2.2.2-.2.3s-1.8 2.5-4.3 5.4l-.4.5-.3.3h-.1l-1 1c-1.8 1.9-5 5-8.5 7l10-1.9.2.4h.2l-.1.2.2.5-.3.2a51 51 0 0 1-8.9 8.3l-.3.3h-.1c-3.7 2.5-7 3.9-10.2 4.2l-7.1 1.3 21.2-1.7.2.2h.2l-.2.1.3.6-.3.3c-.3.2-6.9 6.7-14.1 9.8h9.8v.4h.3-.1v.4c0 .5-5.9 5.8-12.5 8.3l9.7.2.1.3h.2l-.2.1.2.8h-.5l-.1.1a37 37 0 0 1-14.2 7l1.3.4h-.5l9.6 2.2v.3l.4.1-.4.1v.6l-.4.1-.3.1a58.6 58.6 0 0 1-11.4 2.7l7.5 3.2v.9h-.3s-4.6 2.2-9.4 2.2l-2.1-.1 7.7 6.5v.4l-.2.5h-3.8c-.3.2-.5.2-.8.2-1.8 0-3.4-.3-5-.8l5.4 5.6v.4l-.1.6-4-.2c-1.9 0-3.8-.4-5.6-1.1l5.6 6.4-.3.3.2.2h-.2l-.3.4-3.9-.5c-2.8-.4-5.4-1.4-7.5-3l4 9.8-.3.3v.1l-.5.4-3.5-1.7c-2-1-3.8-2.2-5.1-3.7l.3 1.7 1.7 8.5-.4.2v.1l-.5.3-3.2-2.2-2.6-2.1.2.7-.4-.4 1.8 8.4-.2.2v.2l-.1-.1-.6.2-3-2.3c-1.7-1.1-3-2.5-4-4v6l.4.3h-.4v.2l-1 .5-2.7-2.9a15.6 15.6 0 0 1-4.6-10l-.3-13-3.6.7v31l24 17.1v.4h.2-.2l-.1.5-.3.1s-2.3.4-5.1.4h-.7l-2.2-.2-.1.1h-.3l-1.4-.3 1.3.8v.1l6.8 4.7 9.7 5.6c.3-1.3.9-3.2 2.3-4.6l.7-.5.4-.3.7-.5-.1.2 1.6-.2 1.4.2 1.3.3v-.2l.2.3 1.5-14.2-2.2.7-.2-.2h-.2v-.1l-.2-.3 3.7-9.9h.3l.1-.2.1.2h.7l2.5 11-.5.3h-.4l-2.3-1.3-1.5 14.3v.1l-.1 1.2.5.8.1-.6.1.2 10-32.2-2.2.3-.3-.5-.2-.3 5.7-9 .4.2.1-.2v.2h.5V764l-.4.2v.2-.1l-.5.2-2-2-10.5 33.9.2.6.1.2v.2l.2.5v-.1L280 748h-2.3l-.5-1 7-8 .4.3.3-.2v.4l.2.1-1.5 11-.3.2-.6.2-1.6-2-23.3 49 .4.1 18.4-32.4-1.9-.1v-.2h-.1v-.1l-.1-.6 7.5-7.5.5.3h.1v.1l.4.2-2.3 11h-.5v.1h-.5l-1.8-2.6-15.6 27.4 30-34.3-2.1-.8v-.9l8.9-5.8.1.1.4-.1-.2.3.5.5-4.4 10.2h-1l-1-2.5-33 37.9h.4l25.7-22.2-2-1.2v-1l9.9-3.9.3.4.3-.2-.2.4.3.4-6.4 9.2-1-.3-.3-2.4-25.2 21.6h.2-.2l-.4.4h.3l.7.9.4-.2 14-9.4-2-1.5.4-.9 10.2-2.8.3.4h.1l-.1.1.1.4-7.2 8.4h-.5l-.4-.2-.2-2.6-14.2 9.4h-.1c.2.7.4 1.5.4 2.3l7.9-2.8-1.6-1.6.1-.6.1-.3 10.5-1.3.2.4h.3l-.2.2.3.4-8.6 7.2-.5-.2v-.1l-.4-.2.2-2.8-8.6 3.2c-.3.6-.8 1-1.2 1.4l-.2.2-1.8.8c.4 1 .4 2 .3 2.6a5 5 0 0 1-2.5 3.8c-.7.4-1.2.6-2 .6-1.4 0-2.4-.9-2.9-1.4-.3.4-.6.5-1 .8l-.5 5.7 2.6 1.8-1 18-3.3-1.4-4 1.3-.2-1.2.4-.2-1.7-1.5-1.5 3.8zm8-19.4l-4.3 16.9 3.4-1.2 2 .8.7-15.2-1.8-1.3zm-9.8 15.3l1.3 1.6.9-2.2-.6-.5-.5 1.2-2.3-2.4-1.7 2.6 2.9-.3zm3.8-1l.7.6 3.1-12-5.4 10 1.2 1 .4.2v.1zm-7.6-3.2l3.1.3 1.5 1.6 7.1-13.5-1-1.7-.4-.1-.1-.4h-.1l-1.8-.2-8.3 14zm-10-1.4l3 .9 1 1.8 9.8-11.8-.8-2.2-2.2-.6-10.7 11.9zm-2.6-5.3l3.5 2.3.6-.4.6-.7 8.5-9.3 2.8 1 3.1-3.7-3.5 2.4-.2.2H240.2v-.2l-2.1-1.5-13 9.9zm17-6.3l.6 2 2.5-4.2H247.8l1-1.9-1.6-.3h.1l-.3-.1-.6-.2-.2-.1-.2.5v-.2l-4 4.5zm-16.3-.7l3 2.5 9.3-7.1 2.5 1.6.3-.2 3.5-2.4-.2-.1-3.6 1.4-2.2-2-12.6 6.3zm24.6 1.1h.2l.5-4.8H250.2v.2l-.2.8-.2.3-.6 1.6.2.4.2.2.8 1.3zM88.2 794.6l-11 9.7a14 14 0 0 0-4.2 9.2l-.4 4.6 4.2-3a20 20 0 0 0 7.5-11.5c.5-1.8 1.2-3.7 2.1-5.4l1.8-3.6zm161.6 19h.3l.1-.1h.1l.6-.1.5-.2h.1l.2-.2h.2c0-.2.2-.2.3-.3l.2-.1.6-.8c.4-.3.5-.9.7-1.4l.3-1.2-.1.2v-1.5l-.4-.5-.4-.9h-.1v.1l-.2-.2-.5-.5-.5-.5a8 8 0 0 0-3-.7h-.2c-.1 1.1 0 2 .3 2.6 0 .2.2.2.2.2h.6l-.4 1.5h-.4c-.1 0-.8-.3-1.3-1v-.1c-.4-.8-.5-1.7-.5-2.8-1.3.6-2.5 1.9-3 3-.3.6-.4 1.5.1 2.5l.3.4c0 .1 0 .2.2.2l.1.3.2.2.2.2.4.4.3.3h.4l.3.2c.4.3 1 .5 1.4.6h.1l1.7.2zM102.6 812a4 4 0 0 0 3 1.5c2.2.3 4.5-1 5.5-3 .4-.6.4-1.5 0-2.3-.5-1.4-1.8-2.6-3.1-3.1 0 1.3-.1 2.3-.5 3-.4.8-1 .9-1.2.9h-.4l-.3-1.2h.5l.3-.4c.3-.6.4-1.4.3-2.5-1.3 0-2.4.3-3.2.7l-.5.3-.2.2h-.1c-1 1-1.3 2.3-.8 4 .1.6.3 1 .6 1.5v.4zm-6.8-3.8c-.2.6-.3 1.3-.2 1.9a4 4 0 0 0 1.9 2.8c.6.4 1.2.5 1.7.4a3 3 0 0 0 1.6-1.3l-.5-1.3a5 5 0 0 1 1.1-5.4l.3-.1-.5-.6v.2l-1 1.6-.3.5-1-.8.1-.4.8-1.5a11.5 11.5 0 0 0-3.7 3.5l-.3.5zm158.8 4.2c.7.6 1.8 1.3 3.1.4.9-.4 1.8-1.5 2-2.8l-.1-1.5-.2-.4-.2-.4-.5-.8-.4-.5-.3-.2h.1l-.2-.2-.3-.4-.3-.3-2.3-1.5.7.4-.7-.4 1 1.5.3.3.3.3h-.2v.3l-1 .5-.2.1-.1.1h-.1v.6c.3.2.3.5.3.8v.2h-.1a4 4 0 0 1-.4 2.3l-.5 1.3v.1l.3.2zM243 811l-.2.6.4-.1v-.3l-.2-.2zm10.6-3.7l-.3.8.3-.8zm6.6-.7l.1.1 2-1.5.1-.3v-3l-.2-.1V801.6l-.4-.4-1.3-1h-.4l-.3-.3-.4-.1-.7-.2-.4.2-.4.1.1.1h.1l.7.8h.2l.2.3.4.4.3.5.3.4-1 .8-.4-.3-.6-.8h-.2v-.3l-.3-.2-.2-.4h-.4l-.3-.3v-.1l-.2.1-.2-.2-1.5-.6-.5.8-.2 1.6 1 .3h.4l.4.2h.3l.2.2.2.1.2.1 1 .7.1.2.7.8.6.5.4.6.5.5zM92.5 804c.2 1.8 1.9 2.4 2.6 2.5l1.3-1.6c1.2-1.3 2.3-2 3.4-2.1-.1-.7-.4-1.7-.9-2.4-1.5.7-2.4 2.2-2.5 2.2l-.2.4-1-.5v-.3c0-.3 1-1.8 2.6-2.7h-1.6l.3.4h-.7l-.3.3H95a4 4 0 0 0-2.5 3.8zm161.2 1.5l1.4 1.5.8-.3-.8-.9s-.3 0-1.1-.7l-.3.4zm-145.9-1.8l.4.1c.8.4 1.6 1 2.3 1.6l11.6-7.5.3-.1.4-.2.2-.1v.2l5.3-3.2c-5 .8-8.4-.7-8.5-.7h-.1l-10 5.8-.2-.2-.3.1v-.8l-.1-.1c-.8-3.7-2.2-5.4-4.5-5.4-3.8.2-4.8 5.2-4.8 5.3v.3l1-.1h.5v1.3h-.5l-.6.1c.4.8.6 1.5.7 2.1l.6-.6 1 .8-.2.4c0 .2-.3.4-.4.5v.2l.9 1c1-.5 2.3-.8 3.5-.8-.1-.6-.2-1.4-.6-2.1l-.2-.5 1.3-.3v.4c.3.6.4 1 .4 1.5.4.3.5.6.6 1zm145.8 1.6h.1l.2-.4-.3.4zm-20.5-7.3l11.5 7.4.3-.1c.8-.7 1.5-1.1 2.3-1.5l.2-.1h.3v-.4c.3-.6.4-1.3.7-2.2l.1-.3 1.2.3-.1.4-.2.7c0 .5-.3.9-.3 1.2 1 0 2.1.3 3.2.8h.3l.2-.2v-.2l.2-.1v-.4l-.1-.1v-1l.2-.3 1-1.9v-1.2l.9-.3v-1.6l-.2-.3-.2-.2.1-.1v-.2.3l-.9-1.6-.4-.4a4 4 0 0 0-2.8-1.3 3 3 0 0 0-2.1.7l-.8.8a9.7 9.7 0 0 0-1.6 4v.8l-.4-.2-.1.2h-.2l-10-5.8c-.9.3-4.2 1.4-8.5.6l5.5 3.4v-.1l.4.4.3.1zm-169.5 5.2a21 21 0 0 0 14.8-5l6.7-5.7h-4.3c-3 0-6.1 1.2-8.2 3.4l-1.5 1.5c-2 2.1-4.6 4-7.5 5.8zm210.2-1.5v1.4l5-4.2-6.2.7 1.9 2h-.7zm-18.4-3l.2.2.4.1h.1s-.1-.3 0-.4l-.7.2zm-130.6-.8c3.7.3 9.2.4 12.3-1.2a235 235 0 0 0 14-8.9l3.5-2.3V737h-5v44.4l-.5.5-1.3.9c-2 1.5-5.8 4.4-9.6 6.8l-13.4 8.2zm95.5-.5h.3c3.2 1 7.3.6 9.7.5l-6.5-4v.1l-6.6-4.1c-5.5-3.5-11.2-8-11.3-8l-.3-.3V737h-5v48.4l3.6 2.3c4 2.6 11 7.2 14 8.9a5 5 0 0 0 2.1.7zm59-6v1.4l4.3-5-6 1.7 2.2 1.7-.6.2zm-178.7-29.6c-4.4 3-7.7 7.4-9.4 12.6l-.4 1.5c-.8 2.7-1 10.6-.8 15.3l.2-.4-.1-.2.2-.2 7-12.7.9-2 .2-.8.2-.5v.1c.6-1.7.9-3.6.8-5.6-.1-2 0-4 .6-5.9l.6-1.2zm-7.8 27l10.7-7.3c2.7-1.8 5-4.5 6.3-7.3l1.7-3.5-3.2.7c-3.2.8-6.3 2.3-8.8 4.6l-1 2.3-5.7 10.4zM52.5 786l6.6 1.6c3.2 1 6.6.7 9.8-.5l2-.7c3-1 6.4-1.3 9.7-.7l-.1-.2h.2l-1.3-1.6-10.3-1.4a22 22 0 0 0-10.8 1.2l-1 .3-1.2.7v-.1l-3.6 1.4zm33.8-28.4l-5 10.7A15 15 0 0 0 81 780l1.7 4.2.9-1a39.8 39.8 0 0 0 3.2-21.6l-.5-3.9zm-37.7 19c.8 2.4 2.9 6.3 7.6 6.5l1.9-.6c3.5-1.3 7.4-1.7 11.2-1.2l7.5 1.1-1.4-.7a59.3 59.3 0 0 0-13.7-2.6c-3.5-.3-6.8-.8-10.1-1.6l-3-.9zm240-.4l.2 1.3 3.8-5.3-5.9 2.2 2.2 1.4-.3.4zm-32.3.4l1.2.9-1.5-6.4-2.2 5.8 2.5-.9v.6zm-207-11.4l1 1.4a17.2 17.2 0 0 0 19.3 6.8l1.5-.5-6.5-5a10.2 10.2 0 0 0-8-2h-.2l-.3.1-.5.2-.2-.2c-1 0-2 0-3-.2l-3-.6zm16 1.6l4.6 3.5c-.4-.8-.8-1.5-1.1-2.4l-.9-1.6c-.1-.5-.4-1-.6-1.4v-.2l-4.5-3.4c-1.4-1.2-3.2-2-5.1-2.4-2-.3-4-1.2-5.6-2.6l-1.3-1c.8 3.5 2.5 6.6 5 9.3l.5-.1a12 12 0 0 1 9 2.3zm213.7-1.9l1 1.6 1.4-6.4-4.4 4.3h2.2l-.2.5zM80.2 745.5l-5.5 4.9a6.8 6.8 0 0 0-2.2 6.2l2 9.6c2.5-2.5 4-6 3.7-9.6-.1-1.5 0-3 .3-4.3l1.7-6.8zM267 761l1 1.1v-6.6l-3.4 5.2 2.4-.2v.5zm27.5-2l.5 1.4 2.7-6.2-5.3 3.5 2.4.8-.3.5zm-163.6-6v7l1.4-1.4c2.6-2.5 4.1-5.7 4.4-9.1v-3.7a23 23 0 0 1-4.1-1l-.6 5.2-.7 2.2h.2l-.6.8zm87.3-7.2l.1 3.8c.3 3.3 1.8 6.4 4.4 9.1l1.2 1.2v-7l-1-2.7-.6-5.4c-2 .8-3.4 1-4 1zm-93 4.5l-1.9 8.9 1.4-1c2.2-1.7 3.8-3.6 5-5.8v-.2c.4-.7.7-1.5.9-2.3l.6-5.5v-.1l-2.3-1-.8-.4-.7 2.8c-.6 1.8-1.2 3.2-2.1 4.5v.1zm100.3 2.5c1 2 2.7 4 4.7 5.4l1.4 1-2.1-9a17 17 0 0 1-2-4.4l-.8-2.7-.5.3c-.7.4-1.7.8-2.6 1l.8 5.6c.1.9.5 1.6.9 2.4h.2v.4zM66.5 737c.4 1.6.8 3.2 1 4.7.5 3.8.5 7.3 0 10.9l-.8 5.4 1.3-3.8c2-5.8 3-12 3-18l-.1-4.5-4.4 5.3zm-16.7 1.5l.3 2.4c.4 2.7 1.2 5.2 2.5 7.3a19 19 0 0 0 7.8 7.1l4.2 2-2.6-6.7c-.7-2-2-3.7-3.3-5.2h-.3l.1-.3a15.6 15.6 0 0 0-4.4-3.4c-1.3-.8-2.6-1.7-3.7-2.7l-.6-.5zm10.3 6.3c1.2 1.5 2.3 3.2 3 5.2l2.5 6.2.6-3.8a33.1 33.1 0 0 0-3.5-21.1l-.8-1.6-2 15 .2.1zm60.8-1.4l-2.3 11.1 1.5-1c1.6-1.2 2.9-2.4 3.9-3.7l.3-.3v-.5h.3l.5-.7c.5-1 .9-1.8 1.2-3l.8-3-4.2-2.7v.1l-.1-.1-1.3 2.4c0 .4-.2.8-.6 1.4zm110.1 6a15 15 0 0 0 4 4l1.6 1-2-10.8a15 15 0 0 1-1-1.6l-1.2-2.3v-.1l-4.1 2.6.6 3 1 2.3 1.1 1.9zm4.9-6.2a15 15 0 0 0 6.2 5.2l1.7.8-4.5-10.5-2.2-2.7c-1 .9-2.3 2-3.6 2.9l1.3 2.4c0 .3.3.5.4.8l.3.5h.1l.1.4.2.2zm-120-4.1l-4.4 10.1 1.7-.8c2.5-1.1 4.5-2.9 6-5l.4-.6v-.2l.3-.3.5-1 1.4-2.5c-1.1-.8-2.2-1.8-3.4-2.9l-2 2.4v.1l-.6.7zm166.3 8.3l.9 1 .8-6.5-4.1 4.7 2.6.1-.2.7zm-64-11.6l.2 8.6c.7-.1 2-.3 4-1l-1-9-3.2 1.4zm-85.2 7.5c1.9.6 3.2.9 4 1l.1-8.8-3-1.2-1 9zm89.6-9.4l1.1 8.9 3-1.3-2.2-8.5-1.9 1zm18 4.2c2.2 2.4 5.3 3.9 9 4.4l1.7.2-6.8-8-.4-.2-.4-.5h-.1l-.4-.3h.2l-2-1.9c-1 1.1-2 2.2-3.2 3.2l2.2 2.7.2-.1v.5zm-129.8-3.3l-6.8 8 1.8-.2c3.6-.4 6.8-2 8.8-4.5l2-2.3-.3.6 1-1.2-3.4-3.2-2.2 2.2-.4.4-.5.2zm17.8 6.6l.4.2.7.3 1.9.8 1-9-1.7-1-2.3 8.7zm-5-3l3.8 2.5 2.3-8.7-2.2-1.1-4 7.3zm104.3 2.3l3.9-2.4-3.9-7.5c-.7.6-1.5 1.1-2.2 1.5l2.2 8.4zm-105.6-3.4l.2.2 4-7.5-2-1.6-5.4 6.5c1 1 2 1.8 3.1 2.6l.1-.2zm110.6.1c1-.6 2-1.5 3.3-2.6l-.1-.1-5.3-6.3-1.9 1.5 4 7.5zm13.7-2.6a17 17 0 0 0 7.2 2l1.8.2-6.4-6.4-1.6-1.1-2.5-2-2.8 3.3 2.2 2.2c.3.3.5.6.9.8l.3.2 1.4.8h-.5zM105.2 731l-5.7 5.9 1.9-.1a15 15 0 0 0 8.7-3.2l.2-.2.4-.4 2.2-2.2-1.8-2-1-1.3-2.5 2-2.2 1.4-.2.1zm9.7-.2l3.2 3.1 5.4-6.5-2.6-2.7-6 6.1zm117-3.4l5.4 6.5 3-3 .2-.2-6-6.1-2.5 2.8zm-136.5 3.8h1.8c2.6.2 5.1-.4 7.4-1.4l.5-.3 1.7-1 2.5-2c-1-1.2-1.8-2.5-2.4-3.7l-3 1.3-8.5 7zm155-1.6c2.2 1.2 4.8 1.8 7.6 1.6l1.8-.1-8.3-7-3.2-1.3c-.7 1.3-1.5 2.5-2.4 3.6l2.4 2 1.6 1v-.1l.3.2v-.1l.1.2zm-15.2-6l6 6.2 2.8-3v-.2l-7.1-5.6-.5.8a13 13 0 0 1-1.2 1.8zm-124 3.1l2.8 3.1h.1l6-6-1.9-2.6-7 5.5zm17.2-52.5c-.6.7-13.1 16-8.7 33.6 1.3 5.1 4.3 12 11.5 16.4 3.4 2 6.3 2.7 7.4 2.9l.7-3.4h-.4v-.2c-14-3.2-11.8-16.4-9.6-29.2 1.4-8.5 3-18-.8-23.3-2-2.5-5-4-9.5-4.7l-.2.9 10.2 6.5-.6.5zm87.7 49.3l.7 3.5c1-.2 4-.8 7.5-2.8 4-2.4 9.1-7.2 11.4-16.5 4-15.8-5.7-29.6-8.7-33.5l-.6-.6 10.2-6.4c0-.6-.2-1-.3-1.2h-.1c-4.4.6-7.4 2.2-9.3 4.8-3.9 5.4-2.3 14.4-.8 23 2.2 12.8 4.5 26-9.1 29.4v.3h-1zm21.6-3.6l7.2 5.7c.9-1 1.6-2.2 2.2-3.5h-.1c-3.5-1.8-6.8-3.6-8-4.4l-1.3 2.2zm-129.4 2.2a38 38 0 0 0 2.2 3.5l7.2-5.7-1.2-2.1-8.2 4.3zm143.9.9c4.2 1.6 9.5.1 11.9-.6l-8.4-3.6h-.6c-.7 0-1.5 0-2.1-.2l-2.4-.7c-.4 1.4-.9 2.6-1.5 3.7l2.7 1h.2l.2.4zm-160.9-.7c2.3.8 7.7 2.2 12 .6l.1-.2h.1l2.7-1.1-.1-.3c-.6-1-1-2.3-1.4-3.4l-2.7.8-2 .1h-.6l-.2.1-7.9 3.4zm123 0l-2-10.9a32.2 32.2 0 0 1-16.6 4.3c-9.4 0-16.1-7-18-9.1-5.4 6-11.8 9.1-18 9.1a33.7 33.7 0 0 1-16.6-4.2l-2.1 10.8h73.2zm25.3-6l.2.3 8 4.3 1.5-3.4a78.2 78.2 0 0 1-8.7-3.3c-.4.8-.8 1.4-1 2.2zm-133.4 1.2l1.3 3.4 8.3-4.5-1-2.2h-.2c-1.7.8-5 2.2-8.4 3.3zm149.2-.3l.5.3c3.7-.1 8.3-1.2 11.8-2.2l-13-3-2.6-.4a43 43 0 0 1-1.2 4.6v.2l2.2.5c.6.2 1.4.2 2.2.3v-.3zm-168-2a50 50 0 0 0 12 2.2l.4-.2v.2c.7 0 1.4-.1 2-.3l2.3-.5.2-.1-1.3-4.7-2.7.5-.5.1-1 .1-11.5 2.7zm153.5-2.3l.1.1c1.6.6 5 2.1 8.6 3.2.5-1.4.8-2.8 1.2-4.6L242 710h-.2v.5h-.1l-.2.6.3-.4-.6 1.2c0 .3 0 .6-.3 1zM106 716v.1c3.5-1 7-2.6 8.4-3.1l-.4-.4h.4l-.8-2.6h-.1v-.2c-1.3.3-4.5 1-8.9 1.7l1.2 4.6h.2zm73-10c2.3 2.6 8.5 8.5 16.8 8.5 3.2 0 6.3-.5 9.2-1.3l-.2-.3h.2l-4.2-12.8-23.1 3.5-18.9-3.7-10.6 12.5c3 1 6.8 2 11.5 2 10 0 16.8-8.3 17.5-9.3v-1l.6.7 1.3 1.3zm77.1 5c6 .7 13.3-3.7 16.5-6l-13.7-.1h-5.6c-.3 1.9-.5 3.8-.9 5.6l3 .5h.7zm-173.3-6c3.2 2.3 10.5 6.8 16.5 6l.5-.1 3.2-.5c-.3-1.9-.7-3.6-.9-5.5h-5.8l-13.5.1zm159.4 3.5h.2l8.8 1.7.7-5.4h-4.2l-5 .1a14 14 0 0 1-.5 3.6zM103.4 705l.7 5.3c3.2-.6 6.2-1.1 9-1.8-.3-1-.5-2.2-.5-3.4h-4.7l-4.5-.1zm139.3-7.7v6.5l5.2-.1 4-.1c.3-2.5.4-4.8.4-6.9-4.2.4-8 .5-9.6.6zm-139.3 6.3h4.2l5 .2c-.1-2-.2-4-.1-6.5l-1.8-.1-7.7-.4c0 2 .1 4.3.4 6.8zm150.3 0h5.3c6.7 0 13.6-5.1 16.6-7.7h-12v.1h-1.5l-8.3.8c0 2.2-.2 4.5-.4 6.8h.3zm-157 0h5.3l-.4-6.9h-.1l-3.8-.2-4.6-.4-1.1-.1H79.6c2.8 2.3 9 7 15.2 7.5h1.8zm63.6-4.8l17.4 3.4 22.5-3.4-8.7-34.7h-2l-.1-.4h-.5l.4-.2-.1-.5 1.3-.6-17.9.8-8 3.7 2.8 2.9 4 1.9 2 6.5-8-1.3 7.8 8.1-5 8.3-8 5.5zm-57.3-3.4l9.6.5.1-2.2.2-5-5.6-1-4.2-.3v8zm139-6.6c.4 2.6.6 5 .7 7.1h2c1.8-.2 4.6-.3 7.7-.4.1-2.4 0-5-.1-8.1l-3.4.3-.8.2h-1l-5 .9zm11.8 6.6c2.4-.1 5-.4 8.3-.7h.6c6.8-1.2 14-7.1 16.9-9.7l-26 2.3v.2l.1.8.1 7zm-161.2-.8h.5c2.5.3 5.1.4 7.7.6h.7v-6.9c0-.3 0-.5.2-.8v-.3l-26-2.2a38.4 38.4 0 0 0 16 9.5l1 .1zm20.7-7.2h.2c.2-2.2.6-4.5 1-6.7h-.1l-3.5-.8-7-1.5-.7 7.2 3.3.6.8.1.8.2 5.2.9zm127.6-6.8c.4 2.1.8 4.5 1 6.8l6.2-1 4-.7-.5-7.2-6.2 1.3-4.5.8zm-169.6-7.7l.4.3c2.4 2.6 8.8 8.6 15.9 9.5l14 2.6h.2c.1-2.7.4-5.3.6-7.1h-.2l.1-.2-3.2-.7-9.9-2-19-3.4.7.8.3.3.1-.1zm181.5 5.3c.2 1.8.5 4.4.6 7.1l14.2-2.6c4-.4 7.6-2.6 10-4.3l.3-.3h.1c3.2-2.3 5.7-4.9 7-6.3l-19.1 3.5c-3.2.8-7 1.5-10.5 2.2l-2.6.7zM104.1 677l8.6 1.7 1.9.4.5-3-4.2-2-6.2-3-.4 2.5-.4 3.2h.2v.2zm136-.8c0 .5 0 1.1.3 1.8l.2 1.2 3.2-.7 7.5-1.5c-.1-2-.4-3.8-.8-5.8L247 673l-6.9 3.2zm-86.8-4.6l2.4 6.5 3.1-3.8 4.7.8.2-.1.1.1 7.8 1.2-1-3.7-3.8-1.8-3.3-3.3h-.1v-.1l-10 4.2zM90.1 674l9.3 2 3.2.7.4-3.2.5-3-3.6-1.8-16.3-4.8h-.1l-17-5h-.3l.3.3.2.4c1.8 2.2 5.3 6.3 9.3 9.3l.7.6a18 18 0 0 0 6.1 3l2.9.6 3.2.8h.2l.9-.5v.6zm161.7-3.3c.4 2 .6 4 .8 6 4.2-.8 8.8-1.8 12.5-2.7h.2l2.3-.5 4-.8.8-.2a31.3 31.3 0 0 0 13.4-10l.4-.3.2-.4h.1c1.1-1.1 2-2.2 2.7-3.1l-4.2 1.2-1 .3-17.7 5.3h.1l-11 3.2-3.6 1.8v.2zm-12 3.6v.5l7.2-3.6 3.2-1.5c-.3-2.5-.7-4.3-.9-5.3l-1 .7-9.6 5.7.8 3.8.3-.3zM105 669.7l10.5 5 .9-3.9-.2-.1-2.4-1.5-8-4.8c0 1-.5 2.9-.8 5.3zm1-6.6l8.4 5 2.4 1.4.3-1.7-22-14-.7-.5-14.7-9.3-7-4.3a26.7 26.7 0 0 1-6.2-6.2v.1l-.6-.7-.3-.5c-.5-.6-1-1.2-1.3-2l-.1.2-.4-1-14.6-8.9a32 32 0 0 0 10.5 14.6l2.7 1.8 2.6 1.7h.2l.4.2 11.8 7.2.1-.1.4.3v.1l.3.1 7.6 4.5c2.3 1.4 4.7 2.7 7 4.2l10.8 6.3.4.2 2.6 1h-1c.2 0 .3.2.5.3zm132.2 4.6l.3 1.7 6.2-3.7 4.2-2.4-.2-.2.5-.1 1.4-.8v-.1l1.1-.6 6.5-3.8v-.1l.4-.3 15.5-9.2.3-.2.3-.3v.1l9.6-5.7 2-1.2h.2l9-5.6a32.3 32.3 0 0 0 10.6-14.5l-14.8 8.8a28 28 0 0 1-6 7.8l-1.1 1.2v-.2c-.5.5-1 .8-1.6 1.2l-10.9 7-33.5 21.2zm12.5-4v.6c.3.9.6 2.6 1 4.8l3-1.5v-.3h.5l.2-.1.3-.2 8.3-4 .3-.1 15.8-7.2.3-.1.2-.1.2-.1.4-.2c5-2.3 8.5-6 10.8-9h-.2l.4-.3.6-.7 1.3-2.2-3.2 1.6h.1l-13.2 6.3v.1l-1.3.6-16 7.4-.8.4-8 3.8-.4.2h-.2l-.3.2-.1.1zm-150 3.9l1 .5 2 1 .8-4.7.1-.7-.4-.3v.2h-.1l-.5-.4c-.3-.2-.6-.3-.7-.5l-11.6-5.5-.1.1-16.2-7.7-13.4-6.2-.2-.2.3-.3-.9-.5c.2.4.5.7.6 1.1l.2.3.1.2a32 32 0 0 0 8.9 9.3v-.1l.4.4h.1l.2.2c1.3.9 2.5 1.4 3.7 1.9 2 .8 6.1 2.5 11.1 5l.6.2 13.3 6.3.7.2v.2zm136.7-2.1l.3.9 33.8-21.3.3-.2 10-6.4 2.4-2 1-1c2-2 3.6-4.2 4.8-6.5v-.4l.2-.2.8-1.8 1-2.5-7.6 5.5-.9.7-15.8 11.2-.7.5-13.3 9.5-12.8 9.1-3.5 4.9zM95.8 652.7l21.3 13.5.7-.7v-.1l-3.4-4.8-15.6-11h.1l-13.6-9.7-16.5-11.8-.7-.4-4.8-3.4 1 2.5.8 1.9h.2l-.1.2 1 1.7.5 1 .1.2c1.8 2.6 4 4.8 6.6 6.7l7 4.4.2-.1.6.4 14.6 9.5zM251.4 800h-1.3v-.4c0-3.5 2.6-3.6 2.6-3.6h.5v1.4h-.5s-1.2 0-1.3 2.2v.4zm-146.3 0h-1.3v-.4c0-2.2-1.3-2.2-1.3-2.2h-.5V796h.5s2.6 0 2.6 3.6v.4zm182.2-2l-1-.3-.2-3.4-2.5-1.9.1-.4v-.1l.1-.4 10.1-2.9.2.4.3-.1-.2.2.3.5-7.2 8.4zm-1.6-5.7l1.6 1.1v2.1l4.4-4.9-6 1.7zm12.6-20.6l-.4-.1-.6-.1-.2-3.5-2.3-1.7v-1l10.3-2.8.2.3h.4l-.3.3.2.4-7.3 8.2zm-1.4-5.6l1.6 1.1.1 2.1 4.3-5-6 1.8zm-37.2-.3l-3-1.7-2.8 1-.6-.6 3.4-10h.4v-.3l.2.3h.5l2.8 11-.5.2-.4.1zm-2.9-3.3l2 1.1-1.7-6.4-2.1 6 1.8-.7zm34.3-8.6h-.4l-1.9-3-3-.4-.3-1 7.9-7 .5.2.1-.2v.3l.4.2-2.8 10.8-.5.1zm-3.4-4.5l2 .3 1 2 1.7-6.4-4.7 4zm-13.6.8l-3-1.7-2.8 1-.7-.7 3.5-10h.4l.1-.2.1.3h.5l2.7 11-.3.1v.1h-.1l-.4.1zm-2.7-3.3l1.9 1.1-1.7-6.4-2 6 1.8-.7zm-92-74.5h-4.8l-1.4-2.8-1 .2-.3-1.3 2.5-.5.9-.2h-.1l1.4-.3.1-.2.6.2 6.3-1.1.3 1.3-3.8.7 3.1.9-.2 1.4-2.5-.8-1 2.5zm-3.8-1.4h3.2l.6-1.5-2.2-.7-2.5.4.9 1.8zm10.1-27.1l-9.9-.1h-28.2v-1.4h13v-12.2h-13.1V629h28l.1-.1h25.5v1.4h-14.5l-4.8 6.3 4.7 5.9h14.6v1.4h-15.4zm-8.8-1.5h7.8l-4-5-3.8 5zm-14.9 0h13l5-6.1-4.8-6h-13v12.1h-.2zm15-12.2l3.9 5 3.9-4.9H176.9zm76.4 1l-.2-.2a135.3 135.3 0 0 0-78-24.3c-27 0-53.2 7.8-75.5 22.7l-.3.2-1.3-.8.6-.4c22.5-15.2 49-23.1 76.5-23.1 28.5 0 55.8 8.5 78.9 24.7l.5.3-1.2.9zm12-8.2h-.3a12 12 0 0 1-6.4-8.5 10.7 10.7 0 0 0-13.8-8 12 12 0 0 1-14.9-6.7c-1-2.8-3.4-5-6.4-6-2.9-1-6-.6-8.6 1a12 12 0 0 1-16-3.3 10.4 10.4 0 0 0-7.5-4.4c-3.2-.3-6.2.7-8.3 2.8a11.9 11.9 0 0 1-16.2 0 10.7 10.7 0 0 0-8.4-2.8c-3 .3-5.7 1.8-7.5 4.4a12 12 0 0 1-15.9 3.4c-2.6-1.6-5.7-2-8.7-1-2.8.9-5 3-6.4 5.9a11.9 11.9 0 0 1-14.8 6.7c-2.8-1-6-.7-8.7.9a9.9 9.9 0 0 0-5 7.1 12 12 0 0 1-3.4 6.3l-.2.3-1.1-.8.3-.4a11 11 0 0 0 3.1-5.6 11.8 11.8 0 0 1 15.5-9c5.3 1.8 11-.7 13.2-5.8a11.8 11.8 0 0 1 17-5.6c4.7 3 11 1.6 14-3a12 12 0 0 1 18-1.9c4 3.8 10.3 3.8 14.3 0l.2-.2.2-.2a12 12 0 0 1 17.5 2.3c3.1 4.5 9.4 5.8 14 3 2.9-1.8 6.4-2.1 9.8-1 3.2 1 6 3.5 7.2 6.6 2.2 5.1 8 7.7 13.2 5.9 3.2-1.1 6.8-.8 9.8.9 2.9 1.7 5 4.7 5.6 8 .6 3.2 2.9 6 6 7.5l.7.4-1.2.8z"/></svg>