<svg xmlns="http://www.w3.org/2000/svg" width="350" height="350" viewBox="0.5 568.5 350 350"><path fill="#071B36" d="M190.768 901.248c-3.016 0-5.94-1.188-8.045-3.2-4.023-3.748-10.33-3.748-14.354 0-2.47 2.378-5.853 3.566-9.327 3.11-3.474-.367-6.583-2.195-8.594-5.03-3.2-4.48-9.418-5.76-14.08-3.017-2.835 1.83-6.4 2.195-9.784 1.098-3.2-1.005-5.943-3.565-7.223-6.674-2.194-5.12-7.954-7.68-13.166-5.852-3.2 1.098-6.766.823-9.783-.914-2.926-1.737-5.03-4.663-5.668-8.046-1.097-5.485-6.217-9.234-11.612-8.503-3.474.456-6.857-.64-9.417-2.927-2.56-2.377-4.023-5.577-4.023-9.143.09-5.577-4.114-10.24-9.6-10.697-3.383-.274-6.49-2.012-8.686-4.846-2.01-2.65-2.743-6.31-2.01-9.69 1.28-5.304-1.92-10.88-7.224-12.435-3.292-1.006-6.034-3.383-7.406-6.584-1.37-3.107-1.37-6.674.092-9.874 2.286-4.937.274-10.972-4.48-13.714-3.018-1.646-5.21-4.572-5.852-7.863-.64-3.383.09-6.857 2.194-9.6 3.383-4.39 2.743-10.697-1.463-14.264-2.56-2.285-4.115-5.576-4.115-9.05s1.463-6.767 4.114-9.052c4.205-3.657 4.845-9.874 1.462-14.263-2.103-2.47-2.926-6.125-2.194-9.6.823-3.475 2.926-6.31 5.943-7.863 4.847-2.65 6.767-8.594 4.48-13.714-1.462-3.2-1.462-6.767-.09-9.874 1.462-3.11 4.114-5.486 7.405-6.584 1.097-.273 1.92-.822 2.834-1.37l.548-.366.274 1.37-.274.185c-.915.55-1.92 1.098-2.926 1.372-2.926.914-5.303 3.018-6.583 5.76-1.28 2.834-1.19 5.943.09 8.777 2.65 5.667.458 12.433-5.028 15.45-2.65 1.37-4.572 4.023-5.21 7.04-.64 3.108.09 6.126 1.92 8.595 3.748 4.937 2.925 12.068-1.738 16.183-2.377 2.01-3.657 4.937-3.657 7.954s1.372 5.943 3.657 7.954c4.754 4.114 5.486 11.246 1.737 16.183-1.828 2.376-2.56 5.485-1.92 8.594.64 2.926 2.47 5.485 5.212 7.04 5.394 3.018 7.588 9.874 5.028 15.45-1.28 2.835-1.37 5.944-.09 8.778 1.187 2.742 3.565 4.846 6.582 5.76 5.943 1.828 9.508 8.046 8.045 14.08-.73 3.018-.09 6.126 1.737 8.594 1.92 2.47 4.57 4.023 7.588 4.298 6.217.548 10.972 5.852 10.88 12.068 0 3.108 1.28 5.943 3.474 8.046 2.194 2.012 5.21 3.018 8.32 2.65 6.217-.73 11.978 3.384 13.166 9.51.64 3.017 2.377 5.485 5.12 7.13 2.56 1.556 5.76 1.83 8.686.916 5.852-2.012 12.343.914 14.812 6.674 1.097 2.834 3.474 4.938 6.4 5.943 2.926 1.006 6.034.64 8.686-1.005 5.303-3.2 12.25-1.737 15.91 3.383 1.828 2.56 4.57 4.114 7.496 4.39 3.2.273 6.217-.732 8.32-2.836 2.377-2.103 5.12-3.108 8.137-3.108s5.85 1.098 8.044 3.108c2.287 2.104 5.213 3.11 8.32 2.835 3.018-.274 5.76-1.83 7.498-4.39 3.564-5.027 10.514-6.582 15.908-3.382 2.65 1.554 5.76 1.92 8.686 1.006 2.834-.914 5.12-3.108 6.4-5.942 2.377-5.76 8.87-8.686 14.81-6.674 2.835 1.005 6.128.64 8.687-.915 2.744-1.464 4.572-4.023 5.12-7.132 1.19-6.126 6.948-10.24 13.167-9.51 3.016.367 6.033-.548 8.318-2.65 2.195-2.012 3.475-4.938 3.475-8.046-.092-6.31 4.664-11.61 10.88-12.068 3.108-.274 5.853-1.83 7.59-4.298 1.827-2.56 2.468-5.668 1.737-8.594-1.463-6.125 2.102-12.252 8.045-14.08 2.926-.914 5.395-3.018 6.582-5.76 1.28-2.834 1.19-5.943-.09-8.777-2.652-5.668-.457-12.434 5.027-15.45 2.652-1.372 4.572-4.024 5.213-7.04.64-3.11-.092-6.127-1.92-8.596-3.75-4.938-2.926-12.07 1.736-16.184 2.377-2.01 3.656-4.937 3.656-7.954s-1.372-5.943-3.657-7.954c-4.754-4.114-5.486-11.246-1.736-16.183 1.828-2.377 2.56-5.486 1.92-8.595-.64-2.926-2.47-5.485-5.213-7.04-5.395-3.018-7.588-9.874-5.027-15.45 1.28-2.652 1.28-5.944.09-8.778-1.188-2.742-3.656-4.938-6.582-5.76-3.748-1.098-6.674-4.023-7.863-7.77v-.093l.732-3.476.457 2.104c.823 3.84 3.565 6.857 7.315 7.954 3.29 1.006 6.033 3.383 7.404 6.583 1.372 3.108 1.372 6.674-.09 9.874-2.288 4.937-.276 10.97 4.478 13.713 3.018 1.646 5.213 4.572 5.852 7.863.64 3.383-.09 6.857-2.193 9.6-3.383 4.39-2.742 10.697 1.463 14.264 2.56 2.285 4.113 5.577 4.113 9.05 0 3.476-1.463 6.767-4.113 9.053-4.205 3.75-4.754 10.058-1.28 14.354 2.103 2.56 2.927 6.125 2.194 9.6-.822 3.475-2.926 6.31-5.943 7.863-4.753 2.65-6.765 8.594-4.48 13.714 1.466 3.2 1.466 6.767.093 9.874-1.463 3.11-4.113 5.486-7.404 6.584-5.214 1.645-8.413 7.13-7.226 12.434.732 3.29 0 6.95-2.01 9.69-2.104 2.835-5.305 4.572-8.688 4.847-5.484.457-9.69 5.12-9.6 10.697 0 3.565-1.463 6.857-4.02 9.143-2.562 2.286-5.944 3.292-9.42 2.926-5.485-.64-10.604 3.107-11.702 8.502-.64 3.383-2.742 6.4-5.668 8.046-3.018 1.737-6.584 2.103-9.783.914-5.21-1.737-10.97.823-13.166 5.852-1.37 3.108-4.023 5.577-7.223 6.674-3.29 1.098-6.857.64-9.783-1.097-4.753-2.925-10.97-1.554-14.08 3.02-2.01 2.833-5.118 4.66-8.593 5.027-.273.09-.822.09-1.19.09zm-28.525-19.565l-.73-.73c-.185 0-.366 0-.55-.092l-.365.092v-.09c-6.126-.642-12.252-1.647-18.195-3.11l-.274.092h-.093v-.092c-12.983-3.2-25.417-8.23-36.937-15.085h-.09v-.092c-9.876-5.852-19.11-12.983-27.43-21.303-26.057-26.058-40.412-60.708-40.412-97.646 0-17.006 3.018-33.555 9.052-49.37l.548-1.373.55 2.286-.092.09c-5.76 15.36-8.777 31.634-8.777 48.274 0 36.48 14.262 70.857 40.136 96.64 8.137 8.138 17.005 15.086 26.332 20.663l-14.08-80-29.623 12.435-.548-1.28.457-.183 29.44-12.344-8.686-49.37h-.092l-.274-1.373h.09l-2.376-12.617-14.63-16.366-.273-.09-3.84-1.555.55-1.28 1.736.73L52.07 685.57v.183l-.73-1.005-1.373-1.554-4.572-25.78-1.006-5.487 13.99-14.902-.184-.183.274-.092v-.09h.09v-.093h.367l.365-.457.183.457 7.04-1.28 5.577-1.006.64 3.658h.09v.09l12.527-2.193v.732l.366 1.83.183-.185v1.006l.184 1.098 12.526-2.193.64 3.93 12.708-2.192v.73l.092.366 2.468 6.492 9.875 25.51.09.09 2.652 6.857-5.943 33.828 1.097 4.57h.09v.093h.092l.274 1.372h-.183l1.463 5.76c1.28-.273 2.65-.183 4.023.366l8.32-4.938 5.12-10.788c.182-.457.64-.914 1.187-1.098.55-.183 1.097-.183 1.554 0l5.76 2.743c1.006.457 1.372 1.737.915 2.834l-5.852 12.16c-.183.275-.457.64-.823.915v.092c-.09.64-.457 1.188-1.005 1.37l-11.52 6.858c-.183.09-.458.183-.64.183-1.006 1.37-2.377 2.377-3.932 2.834l1.83 7.59.365-.092.274 1.37-.366.093 16.274 66.742 5.21-12.617 1.28.55-5.942 14.444 15.36 62.63h.092v.09c4.662.458 9.143.64 13.35.64 2.193 0 4.478-.09 6.674-.182l18.102-74.148-1.37-3.292 1.278-.548.55 1.463 13.714-56.138-.365-.09.273-1.373.365.09 1.83-7.587h-.09c-1.83-.457-3.292-1.737-4.208-3.29 0-.093-.09-.093-.09-.185l-5.76 1.098-7.225 7.04c-.365.365-.914.548-1.463.548-.547 0-1.188-.183-1.553-.548l-4.48-4.57c-.82-.824-.82-2.105 0-2.927l7.407-7.223c0-1.006.73-1.83 1.736-2.104l.365-.092.092-.09c.55-.55 1.098-.55 1.555-.55.365 0 .64.092.822.183l10.514-2.012c.917-.182 1.923.275 2.288 1.098h.092v.092c1.096-.365 2.377-.457 3.564-.184l1.37-5.667-.272-.092.273-1.37.367.092 1.096-4.206-5.94-34.012v-.09l14.9-38.493.185-1.005v-.273l2.65.457.092.09 9.783 1.737.64-3.84 12.526 2.194.822-4.57 3.107.55.092.09.64.092 8.23 1.463v-.092l.273.092.64-3.657 12.618 2.285h.184l-.184-.73.457.457.275-.274v.548h.73l-.273.275-.092.09.182.183v.184l8.686 9.234.093.092h-.092l4.94 5.303v.274l-4.114 23.77-.184 1.463-.092-.274-1.096 5.85-8.412 9.51.092.092-8.504 9.508 12.617-5.21.457-.185.457 1.098.093.092h-.092l-.82.457-.093-.092-14.994 6.217-10.148 11.43-2.193 12.434-.092.458h.092l-8.412 47.726 36.754 15.177-.55 1.28-36.478-15.084-14.904 84.57h-1.37l.09-.548 14.812-84.57-19.564-8.048.55-1.28 19.29 8.046 3.107-17.646-24.502-6.857-18.012 79.635 11.61 28.068-1.278.55-10.88-26.425-9.966 44.07-1.372-.274.09-.457 10.332-45.35-9.783-23.59v.185l-17.553 72.045c33.37-1.92 64.547-15.908 88.594-39.863 25.873-25.782 40.137-60.068 40.137-96.64 0-19.84-4.113-38.674-12.342-56.228l-.092-.184.55-2.194.547 1.188c8.23 18.104 12.344 37.395 12.344 57.234 0 36.846-14.353 71.497-40.41 97.646-26.058 26.058-60.708 40.412-97.646 40.412-4.39 0-8.686-.184-12.983-.64l.093.73zm-18.834-5.03c5.302 1.28 10.97 2.286 17.005 2.927l-14.812-60.435-9.966 23.863 7.59 33.554h.182v.092zm-37.03-14.81c11.154 6.49 23.04 11.337 35.383 14.354l-7.04-30.995-6.126 14.812-1.28-.55 6.857-16.64-16.64-73.234-25.6 10.606 14.354 81.463h.09v.183zm8.595-110.172l20.206 89.053 9.875-23.862-16.73-68.57-13.35 3.38zm86.49 53.944l9.875 23.68 17.646-78.08-13.258-3.475v.09l-14.263 57.784zm-113.37-46.81l3.565 20.02 25.69-10.604-3.656-16.183-25.417 6.583-.183.183zm-5.03-28.985l4.847 27.43 5.303-1.373-5.76-27.245-4.39 1.187zm147.566 20.572l25.327 6.582 4.846-27.52h-.092v-.092l-23.952-6.217-6.127 27.247zM88.37 728.448l5.76 27.246.73-.184v-.09h.183l-5.76-27.246-.914.274zm2.284-.55l5.76 27.247 17.005-4.48-6.218-27.062-16.548 4.296zm17.92-4.66l6.217 27.06 13.258-3.382-6.674-27.062-2.65.73-.367.092-.458 1.19-1.372-.642-7.954 2.013zM224.05 748.47l5.302 1.37 6.033-27.06-6.033-1.556-5.303 27.246zm-3.11-.733l1.737.457 5.303-27.246-1.006-.273-6.035 27.062zm-5.028-1.28l3.656 1.006 6.035-27.062h-.092l-2.925-.732-6.673 26.788zm-16.64-16.55l-6.858 6.767c-.273.274-.273.823 0 1.098l4.48 4.57c.273.275.822.275 1.098 0l5.76-5.576-1.006.182h-.365c-1.097 0-2.01-.73-2.103-1.737l-1.006-5.304zm-74.88-3.198l2.65 10.97c.915-.273 1.738-.82 2.47-1.462h-.183l.365-.365c-.274-.184-.548-.366-.73-.732l-3.293-5.484c-.274-.55-.366-1.1-.274-1.647.09-.55.457-1.098 1.005-1.28l.092-.09c-.64-.095-1.372-.095-2.103.09zm89.14 8.137c.733 1.097 1.83 1.92 3.11 2.284h.092l2.742-11.062c-1.006-.274-2.012-.183-2.926.092l1.006 5.668c.275 1.19-.457 2.194-1.645 2.47l-2.377.547zm-11.975.09c.092.457.55.73.914.73l2.835-.55 2.287-2.284c.182-.092.273-.365.273-.457s-.092-.366-.273-.458l-4.297-4.39-1.555.275-1.28 1.188 1.097 5.945zm-71.406-.457c.093.182.275.273.367.365.73-1.28.823-2.743.458-4.206-.366-1.37-1.28-2.56-2.56-3.383h-.092l-.09.09-1.098.64c-.183.185-.274.366-.366.458-.092.274 0 .365 0 .55l3.38 5.485zm77.807 0l3.656-.732c-.365-1.278-.365-2.56 0-3.93.46-1.83 1.646-3.292 3.383-4.206-.09-.184-.457-.365-.64-.365h-.183l-9.234 1.827 3.747 3.84c.55.55.55 1.098.55 1.463v.092c-.09.55-.183 1.097-.64 1.37l-.64.64zm-78.263-8.046c1.28 1.006 2.194 2.286 2.65 3.84.367 1.19.367 2.56 0 3.75l10.424-6.218.092-.093c-.092 0-.183-.09-.274-.09l-5.76-2.744c-.548-.274-.914-.823-1.005-1.372 0-.18-.09-.364 0-.547l-.273.183.09-.092-5.943 3.383zm85.577.548c-1.188.73-2.01 1.828-2.376 3.2-.365 1.097-.365 2.286 0 3.383h.182l2.652-.548c.273 0 .365-.184.457-.275.092-.183.184-.365.092-.548l-1.006-5.212zM67.615 700.93l12.983 14.536 2.194 12.982 3.933-1.097-.092-.457 1.373-.273.09.457.916-.184-.092-.457 1.37-.273.092.457 16.458-4.297-1.28-5.67-37.944-15.724zm169.417 20.936l23.956 6.217 2.285-12.8 8.413-9.417-34.287 14.354-.365 1.646zm-99.29-.092l-.55 1.006c-.09.183-.09.457 0 .64.093.183.184.366.367.366l5.12 2.468-2.926-4.846c-.09-.183-.365-.365-.64-.365-.09 0-.182.09-.182.183l-.09.092-1.098.456zm1.554-2.194h.457c.55.09 1.098.457 1.28 1.005l3.11 5.212 5.76-11.886c.09-.182.09-.456.09-.64-.09-.182-.182-.365-.365-.365l-5.852-2.834h-.183c-.092 0-.183.093-.274.093-.09.092-.274.183-.274.365v.092l-4.39 8.868-.09.274c.275-.182.458-.182.732-.182zm-32.09-2.194l1.004 4.48 6.126-1.555-.09-.09h.09l-7.13-2.834zm127.358 3.84l1.098.274.182-.823-1.28.55zm-4.937-1.28l3.293.822-.092-.365 3.475-1.463 6.126-26.697-.275-.184.368-.64 12.16-16.824 12.617.64-.092-.09 9.873.364 1.555-8.686-10.97-1.92-1.19 6.766-3.198-.55-.092-.09-9.143-1.646-.365 2.47-12.525-2.196-.46 2.47-13.895-2.47 3.932-22.217-12.617 32.367 5.943 33.83-1.006 4.57 5.303 1.37.092-.457 1.37.275-.185.55zM106.93 715.74l9.6 3.93 4.48-1.187-1.19-4.938v-.092l5.944-33.646-2.377-6.034-17.646 13.988-.822-1.097 18.01-14.354-9.142-23.5-.457-1.187.09.365 3.84 21.577-13.897 2.47-.457-2.378-6.49 1.097.09-.092-6.126 1.19-.457-2.47-12.708 2.194v-.73L76.21 664.9l-11.063 1.92 1.646 8.96 22.4-1.005 1.737 2.285-.09.092 10.33 14.354.366.64 5.393 23.59zm136.867-23.497v.09l-5.943 26.15 36.023-14.903.273-.183 9.875-10.972-.092-.092 8.686-9.782 1.462-8.685.092.09.092-.73v.092l3.656-20.846-6.398-6.765-1.373-1.372.276.092-5.486-5.942-.182-.184-7.225 6.948 4.572 11.61-.184-.09.733 1.827-.914-.914-3.384 19.476-8.504-.457.092.09-14.537-.64-11.61 16.093zm-177.92 6.49l39.406 16.367-4.938-22.127-.274.184v-.823l-11.062-15.27.09-.09-.64-.915-22.856 1.097-2.194-11.978-.09.182-.275-2.103-1.188-6.767 4.39-11.337-3.2-3.11-3.84-3.655-13.258 14.08.457 2.56 4.846 27.43.183.183.09-.09.732.913 13.44 15.177.274.092h-.093zm38.31-29.347l.182 1.098 11.153-1.92-3.017-17.463-1.737-9.782-11.063 2.012 3.84 22.217.73 3.748-.09.09zm124.16-.914l11.153 2.012.184-1.098h-.092l3.656-20.206 1.006-5.85-9.6-1.647-.092-.092-1.463-.272-4.754 27.154zm12.98-.184l11.155 2.012.275-1.555h-.092l1.28-7.405h.09l.366-2.47 3.02-17.096-11.155-2.012-1.92 10.79h.092l-3.11 17.736zm-150.033.733l.183 1.28 8.777-1.555-.183.184 2.56-.458-.365-2.377h-.09L98.06 642.69h.09l-.09-.275-.548-2.65-11.154 2.01 4.936 27.246zm171.977.73l2.105.367.914-5.304v-.548l3.382-19.108h-.092l.184-.55.09-.548h.092l.184-.823.64-3.75-5.577-.913.273.183-3.383-.73-.09-.092-2.47-.457-.548 3.29h.092l-.367 1.92-3.564 20.024-1.006 5.394 8.96 1.555.18.09zm-185.78-5.575l1.005 5.85 11.154-2.01-2.835-16.184-1.92-10.696-.183.184v-1.098l-.457-2.834-11.063 2.012 1.646 9.508.274 1.37.092.276-.092.09 2.377 13.533zm190.444-.55l11.062 1.92 1.555-8.868-1.554-3.656.184.183-3.29-8.41 7.313-7.132-10.514-1.828-.55 3.29-1.006 5.67-3.2 18.834zM64.23 662.072l.55 3.384 11.062-1.92v-.092l-2.194-12.525-.183-.64.09-.092-1.92-10.972-.182-1.006-.366-2.285-5.852 1.006-4.663.822 3.11 3.018.09-.092.823.823v.09l3.292 3.2-4.663 11.886.823 4.663v-.092l.184.823zm113.374 70.95h-.55c-1.462-.183-2.742-.914-3.656-2.01l-4.39-5.487c-.822-1.006-1.187-2.377-1.096-3.84.182-1.463.914-2.742 2.01-3.657 1.007-.823 2.38-1.188 3.933-1.097 1.372.09 2.743.82 3.657 1.92l4.662 5.85-1.098.823-4.754-5.76c-.55-.822-1.554-1.37-2.56-1.463-1.005-.183-2.01.184-2.834.822-1.737 1.372-2.01 3.84-.64 5.578l4.39 5.485c.456.64 1.37 1.372 2.558 1.463 1.006.183 2.012-.183 2.836-.823l.365-.273.822 1.097-.274.273c-.914.73-2.103 1.098-3.382 1.098zm22.398-45.257l-1.28-.55 23.772-57.324 1.28.547L200 687.763zm-48.913-.092l-23.772-57.324 1.28-.55 23.77 57.326-1.28.55zm3.382-42.878h-6.857v-1.372h6.583l4.754-6.034-4.754-6.034h-6.583v-1.372h6.31l.548-.09.366.09h9.873l.55-.183.365.183h8.96l.457-.09h.457v.09h7.77l.458-.09h.457v.09h7.68l.457-.09h.457v.09h8.23v1.372h-7.77v12.068h7.77v1.372h-7.77v.09h-1.372v-.09h-7.223v.09h-1.37v-.09h-7.315v.09h-1.37v-.09H154.47zm30.17-1.372h7.224v-12.068h-7.223v12.068zm-8.685 0h7.314v-12.068h-7.313v12.068zm-10.605 0h9.234v-12.068h-9.326l-4.754 5.942 4.846 6.126zm-1.646 0l-3.932-4.937-3.932 4.937h7.864zm-7.863-12.068l3.84 4.846 3.84-4.846h-7.68zm-60.07 1.004H93.49l1.097-.822c23.497-17.006 51.474-26.057 80.73-26.057 28.344 0 55.498 8.502 78.63 24.594l.913.642-1.828.273-.184-.092c-22.674-15.725-49.463-24.045-77.53-24.045-28.8 0-56.32 8.777-79.452 25.417l-.09.09zm-28.524-1.37h-1.464l.274-.64c.823-1.83 1.92-3.384 3.2-4.664 2.56-2.285 5.943-3.29 9.417-2.926 5.486.64 10.606-3.108 11.703-8.502.64-3.384 2.743-6.4 5.668-8.047 3.017-1.736 6.583-2.103 9.783-.914 5.304 1.737 11.064-.822 13.167-5.852 1.372-3.107 4.023-5.667 7.223-6.673 3.292-1.098 6.857-.64 9.783 1.098 4.754 2.926 10.972 1.554 14.08-3.018 2.01-2.834 5.12-4.663 8.594-5.03 3.474-.364 6.857.733 9.326 3.11 4.022 3.748 10.33 3.748 14.354 0 .092-.092.182-.184.273-.184l.184-.183c2.47-2.103 5.668-3.108 8.87-2.743 3.472.366 6.58 2.195 8.593 5.03 3.2 4.48 9.416 5.76 14.08 3.017 2.834-1.83 6.4-2.195 9.783-1.098 3.2 1.006 5.94 3.565 7.223 6.674 2.193 5.12 7.953 7.68 13.166 5.852 3.198-1.097 6.765-.822 9.78.914 2.926 1.738 5.03 4.663 5.67 8.047 1.096 5.484 6.217 9.233 11.61 8.502 2.56-.273 4.94.092 6.948 1.28l1.006.548-2.012.55-.182-.092c-1.828-.822-3.84-1.096-5.668-.914-6.22.732-11.98-3.383-13.166-9.508-.64-3.018-2.377-5.486-5.12-7.132-2.56-1.554-5.76-1.828-8.687-.914-5.853 2.01-12.343-.914-14.812-6.675-1.098-2.834-3.475-4.937-6.4-5.942s-6.035-.64-8.686 1.006c-5.303 3.2-12.252 1.738-15.908-3.382-1.83-2.56-4.572-4.114-7.498-4.39-3.2-.273-6.217.732-8.32 2.835-4.57 4.298-11.702 4.298-16.273 0-2.285-2.103-5.21-3.108-8.32-2.834-3.017.273-5.76 1.828-7.497 4.388-3.565 5.028-10.514 6.583-15.908 3.383-2.652-1.554-5.76-1.92-8.686-1.005-2.834.914-5.12 3.108-6.4 5.942-2.377 5.76-8.87 8.686-14.812 6.675-2.834-1.006-6.125-.64-8.686.914-2.743 1.463-4.57 4.022-5.12 7.132-1.188 6.125-6.95 10.24-13.166 9.508-3.017-.365-6.034.55-8.32 2.652-1.188 1.097-2.194 2.47-2.834 3.932l.185.275z"/></svg>