<svg xmlns="http://www.w3.org/2000/svg" width="350" height="350" viewBox="0.5 568.5 350 350"><path fill="#071B36" d="M190.77 901.202c-3.018 0-5.943-1.188-8.047-3.2-4.022-3.748-10.33-3.748-14.354 0-2.47 2.378-5.853 3.566-9.327 3.11-3.475-.367-6.583-2.195-8.594-5.03-3.2-4.57-9.42-5.85-14.08-3.017-2.927 1.828-6.493 2.194-9.784 1.097-3.2-1.005-5.942-3.565-7.223-6.674-2.104-5.028-7.954-7.59-13.166-5.852-3.2 1.098-6.766.823-9.783-.914-2.925-1.737-5.028-4.663-5.668-8.046-1.006-5.395-6.126-9.143-11.703-8.503-3.475.366-6.857-.73-9.417-2.926-2.56-2.285-4.022-5.577-4.022-9.143.09-5.577-4.114-10.24-9.6-10.697-3.384-.274-6.492-2.012-8.687-4.846-2.012-2.65-2.743-6.308-2.012-9.69 1.28-5.395-1.92-10.88-7.223-12.434-3.29-1.006-6.034-3.383-7.405-6.584-1.372-3.107-1.372-6.674.09-9.874 2.287-4.937.275-10.972-4.478-13.714-3.02-1.737-5.12-4.48-5.853-7.863-.823-3.382 0-7.038 2.194-9.6 3.292-4.388 2.652-10.604-1.462-14.263-2.56-2.285-4.114-5.576-4.114-9.05s1.463-6.767 4.114-9.052c4.206-3.566 4.846-9.875 1.463-14.264-2.102-2.74-2.833-6.216-2.193-9.6s2.834-6.308 5.942-7.862c4.845-2.65 6.765-8.594 4.48-13.714-1.464-3.2-1.464-6.767-.093-9.874 1.463-3.11 4.114-5.486 7.406-6.584 5.303-1.645 8.503-7.13 7.223-12.434-.73-3.29 0-6.95 2.012-9.69 2.194-2.835 5.21-4.572 8.686-4.847 5.485-.457 9.69-5.12 9.6-10.697 0-3.475 1.463-6.766 4.023-9.143 2.56-2.377 5.942-3.475 9.417-2.926 5.485.73 10.605-3.02 11.61-8.504.64-3.383 2.744-6.4 5.67-8.046 3.017-1.737 6.582-2.103 9.782-.914 5.212 1.828 10.972-.73 13.166-5.852 1.37-3.108 4.022-5.577 7.223-6.674 3.29-1.098 6.857-.64 9.783 1.097 4.846 2.835 10.88 1.554 14.08-3.017 2.01-2.835 5.028-4.664 8.594-5.03 3.475-.364 6.857.732 9.326 3.11 4.022 3.748 10.33 3.748 14.354 0l.184-.184.182-.183c2.378-2.103 5.67-3.108 8.87-2.743 3.474.365 6.582 2.194 8.593 5.03 3.202 4.57 9.42 5.85 14.08 3.016 2.927-1.83 6.493-2.194 9.784-1.097 3.2 1.005 5.943 3.564 7.223 6.673 2.195 5.03 7.955 7.59 13.166 5.852 3.2-1.098 6.766-.822 9.783.914 2.926 1.736 5.028 4.662 5.668 8.045 1.006 5.394 6.126 9.143 11.703 8.503 3.475-.365 6.857.73 9.417 2.926 2.56 2.285 4.022 5.577 4.022 9.143-.09 5.577 4.115 10.24 9.6 10.697 3.384.274 6.492 2.012 8.687 4.846 2.012 2.65 2.743 6.31 2.012 9.69-1.28 5.396 1.92 10.88 7.223 12.435 3.292 1.006 6.034 3.383 7.405 6.584 1.372 3.106 1.372 6.673-.09 9.873-2.287 4.937-.275 10.972 4.478 13.714 3.02 1.737 5.12 4.48 5.853 7.863.73 3.475-.09 7.13-2.194 9.6-3.292 4.39-2.652 10.605 1.462 14.264 2.56 2.285 4.114 5.576 4.114 9.05s-1.463 6.675-4.114 9.052c-4.205 3.658-4.846 9.875-1.463 14.264 2.103 2.742 2.834 6.217 2.193 9.6-.64 3.383-2.834 6.31-5.942 7.863-4.845 2.65-6.765 8.594-4.478 13.714 1.462 3.2 1.462 6.767.09 9.874-1.462 3.11-4.113 5.487-7.404 6.585-5.303 1.645-8.504 7.13-7.223 12.434.73 3.29 0 6.948-2.012 9.69-2.195 2.834-5.212 4.57-8.686 4.846-5.486.457-9.69 5.12-9.6 10.697 0 3.475-1.464 6.766-4.023 9.143-2.56 2.377-5.943 3.475-9.418 2.926-5.485-.73-10.605 3.018-11.61 8.503-.64 3.383-2.743 6.4-5.67 8.046-3.017 1.738-6.582 2.104-9.782.915-5.12-1.828-10.97.73-13.166 5.852-1.37 3.108-4.022 5.577-7.223 6.674-3.29 1.1-6.857.642-9.783-1.096-4.846-2.834-10.88-1.555-14.08 3.018-2.01 2.834-5.027 4.662-8.594 5.028-.275.092-.823.092-1.19.092zm-15.087-7.223c3.018 0 5.852 1.097 8.046 3.107 2.103 2.012 5.21 3.11 8.32 2.835 3.017-.274 5.76-1.83 7.496-4.39 3.565-5.027 10.515-6.582 15.908-3.382 2.65 1.554 5.76 1.92 8.687 1.006 2.927-1.006 5.304-3.2 6.4-5.943 2.377-5.76 8.868-8.686 14.812-6.674 2.926 1.005 6.125.64 8.686-.916 2.65-1.646 4.48-4.114 5.12-7.13 1.097-6.127 6.948-10.24 13.165-9.51 3.018.366 6.035-.55 8.32-2.65 2.194-2.013 3.475-4.94 3.475-8.047-.092-6.308 4.662-11.61 10.88-12.068 3.108-.275 5.852-1.83 7.59-4.298 1.827-2.47 2.468-5.577 1.735-8.595-1.463-6.034 2.104-12.25 8.047-14.08 2.926-.914 5.394-3.017 6.582-5.76 1.28-2.834 1.19-5.943-.092-8.777-2.65-5.577-.457-12.434 5.03-15.45 2.65-1.556 4.57-4.115 5.21-7.04.64-3.11-.09-6.22-1.92-8.596-3.84-4.937-3.108-12.068 1.737-16.183 2.377-2.102 3.657-4.936 3.657-7.953 0-3.108-1.37-5.943-3.657-7.954-4.663-4.114-5.395-11.246-1.737-16.183 1.83-2.47 2.56-5.486 1.92-8.595-.64-2.926-2.468-5.485-5.21-7.04-5.396-3.018-7.59-9.783-5.03-15.45 1.28-2.652 1.28-5.944.092-8.778-1.188-2.742-3.565-4.846-6.582-5.76-5.943-1.828-9.51-7.955-8.047-14.08.732-2.926.092-6.034-1.736-8.594-1.92-2.47-4.572-4.023-7.59-4.298-6.308-.548-11.062-5.852-10.88-12.068 0-3.108-1.28-5.942-3.474-8.046-2.193-2.01-5.21-3.017-8.32-2.65-6.217.73-11.977-3.383-13.074-9.51-.64-3.017-2.47-5.576-5.12-7.13-2.56-1.555-5.76-1.83-8.686-.914-5.852 2.103-12.344-.823-14.812-6.675-1.188-2.834-3.564-5.027-6.4-5.94-2.925-.916-6.033-.642-8.685 1.005-5.304 3.2-12.25 1.736-15.91-3.384-1.827-2.56-4.57-4.113-7.495-4.387-3.11-.275-6.127.73-8.32 2.834-4.572 4.297-11.703 4.297-16.274 0-2.103-2.012-5.21-3.11-8.32-2.834-3.017.273-5.76 1.828-7.497 4.388-3.564 5.03-10.513 6.584-15.907 3.385-2.65-1.555-5.76-1.92-8.686-1.006-2.926 1.005-5.303 3.198-6.4 5.94-2.377 5.76-8.868 8.687-14.812 6.676-2.926-1.006-6.125-.64-8.686.914-2.652 1.646-4.48 4.113-5.12 7.13-1.098 6.127-6.95 10.24-13.166 9.51-3.018-.366-6.035.55-8.32 2.65-2.286 2.105-3.565 5.03-3.475 8.047.09 6.31-4.664 11.61-10.88 12.068-3.11.274-5.853 1.83-7.59 4.298-1.828 2.56-2.468 5.668-1.736 8.594 1.462 6.034-2.104 12.252-8.046 14.08-2.926.914-5.395 3.018-6.583 5.76-1.28 2.834-1.188 5.943.09 8.777 2.653 5.577.46 12.434-5.027 15.45-2.65 1.556-4.57 4.115-5.21 7.04-.642 3.11.09 6.22 1.92 8.596 3.747 4.937 3.016 11.977-1.738 16.183-2.377 2.103-3.657 4.937-3.657 7.954 0 3.108 1.37 5.943 3.657 7.954 4.663 4.115 5.395 11.247 1.737 16.184-1.83 2.47-2.56 5.486-1.92 8.595.64 2.925 2.47 5.484 5.21 7.04 5.396 3.017 7.59 9.782 5.03 15.45-1.28 2.834-1.372 5.943-.092 8.777 1.188 2.743 3.565 4.846 6.583 5.76 5.942 1.83 9.508 7.955 8.046 14.08-.73 2.926-.092 6.035 1.736 8.595 1.92 2.468 4.57 4.022 7.59 4.297 6.308.548 11.06 5.85 10.88 12.067 0 3.108 1.28 5.943 3.474 8.046 2.194 2.012 5.21 3.018 8.32 2.65 6.217-.73 11.977 3.384 13.074 9.51.64 3.017 2.468 5.577 5.12 7.13 2.56 1.556 5.85 1.83 8.686.916 5.852-2.105 12.343.82 14.812 6.673 1.188 2.834 3.565 5.028 6.4 5.943 2.925.914 6.033.64 8.685-1.006 5.304-3.2 12.253-1.737 15.91 3.383 1.828 2.56 4.57 4.114 7.497 4.39 3.108.273 6.125-.732 8.32-2.836 2.283-2.01 5.21-3.108 8.226-3.108zm-.183-12.434c-36.846 0-71.497-14.354-97.646-40.412-26.148-26.148-40.503-60.8-40.503-97.646s14.355-71.497 40.412-97.646c26.058-26.15 60.8-40.41 97.737-40.41 36.845 0 71.496 14.353 97.645 40.41 26.058 26.148 40.41 60.8 40.41 97.646s-14.353 71.497-40.41 97.646c-26.148 26.057-60.8 40.412-97.645 40.412zm-.09-274.835c-36.48 0-70.767 14.265-96.55 40.23-25.874 25.875-40.138 60.252-40.138 96.64 0 36.572 14.264 70.95 40.138 96.64 25.966 25.875 60.25 40.138 96.64 40.138 36.57 0 70.95-14.263 96.64-40.137 25.783-25.873 40.046-60.25 40.046-96.73 0-36.57-14.263-70.95-40.137-96.64-25.693-25.875-60.07-40.14-96.64-40.14zm-1.373 230.127c-49.828 0-90.423-40.595-90.423-90.423s40.595-90.423 90.423-90.423 90.423 40.596 90.423 90.424-40.595 90.423-90.423 90.423zm-61.257-25.874c16.64 15.816 38.4 24.594 61.257 24.594 49.098 0 89.05-39.954 89.05-89.05 0-22.858-8.685-44.618-24.593-61.26l-17.098 17.1 29.715 32.09-.913.274-97.37 56.87-.367-.366-9.69-10.423-4.206 4.207-.092.09 14.72 15.818 96.914-56.595.55 1.19-.366.182-97.372 56.868-.365-.365L137.467 786l-4.205 4.208 20.022 21.484 96.914-56.594.55 1.188-.367.183-97.37 56.868-.365-.365-20.48-21.852-4.206 4.206 25.417 27.338 96.73-56.504.823 1.098-97.828 57.143-.366-.364-25.69-27.338-14.266 14.265zm61.257-153.51c-49.097 0-89.05 39.955-89.05 89.053 0 24.137 9.507 46.628 26.695 63.45l14.446-14.444-6.857-7.498.915-.914 6.95 7.406 4.204-4.206-12.344-13.35 1.098-.82 12.343 13.073 4.206-4.206-17.737-19.108 1.097-.824 17.555 18.835 4.205-4.206-23.223-24.96.457-.273 97.646-56.867h.457l3.383 3.656 17.006-17.007h-.093l.184-.183c-16.914-17.19-39.497-26.606-63.543-26.606zm-30.17 122.424l9.324 10.057 95.727-55.862-28.617-30.72-9.69 9.69c2.56.823 5.76.458 8.137-.913l.55-.276 15.358 16.55-.914.273c-1.827 1.097-3.017 2.743-3.29 4.39-.184 1.37.273 2.65 1.28 3.748l.73.73-.914.275-68.938 40.23-.365-.367c-2.377-2.56-7.223-2.926-10.88-.914l-.55.547-2.102-2.377-4.844 4.937zm-22.95-24.777l21.943 23.68 4.846-4.846.092-.09-12.435-13.35.914-.274c1.83-1.097 3.018-2.743 3.29-4.39.185-1.37-.272-2.65-1.278-3.748l-.55-.548.55-.274 69.118-40.32.366.365c.457.458 1.006.824 1.554 1.19l10.058-10.058-2.835-3.11-95.633 55.773zm35.383 19.11c2.56 0 4.846.82 6.492 2.284l67.29-39.223c-.914-1.188-1.28-2.65-1.005-4.205.274-1.92 1.463-3.75 3.292-4.937l-13.35-14.446c-2.927 1.463-6.49 1.737-9.417.457l-59.978 59.977 1.37 1.463c1.557-.914 3.385-1.37 5.305-1.37zm-18.652-13.26l11.154 11.887 59.52-59.43c-.365-.273-.822-.548-1.188-.913l-67.292 39.223c.915 1.188 1.28 2.65 1.006 4.205-.182 2.012-1.37 3.75-3.2 5.03zm13.898-34.56c-3.565 0-6.857-1.462-8.686-4.02l-.274-.367 1.097-.822.274.366c1.555 2.104 4.48 3.475 7.59 3.475 3.2 0 6.125-1.37 7.68-3.564l.273-.366 1.098.823-.274.366c-1.83 2.557-5.213 4.11-8.778 4.11zm0-5.12c-5.577 0-10.057-3.656-10.057-8.228 0-4.572 4.478-8.23 10.056-8.23s10.058 3.657 10.058 8.23c0 4.572-4.48 8.23-10.058 8.23zm0-15.084c-4.754 0-8.686 3.108-8.686 6.857 0 3.748 3.932 6.857 8.686 6.857s8.686-3.11 8.686-6.857c0-3.75-3.932-6.857-8.686-6.857zm-22.948 8.228c-3.566 0-6.857-1.463-8.686-4.023l-.274-.364 1.097-.822.274.365c1.554 2.102 4.48 3.474 7.588 3.474s6.034-1.372 7.68-3.566l.274-.365 1.097.822-.274.366c-1.83 2.56-5.213 4.114-8.778 4.114zm0-5.12c-3.566 0-6.857-1.463-8.686-4.022l-.274-.366 1.097-.823.274.366c1.554 2.102 4.48 3.473 7.588 3.473s6.034-1.37 7.68-3.564l.274-.367 1.097.823-.274.365c-1.83 2.56-5.213 4.114-8.778 4.114zm-.092-5.212c-5.577 0-10.057-3.656-10.057-8.23 0-4.57 4.478-8.228 10.056-8.228s10.058 3.658 10.058 8.23c0 4.572-4.48 8.228-10.058 8.228zm0-15.085c-4.754 0-8.686 3.108-8.686 6.856 0 3.75 3.932 6.857 8.686 6.857s8.686-3.108 8.686-6.857c0-3.748-3.932-6.856-8.686-6.856zm31.725 12.16c-3.564 0-6.855-1.464-8.685-4.023l-.274-.366 1.1-.822.273.365c1.554 2.105 4.48 3.476 7.588 3.476s6.127-1.37 7.682-3.565l.273-.365 1.098.823-.274.366c-1.83 2.56-5.212 4.112-8.78 4.112zm0-5.212c-3.564 0-6.855-1.463-8.685-4.023l-.274-.365 1.1-.822.273.365c1.554 2.104 4.48 3.475 7.588 3.475 3.2 0 6.127-1.37 7.682-3.566l.273-.366 1.098.822-.274.366c-1.83 2.56-5.212 4.113-8.78 4.113zm0-5.12c-3.564 0-6.855-1.462-8.685-4.022l-.274-.365 1.1-.824.273.366c1.554 2.103 4.48 3.475 7.588 3.475s6.127-1.372 7.682-3.565l.273-.366 1.098.823-.274.365c-1.83 2.56-5.212 4.113-8.78 4.113zm0-5.212c-5.576 0-10.056-3.656-10.056-8.23 0-4.57 4.48-8.228 10.057-8.228s10.06 3.658 10.06 8.23c0 4.572-4.48 8.228-10.06 8.228zm0-15.085c-4.753 0-8.685 3.108-8.685 6.856 0 3.75 3.932 6.857 8.686 6.857 4.756 0 8.687-3.107 8.687-6.856 0-3.747-3.93-6.856-8.686-6.856zm38.31-25.69h-1.372v-.092h-10.24v.09h-1.37v-.09h-10.24v.09h-1.37v-.09h-26.15v-1.372h11.246l-4.754-12.16h-6.49v-1.37h27.06v.09h10.697l.457-.09h.458v.09h10.696l.457-.09h.458v.09h10.423v1.372h-9.966v12.068h9.966v1.372h-9.966v.09zm-11.61-1.464h10.238v-12.068h-10.24v12.068zm-11.613 0h10.24v-12.068h-10.332l.092 12.068zm-14.262 0h12.8v-12.16h-8.046l-4.755 12.16zm-5.303-12.068l4.297 10.88 4.296-10.88h-8.594z"/></svg>