<svg xmlns="http://www.w3.org/2000/svg" width="350" height="350" viewBox="15.5 459.5 350 350"><g fill="#071b36"><path d="M344.7 643.6a11.9 11.9 0 0 0 0-18.1 10.4 10.4 0 0 1-1.4-14.2c2-2.8 2.8-6.3 2.2-9.6s-2.9-6.3-5.9-7.9a10.7 10.7 0 0 1-4.5-13.7 12 12 0 0 0 .1-9.9 12.6 12.6 0 0 0-7.4-6.6 10.5 10.5 0 0 1-7.2-12.4c.7-3.4 0-7-2-9.7a12 12 0 0 0-8.7-4.8c-5.5-.5-9.7-5.2-9.6-10.7 0-3.5-1.4-6.8-4-9.2-2.7-2.4-6-3.4-9.4-3-5.5.8-10.6-3-11.6-8.4a11.8 11.8 0 0 0-15.5-9c-5.1 1.9-11-.7-13.2-5.8a11.8 11.8 0 0 0-17-5.6 10.8 10.8 0 0 1-14-3c-2-2.9-5-4.7-8.6-5-3.5-.4-6.9.7-9.4 3-4 3.8-10.3 3.8-14.3 0-2.6-2.3-6-3.4-9.4-3a12 12 0 0 0-8.5 5 10.6 10.6 0 0 1-14.1 3 11.9 11.9 0 0 0-17 5.6c-2.2 5-8 7.7-13.2 5.8-3.2-1-6.8-.8-9.8 1a12 12 0 0 0-5.6 8c-1 5.4-6.2 9.1-11.8 8.5-3.4-.4-6.8.7-9.4 3-2.5 2.3-4 5.5-4 9 .1 5.6-4.1 10.3-9.6 10.8-2.4.1-4.6 1-6.4 2.5l-.7.7 1.5.2h.2c1.6-1.3 3.4-2 5.4-2.2 6.2-.4 11-5.7 10.9-12a10.5 10.5 0 0 1 11.8-10.7 12 12 0 0 0 13.1-9.5c.6-3 2.4-5.6 5.2-7.2 2.5-1.5 5.7-1.8 8.7-.9 5.9 2 12.4-.9 14.8-6.7 1.2-2.9 3.5-5 6.5-5.9 2.9-1 6-.6 8.6 1a12.2 12.2 0 0 0 16-3.4 10.4 10.4 0 0 1 15.8-1.5 11.9 11.9 0 0 0 16.2 0c2.1-2 5.3-3.1 8.4-2.9a10 10 0 0 1 7.5 4.4 11.9 11.9 0 0 0 15.9 3.4c2.6-1.6 5.7-2 8.7-1 3 1 5.3 3.1 6.4 6a12 12 0 0 0 14.9 6.6c2.9-1 6-.6 8.6 1a11 11 0 0 1 5.2 7c1 6.2 7 10.3 13 9.6 3.1-.4 6.2.5 8.4 2.6s3.4 5 3.4 8a12 12 0 0 0 11 12.1c3 .3 5.7 1.9 7.5 4.3 1.8 2.5 2.5 5.6 1.7 8.6-1.4 6 2.1 12.3 8 14.1 3 1 5.5 3 6.7 5.8 1.2 2.8 1.2 6-.1 8.7a12 12 0 0 0 5 15.5 10.5 10.5 0 0 1 3.3 15.6c-3.8 5-3.1 12 1.7 16.2a10.5 10.5 0 0 1 0 16 12.1 12.1 0 0 0-1.7 16.1 10.6 10.6 0 0 1-3.2 15.6 9 9 0 0 0-3 2.3l-.1.2.7 1.4.5-.5c.9-1 1.8-1.7 2.7-2.2 3-1.5 5.1-4.5 6-7.8.7-3.5-.1-7.2-2.2-9.6a10.8 10.8 0 0 1 1.3-14.6zM320.5 718l-1.4-.5v.7l.1.4a10.4 10.4 0 0 1-9.3 12.8c-6.2.5-11 5.8-10.9 12 0 3.2-1.3 6-3.4 8.1-2.3 2-5.4 3-8.4 2.7a12 12 0 0 0-13.1 9.5 10 10 0 0 1-5 7c-2.8 1.6-6 1.9-8.7 1-6-2-12.5.9-14.9 6.6-1.2 3-3.5 5-6.5 6-2.9 1-6 .6-8.6-1a12.2 12.2 0 0 0-16 3.3 10.4 10.4 0 0 1-15.8 1.6 12 12 0 0 0-16.1 0c-2.1 2-5.3 3.1-8.4 2.8a10 10 0 0 1-7.5-4.4 11.9 11.9 0 0 0-15.9-3.3c-2.6 1.5-5.7 1.9-8.7 1-3-1-5.3-3.2-6.4-6a12 12 0 0 0-14.9-6.7c-2.9 1-6.2.7-8.6-.9a11 11 0 0 1-5.2-7.1c-1-6.1-7-10.2-13-9.5-3.1.4-6.2-.6-8.4-2.7-2.2-2-3.4-4.9-3.4-8a12 12 0 0 0-11-12c-3-.4-5.7-2-7.5-4.4s-2.5-5.6-1.7-8.6c1.4-6-2.1-12.2-8-14-3-1-5.5-3-6.7-5.8-1.2-2.8-1.2-6 .1-8.8a12 12 0 0 0-5-15.4 10.5 10.5 0 0 1-3.3-15.6c3.8-5 3.1-12.1-1.7-16.3a10.5 10.5 0 0 1 0-15.9 12.1 12.1 0 0 0 1.7-16.1 10.6 10.6 0 0 1 3.2-15.7A12 12 0 0 0 47 590v-.3l-.8-1.4-.3.7a10.1 10.1 0 0 1-4.4 4.6c-3 1.6-5.1 4.5-6 7.9-.7 3.5.1 7.1 2.2 9.6a10.6 10.6 0 0 1-1.4 14.2 12 12 0 0 0 0 18.1c4.2 3.6 4.8 10 1.4 14.3a12 12 0 0 0-2.2 9.6c.7 3.4 2.9 6.3 5.9 7.9 4.7 2.6 6.7 8.7 4.5 13.7a12 12 0 0 0-.1 9.9c1.4 3 4 5.4 7.4 6.5 5.3 1.6 8.5 7.2 7.2 12.5-.8 3.4 0 7 2 9.7a12 12 0 0 0 8.7 4.8c5.5.5 9.7 5.1 9.6 10.7 0 3.5 1.4 6.8 4 9.2 2.6 2.3 6 3.3 9.4 2.9 5.5-.7 10.6 3 11.6 8.5a11.8 11.8 0 0 0 15.5 9c5.1-1.9 11 .7 13.2 5.8a11.8 11.8 0 0 0 17 5.6 10.8 10.8 0 0 1 14 3c2 2.8 5 4.7 8.6 5 3.5.4 6.9-.7 9.4-3 4-3.8 10.3-3.8 14.3 0a12 12 0 0 0 8 3.1h1.3a12 12 0 0 0 8.6-5.1c3.2-4.6 9.4-5.9 14.1-3 3 1.8 6.5 2.2 9.8 1 3.2-1 6-3.5 7.2-6.6 2.2-5.1 7.9-7.7 13.2-5.8 3.2 1 6.8.8 9.8-1 2.9-1.7 5-4.6 5.6-8 1-5.4 6.3-9.2 11.7-8.5a12.2 12.2 0 0 0 13.4-12c0-5.7 4.2-10.3 9.7-10.8 3.4-.3 6.5-2 8.7-4.8 1.9-2.8 2.6-6.2 1.9-9.5l-.2-.1z"/><path d="M198.6 522v-1.4H190v-.2h-1.2v.2h-8.6v1.3h8.6v12.2H180v1.4h18.4V534H190v-12.2m142.2 174.8l-.6-.5-5.7-18.6.4-.6-.8-.5-5.8-18.6.4-.6-.8-.5-5.6-18 .4-.6-.7-.5-5.7-18.3.4-.5-.8-.6-5.6-18.4.3-.5-.6-.5-5.7-18.4.4-.5-.7-.6-.6-1.5h-33.6l-3-9.7h-71.4l-2.9-9.6H57.7l-3.3-11c-1-2.7-3.9-5-6.6-5a4 4 0 0 0-3.3 1.6c-.7 1.1-1 2.6-.5 3.9l5.5 17.8.1.5 8.7 28.4.3.7 6 19.8 38.2 124.3a135.8 135.8 0 0 1-46.5-132l-1.1-1.7-.2 1a138.8 138.8 0 0 0 37.6 125.6c3.4 3.5 7 6.6 10.7 9.6l.2.3c24.7 20 54.7 30.6 86.7 30.6A137.4 137.4 0 0 0 303 714.6l.4-.6-1.5-.2-.1.2a137.7 137.7 0 0 1-111.6 57.7c-26.5 0-52.2-7.6-74.2-21.8l-19.2-62.6h.4l-.2-.7h115l3 9.8.2-.1h71l3 9.7h44.7v-.4l.2-.2-2.3-8.1.4-.6zm-3.4 7.6h-2l4-5.6 1.7 5.7h-3.7zm-107.8-18l-5.2 7.5-2.4-7.6h7.6zm-116.4 54.9L65.7 614.6l-6.2-20.2-.2-.7-8.6-28v-.5L45 547.5c-.2-1-.2-2 .3-2.8.5-.6 1.3-1 2.2-1 2.2 0 4.6 1.8 5.3 4l4.1 13.7.2.5 13.5 44.2 43.6 142.1a126 126 0 0 1-9.7-7zM58.4 560v-.1h.3L64 564l-2.6 3.8-1-.7-1.8-5.8-.2-.4-.2-.6.4-.2-.3-.2zm2.6-.1h5.8l-2.1 3-3.7-3zm13.8-.1h2l-2.1 3.1-4-3.1h4zm11.7 0l-2.2 3.1-3.9-3h6zm9.8 0l-2 3.1-4.1-3h6.1zm19.6 0l-2.1 3.1-4-3h6.1zm29.4 0l-2 3.1-4-3h6zm4.7 7.7l-.3.3-5.3-4 2.7-4h.5l2.4 7.7zm102.3 10.4l5.2-7.5 2.3 7.5h-7.5zm38.7 9.8l4-5.7 1.6 5.7H291zm6 19.4l4-5.8 1.7 5.8h-5.8zm5.9 19.4l3.9-5.7 1.8 5.7H303zm6 19.5l3.8-5.8 1.9 5.8h-5.8zm5.6 19.5l4.2-6 1.8 6h-6zm6.3 19.4l4.1-5.9 1.7 5.9h-5.8zm9.6 12.1l-5 7.3H318l5.8-8.3h6.3l.3 1zm-55.9-10.8l-5.7 8.4h-7.3l5.7-8.4h7.3zm-9 0l-5.7 8.4h-7.3l5.7-8.4h7.4zm-8.9 0l-5.8 8.4h-7.3l5.8-8.4h7.3zm-8.9 0l-5.7 8.4h-7.3l5.7-8.4h7.3zm-9 0l-5.8 8.4h-7.3l5.8-8.4h7.3zm-8.8 0l-5.8 8.4h-7.3l5.8-8.4h7.3zM190 578l5.7-8.4h7.2l-5.7 8.4h-7.2zm74.3 9.7l5.7-8.3h7.4l-5.8 8.3h-7.3zm-6 9.8l5.2-7.5 2.3 7.5h-7.5zm37 9.8H288l5.7-8.4h6.3l.3 1-5.1 7.4zm12 38.8h-7l5.7-8.3h6.2l.3.9-5.1 7.4zm5.5 19.5h-7l5.7-8.3h6.5l.2.5-5.4 7.8zm-15.5 29l-2.6-8.3h32.6l2.5 8.4h-32.5zM95.7 657.2l-5.2 7.5-2.3-7.5h7.5zm-6.2-19.5l-5.3 7.7-2.4-7.7h7.7zm95.8-50l4.3-6.1 2 6.2h-6.3zm10 8.1l-2-6.7h6.6l-4.6 6.7zm.5 1.7l5.8-8.4h7.3l-5.8 8.4h-7.3zm87.3 1.3l-5.7 8.4H270l5.8-8.4h7.3zm-15.5 0h6.6l-4.5 6.7-2.1-6.7zm-3.5 18.1l5.3-7.6 2.4 7.6H264zm25.1 1.4l-5.8 8.3h-7.2l5.7-8.3h7.3zm9 27.7H291l5.7-8.3h7.4l-5.8 8.3zm-90.6 19.5l5.4-7.7 2.4 7.7h-7.8zm-107.4-27.7h7.3l-5.9 8.3h-7.2l5.8-8.3zm16-.1l-5.7 8.3h-7.3l5.7-8.3h7.4zm9 0l-5.7 8.3H112l5.8-8.3h7.3zm8.9 0l-5.8 8.3H121l5.8-8.3h7.3zm9 0l-5.8 8.3H130l5.7-8.3h7.3zm9 0l-5.9 8.3H139l5.8-8.3h7.3zm8.8 0l-5.8 8.3h-7.3l5.8-8.3h7.3zm8.8 0l-5.7 8.3h-7.3l5.7-8.3h7.3zm9.1 0l-5.8 8.3h-7.3l5.8-8.3h7.3zm8.9 0l-5.8 8.3h-7.3l5.8-8.3h7.3zm9 0l-5.8 8.3h-7.3l5.7-8.3h7.3zm8.7 0l-5.8 8.3h-7.3l5.8-8.3h7.3zM69 573.6l2.6-4 5.3 4.2-2.5 3.8-5.4-4zm29.4 0l2.6-4 5.3 4.2-2.6 3.8-5.3-4zm92.7 33.5l4.4-6.3 2 6.3H191zm90.6 37.3l-2.2-6.7h6.7l-4.5 6.7zm-5.6 11.3l5.4-7.9 2.3 7.9h-7.7zm-1.8 0H267l5.8-8.3h7.3l-5.8 8.3zm-46.2-8.3h7.3l-5.8 8.3h-7.3l5.8-8.3zm9 0h7.3l-5.8 8.3h-7.3l5.7-8.3zm8.9 0h7.3l-5.8 8.3h-7.3l5.8-8.3zm9 0h7.3l-5.8 8.3h-7.3l5.8-8.3zm9 0h7.2l-5.7 8.3h-7.3l5.7-8.3zm-44.9 0h7.3l-5.7 8.3H214l-.1-.4 5.2-8zm61.3-1.4h-7.6l-.7-.4-.2.4h-8l-.7-.4-.3.4h-8l-.7-.4-.2.4h-8l-.7-.4-.3.4h-8l-.6-.4-.3.4h-8l-.7-.4-.2.4h-8l-.7-.4-.3.4h-7.7l-2.5-8.3h70l2.6 8-.2.3zm-71.2 0h-7.8l5.5-8 2.3 8zm52.2-9.8l5.7-8.3h7.3l-5.7 8.3h-7.3zm-9 0l5.8-8.3h7.3l-5.8 8.3h-7.3zm-9 0l5.8-8.3h7.3l-5.8 8.3h-7.3zm-8.8 0l5.7-8.3h7.3l-5.7 8.3h-7.3zm-9 0l5.7-8.3h7.3l-5.8 8.3h-7.3zm-8.9 0l5.8-8.3h7.3l-5.7 8.3h-7.4zm4-8.3l-5.8 8.3h-7.3l5.8-8.3h7.3zm-13.5 6.7l-2-6.7h6.6l-4.6 6.7zm67.2-8h-69.6l-2.6-8.4h70l2.4 8-.2.3zm-101-19.5l5.7-8.4h7.3l-5.8 8.4h-7.3zm-9.1 0l5.7-8.3h7.3l-5.8 8.4h-7.2zm50.2 1.4l-5.6 8.3h-7.2v-.1l5.5-8.2h7.3zm-31.2 9.7l-5.8 8.3h-7.3l5.8-8.3h7.3zm-9 0l-5.1 7.3-2.1-6.7-.2-.7h7.4v.1zm-8.8 8.3h-5.8l2-2.9 3.8 3zm-9.7 0h-5.9l2-2.9 3.9 3zm-9.8 0H140l2-2.9 3.9 3zm-9.9 0h-5.9l2-2.9 3.9 3zm-9.8 0h-5.8l2-2.9 3.8 3zm-9.9 0h-5.8l2-2.9 3.8 3zm-9.7 0h-5.9l2.1-2.9 3.8 3zm-9.8 0H91l2-2.9 3.8 3zm-5-3.6l-2.5 3.7-5.3-4 2.5-3.8 5.3 4zm71.4-16.8l-2.3-7.4h7.4l-5.1 7.4zm-65.2-18l2.5-3.7 5.3 4.1-2.5 3.8L98 588zm48.6 14.8l2.6-3.7 5.3 4.1-2.6 3.8-5.3-4.2zm4.6 5.2l-2.6 3.8-5.4-4.1 2.6-3.8 5.4 4zm-11-10l2.6-3.8 5.3 4-2.6 3.8-5.3-4zm-3.5 4.8l2.6-3.8 5.3 4.1-2.6 3.8-5.3-4.1zm4.7 5.2l-2.6 3.8-5.4-4.1 2.6-3.8 5.4 4zm-11-10l2.5-3.8 5.3 4-2.6 3.8-5.3-4zm-3.5 4.8l2.6-3.8 5.3 4.1-2.5 3.8-5.4-4.1zm4.6 5.3l-2.5 3.8-5.3-4.1 2.5-3.9 5.3 4.2zm-11-10.2l2.6-3.7 5.3 4-2.5 3.8-5.4-4zm-3.3 4.9l2.5-3.8 5.4 4.1-2.5 3.8-5.4-4.1zm4.4 5.3l-2.5 3.8-5.3-4.1 2.5-3.9 5.3 4.2zM111 598l2.5-3.7 5.3 4-2.5 3.8-5.3-4zm-3.4 5l2.5-3.8 5.3 4.1-2.5 3.8-5.3-4.2zm-11.8.3l-2.6 3.8-5.3-4.2 2.6-3.7 5.3 4.1zm-4.5-5.3l2.6-3.7 5.4 4-2.6 3.8-5.4-4zm11 10.2l-2.6 3.8-5.3-4.1L97 604l5.3 4.2zm3.4-4.9l-2.6 3.8-5.3-4.2 2.6-3.7 5.3 4.1zm6.4 4.9l-2.6 3.8-5.3-4.1 2.6-3.9 5.3 4.2zm-5.6-6L101 598l2.6-3.7 5.3 4-2.5 3.8zM94.7 593l2.5-3.9 5.3 4.1-2.5 3.9-5.3-4.1zm-9.9 0l2.6-3.9 5.3 4.1-2.6 3.9-5.3-4.1zm-.8 1.2l5.3 4-2.6 3.8-5.3-4 2.6-3.8zm3 9.7l5.3 4.2-2.6 3.8-5.3-4.1L87 604zm11.7 9l-2.6 3.8-5.3-4 2.6-3.8 5.3 4zm9.9 0l-2.6 3.8-5.3-4 2.6-3.8 5.3 4zm9.8 0l-2.6 3.8-5.3-4 2.6-3.8 5.3 4zm9.7 0l-2.5 3.8-5.3-4 2.5-3.8 5.3 4zm9.8 0l-2.5 3.8-5.3-4 2.5-3.8 5.3 4zm9.9 0l-2.6 3.8-5.3-4 2.6-3.8 5.3 4zm9.8 0l-2.6 3.8-5.3-4 2.6-3.8 5.3 4zM153 608l2.6-3.9 5.3 4.2-2.6 3.8-5.3-4.1zm2.3-5.8l-5.3-4 2.6-3.8 5.3 4-2.6 3.8zm-11.8-9l2.6-3.9 5.4 4.1-2.6 3.9-5.4-4.1zm-9.7 0l2.6-3.8 5.3 4.1-2.6 3.9-5.3-4.1zm-9.8 0l2.6-3.8 5.3 4.1-2.6 3.9-5.3-4.1zm-9.9 0l2.6-3.8 5.3 4.1-2.5 3.9-5.4-4.1zm-9.7 0l2.5-3.9 5.3 4.1-2.5 3.9-5.3-4.1zm-16.3-5l2.6-3.7 5.3 4.1-2.6 3.7-5.3-4zm7.2 29.8l-2.5 3.9-5.3-4.1 2.5-3.9 5.3 4.1zm9.9 0l-2.6 3.9-5.4-4.1 2.6-3.9 5.4 4.1zm9.8 0l-2.6 3.9-5.4-4.1 2.6-3.9 5.4 4.1zm9.7 0l-2.6 3.9-5.3-4.1 2.6-3.9 5.3 4.1zm9.7 0l-2.5 3.9-5.3-4.1 2.5-3.9 5.3 4.1zm10 0l-2.6 3.9-5.3-4.1 2.5-3.9 5.3 4.1zm9.7 0l-2.6 3.9-5.3-4.1 2.6-3.9 5.3 4.1zm9.7 0l-2.6 3.9-5.3-4.1 2.6-3.9 5.3 4.1zm1-1l-5.4-4.2 2.6-3.7.9.7 2 6.8-.2.3zm-3.1-10l-5.3-4 2.6-3.9.8.7 2 6.9-.1.4zM147 588.2l2.5-3.7 5.3 4.1-2.5 3.7-5.3-4zm-9.8 0l2.6-3.7 5.3 4.1-2.6 3.7-5.3-4zm-9.9.1l2.6-3.7 5.4 4-2.6 3.8-5.4-4zm-9.8 0l2.6-3.7 5.3 4-2.6 3.8-5.3-4zm-9.7 0l2.5-3.8 5.3 4.1-2.5 3.7-5.3-4zm-16.2-5l2.5-3.8 5.3 4.2-2.5 3.8-5.3-4.1zm-8 9l-5.3-4 2.6-3.7 3.5 2.7 1.9 1.4-2.7 3.6zm-.7 1.2l-2.6 3.9-5.3-4.1 2.5-3.9 3.6 2.8 1.8 1.3zm-2.4 5.7l5.3 4.1-2.5 3.8-5.4-4.2 2.6-3.7zm3 9.8L89 613l-2.5 3.7-5.4-4 2.5-3.8zm18.1 14l-2.5 3.7H99l-5.3-4 2.5-3.8 5.4 4zm9.9 0l-2.6 3.7h-.1l-5.3-4 2.6-3.8 5.4 4zm9.8-.1l-2.6 3.7-5.4-4 2.6-3.7 5.4 4zm9.8 0l-2.6 3.8-5.4-4 2.6-3.8 5.4 4zm9.7 0l-2.5 3.8h-.1l-5.3-4 2.6-3.8 5.3 4zm10 0l-2.6 3.8h-.1l-5.3-4 2.5-3.8 5.4 4zm9.7 0l-2.6 3.8-5.3-4 2.5-3.8 5.4 4zm4.5-4.1l.9.7 2.1 6.8-.2.3h-.2l-5.2-4 2.6-3.8zm27.1-.5l-5.7 8.3h-7.3l5.7-8.3h7.3zm8.8.4l-5.4 8h-7.3l5.8-8.4h6.8l.1.4zm4.6-10L201 615l-2-6.5h6.5zm-39 8.2l-2.5-8.3h33.6l2.5 8v.3h-33.6zm-7.8-19.6l-5.3-4.1 2.5-3.9 1 .8 2 6.7-.2.5zm-18.1-14l2.5-3.8 5.3 4.2-2.5 3.8-5.3-4.1zm-9.8 0l2.5-3.8 5.4 4.2-2.6 3.8-5.3-4.1zm-9.9 0l2.6-3.8 5.3 4.2-2.6 3.8-5.3-4.1zm-9.8 0l2.6-3.8 5.4 4.2-2.6 3.8-5.4-4.1zm-4.4 4.2l-5.4-4.1 2.5-3.9 5.4 4.2-2.5 3.8zm-11.8-9l2.5-3.8 5.3 4.1-2.5 3.8-5.3-4.1zm-7.8 9.1l-5.3-4 2.5-4 3.6 2.8 1.8 1.4-2.6 3.8zm-9.9-.1l-5.3-4.1 2.6-3.9 5.3 4.2-2.6 3.8zm-11.6-8.9l.3-.7 2.2-3.1 5.3 4.1-2.6 3.8-5.2-4zm5.5 5.9l5.3 4.1-2.6 3.8-5.3-4.2 2.6-3.7zm3 9.9l5.3 4L77 602l-5.3-4 2.6-3.7zm8.3 13.9L80 612l-5.3-4.1 2.5-3.9 5.3 4.2zm3 9.7l-2.5 3.9-5.3-4.1 2.5-3.9 5.3 4.1zm1.5 8.6h-5.8l2-2.9 3.8 3zm114.3-6.3l2 6.3h-6.4l4.4-6.3zm22.2-11.7l-5.8 8.3h-7.2l5.8-8.3h7.2zm9 0l-5.9 8.3h-7.2l5.7-8.3h7.4zm9 0l-6 8.3h-7.1l5.7-8.3h7.3zm8.9 0l-5.9 8.3h-7.2l5.8-8.3h7.3zm8.8 0l-5.9 8.3h-7.1l5.7-8.3h7.3zm9 0l-5.8 8.3H255l5.8-8.3h7.3zm-78.9-1.4H182l5.8-8.3h6.8l.1.4-5.4 7.9zm-32-20.3l-2.5-7.5h7.5l-5 7.5zm-1.5.6l-5.3-4.1 2.5-3.8 1 .8 2 6.6-.2.5zm-11.8-9l2.5-3.8 5.3 4.1-2.5 3.8-5.3-4.1zm-9.7 0l2.5-3.8 5.3 4.1-2.5 3.8-5.3-4.1zm-9.9 0l2.6-3.8 5.3 4.1-2.6 3.8-5.3-4.1zm-9.8 0l2.6-3.8 5.3 4.1-2.6 3.8-5.3-4.1zm-9.8 0l2.6-3.8 5.3 4.1-2.6 3.8-5.3-4.1zm-14.2 4l-5.4-4 2.5-3.8 5.3 4.1-2.4 3.8zm-15.2-4l2.6-3.8 5.3 4.1-2.6 3.8-5.3-4.1zm-10.7 1.2l5.5 4-2.6 3.9-1-.8-1.9-6-.2-.6.2-.5zm3.1 9.7l5.3 4.1-2.6 3.9-1-.8-2-6.6.3-.6zm149.7 58l-4.5 6.4-2-6.4h6.5zm69.8 20.2l2.4 7.7H282l5.3-7.7zm-45.8-.6l-5.7 8.3h-7.4l5.8-8.3h7.3zm9 0l-5.8 8.3h-7.3l5.8-8.3h7.3zm8.8 0l-5.7 8.3h-7.3l5.7-8.3h7.3zm9 0l-5.8 8.3h-7.3l5.8-8.3h7.3zm9 0l-5.8 8.3h-7.3l5.8-8.3h7.3zm8.8 0l-5.7 8.3H273l5.7-8.3h7.3zm-.5-9.8h6.3l-4.4 6.3-2-6.3zm-1.5 0l2.4 7.7-.5.6h-7.3l-.3-.2-.2.2h-8.4l-.4-.2-.2.2H261l-.4-.2-.1.2h-8.5l-.3-.2-.2.2H243l-.4-.2-.2.2H234l-.3-.2-.2.2h-8.3l-.3-.2-.2.2h-7.9l-2.5-8.3H284zm-58.7 9.7h7.3L227 675h-7l-.2-.2 5.6-8.1zm68-9.6h7.4l-5.8 8.3h-7v-.4l5.5-8zm9 0h7.3l-5.7 8.3h-7.4l5.8-8.3zM282.2 646l5.8-8.3h7.3l-5.9 8.3h-7.2zm-11.9-9.8l5.2-7.5 2.3 7.5h-7.5zm3.2-18h6.7l-4.6 6.7-2-6.7zm-5.1-11.1h-7.7l-.3-.2-.2.2h-8.4l-.4-.2-.2.2h-8.4l-.4-.2-.2.2h-8.4l-.3-.2-.2.2h-8.4l-.4-.2-.2.2h-8.2l-.4-.2-.1.2H207l-.3-.2-.2.2h-7.9l-2.5-8.4H266l2.7 8-.3.4zm-80.6-9.7l-.8-.7v.7H179l-.3-.3-.3.3H170l-.7-.7v.7h-8.4l-2.5-8v-.4H192l2.4 8.3h-6.6zm-29.4-9.7l5.8-8.3h7.3l-5.9 8.3h-7.2zm9 0l5.7-8.3h7.3l-5.7 8.3h-7.3zm16.2 0h-7.3l5.8-8.3h6.8l.1.5-5.4 7.8zm-36.3-14.3l2.6-3.7 1 .7 2 6.7-.2.3-5.3-4zm-9.7.1l2.5-3.8 5.4 4-2.5 4-5.4-4.2zm-9.7 0l2.5-3.8 5.3 4-2.5 4-5.3-4.2zm-9.8 0l2.6-3.8 5.3 4-2.6 4-5.3-4.2zm-9.9 0l2.6-3.8 5.3 4-2.6 4-5.3-4.2zM94 577.6l-5.3-4 2.6-4 5.3 4.2-2.5 3.8zm-15.1-4l2.5-4 5.3 4.2-2.5 3.8-5.3-4zm-12.5 1.2L65 577l-.5.6-1-.8-2-6.6.3-.5 5.1 3.9.2.2-.7 1zm4.5 24.3l5.3 4-2.5 3.9-1.1-.9-2.1-6.5.4-.5zm3 9.8l5.3 4.1-2.5 3.8-1.1-.8-2-6.6.3-.5zm3.1 9.9l5.3 4-2.5 3.8h-.8l-2.3-7.4.3-.4zm126.9 9.1l2.4 8-.2.3H81.5L79 628h124.8zm-112.6 9.7h7.3l-5.7 8.3h-7.4l5.8-8.3zm118.7 9.9l2.4 7.7-.4.6h-124l-2.6-8.3h124.6zm-11.2 17.9l5.9-8.3h7.2l-5.8 8.3h-7.3zm-9 0l5.8-8.3h7.3l-5.7 8.3h-7.3zm-8.8 0l5.8-8.3h7.3l-5.8 8.3H181zm-9 0l5.9-8.3h7.2l-5.7 8.3h-7.4zm-9 0l6-8.3h7.2l-5.8 8.3H163zm-8.9 0l5.8-8.3h7.3l-5.8 8.3H154zm-8.8 0l5.8-8.3h7.3l-5.7 8.3h-7.4zm-9 0l5.8-8.3h7.3l-5.8 8.3h-7.3zm-8.9 0l5.9-8.3h7.2l-5.8 8.3h-7.3zm-9 0l6-8.3h7.1l-5.7 8.3h-7.3zm-8.8 0l5.8-8.3h7.3l-5.8 8.3h-7.3zm-9 0l5.9-8.3h7.2l-5.8 8.3h-7.3zm-8.8 0l5.7-8.3h7.2l-5.7 8.3h-7.2zm132 1.4l-4.6 6.5-2-6.5h6.6zm66.5 9.7l2.4 8-.2.4h-69.7l-2.6-8.4h70zm8 0l-4.7 6.5-2-6.5h6.6zm3 8.4h-7v-.2l5.6-8.2h7.4l-6 8.4zm9 0H303l5.7-8.4h7.3l-5.7 8.4zm9 0h-7.4l5.8-8.4h6.5l.3.9-5.3 7.5zm-7.6-29.2l-.6-.5-.3.5h-8l-.7-.5-.2.5h-7.9l-.7-.5-.3.4h-7.7l-2.5-8.3h32.5l2.6 8.4h-6.2zm-32.4-19.5l-2.6-8.3h32.5l2.5 8.3h-32.4zm19-18l-5.8 8.3H285l5.8-8.3h7.3zm2.8 8.3h-7.2l5.8-8.3h6.3l.3 1-5.2 7.3zm-27.8-9.7l-2.5-8.3H303l2.6 8.3h-32.5zm18.9-18l-5.8 8.3H279l5.8-8.4h7.3zm-24.9-1.4l-2.6-8.3h32.5l2.6 8.3h-32.5zm-62.5 0l5.7-8.3h7.3l-5.7 8.3h-7.3zm9 0l5.7-8.3h7.3l-5.8 8.3h-7.3zm8.7 0l5.8-8.3h7.3l-5.8 8.3h-7.3zm9.2 0l5.7-8.3h7.3l-5.8 8.3h-7.2zm8.8 0l5.8-8.3h7.3l-5.8 8.3h-7.3zm16.1 0h-7.3l5.8-8.3h7.3l-5.8 8.3zM141 568.6l2.6-3.8 5.3 4.1-2.6 3.8-5.3-4.1zm-2 .3l-2.5 3.8-5.3-4.1 2.5-3.8 5.3 4.1zm-9.7 0l-2.5 3.8-5.4-4.1 2.5-3.8 5.4 4.1zm-17.8-.3l2.6-3.8 5.4 4.1-2.6 3.8-5.4-4.1zm-4.4 4l-5.3-4 2.6-3.8 5.3 4.1-2.6 3.8zm-9.8 0l-5.3-4 2.6-3.8 5.3 4.1-2.6 3.8zm-15.1-4l2.5-3.8L90 569l-2.5 3.8-5.3-4.1zm-4.5 4l-5.3-4 2.5-3.8 5.3 4.1-2.5 3.8zm-7.2-3.8l-2.6 3.8-5.4-4.1 2.6-3.7 5.4 4zm30.8 107.7l-5.3 7.6-2.3-7.6h7.6zm9 0l-5.8 8.4h-7.3l5.7-8.4h7.3zm8.9 0l-5.8 8.4h-7.3l5.8-8.4h7.3zm9 0l-5.8 8.4H115l5.7-8.4h7.3zm8.8 0l-5.7 8.4h-7.4l5.8-8.4h7.3zm9 0l-5.8 8.4H133l5.8-8.4h7.3zm8.8 0l-5.7 8.4h-7.3l5.7-8.4h7.3zm9 0L158 685h-7.4l5.8-8.4h7.3zm9 0L167 685h-7.3l5.8-8.4h7.3zm8.7 0l-5.7 8.4h-7.3l5.7-8.4h7.3zm9 0L185 685h-7.3l5.8-8.4h7.2zm9 0l-5.7 8.4h-7.3l5.7-8.4h7.4zm9 0l-5.8 8.4h-7.4l5.8-8.4h7.3zm1.3-1.5l-.2.2h-8.4l-.4-.2-.2.2h-8.4l-.3-.2-.2.2h-8.5l-.4-.2-.2.2h-8.4l-.3-.2-.2.2h-8.4l-.4-.2-.2.2h-8.4l-.4-.2-.1.2h-8.5l-.3-.2-.2.2h-8.4l-.4-.2-.2.2h-8.4l-.3-.2-.2.2h-8.4l-.4-.2-.2.2h-8.4l-.4-.2-.2.2h-8.4l-.3-.2-.2.2h-8.7l-2.6-8.4H99l.3.1.2-.1h8.4l.4.1.2-.1h8.3l.3.2.3-.2h8.4l.3.1.2-.1h8.4l.4.1.2-.1h8.4l.4.1.1-.1h8.4l.2.2.3-.2h8.4l.4.1.2-.1h8.4l.3.1.2-.1h8.4l.4.1.2-.1h8.3l.3.2.3-.2h8.4l.3.1.2-.1h8.4l.4.1.2-.1h9.1l2.5 8-.3.4h-7.8l-.4-.2zm83.7 12.2l2.2 7.4h-7.5l5.3-7.4zM304 696l-5.7 8.3H291l5.7-8.3h7.3zm13.4-20.8l-.4-.2-.2.2h-8.5l-.3-.2-.2.2h-8.4l-.4-.2-.2.2h-7.8l-2.7-8.4H321l.3.7 2.4 7.7h-6.1zm-44.4-87.6l5.7-8.3h7.3l-5.7 8.3H273zm16.1 0H282l5.8-8.3H293.9l.3 1-5 7.3zm-21-8.3l-4.6 6.6-2-6.6h6.6zm-5.7 8.4h-69.7l-2.6-8.3h70l2.4 8-.1.3zm-63.9-9.8l5.8-8.3h7.3l-5.7 8.3h-7.4zm9 0l5.8-8.3h7.3l-5.8 8.3h-7.3zm9 0l5.7-8.3h7.3l-5.7 8.3h-7.3zm9 0l5.7-8.3h7.3l-5.8 8.3h-7.3zm8.7 0l5.8-8.3h7.3l-5.8 8.3h-7.3zm9 0l5.8-8.3h7.3l-5.7 8.3h-7.4zm-49.4-8.3l-4.7 6.7-2-6.7h6.7zm-39.3 8.4l-2.6-8.3h33.7l2.6 8.2h-33.7zm-2.2-9.8l5.7-8.3h7.4l-5.8 8.3h-7.3zm9 0l5.8-8.3h7.3l-5.8 8.3h-7.3zm8.9 0l5.8-8.2 6.7-.1.2.5-5.4 7.9h-7.3zm-13.8-8.3l-5.2 7.5-2.3-7.5h7.5zm-16.6 8l-5.4-4.2 2.6-3.7 5.3 4-2.5 3.8zm-4.4-8l-2.1 3-4-3h6zm-5.4 8l-5.3-4.2 2.5-3.7 5.3 4-2.5 3.8zm-4.4-8l-2.1 3-4-3h6zm-10.7 3.8l2.5-3.7 5.3 4-2.5 3.8-5.3-4zm-9.8.1l2.6-3.8 5.3 4-2.6 3.8-5.3-4zm-1.1-.9l-1.7-1.3-2.3-1.7h6l-2 3zm-3.3 5l-5.3-4.2L98 560l3.6 2.7 1.8 1.3-2.6 3.8zm-15.3-4.2l2.6-3.7 5.3 4-2.6 3.8-5.3-4zm-9.7 0l2.5-3.7 5.3 4-2.5 3.8-5.3-4zm-2 .3l-2.5 3.8-5.5-4 2.7-3.8 4.2 3.2 1.1.8zm130.5 120.9l5.8-8.4h7.3l-5.8 8.4h-7.3zm14.5-8.2l2.5 8.2h-8l5.5-8.2zm57.4 9.5h7.3l-5.8 8.4h-7.3l5.8-8.4zm8.8 0h7.4l-5.8 8.4h-7.3l5.7-8.4zm10.4 9.7l-5.2 7.6-2.4-7.6h7.6zm10.6.1h7.2l-5.9 8.3h-7.2l5.9-8.3zm8.8 0h7.4l-5.8 8.2-7.3.1 5.7-8.4zM179.3 568.1l4.3-6.2 1.9 6.2h-6.2z"/><path d="M325.2 657.5l.9 2.7.3-1.8A137.4 137.4 0 0 0 288 537.1a137.8 137.8 0 0 0-202 7.1l-.6.7 1.4.3.3-.2a136 136 0 0 1 103.2-47.2c36.6 0 71 14.3 96.7 40.1a135.8 135.8 0 0 1 38.2 119.5v.1z"/></g></svg>