<svg xmlns="http://www.w3.org/2000/svg" width="350" height="350" viewBox="0.5 568.5 350 350"><path fill="#071b36" d="M190.8 901.3c-3 0-6-1.1-8-3.2-4-3.7-10.4-3.7-14.4 0a12 12 0 0 1-18-2 10.8 10.8 0 0 0-14-2.9 11.9 11.9 0 0 1-17-5.6c-2.2-5-8-7.7-13.2-5.8-3.2 1-6.7.8-9.7-1a12 12 0 0 1-5.7-8 8 8 0 0 0-1.2-3.3l-.5-.7h1.6v.3c.6.9 1 2 1.3 3.4a10.7 10.7 0 0 0 13.8 8 12 12 0 0 1 14.8 6.8c1.1 2.8 3.5 4.9 6.4 5.9s6 .6 8.7-1a12 12 0 0 1 15.9 3.4c1.8 2.5 4.6 4 7.5 4.4 3.2.2 6.2-.8 8.3-2.9a12 12 0 0 1 8.1-3c3 0 5.9 1 8 3 2.4 2.1 5.3 3.1 8.4 2.9 3-.3 5.8-1.9 7.5-4.4a12 12 0 0 1 16-3.4c2.6 1.6 5.7 2 8.6 1 2.8-1 5.1-3.1 6.4-6 2.4-5.7 8.9-8.6 14.8-6.6 2.8 1 6.1.6 8.7-1 2.7-1.4 4.6-4 5.1-7 .3-1.3.7-2.4 1.2-3.5l.1-.3h1.6l-.3.7c-.6 1-1 2-1.2 3.4a12 12 0 0 1-5.7 8c-3 1.8-6.6 2.2-9.8 1-5.2-1.8-11 .8-13.1 5.8-1.4 3.1-4 5.6-7.2 6.7-3.3 1-6.9.6-9.8-1.1-4.8-3-11-1.6-14.1 3a12 12 0 0 1-8.6 5h-1.3zm-15.3-19.5c-19.8 0-38.8-4-56.5-12l-2-1h3.4a137.6 137.6 0 0 0 110.3 0h3.4l-2 1c-17.8 8-36.8 12-56.6 12zm112.2-23.6H66.8v-.1h-6v-28.5h226.9v14.8l.1-.1v13.9zm-3.4-1.4h2v-9.7.1V831h-224v25.7h5.4v.1h216.6zm21.8-36h-1.6l.3-.6c1.4-3.3 4.1-5.8 7.4-6.8a10.5 10.5 0 0 0 6.5-14.5 11.9 11.9 0 0 1 5-15.5c2.7-1.4 4.6-4 5.3-7 .6-3.2-.1-6.2-2-8.6-3.7-5-2.9-12.1 1.8-16.2 2.4-2 3.6-5 3.6-8s-1.3-6-3.6-8a12 12 0 0 1-1.8-16.1 10.5 10.5 0 0 0-3.3-15.6c-5.3-3-7.5-10-5-15.5 1.3-2.6 1.3-6 .1-8.8a10.4 10.4 0 0 0-6.6-5.7c-6-1.9-9.5-8-8-14.1.7-3 0-6.1-1.8-8.6-1.9-2.5-4.5-4-7.5-4.3a12 12 0 0 1-11-12 10.5 10.5 0 0 0-11.8-10.7c-6.1.7-11.9-3.5-13-9.6a10.7 10.7 0 0 0-13.8-8 12 12 0 0 1-14.8-6.7c-1.1-2.8-3.5-5-6.4-6-3-1-6-.6-8.7 1a12 12 0 0 1-15.9-3.3 10.4 10.4 0 0 0-7.5-4.4c-3.2-.3-6.2.7-8.3 2.8a11.9 11.9 0 0 1-16.3 0 10.7 10.7 0 0 0-8.3-2.8 10 10 0 0 0-7.5 4.4 12 12 0 0 1-16 3.4c-2.6-1.6-5.7-2-8.6-1-2.8.9-5.1 3-6.4 5.9-.6 1.5-1.6 2.8-2.7 4l-.1.1h-2.1l.9-.8c1.2-1.1 2.2-2.4 2.8-3.9a11.8 11.8 0 0 1 17-5.6c4.8 3 11 1.6 14-3a12 12 0 0 1 18-1.9c4 3.8 10.3 3.8 14.4 0l.2-.1.2-.2c2.5-2.1 5.6-3.1 8.9-2.8a12 12 0 0 1 8.6 5c3.2 4.5 9.4 5.8 14 3 2.9-1.8 6.5-2.1 9.9-1 3.2 1 5.9 3.5 7.2 6.6 2.2 5.2 8 7.7 13.1 5.9 3.2-1.1 6.8-.8 9.8 1 3 1.6 5 4.6 5.7 8 1 5.4 6.2 9.2 11.6 8.5 3.5-.5 6.9.6 9.4 2.9 2.6 2.4 4 5.6 4 9.1 0 5.6 4.2 10.3 9.6 10.7a12 12 0 0 1 10.7 14.5c-1.2 5.4 2 11 7.3 12.5a12 12 0 0 1 7.3 16.5c-2.3 4.9-.3 11 4.5 13.7 3 1.6 5.2 4.5 5.8 7.8a12 12 0 0 1-2.2 9.6 10.4 10.4 0 0 0 1.5 14.3c2.5 2.3 4 5.6 4 9 0 3.5-1.4 6.8-4 9.1-4.1 3.7-4.9 10-1.6 14.4a11.7 11.7 0 0 1-3.7 17.5A10.6 10.6 0 0 0 320 798a12 12 0 0 1 0 9.9 12.6 12.6 0 0 1-7.3 6.6c-3 .9-5.3 3-6.6 5.8v.5zm-16 0h-1.6l.5-.7a136 136 0 0 0 23.2-76.4c0-36.5-14.2-70.8-40.1-96.6a135.5 135.5 0 0 0-135.2-34.7l-.6.2v-1.4h.4a137.4 137.4 0 0 1 136.5 35c26 26 40.4 60.7 40.4 97.6 0 27.5-8 54.1-23.3 76.9h-.1zm-227.6-.1H61l-.1-.2a137.3 137.3 0 0 1-23.3-76.9c0-30 9.3-58.4 27-82.2l.9-1v2.2l-.1.1a135 135 0 0 0-26.5 81c0 27.4 8 53.8 23.3 76.3l.4.7zm-16-.3h-1.8v-.2c-1.4-3-3.8-5-6.7-5.9a12 12 0 0 1-7.3-16.5c2.3-4.9.3-11-4.5-13.7-3-1.6-5.2-4.5-5.8-7.8a12 12 0 0 1 2.2-9.6 10.4 10.4 0 0 0-1.5-14.3 12 12 0 0 1 0-18.1c4.2-3.7 4.9-9.9 1.5-14.3-2.1-2.4-3-6-2.2-9.6.8-3.4 3-6.3 6-7.8 4.8-2.7 6.7-8.6 4.4-13.7a12 12 0 0 1 0-10c1.4-3 4-5.4 7.3-6.5 5.2-1.6 8.4-7.1 7.3-12.4-.8-3.3 0-7 2-9.7a12 12 0 0 1 8.6-4.9c3.8-.3 7-2.5 8.6-5.8l.9-1.9v3l-.1.2c-2 3.3-5.5 5.6-9.3 5.8-3 .3-5.8 1.8-7.5 4.3a10.4 10.4 0 0 0-1.8 8.6 11.8 11.8 0 0 1-8 14 10.5 10.5 0 0 0-6.5 14.5c2.6 5.8.4 12.6-5 15.6-2.7 1.3-4.6 4-5.3 7-.6 3.1.1 6.1 2 8.6 3.7 5 2.9 12-1.8 16.2-2.4 2-3.6 5-3.6 8s1.3 5.9 3.6 7.9a12 12 0 0 1 1.8 16.2 10.5 10.5 0 0 0 3.2 15.6c5.4 3 7.6 9.9 5 15.5a10.5 10.5 0 0 0 6.6 14.5c3.2 1 6 3.4 7.5 6.5l.1.7zm241.2-12H61v-28.7h227v28.7h-.2zM62.3 807h224.1V781H62.3V807zm18-43.4l-.3-.3-.3.2.1-.4-.3-.3 7.2-22.2-19-13.7.2-.5-.2-.1h.3l.2-.5h23.4l7.2-22.3h.5v-.2l.2.2h.5l7.3 22.3h23.4v.5h.1v.5L112 740.5l7.2 22.3-.4.3v.3l-.1-.2-.4.3-19-13.8-18.8 13.9zm-9.8-36.4L88.2 740 81.5 761l17.9-12.9L117 761l-6.7-21 17.7-12.8h-22l-6.7-21-6.9 21h-22zm123.7 36.2l-.3-.2-.3.2-18.9-13.7-18.9 13.7-.5-.2-.2.3v-.4l-.3-.2 7.2-22.4-19-13.7.2-.4-.3-.1h.3v-.5h23.5l3.3-10.2h-20.4v-57h48v57.1h-18.8l3.4 10.1h23.4l.1.5h.1v.5l-19 13.7 7.3 22.4-.5.3.6.2zm-48.3-36.2l17.8 12.9-6.8 20.9 17.7-12.9.3.2 17.6 12.7-6.8-21 17.7-12.8h-22l-3.7-11.6h-6l-3.8 11.6h-22zm32.8-13h18V660h-45.4v54.2h27l.4-.1v.2zm87.6 49.2l-18.9-13.7-19 13.7-.4-.2-.2.2.1-.2-.3-.2 7-21.8.1-.6-18.8-13.6v-.6h-.1.2v-.4h8.8v-46.5h45.6V726h8.2v.4h.2l-.1.1v.5l-8.3 6v.2h-.2l-10.4 7.5 7.3 22.4-.4.2v.2-.2h-.4zm-30.2-22.2l-6.4 19.7 17.8-12.9 17.7 12.9-6.5-19.7h-22.6zm.5-1.3h21.7v-.1h.4l10.6-7.7v-51.4h-43v45.6h.2v.9h-.1v5.5l.8.6 8.9 6.4h.5v.2zM218.7 727l6.3 4.5v-4.5h-6.3zm52 0v4l5.4-4h-5.5zm-34-2.7c-2 0-3.6-.8-3.6-2s1.5-2 3.6-2a4 4 0 0 1 3 1c.4.3.6.6.6 1-.1 1.2-1.6 2-3.6 2zm27-1.3h-15.2v-1.4h15.3v1.4zm-27-8c-2 0-3.6-.7-3.6-2 0-1.1 1.5-2 3.6-2s3.6.9 3.6 2c-.1 1.3-1.6 2-3.6 2zm0-2.7c-1.4 0-2.2.5-2.2.7 0 .2.8.6 2.2.6 1.4 0 2.1-.4 2.2-.6 0-.2-.8-.7-2.2-.7zm27 1.4h-15.2v-1.4h15.3v1.4zm-27-7.8c-2 0-3.6-.9-3.6-2 0-1.2 1.5-2 3.6-2s3.6.8 3.6 2c-.1 1.1-1.6 2-3.6 2zm0-2.8c-1.4 0-2.2.5-2.2.7 0 .1.8.6 2.2.6 1.4 0 2.1-.5 2.2-.6 0-.2-.8-.7-2.2-.7zm27 1.4h-15.2v-1.4h15.3v1.4zm-101.2-2.3c-2.1 0-3.6-.8-3.6-2s1.5-2 3.6-2c2 0 3.5.8 3.5 2s-1.5 2-3.5 2zm0-2.6c-1.4 0-2.2.4-2.2.6s.8.6 2.2.6c1.3 0 2-.4 2.2-.6 0-.2-.8-.6-2.2-.6zm27 1.2h-15.3v-1.3h15.2v1.3zm47.2-4.8c-2 0-3.6-.8-3.6-2s1.5-2 3.6-2 3.6.8 3.6 2c-.1 1.2-1.6 2-3.6 2zm0-2.8c-1.4 0-2.2.5-2.2.7s.8.6 2.2.6c1.4.1 2.1-.4 2.2-.6 0-.2-.8-.7-2.2-.7zm27 2h-15.2V694h15.3v1.4zm-101.2-2.2c-2.1 0-3.6-.9-3.6-2s1.5-2 3.6-2c2 0 3.5.8 3.5 2s-1.5 2-3.5 2zm0-2.7c-1.4 0-2.2.5-2.2.7s.8.6 2.2.6c1.3 0 2-.5 2.2-.6 0-.2-.8-.7-2.2-.7zm27 1.4h-15.3v-1.4h15.2v1.4zm-27-7.9c-2.1 0-3.6-.8-3.6-2s1.5-2 3.6-2c2 0 3.5.8 3.5 2s-1.6 2-3.5 2zm27-1.3h-15.3v-1.4h15.2v1.4zm-66-3.8H75.1v-57.9h48.1v57.9h.1zm-46.9-1.4H122v-55.1H76.6v55.1zm85.9-2.7c-2.1 0-3.6-.8-3.6-2s1.5-2 3.6-2c2 0 3.5.8 3.5 2s-1.6 2-3.5 2zm0-2.8c-1.4 0-2.2.5-2.2.7s.8.6 2.2.6c1.3 0 2-.4 2.2-.6 0-.2-.8-.7-2.2-.7zm27 1.4h-15.3V672h15.2v1.4zM88 665c-2 0-3.5-.8-3.5-2s1.4-2 3.5-2c2 0 3.6.9 3.6 2 0 1.2-1.5 2-3.6 2zm0-2.6c-1.3 0-2.1.4-2.1.6s.8.6 2.1.6c1.4.1 2.1-.4 2.2-.6 0-.2-.7-.6-2.2-.6zm27.2 1.3H99.8v-1.3h15.3v1.3h.1zm-27.2-8c-2 0-3.5-.7-3.5-2s1.4-2 3.5-2c2 0 3.6 1 3.6 2 0 1.3-1.5 2-3.6 2zm0-2.6c-1.3 0-2.1.5-2.1.7s.8.6 2.1.6c1.4 0 2.1-.5 2.2-.6 0-.2-.7-.7-2.2-.7zm27.2 1.4H99.8V653h15.3v1.4h.1zM88 646.5c-2 0-3.5-.8-3.5-2s1.4-2 3.5-2 3.6.8 3.6 2-1.5 2-3.6 2zm0-2.6c-1.3 0-2.1.4-2.1.6s.8.7 2.1.7 2-.5 2.2-.7c0-.2-.8-.6-2.2-.6zm27.2 1.3H99.8v-1.4h15.3v1.4h.1zm90.7-.3h-62.8v-1.4h7l5.1-6.6-4.3-5.5h-7.8v-1.3h33.5l1-.1H206v1.4h-7v12.1h7v1.4zm-14.4-1.4h6v-12h-6v12zm-7.3 0h6v-12h-6v12zm-6 0h4.7v-12h-5.6l-4.3 5.3 5.2 6.7zm-10.3 0h8.6l-4.2-5.5-4.4 5.5zm-5.7 0h4l5.1-6.5-4.3-5.6h-5.7l-4.2 5.4 5 6.7zm-10.4 0h8.7l-4.3-5.5-.1.1-4.3 5.4zm.9-12l3.4 4.3 3.4-4.4h-6.8zm16 0l3.5 4.3 3.4-4.4h-7zM88 637c-2 0-3.5-.8-3.5-2s1.4-2 3.5-2 3.6.8 3.6 2-1.5 2-3.6 2zm27.2-1H99.8v-1.5h15.3v1.4h.1z"/></svg>