<svg xmlns="http://www.w3.org/2000/svg" width="350" height="350" viewBox="0.5 568.5 350 350"><path fill="#071b36" d="M190.8 901.2c-3 0-6-1.1-8-3.2-4-3.7-10.4-3.7-14.4 0a12 12 0 0 1-18-2 10.8 10.8 0 0 0-14-2.9 11.9 11.9 0 0 1-17-5.6c-2.2-5-8-7.6-13.2-5.8-3.2 1-6.7.8-9.7-1-.4-.1-.8-.4-1.1-.7l-.5-.2 1-1 .2.3c.4.3.5.5 1 .7 2.5 1.5 5.7 1.8 8.6.9a12 12 0 0 1 14.8 6.7c1.1 2.8 3.5 4.9 6.4 5.9 3 1 6 .6 8.7-1a12 12 0 0 1 15.9 3.4c1.8 2.5 4.6 4 7.5 4.4 3.2.2 6.2-.8 8.3-2.9a12 12 0 0 1 8.2-3c3 0 5.8 1 8 3 2.3 2.1 5.2 3.1 8.3 2.9a10 10 0 0 0 7.5-4.4 12 12 0 0 1 16-3.4c2.6 1.5 5.7 2 8.6 1 2.8-1 5.1-3.1 6.4-6 2.4-5.7 8.9-8.6 14.8-6.6 2.9 1 6.1.6 8.7-1a8.3 8.3 0 0 0 2.8-2.4l.3-.5 1 1-.3.4a11.8 11.8 0 0 1-3.2 2.7c-3 1.7-6.5 2-9.7.9-5.2-1.8-11 .8-13.2 5.8-1.4 3.1-4 5.6-7.2 6.7-3.3 1.1-6.9.6-9.8-1.1-4.8-3-11-1.6-14 3a12 12 0 0 1-8.7 5h-1zM176 881.7h-.5c-22.9 0-45.5-5.7-65.4-16.5l-.6-.2 1-1 .3.1a137.3 137.3 0 0 0 132-1.3l.2-.2 1 1-.5.3a136.3 136.3 0 0 1-67.5 17.8zm84-13.5L237.6 846l10.6-10.7-.4-.4L214 801l-9.8 9.8v5.9h.1v.2l21.4 21.4-22 22.2-22.1-22.2L203 817v-6l-21.4-21.5 21.5-21.5v-5.8l-.1-.1v-.1l-20.7-20.7h-11.9L150 762V768.2l21.4 21.3L150 811v6.1l21.4 21.4-22 22.2-22.2-22.2 21.5-21.5v-6l-9.8-9.9-34.2 34.2 10.6 10.6-.8.9-21.2 21.4-22.2-22 5.9-6 .3-.1 16-16.2 10.5 10.5 34.2-34.2-10.8-10.8 21-21h-.3l.7-.5v-5.7h-.1L137 750.8l-33.1 33 11.3 11.4-22.1 22.1-22.2-22 22.2-22.1 9.8 9.7 33.1-33-9-9.1 22.1-22.1 21.4 21.4h4.7v-17.4h-.1l-8.6-12.6 5.6-5.6-1.4-1.4-.5-.3-.3-.4-1-1-7 6.8 1.8 1.9-.9.9-1.8-1.8-8.3-8.4.9-.9 7.4 7.4 7.2-6.6-1.3-1.4V695h-4.2l-23-22.9h21.7l10 10v-4.5h-2.2v-1.4h2.1v-3.4h8.4v9.4l10.1-10h21.6L188.6 695h-4.3v4.2l-1.3 1.4 7.3 6.7 7.6-7.6.9 1-10.3 10.2-.9-1 1.8-1.8-7.3-6.7-.7.7-.8 1-1.3 1.2 5.7 5.7-8.3 12.2V740h5.7l21.5-21.5 22 22.2-9 9 33.2 33.2 9.8-10 22.3 22L260 817 238 795l11.2-11.2-33.1-33.2-11 10.9-.3.1-.2.4v6l21.4 21.3-10.8 10.8 33.1 33.1 1 1 10.6-10.5 14.4 14.5 7.8 7.7-22.2 22.4zm-7.8-9.7l7.7 7.7 20.2-20-6.2-6.3-14-14-20 20.1 12.3 12.5zM73 846l20 20.1 19.7-19.6.5-.5L93.2 826l-14.4 14.4h.1l-5.8 5.7zm110.6-7.6l20.1 20.1 20.1-20-20.1-20.2-20.1 20.1zm-54.6 0l20.1 20.1 20.1-20-20-20.3-20.2 20.2zm-56-43.2l20 20.1 20.2-20.2L103 785l-.9-1-8.8-8.8-20.2 20zm166.6-.1l20.1 20.1 20.2-20.1-20.2-20.1-8.7 8.8-1 1-10.4 10.3zm-56-5.8l20.1 20.1 20.1-20-20.1-20.2-20.1 20.1zm-54.6 0l20.1 20.1 20.1-20-20-20.2-20.2 20.1zm55.2-48l19.5 19.4 20.1-20.2-20.1-20.1-19.6 19.6h.1l-.6.6.6.6zm-55.2-.7l20.1 20.1 20-20v-.3l-.5-.4-19.5-19.5-20.1 20.1zm39.2-30.5l7.4 11 7.4-11-4.8-4.9-.4.4v-.1l-.7.8-.6.7v-.1l-.7.6h-.6l-1.1-1.1h-.2l-.3-.4-.4-.3-.2-.2-4.8 4.6zm6.4-5.2l1 1 1-1v-16.2h1.3v15l2-2v-13h1.3v11.6l1.7-1.7v-14.1h-14.6v14.1l1.8 1.9v-11.8h1.3v13l2 2v-15h1.3V705zm9.6-11.4h3.8l20-20.1h-17.7l-9.6 9.7h3.5v10.4zm-21 0h3.7v-10.4h3.6l-9.7-9.7h-17.7l20 20.1zm14.6-10.4h.6v-9h-3.3v-.2h-2.4v9.2h5.1zm112.7 159.6l-1-1 .5-.3c1.1-.5 2.7-1.1 4.6-1.3 3-.3 5.8-1.9 7.6-4.3 1.8-2.6 2.4-5.7 1.7-8.6a11.8 11.8 0 0 1 8-14.1 10.5 10.5 0 0 0 6.5-14.5 11.9 11.9 0 0 1 5-15.5c2.7-1.4 4.6-4 5.3-7 .6-3.1-.1-6.2-2-8.6-3.7-5-2.9-12 1.8-16.2 2.4-2 3.7-5 3.7-8s-1.4-5.9-3.7-8a12 12 0 0 1-1.7-16.1 10.5 10.5 0 0 0-3.3-15.6c-5.4-3-7.6-9.9-5-15.5 1.2-2.6 1.2-6 0-8.8a10.4 10.4 0 0 0-6.6-5.7c-5.9-1.8-9.5-8-8-14.1.7-3 .1-6.1-1.7-8.6-2-2.5-4.6-4-7.6-4.3a12 12 0 0 1-10.9-12c0-3.2-1.3-6-3.5-8.1-2.2-2-5.2-3-8.3-2.7-6.2.8-12-3.3-13-9.5a10.7 10.7 0 0 0-13.9-8 12 12 0 0 1-14.8-6.7c-1-2.8-3.5-5-6.4-6s-6-.6-8.7 1a12 12 0 0 1-15.9-3.3 10.4 10.4 0 0 0-7.5-4.4c-3.2-.3-6.2.7-8.3 2.8a11.9 11.9 0 0 1-16.3 0 10.7 10.7 0 0 0-8.3-2.8 10 10 0 0 0-7.5 4.4 12 12 0 0 1-15.9 3.4c-2.6-1.6-5.8-2-8.7-1-2.8.9-5.1 3-6.4 6a11.9 11.9 0 0 1-14.8 6.6c-2.8-1-6.1-.6-8.7 1a9.9 9.9 0 0 0-5.1 7 12 12 0 0 1-13.2 9.5 10.5 10.5 0 0 0-11.8 10.7c.1 6.4-4.6 11.7-10.8 12.1-3.1.3-5.9 1.8-7.6 4.3a10.4 10.4 0 0 0-1.8 8.6 11.8 11.8 0 0 1-8 14 10.5 10.5 0 0 0-6.5 14.5c2.6 5.8.5 12.6-5 15.6-2.7 1.3-4.6 4-5.2 7-.7 3.1 0 6.1 1.9 8.6 3.7 5 2.9 12-1.8 16.2-2.3 2-3.6 5-3.6 8s1.4 5.9 3.6 7.9a12 12 0 0 1 1.8 16.2 10.5 10.5 0 0 0 3.3 15.6c5.4 3 7.6 9.9 5 15.5a10.5 10.5 0 0 0 6.5 14.5c6 1.8 9.5 8 8 14-.7 3.1 0 6.2 1.8 8.7 1.9 2.5 4.5 4 7.6 4.3 1.2 0 2.4.3 3.5.8l.7.3-1 .9-.2-.1a13 13 0 0 0-3-.7c-3.4-.3-6.5-2-8.7-4.9-2-2.6-2.8-6.3-2-9.7 1.2-5.3-2-10.9-7.3-12.4a12 12 0 0 1-7.3-16.5c2.3-4.9.3-11-4.5-13.7-3-1.6-5.2-4.5-5.8-7.8a12 12 0 0 1 2.2-9.6 10.4 10.4 0 0 0-1.5-14.3 12 12 0 0 1 0-18.1c4.2-3.7 4.9-9.9 1.5-14.3-2.1-2.4-3-6-2.2-9.6.8-3.4 3-6.3 6-7.8 4.8-2.7 6.7-8.6 4.4-13.7a12 12 0 0 1 0-10c1.4-3 4-5.4 7.3-6.5 5.2-1.7 8.4-7.1 7.3-12.4-.8-3.3 0-7 2-9.7a12 12 0 0 1 8.7-4.9c5.4-.4 9.6-5.1 9.6-10.7 0-3.5 1.4-6.8 4-9.1 2.5-2.3 6-3.3 9.4-3 5.5.7 10.6-3 11.7-8.4a11.8 11.8 0 0 1 15.4-9c5.4 1.7 11.1-.8 13.2-5.9a11.8 11.8 0 0 1 17-5.6c4.8 3 11 1.6 14.1-3a12 12 0 0 1 18-1.9c4 3.8 10.3 3.8 14.3 0l.2-.2.2-.1c2.5-2.1 5.6-3.1 8.9-2.8a12 12 0 0 1 8.6 5c3.2 4.5 9.4 5.8 14 3 3-1.8 6.5-2.1 9.9-1 3.2 1 5.9 3.5 7.2 6.6 2.2 5.2 8 7.7 13.1 5.9 3.2-1.1 6.8-.8 9.8 1 3 1.6 5 4.6 5.7 8 1 5.4 6.2 9.2 11.6 8.5 3.5-.5 6.9.6 9.4 2.9 2.6 2.4 4 5.6 4 9.1 0 5.6 4.2 10.3 9.6 10.7a12 12 0 0 1 10.7 14.5c-1.2 5.4 2 11 7.3 12.5a12 12 0 0 1 7.3 16.5c-2.3 4.9-.3 11 4.5 13.7 3 1.6 5.2 4.5 5.8 7.8a12 12 0 0 1-2.2 9.6 10.4 10.4 0 0 0 1.5 14.3c2.5 2.3 4.1 5.6 4.1 9s-1.5 6.7-4.1 9.1c-4.1 3.7-4.9 10-1.6 14.3 2.1 2.4 3 6 2.2 9.6-.8 3.4-3 6.3-6 7.8a10.6 10.6 0 0 0-4.4 13.7 12 12 0 0 1 0 10 12.6 12.6 0 0 1-7.3 6.5 10.7 10.7 0 0 0-7.2 12.4c.7 3.3 0 7-2 9.7a12 12 0 0 1-8.7 4.9c-1.4.2-2.8.6-4 1.2l-.3.2zm-10-10l-.8-.9.2-.3c21-25 32.2-55.3 32.2-88 0-36.5-14.2-71-40.1-96.7-25.7-25.8-60-40-96.6-40a136 136 0 0 0-96.7 40 135.3 135.3 0 0 0-40.1 96.7c0 32.2 10.9 62.4 31.3 87.2l.3.4-1 1-.3-.4A137.8 137.8 0 0 1 77.7 646a137.5 137.5 0 0 1 97.7-40.5 137.4 137.4 0 0 1 138.1 138c0 32.6-11.5 64.1-32.4 88.9l-.4.4zm-90.5-187.2l-.2-.2h-9.8v.1h-10.2l-.3.1v-.2h-9.9v.1h-10.5V644h9.8l4.8-6.2-4.7-6-9.8.2v-1.4H199.8v1.4h-9l-4.7 6 4.7 6h9v1.3h-9.3l-.4.2zm-8.9-1.5h7.8l-4-5-3.7 4.8h.1l-.2.2zm-11 0h9.2l4.7-6-4.6-6h-9.3l-4.7 6 4.7 6zm-9.5 0h7.8l-4-5-3.8 5zm24.4-7.2l3.8-4.8h-7.7l3.9 4.8zm-24.2-4.8l3.8 4.7 3.7-4.7H161z"/></svg>