<svg xmlns="http://www.w3.org/2000/svg" width="350" height="350" viewBox="0.5 568.5 350 350"><path fill="#071B36" d="M190.77 901.202c-3.018 0-5.943-1.188-8.047-3.2-4.022-3.748-10.33-3.748-14.354 0-2.47 2.378-5.853 3.566-9.327 3.11-3.475-.367-6.583-2.195-8.594-5.03-3.2-4.57-9.42-5.85-14.08-3.017-2.927 1.828-6.493 2.194-9.784 1.097-3.2-1.005-5.942-3.565-7.223-6.674-2.104-5.028-7.954-7.59-13.166-5.852-3.2 1.098-6.766.823-9.783-.914-2.925-1.737-5.028-4.663-5.668-8.046-1.006-5.395-6.126-9.143-11.703-8.503-3.475.366-6.857-.73-9.417-2.926-2.56-2.285-4.022-5.577-4.022-9.143.09-5.577-4.114-10.24-9.6-10.697-3.384-.274-6.492-2.012-8.687-4.846-2.012-2.65-2.743-6.308-2.012-9.69 1.28-5.395-1.92-10.88-7.223-12.434-3.29-1.006-6.034-3.383-7.405-6.584-1.372-3.107-1.372-6.674.09-9.874 2.287-4.937.275-10.972-4.478-13.714-3.02-1.737-5.12-4.48-5.853-7.863-.823-3.382 0-7.038 2.194-9.6 3.292-4.388 2.652-10.604-1.462-14.263-2.56-2.285-4.114-5.576-4.114-9.05s1.463-6.767 4.114-9.052c4.206-3.566 4.846-9.875 1.463-14.264-2.102-2.74-2.833-6.216-2.193-9.6s2.834-6.308 5.942-7.862c4.845-2.65 6.765-8.594 4.48-13.714-1.464-3.2-1.464-6.767-.093-9.874 1.463-3.11 4.114-5.486 7.406-6.584 5.303-1.645 8.503-7.13 7.223-12.434-.73-3.29 0-6.95 2.012-9.69 2.194-2.835 5.21-4.572 8.686-4.847 5.485-.457 9.69-5.12 9.6-10.697 0-3.475 1.463-6.766 4.023-9.143 2.56-2.377 5.942-3.475 9.417-2.926 5.485.73 10.605-3.02 11.61-8.504.64-3.383 2.744-6.4 5.67-8.046 3.017-1.737 6.582-2.103 9.782-.914 5.212 1.828 10.972-.73 13.166-5.852 1.37-3.108 4.022-5.577 7.223-6.674 3.29-1.098 6.857-.64 9.783 1.097 4.846 2.835 10.88 1.554 14.08-3.017 2.01-2.835 5.028-4.664 8.594-5.03 3.475-.364 6.857.732 9.326 3.11 4.022 3.748 10.33 3.748 14.354 0l.184-.184.182-.183c2.378-2.103 5.67-3.108 8.87-2.743 3.474.365 6.582 2.194 8.593 5.03 3.202 4.57 9.42 5.85 14.08 3.016 2.927-1.83 6.493-2.194 9.784-1.097 3.2 1.005 5.943 3.564 7.223 6.673 2.195 5.03 7.955 7.59 13.166 5.852 3.2-1.098 6.766-.822 9.783.914 2.926 1.736 5.028 4.662 5.668 8.045 1.006 5.394 6.126 9.143 11.703 8.503 3.475-.365 6.857.73 9.417 2.926 2.56 2.285 4.022 5.577 4.022 9.143-.09 5.577 4.115 10.24 9.6 10.697 3.384.274 6.492 2.012 8.687 4.846 2.012 2.65 2.743 6.31 2.012 9.69-1.28 5.396 1.92 10.88 7.223 12.435 3.292 1.006 6.034 3.383 7.405 6.584 1.372 3.106 1.372 6.673-.09 9.873-2.287 4.937-.275 10.972 4.478 13.714 3.02 1.737 5.12 4.48 5.853 7.863.73 3.475-.09 7.13-2.194 9.6-3.292 4.39-2.652 10.605 1.462 14.264 2.56 2.285 4.114 5.576 4.114 9.05s-1.463 6.675-4.114 9.052c-4.205 3.658-4.846 9.875-1.463 14.264 2.103 2.742 2.834 6.217 2.193 9.6-.64 3.383-2.834 6.31-5.942 7.863-4.845 2.65-6.765 8.594-4.478 13.714 1.462 3.2 1.462 6.767.09 9.874-1.462 3.11-4.113 5.487-7.404 6.585-5.303 1.645-8.504 7.13-7.223 12.434.73 3.29 0 6.948-2.012 9.69-2.195 2.834-5.212 4.57-8.686 4.846-5.486.457-9.69 5.12-9.6 10.697 0 3.475-1.464 6.766-4.023 9.143-2.56 2.377-5.943 3.475-9.418 2.926-5.485-.73-10.605 3.018-11.61 8.503-.64 3.383-2.743 6.4-5.67 8.046-3.017 1.738-6.582 2.104-9.782.915-5.12-1.828-10.97.73-13.166 5.852-1.37 3.108-4.022 5.577-7.223 6.674-3.29 1.1-6.857.642-9.783-1.096-4.846-2.834-10.88-1.555-14.08 3.018-2.01 2.834-5.027 4.662-8.594 5.028-.275.092-.823.092-1.19.092zm-15.087-7.223c3.018 0 5.852 1.097 8.046 3.107 2.103 2.012 5.21 3.11 8.32 2.835 3.017-.274 5.76-1.83 7.496-4.39 3.565-5.027 10.515-6.582 15.908-3.382 2.65 1.554 5.76 1.92 8.687 1.006 2.927-1.006 5.304-3.2 6.4-5.943 2.377-5.76 8.868-8.686 14.812-6.674 2.926 1.005 6.125.64 8.686-.916 2.65-1.646 4.48-4.114 5.12-7.13 1.097-6.127 6.948-10.24 13.165-9.51 3.018.366 6.035-.55 8.32-2.65 2.194-2.013 3.475-4.94 3.475-8.047-.092-6.308 4.662-11.61 10.88-12.068 3.108-.275 5.852-1.83 7.59-4.298 1.827-2.47 2.468-5.577 1.735-8.595-1.463-6.034 2.104-12.25 8.047-14.08 2.926-.914 5.394-3.017 6.582-5.76 1.28-2.834 1.19-5.943-.092-8.777-2.65-5.577-.457-12.434 5.03-15.45 2.65-1.556 4.57-4.115 5.21-7.04.64-3.11-.09-6.22-1.92-8.596-3.84-4.937-3.108-12.068 1.737-16.183 2.377-2.102 3.657-4.936 3.657-7.953 0-3.108-1.37-5.943-3.657-7.954-4.663-4.114-5.395-11.246-1.737-16.183 1.83-2.47 2.56-5.486 1.92-8.595-.64-2.926-2.468-5.485-5.21-7.04-5.396-3.018-7.59-9.783-5.03-15.45 1.28-2.652 1.28-5.944.092-8.778-1.188-2.742-3.565-4.846-6.582-5.76-5.943-1.828-9.51-7.955-8.047-14.08.732-2.926.092-6.034-1.736-8.594-1.92-2.47-4.572-4.023-7.59-4.298-6.308-.548-11.062-5.852-10.88-12.068 0-3.108-1.28-5.942-3.474-8.046-2.193-2.01-5.21-3.017-8.32-2.65-6.217.73-11.977-3.383-13.074-9.51-.64-3.017-2.47-5.576-5.12-7.13-2.56-1.555-5.76-1.83-8.686-.914-5.852 2.103-12.344-.823-14.812-6.675-1.188-2.834-3.564-5.027-6.4-5.94-2.925-.916-6.033-.642-8.685 1.005-5.304 3.2-12.25 1.736-15.91-3.384-1.827-2.56-4.57-4.113-7.495-4.387-3.11-.275-6.127.73-8.32 2.834-4.572 4.297-11.703 4.297-16.274 0-2.103-2.012-5.21-3.11-8.32-2.834-3.017.273-5.76 1.828-7.497 4.388-3.564 5.03-10.513 6.584-15.907 3.385-2.65-1.555-5.76-1.92-8.686-1.006-2.926 1.005-5.303 3.198-6.4 5.94-2.377 5.76-8.868 8.687-14.812 6.676-2.926-1.006-6.125-.64-8.686.914-2.652 1.646-4.48 4.113-5.12 7.13-1.098 6.127-6.95 10.24-13.166 9.51-3.018-.366-6.035.55-8.32 2.65-2.286 2.105-3.565 5.03-3.475 8.047.09 6.31-4.664 11.61-10.88 12.068-3.11.274-5.853 1.83-7.59 4.298-1.828 2.56-2.468 5.668-1.736 8.594 1.462 6.034-2.104 12.252-8.046 14.08-2.926.914-5.395 3.018-6.583 5.76-1.28 2.834-1.188 5.943.09 8.777 2.653 5.577.46 12.434-5.027 15.45-2.65 1.556-4.57 4.115-5.21 7.04-.642 3.11.09 6.22 1.92 8.596 3.747 4.937 3.016 11.977-1.738 16.183-2.377 2.103-3.657 4.937-3.657 7.954 0 3.108 1.37 5.943 3.657 7.954 4.663 4.115 5.395 11.247 1.737 16.184-1.83 2.47-2.56 5.486-1.92 8.595.64 2.925 2.47 5.484 5.21 7.04 5.396 3.017 7.59 9.782 5.03 15.45-1.28 2.834-1.372 5.943-.092 8.777 1.188 2.743 3.565 4.846 6.583 5.76 5.942 1.83 9.508 7.955 8.046 14.08-.73 2.926-.092 6.035 1.736 8.595 1.92 2.468 4.57 4.022 7.59 4.297 6.308.548 11.06 5.85 10.88 12.067 0 3.108 1.28 5.943 3.474 8.046 2.194 2.012 5.21 3.018 8.32 2.65 6.217-.73 11.977 3.384 13.074 9.51.64 3.017 2.468 5.577 5.12 7.13 2.56 1.556 5.85 1.83 8.686.916 5.852-2.105 12.343.82 14.812 6.673 1.188 2.834 3.565 5.028 6.4 5.943 2.925.914 6.033.64 8.685-1.006 5.304-3.2 12.253-1.737 15.91 3.383 1.828 2.56 4.57 4.114 7.497 4.39 3.108.273 6.125-.732 8.32-2.836 2.283-2.01 5.21-3.108 8.226-3.108zm-.183-12.434c-36.846 0-71.497-14.354-97.646-40.412-26.148-26.148-40.503-60.8-40.503-97.646s14.355-71.497 40.412-97.646c26.058-26.15 60.8-40.41 97.737-40.41 36.845 0 71.496 14.353 97.645 40.41 26.058 26.148 40.41 60.8 40.41 97.646s-14.353 71.497-40.41 97.646c-26.148 26.057-60.8 40.412-97.645 40.412zm-30.812-4.755c9.966 2.287 20.298 3.476 30.812 3.476 8.87 0 17.555-.823 26.057-2.47h-1.006V820.38c0-5.67-4.57-10.24-10.238-10.24h-.457v-.09H144.69v66.74zm-1.37-68.113h46.993c6.4 0 11.612 5.212 11.612 11.61v57.418c26.515-5.12 50.835-18.01 70.218-37.576 25.782-25.876 40.045-60.253 40.045-96.642 0-36.57-14.263-70.95-40.137-96.64-25.69-25.874-60.068-40.138-96.64-40.138-36.48 0-70.766 14.264-96.55 40.23-25.873 25.874-40.137 60.25-40.137 96.64 0 36.57 14.265 70.948 40.14 96.64 17.92 17.92 40.136 30.354 64.456 36.206v-67.75zm41.873 64.182h-26.97v-1.372h26.97v1.37zm-10.512-3.93h-5.852v-1.373h5.852v1.372zm10.513-4.482h-26.97v-1.37h26.97v1.37zm-12.25-4.388h-.914l-5.03-5.028 3.11-3.11-1.28-1.278-3.566 3.29 1.006 1.007-.914.916-5.942-5.943.914-.914 4.022 4.02 3.566-3.382-.55-.55v-2.192h-2.193l-13.167-13.166h12.71l5.027 5.028v-1.463h-1.006v-1.372h1.006v-1.92h5.303v4.755l5.028-5.028h12.8l-13.165 13.166h-2.102v2.193l-.64.64 3.474 3.2.092-.092 4.112-4.114.914.914-5.942 5.943-.914-.913.914-.915-3.474-3.2-1.006 1.006v-.183l-.183.183 3.11 3.11-5.12 5.392zm-4.114-5.03l3.565 3.566 3.566-3.565-2.194-2.193-1.097 1.097h-.64l-1.098-1.097-2.1 2.194zm3.474-2.925l.184.274.183-.184v-9.144h1.37v7.77l.458-.456v-7.405h1.37v6.218l.185-.274.183-.183v-7.405h-7.497v7.406l.183.184v-5.85h1.37v7.222l.55.548v-7.77h1.37v9.05h.09zm5.212-6.49h1.646l10.423-10.424h-8.868l-4.662 4.663h1.463v5.76zm-10.15 0h.092v-5.762h1.463l-4.662-4.662h-8.96l10.423 10.424h1.645zm6.31-5.76h.09v-4.39h-2.56v4.39h2.47zm18.102-15.635h-40.137v-1.372h40.137v1.372zm74.698-29.257H85.9v-33.829h.914l47.635-10.605H57.647v-34.47h.55l87.405-24.868-5.67-15.635h60.983l.64-.183v.09h.55v33.007l-25.966 8.14h111.634V750.528h-1.188l-47.27 10.514h27.155l-7.68 16.914 7.682 17.005zm-179.2-1.37h177.005l-7.132-15.544 7.132-15.544h-31.543l-.365.09v-.09H87.27v31.086zm144.822-32.46h.55l48.273-10.695h-139.61l-48.092 10.696h138.88zm-87.406-11.977H286.037V717.98H171.295l-.458.09v-.09H59.02v31.176h85.668zm25.692-32.548h.73l25.6-7.224h-56.775l6.126-16.822-84.845 24.046H170.38zm-28.526-8.594h58.88V677.02l-.092-.183h-58.788l5.67 15.543-5.67 15.634zm88.32 79.543H219.66v-1.37h4.57V770.55h-2.285l-5.303 12.984-5.12-12.983h-2.65v15.544h4.57v1.37H202.93v-1.37h4.57V770.55h-4.48v-1.37h9.42l4.204 10.79 4.39-10.607h9.142v1.372h-4.57v15.543h4.57v1.28zm-46.537 0c-3.748 0-6.674-2.926-6.674-6.674v-10.79h-3.748v-1.37h8.96v1.37h-3.84v10.79c0 2.926 2.376 5.303 5.302 5.303s5.303-2.377 5.303-5.303v-10.79h-3.748v-1.37h9.05v1.37h-3.93v10.79c0 3.656-3.017 6.674-6.675 6.674zm-65.737 0c-3.75 0-6.675-2.926-6.675-6.674v-10.79h-3.84v-1.37h9.052v1.37h-3.84v10.79c0 2.926 2.377 5.303 5.303 5.303s5.303-2.377 5.303-5.303v-10.79h-3.75v-1.37h8.96v1.37h-3.84v10.79c0 3.656-3.015 6.674-6.673 6.674zm44.983-.55H152.37v-1.37h3.564l-10.33-14.263v14.263h3.473v1.37h-10.33v-1.37h5.484v-15.45h-5.576v-1.372h7.77v1.28l10.516 14.628v-14.537h-4.57v-1.37h10.513v1.37h-4.57v15.45h4.57v1.372zm101.577-43.336c-2.286 0-5.12-1.004-8.046-2.742l-.55-.273.915-1.19.365.367s3.932 2.65 7.314 2.65c1.828 0 3.382-.364 4.57-.913 1.28-.642 1.828-1.647 1.828-2.927 0-2.56-2.285-3.018-6.125-3.566h-.184c-3.384-.457-7.224-1.005-7.224-4.662 0-2.285 3.475-4.938 7.955-4.938 4.206 0 6.858 1.737 7.132 1.92l.274.274-.73 1.007-.366-.274s-2.377-1.646-6.217-1.646c-4.023 0-6.584 2.377-6.584 3.565 0 2.286 2.194 2.743 5.85 3.292h.275c3.475.457 7.405 1.005 7.405 4.937 0 1.738-.914 3.2-2.56 4.024-1.735.914-3.837 1.097-5.3 1.097zm-26.423 0c-3.748 0-6.674-2.924-6.674-6.673v-10.33h-3.84v-1.373h8.96v1.372h-3.75v10.33c0 2.926 2.378 5.304 5.304 5.304s5.303-2.378 5.303-5.303v-10.33h-3.84v-1.373h9.05v1.372h-3.84v10.33c0 3.658-3.016 6.675-6.673 6.675zm-23.588 0H203.75v-1.37h4.846v-15.634h-4.755v-1.372H213.9c2.56 0 4.754 2.194 4.754 4.755 0 1.37-.55 2.56-1.555 3.473h.456l-.822.457c1.737.915 2.926 2.65 2.926 4.57 0 2.835-2.377 5.12-5.21 5.12zm-4.48-1.37h4.48c2.01 0 3.747-1.737 3.747-3.75s-1.737-3.747-3.748-3.747h-4.48v7.497zm0-8.868h4.02c1.83 0 3.385-1.555 3.385-3.383 0-1.83-1.555-3.384-3.384-3.384h-4.02v6.766zm-18.927 10.24h-11.52V742.3h4.937v-15.27h-4.937v-1.37h11.52v1.37h-5.21v15.27h5.21v1.37zm-23.954 0c-1.19 0-2.195-.366-2.927-1.006-.914-.915-3.475-3.932-4.57-5.304l-.367-.365c-.457.183-1.005.183-1.463.183h-2.926v4.938h5.12v1.37h-11.245v-1.37h4.754v-15.45h-4.846v-1.373h9.143c3.292 0 5.943 2.65 5.943 5.942 0 2.195-1.188 4.115-3.108 5.212.457.548 1.188 1.28 1.828 2.193 1.098 1.28 2.286 2.56 2.743 3.108 1.096 1.098 3.2.458 3.29.458l.457-.183.184 1.006c.09.366-.64.64-2.01.64zm-12.253-7.863h2.926c2.56 0 4.572-2.013 4.572-4.573 0-2.56-2.012-4.57-4.572-4.57h-2.926v9.142zm-23.954 7.86c-3.748 0-6.674-2.924-6.674-6.673v-10.33h-3.84v-1.373h3.84v-.183h1.37v.184h3.84v1.372h-3.84v10.33c0 2.926 2.377 5.304 5.303 5.304s5.303-2.378 5.303-5.303v-10.33h-3.84v-1.373h3.84v-.183h1.372v.184h3.748v1.372h-3.748v10.33c0 3.75-2.926 6.675-6.675 6.675zm-17.92 0H96.688v-1.37h4.938v-15.27h-4.938v-1.37h11.52v1.37H103v15.27h8.868c1.006-1.554 2.377-1.92 3.29-1.92h.458v1.37h-.457c-1.28 0-2.012 1.19-2.194 1.464v.457zm-28.708 0h-11.61v-1.37h5.118v-15.36h-5.85v-1.37H82.15c3.293 0 5.944 2.65 5.944 5.942 0 3.29-2.65 5.942-5.943 5.942h-3.016v4.846h5.12v1.37zm-5.12-7.588h3.017c2.47 0 4.57-2.103 4.57-4.57 0-2.56-2.01-4.572-4.57-4.572h-3.017v9.142zm100.57-34.01h-16.273v-1.373h4.938v-15.087h-4.938v-1.37h16.365v.456c.184.365.914 1.828 2.194 1.828h.46v1.372h-.46c-.913 0-2.285-.366-3.29-2.287h-8.96v6.767h7.314v1.37h-7.314v6.95h8.868c1.006-1.555 2.378-1.92 3.292-1.92h.457v1.37h-.457c-1.28 0-2.012 1.19-2.195 1.463v.458zm-15.634-57.235H143.41v-1.372h9.416l4.846-6.125-4.663-5.943h-9.51v-1.37h66.47v1.37h-10.79l-4.754 12.068h15.543v1.372h-45.9zm28.436-1.372l-4.663-12.068H176.69v12.068h15.816zm-28.25 0h11.06v-12.068H163.89l-4.57 5.852 4.937 6.215zm-1.738 0l-4.023-5.12-4.022 5.12h8.045zm26.697-12.07l4.297 10.79 4.205-10.79h-8.502zm-34.56 0l3.748 4.756.09-.09 3.75-4.755h-7.59v.09z"/></svg>