<svg xmlns="http://www.w3.org/2000/svg" width="350" height="350" viewBox="0.5 568.5 350 350"><path fill="#071b36" d="M190.4 901.3c-3 0-5.9-1.2-8-3.2-4-3.8-10.3-3.8-14.4 0a12 12 0 0 1-18-2 10.8 10.8 0 0 0-14-3 11.9 11.9 0 0 1-17-5.6c-2.2-5-8-7.6-13.1-5.8-3.2 1.1-6.8.9-9.8-.9a12 12 0 0 1-5.7-8 10.6 10.6 0 0 0-11.6-8.5 11.8 11.8 0 0 1-10.6-4.2l-.3-.4-.6-.7h1.6l.1.1 1.3 1.4c2.2 2 5.2 3 8.3 2.7 6.2-.8 12 3.4 13.1 9.5a10.7 10.7 0 0 0 13.8 8 12 12 0 0 1 14.8 6.7c1.1 2.8 3.5 5 6.4 6s6 .6 8.7-1a12 12 0 0 1 16 3.3 10.4 10.4 0 0 0 15.8 1.6 11.9 11.9 0 0 1 16.1-.1 11 11 0 0 0 8.3 2.8 10 10 0 0 0 7.5-4.4 12 12 0 0 1 16-3.4c2.6 1.6 5.7 2 8.6 1 2.9-.9 5.1-3 6.4-5.9 2.4-5.8 8.9-8.7 14.8-6.7 2.9 1 6.2.7 8.7-.9 2.8-1.4 4.6-4 5.1-7.1A12 12 0 0 1 272 863c3 .3 6-.6 8.3-2.7 2.2-2 3.5-5 3.5-8 0-6.3 4.7-11.6 10.9-12 3-.4 5.8-2 7.6-4.4 1.8-2.5 2.4-5.7 1.7-8.6a11.8 11.8 0 0 1 8-14 10.5 10.5 0 0 0 6.5-14.5 11.9 11.9 0 0 1 5-15.5c2.7-1.4 4.6-4 5.3-7 .6-3.2-.1-6.2-2-8.7-3.7-5-2.9-12 1.8-16.2 2.4-2 3.7-4.9 3.7-8 0-3-1.4-5.9-3.7-7.9a12 12 0 0 1-1.7-16.2 10.5 10.5 0 0 0-3.3-15.6c-5.4-3-7.6-9.9-5-15.4 1.2-2.7 1.2-6 0-8.8a10.4 10.4 0 0 0-6.5-5.8c-6-1.8-9.6-8-8-14 .6-3 0-6.2-1.8-8.7-2-2.4-4.6-4-7.6-4.2a12 12 0 0 1-10.9-12.1c0-3.1-1.3-6-3.5-8s-5.2-3-8.3-2.7a12 12 0 0 1-13.2-9.5 10.7 10.7 0 0 0-13.8-8 12 12 0 0 1-14.8-6.7c-1-2.9-3.4-5-6.4-6s-6-.6-8.7 1a12 12 0 0 1-15.9-3.4 10.4 10.4 0 0 0-7.5-4.4c-3.2-.2-6.2.8-8.3 2.9a11.9 11.9 0 0 1-16.3 0 10.7 10.7 0 0 0-9.6-2.7 11 11 0 0 0-6.3 4.4 11.5 11.5 0 0 1-10.5 4.9c-1.8-.1-3.6-.7-5.3-1.7-2.6-1.5-5.7-1.9-8.7-1-2.8 1-5 3.1-6.4 6a11.9 11.9 0 0 1-14.8 6.6c-2.8-1-6.1-.6-8.7 1a9.9 9.9 0 0 0-5 7 12 12 0 0 1-13.2 9.5c-3-.4-6 .5-8.4 2.6-2.3 2.1-3.4 5-3.4 8 0 6.4-4.7 11.7-11 12.2-3 .2-5.8 1.8-7.5 4.3a10.4 10.4 0 0 0-1.7 8.5 11.8 11.8 0 0 1-8 14.1c-3 1-5.5 3-6.7 5.8-1.3 2.8-1.2 6 .1 8.8 2.7 5.6.5 12.4-5 15.4-2.7 1.4-4.6 4-5.2 7-.7 3.2 0 6.2 1.9 8.6 3.7 5 3 12.1-1.7 16.2-2.4 2-3.7 5-3.7 8s1.4 6 3.7 8a12 12 0 0 1 1.7 16.1 10.5 10.5 0 0 0 3.3 15.7c5.4 3 7.6 9.8 5 15.4a10.5 10.5 0 0 0 6.5 14.5 12 12 0 0 1 4.5 2.6l.2.1v2l-.9-.9c-1-1.1-2.6-2-4.3-2.6-3.2-1-5.9-3.4-7.3-6.5a12 12 0 0 1 .1-10c2.3-4.9.3-10.9-4.5-13.6-3-1.7-5.2-4.6-5.8-7.9a12 12 0 0 1 2.2-9.6 10.4 10.4 0 0 0-1.5-14.3c-2.5-2.2-4-5.5-4-9s1.4-6.8 4-9c4.2-3.7 4.9-10 1.5-14.3a11.7 11.7 0 0 1 3.7-17.5c4.9-2.6 6.8-8.6 4.5-13.7a11.9 11.9 0 0 1 0-10c1.4-3 4-5.5 7.3-6.6 5.2-1.6 8.4-7 7.3-12.4-.8-3.3 0-7 2-9.7a12 12 0 0 1 8.7-4.8c5.4-.5 9.6-5.1 9.6-10.7 0-3.6 1.4-6.9 4-9.2 2.5-2.3 6-3.3 9.4-2.9 5.5.6 10.6-3.1 11.7-8.5a11.8 11.8 0 0 1 15.4-9c5.3 1.8 11.1-.9 13.2-5.8 1.4-3.1 4-5.7 7.2-6.7 3.3-1 6.9-.6 9.8 1.1 1.4.8 3 1.4 4.5 1.5 3.7.2 7.4-1.5 9.7-4.7a11.5 11.5 0 0 1 8.5-4.8c3.3-.4 6.8.8 9.3 3 4 3.8 10.3 3.8 14.4 0l.2-.1.2-.2a12 12 0 0 1 17.5 2.3c3.2 4.5 9.4 5.8 14 3 2.9-1.8 6.5-2.2 9.9-1 3.2 1 5.9 3.5 7.2 6.6 2.2 5.1 8 7.7 13.1 5.8 3.2-1 6.8-.8 9.8 1 3 1.7 5 4.6 5.7 8 1 5.5 6.2 9.2 11.6 8.5 3.5-.4 6.9.6 9.4 3 2.6 2.3 4 5.5 4 9 0 5.7 4.2 10.3 9.6 10.8 3.4.2 6.5 2 8.7 4.8a12 12 0 0 1 2 9.7c-1.2 5.3 2 10.9 7.3 12.4a12 12 0 0 1 7.3 16.5c-2.3 5-.3 11 4.5 13.7 3 1.7 5.2 4.6 5.8 7.9a12 12 0 0 1-2.2 9.6 10.4 10.4 0 0 0 1.5 14.2 12.1 12.1 0 0 1 0 18.1c-4.1 3.7-4.9 10-1.7 14.3a11.7 11.7 0 0 1-3.7 17.5 10.6 10.6 0 0 0-4.5 13.7 12 12 0 0 1 .1 9.9 12.6 12.6 0 0 1-7.4 6.5 10.7 10.7 0 0 0-7.2 12.5c.7 3.3 0 7-2 9.7a12 12 0 0 1-8.7 4.8c-5.5.5-9.7 5.1-9.6 10.7 0 3.6-1.5 6.9-4 9.2-2.6 2.2-6 3.2-9.5 2.9a10.7 10.7 0 0 0-11.7 8.5 11.8 11.8 0 0 1-15.4 9c-5.3-1.8-11 .7-13.2 5.8-1.4 3.1-4 5.6-7.2 6.7-3.3 1-6.9.6-9.8-1.1-4.8-3-11-1.6-14 3a12 12 0 0 1-8.7 5c-.3.3-.9.3-1.3.3zm129.6-215l-.7 2.2a9.3 9.3 0 0 0-1 3.4c.2-1 .5-2.2 1-3.2l.7-2.4zM175.4 881.8a137 137 0 0 1-74.8-22l-1.3-.8h2.5a136.5 136.5 0 0 0 160.8-10.2H53.6v-73.3h.2v-3.1l-4.1-6h3.9v-13h6.4V748h39.3v-31.8l-1.5-1.5 2.2-2.2 2.2 2.2-1.4 1.5v.1h8.6l-.3 1.2h7.5L114 728h-10v-1.2h-3.5V748H128v-65.3h69v69h18V748h19.8l-1.8-7.5h5v-24.2l-3.3-8.5h3.4v-18.2l-.3-.5h.1l-3.1-7.8h3.3v-4.5h5.7c.1-15.1 7-29.1 18.6-38.6a134.7 134.7 0 0 0-87-31.3A136 136 0 0 0 78.7 647 135.3 135.3 0 0 0 43 778.3v5.2l-1-3.3A137.1 137.1 0 0 1 77.7 646 137.8 137.8 0 0 1 263 637v-.3l.4.7a124 124 0 0 1 6.4 5.6l.4.2-.1.1 3 3 .8.7 4.5 4.8h.3v.4a95 95 0 0 1 5.5 6.5h.3v.5c4.3 5.5 8.2 11.3 11.6 17.4h.1v.3c.9 1.3 1.6 2.8 2.3 4.2h.2v.4c3 6 5.7 12.3 7.8 18.8h.2v.6l.1.4c.8 2.2 1.4 4.4 2 6.6v.4l.1.6c2.8 10.3 4.3 21 4.5 31.7l.1.4v2.4-.2.6c0 1.4 0 2.8-.2 4.3h.1l.1.4v1h-.2a134 134 0 0 1-1.8 17.8v.6h-.2a134 134 0 0 1-4.8 19.2v.3h-.1a141.5 141.5 0 0 1-4.8 12.3 138.3 138.3 0 0 1-20 32.2h.1l-.5.6-.3.3a97 97 0 0 1-5.4 6l-.4.3-.5.6-.5.4-.3.4c-.2.4-.6.6-.9 1-26 26-60.6 40.4-97.4 40.4zm85.6-34.4h3.2l.6-.5c2.3-2 4.6-4.1 7.1-6.6l.7-.7H261v7.8h.1zm-78.4 0h3.6V817h-3.7v30.4zm-39 0h37.6v-30.3h-37.7v30.3zm72.7 0h43.5v-7.8h-43.5v7.8zm-28.8 0H215v-3.2h-27.5v3.2zm-50.4 0h5V817h-5v30.3zm-1.7 0h.3V817h-10.3v30.3h10zm-11.9 0h.6V817h-2v30.3h1.4zm-15 0h12.3V817h-12.3v30.3zm-3.2 0h1.9V817h-1.9v30.3zm-6.3 0h5V817H91.8v30.3H99zm-10.5 0h2V817h-2v30.3zm-2.3 0h1V817H74.8v30.3h11.3zm-14.5 0h1.8V817h-1.8v30.3zm-6 0h4.6V817h-9v30.3h4.4zm-10.8 0h5V817h-5v30.3zm132.6-4.5H215v-3.3h-27.5v3.3zm86.6-4.7c2-2 3.8-4 5.8-6.4v-3.5a5.1 5.1 0 1 0-10.2 0v10h4.4zm-12.9 0h7.1v-9.9c0-3.5 3-6.5 6.5-6.5 3.6 0 6.4 2.9 6.5 6.5v1.7a133 133 0 0 0 9.4-13h-74.5v21.2h12v-10c0-3.5 2.8-6.4 6.4-6.4s6.5 2.9 6.5 6.4v10h7.1v-10c0-3.6 2.9-6.4 6.5-6.4s6.5 2.9 6.5 6.4v10zm-1.5 0v-10a5.1 5.1 0 1 0-10.2 0v10h10.2zm-20 0v-10a5.1 5.1 0 1 0-10.2 0v10h10.1zm-52.2 0H215V835h-27.4v3.2zm0-4.6H215v-3.3h-27.4v3.3zm0-4.6H215v-3.2h-27.4v3.2zm0-4.6H215v-3.3h-27.4v3.3zm0-4.7h27.3V817h-27.3v2.7zm100.5-3.9h3.5c3-5 6-10.4 8.6-16.2H288v16.2zm-20.2 0h19v-16.2h-19v16.1zm-5.3 0h3.8v-16.2h-3.8v16.1zm-19.8 0h18.5v-16.2h-18.5v16.1zm-5.2 0h3.8v-16.2h-3.8v16.1zm-20.7 0h19.4v-16.2h-19.9v16.1h.5zm-73.2 0h37.6v-16.4h-37.6v16.3zm-6.5 0h5.2v-16.2H137v16.1zm-6.4 0h5v-16.2H61.4v16.1H65V807c0-1.8 1.5-3.3 3.3-3.3 1.8 0 3.3 1.5 3.3 3.3v8.7h1.8V807c0-1.8 1.5-3.3 3.3-3.3 1.8 0 3.3 1.5 3.3 3.3v8.7h1.8V807c0-1.8 1.5-3.3 3.3-3.3 1.8 0 3.3 1.5 3.3 3.3v8.7h2V807c0-1.8 1.4-3.3 3.2-3.3 1.8 0 3.3 1.5 3.3 3.3v8.7h1.7V807c0-1.8 1.5-3.3 3.3-3.3 1.9 0 3.3 1.5 3.3 3.3v8.7h1.9V807c0-1.8 1.4-3.3 3.2-3.3 1.9 0 3.3 1.5 3.3 3.3v8.7h1.9V807c0-1.8 1.4-3.3 3.3-3.3 1.8 0 3.2 1.5 3.2 3.3v8.7h2V807c0-1.8 1.4-3.3 3.3-3.3 1.8 0 3.3 1.5 3.3 3.3v8.7zm-1.5 0V807c0-1-.8-1.9-1.8-1.9s-2 1-2 2v8.6h3.8zm-12.3 0h3.9V807c0-1-1-1.9-2-1.9s-1.9 1-1.9 2v8.6zm-8.4 0h3.9V807c0-1-1-1.9-2-1.9s-1.9 1-1.9 2v8.6zm-8.4 0h3.9V807c0-1-1-1.9-2-1.9s-1.9 1-1.9 2v8.6zm-4.6 0l.1-8.8c0-1-.9-1.9-1.9-1.9-1 0-1.9 1-1.9 2v8.6h3.7zm-12.2 0h3.8V807c0-1-.9-1.9-1.9-1.9-1 0-1.9 1-1.9 2v8.6zm-8.4 0h3.8V807c0-1-.9-1.9-1.9-1.9s-2 1-2 2v8.6zm-8.4 0h3.8V807c0-1-.9-1.9-2-1.9s-1.8 1-1.8 2v8.6zm-7.5 0h.9v-16.2h-5v16.1h4zm123.6-.2H215v-16h-32.4v16zM288 798.3h12.7l.6-1.3.4-1h-.3l.3-.5v-18.7H288v21.5zm-3.2 0h1.8v-21.5h-1.8v21.5zm-13.8 0h12.5v-21.5H271v21.5zm-3.2 0h1.8v-21.5h-1.8v21.5zm-5.3 0h3.8v-21.5h-3.8v21.5zm-3 0h1.7v-21.5h-1.7v21.5zm-13.6 0H258v-21.5H246v21.5zm-3.2 0h1.8v-21.5h-1.8v21.5zm-5.3 0h3.9v-21.5h-3.9v21.5zm-3 0h1.8v-21.5h-1.8v21.5zm-17.6 0H233v-21.4h-16.8v21.4h.5zm-34.2 0H215v-21.5h-32.4v21.5zm-45.5 0h5.2v-21.4H137v21.4zm-1.7 0h.3v-21.4H131v21.4h4.4zm-7.5 0h1.8v-21.4H128v21.4zm-4.4 0h3v-21.4h-3.8v21.4h.8zm-3.9 0h1.7v-21.4h-1.7v21.4zm-5.6 0h4.2v-21.4H114v21.4zm-3.2 0h1.8v-21.4h-1.8v21.4zm-5.1 0h3.7v-21.4h-3.7v21.4zm-3.1 0h1.7v-21.9h-1.7v21.9zm-3.6 0h2.2v-21.4H98v-.1h-2.3v21.5H99zm-6.6 0h2v-21.5h-2v21.5zm-5 0H91v-21.5h-3.8v21.5zm-3.2 0H86v-21.5h-1.7v21.5zm-5.5 0h4.1v-21.5h-4.2v.3h.1v21.2zm-3.3 0h2V778h-.1v-1.3h-1.9v21.5zm-5.2 0h3.9v-21.5h-3.9v21.5zm-3 0H69v-21.5h-1.7v21.5zm-5.6 0h4.2v-21.5h-4.5v21.5h.3zm-6.7 0h5v-21.4h-5v21.4zm122.5-.3h4V777h-4.1V798zm-3.3 0h1.8V777h-1.8V798zm-5.1 0h3.7V777H169V798zm-3.1 0h1.7V777h-1.7V798zm-5.6 0h4.2V777h-4.2V798zm-3.2 0h1.8V777h-1.8V798zm-5.2 0h3.8V777H152V798zm-3.1 0h1.7V777h-1.7V798zm-5.2 0h3.8V777h-3.8V798zM303 776.8v15.4l2-5.5v-10h-2zm3.3 0v5.7l1.5-5.7h-1.5zm-132.3-1h7.2v-.3h.1v-3.1l-3.2-4.6h-31.6l-3.2 4.6v3.4h4.4v-.1H174zm42.7-.2h16.5v-3.2l-3.2-4.6h-16.5l2.8 4.1v3.6h.3zm-74.8-.1v-3.6l3-4h-4.8l-3.2 4.5v3h5zm-6.4 0v-3.6l3-4h-80l2.8 4v3.5H135.6zm-75.7 0h.2v-3.1l-3.2-4.6H52L55 772v3.6h4.9zm174.8-.1h73.7l1.5-7.6h-78l2.8 4.1v3.5zm-52 0h32.4v-3l-3.2-4.6h-32l2.9 4.1v3.5zm56.5-9h71a118 118 0 0 0 1.7-15.6v-1.5h-95.6v17.1h22.9zm-28 0h3.8V753h-32.3v13.4H211zm-34 0h4.1v-9.7h-37.8v9.7h33.8zm-36.3 0h1.3V753H137v13.5h3.8zm-5.5 0h.3v-17H61.3v17h74.1zm-75.9 0h.4v-11.6h-5v11.6h4.6zm84-11.1h37.8v-3.6h14.3V684h-66.2v64h7.7v3.5h6.4v3.8zm92.7-7.3H312V741.8h-77.4l1.6 6.2zm73.6-7.5h2.3c-.2-7.4-1-14.8-2.3-22v22zm-3.1 0h1.7v-23.8h-1.7v23.8zm-5.3 0h3.9v-23.8h-3.9v23.8zm-3.2 0h1.8v-23.8h-2v23.8h.2zm-5.2 0h3.8v-23.8H293v23.8zm-3.3 0h2v-23.8h-2v23.8zm-5 0h3.7v-23.8h-3.9l.1 23.8zm-3.4 0h1.9v-23.8h-1.9v23.8zm-5.2 0h3.9v-23.8H276v23.8zm-3.2 0h1.8v-23.8H273v23.8zm-5.2 0h3.8v-23.8h-3.8v23.8zm-3.1 0h1.7v-23.8h-1.8l.1 23.8zm-5.2 0h3.7v-23.8h-3.7v23.8zm-3.4 0h2v-23.8h-2v23.8zm-5 0h3.7v-23.8H251v23.8zm-3.3 0h1.8v-23.8h-1.8v23.8zm-5.3 0h3.8v-23.8h-3.8v23.8zm-3 0h1.7v-23.8h-1.6v23.8zM107 726.7h6.1l1.8-7.8h-6l-1.7 7-.2.8h.5-.5zm-6.3-1.3h5.3l.6-2.6h-6v2.6zm6.2-4l1-3.7h-7.1v3.8h6.1zm132.3-6h70c-.3-2-.8-4-1.4-6.2h-71l2.4 6.1zm67.6-7.6h.6c-.2-.8-.5-1.5-.6-2.3v2.3zm-5.3 0h3.9v-7.1c-.8-2.5-1.7-5-2.8-7.6a2 2 0 0 0-1 1.7v13zm-3.2 0h1.8v-13c0-1.2.7-2.3 1.7-2.9v-.2h.2v-.3l-.7-1.2h-61.8v17.6h1.6v-13c0-1.8 1.5-3.2 3.3-3.2s3.3 1.4 3.3 3.3v13h1.8v-13c0-1.9 1.5-3.3 3.3-3.3 1.8 0 3.3 1.4 3.3 3.3v13h2v-13c0-1.9 1.4-3.3 3.2-3.3s3.3 1.4 3.3 3.3v13h1.7v-13a3.3 3.3 0 0 1 6.6 0v13h1.9v-13c0-1.9 1.4-3.3 3.2-3.3 1.9 0 3.3 1.4 3.3 3.3v13h1.9v-13c0-1.9 1.4-3.3 3.3-3.3 1.8 0 3.2 1.4 3.2 3.3v13h2v-13c0-1.9 1.4-3.3 3.3-3.3 1.8 0 3.2 1.4 3.2 3.3v13zm-5.2 0h3.9v-13c0-1-1-1.9-2-1.9s-1.9 1-1.9 2v13zm-8.6 0h3.9v-13c0-1-1-1.9-2-1.9s-1.9 1-1.9 2v13zm-8.3 0h3.9v-13c0-1-1-1.9-2-1.9s-1.9 1-1.9 2v13zm-8.4 0h3.9v-13c0-1-1-1.9-2-1.9s-1.9 1-1.9 2v13zm-8.3 0h3.8v-13c0-1-.9-1.9-1.9-1.9s-2 1-2 2v13zm-8.5 0h3.8v-13c0-1-.9-1.9-1.9-1.9s-2 1-2 2v13zm-8.5 0h3.8v-13c0-1-.9-1.9-1.9-1.9s-2 1-2 2v13zm-3.2-19h61.5l-2.8-6.1h-61.2l2.5 6.1zm57.9-7.5l-1.7-3.2h-56v3.2H297zm-2.4-4.6c-3.2-5.8-6.7-11-10.4-16-.5 5.4-.7 10.8-.7 16h11zm-12.5 0c0-6 .3-11.8.9-17.3v-.1l-4.6-5.5v1l-.4-.7c-1.4 7-2.3 14.9-2.3 22.6h6.4zm-13.8 0h6c0-8.6.9-17 2.6-24.5l-3.6-3.8c-3 8.2-4.8 18-5 28.3zm-1.4 0c0-10.6 2-20.8 5.3-29.3h-.1v-.2l-.1-.2-.2-.2-2.6-2.6h-.1c-5.6 9-8.8 20.5-9 32.5h6.8zm-14.2 0h6.1a63.2 63.2 0 0 1 9.4-33.4l-1.6-1.5-.5-.4a54 54 0 0 0-13.4 35.3zm-7.7 0h6.2a56 56 0 0 1 13.9-36.3 5 5 0 0 1-.8-.7l-.3-.3v.1l-.6-.5a49.5 49.5 0 0 0-18.4 37.7zm-98.3 64.6c-2.7 0-4.7-1.2-4.7-2.7s2-2.6 4.7-2.6 4.6 1 4.6 2.6c0 1.5-2 2.7-4.6 2.7zm-.1-4c-2 .2-3.3.9-3.3 1.3 0 .6 1.3 1.3 3.3 1.3s3.2-.6 3.2-1.3c0-.5-1.3-1.2-3.2-1.2zm37.7 2h-21.1V738h21.1v1.4zm-37.6-11c-2.8 0-4.7-1-4.7-2.6 0-1.5 2-2.7 4.7-2.7s4.6 1.1 4.6 2.7c0 1.4-2 2.6-4.6 2.6zm-.1-3.8c-2 0-3.3.7-3.3 1.3 0 .5 1.3 1.2 3.3 1.2s3.2-.6 3.2-1.2-1.3-1.3-3.2-1.3zm37.7 1.9h-21.1V725h21.1v1.4zm-37.6-11c-2.8 0-4.7-1.2-4.7-2.6 0-1.5 2-2.7 4.7-2.7s4.6 1.1 4.6 2.7c0 1.4-2 2.6-4.6 2.6zm-.1-4c-2 .2-3.3 1-3.3 1.4 0 .5 1.3 1.2 3.3 1.2s3.2-.6 3.2-1.2c0-.7-1.3-1.3-3.2-1.3zm37.7 2h-21.1V712h21.1v1.4zm-37.6-11c-2.7 0-4.7-1.2-4.7-2.6s2-2.7 4.7-2.7 4.6 1.1 4.6 2.7c0 1.4-2 2.6-4.6 2.6zm37.6-1.9h-21.1v-1.4h21.1v1.4zm-12.1-56.2l-30.1-.1v-1.4h8l4.4-5.6-5-6.5h-7.4v-1.3h7.7l.2-.1h56.4v1.4h-7.3v12h7.3v1.4h-33.9l-.3.2zm15.2-1.5H198v-12h-10.4v12zm-13.8 0h12.5v-12h-7.8l-4.7 12zm-2.4 0l-4.7-12h-5.3l-5 6.4 4.4 5.6h10.6zm-12.2 0l-3.6-4.5-3.6 4.5h7.2zm8.9-12l4.5 11.4 4.6-11.4H168zm-12.6 5.3l4.2-5.3h-8.2l4 5.3z"/></svg>