<svg xmlns="http://www.w3.org/2000/svg" width="350" height="350" viewBox="0.5 568.5 350 350"><path fill="#071B36" d="M261.1 901.6h-1.3v-41c0-1.7-.9-3.7-2.6-5.5l-.1.1-.4-.4c-2.8-3-7.3-5.6-11.4-7.7l-.4-.2-.7-.4h-.3l-.2-.2c-.3 0-.5-.2-.8-.3-6-3.2-12.4-6.6-12.4-10.5 0-4.4 7-5 14.4-5.5l.8-.1c6.7-.6 13.8-1 13.8-4.6v-.5c-1-3.3-9.3-4.3-16-5.2l-1.8-.2-.3-.1c-6.3-.9-12-1.9-13.1-4.8l-.3-.8h.3v-.1c0-4 6.2-4.5 12.3-5 6.5-.5 13.1-1 13.1-5 0-4.2-7.8-4.4-14.7-4.5-7-.2-13.7-.4-13.7-4.4 0-4.2 4.6-4.4 8.4-4.6h.3c4.5-.3 7.4-.7 7.4-3.7s-12.5-4.5-21.5-5.7c-13.7-1.8-27.9-3.6-27.9-9.7 0-6 14-11.4 17.3-12.5l-5.8-7.7c-5 .4-6.3 5.3-6.3 5.3v.4h-1l-.2-.3v-.2a7.5 7.5 0 0 0-7.3-5.3h-.4v-.1H183l8.3 7.8-.1.3.2.1-.5.3-.2.4v-.1c-7.7 5.3-23.7 7-37.6 8.4h-1c-12.1 1.5-23.6 2.6-23.6 6 0 3.6 8.3 3.7 15 3.8h.4c8.2.2 16 .3 16 5.1 0 2.2-2.6 3.6-8.5 4.5h-.8l-1 .2c-3.9.4-8.4.6-13.4.9l-3.2.2c-12.4.5-26.5 1-26.5 4.9 0 4 11.2 4.4 20.1 4.7h.3c9.5.4 18.5.8 18.5 4.8 0 4.1-11 5.1-23.8 6.2l-1.6.1c-9 .7-21.7 1.8-21.7 4.4 0 2.4 7.6 2.7 14.3 3.1 9.6.5 19.5 1 19.5 6.4 0 4.8-7.7 5.6-15.8 6.4h-.3c-8.3.7-17.7 1.7-17.7 7 0 1 .4 1.8 1 2.4 2.8 2.9 10.6 2.9 18.1 2.9 7.1 0 13.3 0 15.5 2.2.7.5 1 1.2 1 2.1 0 4.4-6.2 5.6-12.7 6.9l-1.3.3c-.7 0-1.2.2-1.9.3l-.4.1-.3.1c-5.8 1.3-9.8 3-10 6.7v30.2h-1.5v-24.2h.3V861c0-5 5.2-7.2 10-8.4h.5l.2-.1.4-.1.3-.1.2-.1 1.4-.2 2-.4h.1c5.8-1 11.3-2.2 11.3-5.4 0-.5-.1-.8-.6-1.2-1.9-1.9-8.3-1.9-14.5-1.9-7.9 0-16 0-19.1-3-1-1-1.4-2.2-1.4-3.6 0-6.4 9.5-7.4 18.8-8.3h.4c7.5-.8 14.6-1.5 14.6-5.1 0-4.1-9.5-4.6-17.9-5h-.5c-8.6-.5-15.4-.8-15.4-4.5 0-3.6 8.5-4.5 23.5-5.8h.3c9.9-.8 23.5-1.9 23.5-4.9 0-2.7-8.7-3-16.3-3.4h-.8c-10.6-.4-21.7-.7-21.7-6.1 0-5.2 13.6-5.8 28-6.3 6.5-.2 11.6-.6 15.4-1h.1c6.6-.7 10-1.8 10-3.4 0-3.6-8.4-3.7-15-3.8h-.5c-8.3-.1-16-.3-16-5 0-4.8 11.4-6 25.7-7.5 12.1-1.2 27-2.7 35.2-7h-47.5l-8.6-8.6h-.2v-.2L120.4 739H90v4.8H80v-8.2L65.5 737v-18.2l14.3 1.4v-8.3h10v5.2h30.4l20.4-20.4h50.6l.2 1-11.3 9.8 8.7 5-12.2 23.5 14.8 6.7v1l-8 5.4h5.4c4.6 0 6.9 2.9 7.9 4.8.8-1.6 2.5-4 5.8-4.6l-.6-.8 11-5.6-10.8-6.7 9.8-23.7-5.6-9.3 3.6-6.8h45.6V759h-45l-.2.1c-8.2 3.1-17 7.7-17 11.4 0 5 16 7 26.7 8.3 13.6 1.7 22.6 3.2 22.6 7 0 4.7-5 5-9 5.1-4.5.2-7.1.6-7.1 3.2 0 2.7 6.3 2.8 12.3 3h.5c7.6.3 15.6.6 15.6 5.9 0 5.4-7.7 6-14.4 6.5-5.4.4-11 .8-11 3.5 0 .3 0 .6.3.9l.5.7c1.7 1.3 5.6 2 9.5 2.6h.1l.3.1 3.4.5h.1c8.3 1 16.8 2.3 17 7v.7l-.1-.1c-.7 4.3-8.2 4.8-15.4 5.3-6.1.3-13.5.9-13.5 4.1 0 3.1 6 6.3 11.8 9.4l1.4.7h.1l.2.1.6.2-.1.1.5.3c4 2.2 8 4.6 10.8 7.3l.4.3.6.6c1.7 2 2.7 3.9 2.8 6v41.7h.2zm-50.4-143.9h43.7v-7.2h-49l5.2 6.9.1.3zm-69.4 0H189l-7.6-7.2H134l7.3 7.2zm63-8.6h50V698h-27v27.5h-19l-4.3 10.4 11 6.8v.9l-10.8 5.5v.1zm-24.4 0h.8-.1.3l8.5-5.9-14.7-6.8 5.7-11h-14.2v-27.6h-25l-20.1 20v.5H90v19h30.9l11.8 11.8h47.2zm-98.6-6.8h7.3v-29h-7.3v29zm-14.4-22v15l13-1.3v-12.5l-13-1.2zm142 3.7h17v-26.1h-15l-2.9 5.4 5.7 9.3-4.8 11.4zm-41.3 0h13.2l5.8-11.2-9.1-5.3 11.2-9.7h-21.2V724zm64.2 177.6h-1.4v-35.4h1.1l.3-1v36.4zm-27.6 0h-1.4v-35.4h1.4v35.4zm-27.7 0H175v-35.4h1.4v35.4zm-27.7 0h-1.4v-35.4h1.4v35.4zm-27.7 0h-1.4v-35.4h1.4v35.4zm124.6-13.8h-1.4v-21.5l.5-.1h.9v21.6zm-27.7 0h-1.4v-21.6h1.4v21.6zm-27.7 0h-1.4v-21.6h1.4v21.6zm-27.7 0h-1.4v-21.6h1.4v21.6zm-27.7 0h-1.4v-21.6h1.4v21.6zM91.6 853l-.6-.4a9.5 9.5 0 0 0-7.2-2c-3.3.3-6.6-.8-9-2.9A11.6 11.6 0 0 1 71 839c.1-5.2-3.9-9.7-9-10.1a11.4 11.4 0 0 1-10.2-14 10 10 0 0 0-6.8-11.7c-3.2-1-5.8-3.2-7-6.2a11.3 11.3 0 0 1 0-9.4 10 10 0 0 0-4.2-13c-2.9-1.7-5-4.4-5.5-7.6-.8-3.2 0-6.6 2-9.3a10.1 10.1 0 0 0-1.4-13.5 11.2 11.2 0 0 1 0-17.2 10 10 0 0 0 1.4-13.5c-2-2.7-2.7-6-2-9.2.7-3.3 2.8-6 5.5-7.6a9.9 9.9 0 0 0 4.2-13 11.3 11.3 0 0 1 7-15.6c5-1.4 8-6.6 6.8-11.7-.7-3.2 0-6.5 2-9.3a11 11 0 0 1 8.2-4.6 10 10 0 0 0 9-10.2c0-3.3 1.3-6.5 3.8-8.7a11 11 0 0 1 9-2.8c5.2.6 10-3 11-8a11.1 11.1 0 0 1 14.7-8.6c5 1.6 10.5-.9 12.5-5.6a11.5 11.5 0 0 1 16.3-5.4 10 10 0 0 0 13.3-3c2-2.7 5-4.4 8.1-4.7 3.4-.3 6.6.8 9 3a10 10 0 0 0 13.6 0c2.4-2.2 5.7-3.3 9-3 3.2.3 6.1 2 8.1 4.8 3.1 4.2 9 5.5 13.4 2.9 2.7-1.8 6.2-2.1 9.3-1 3 1 5.6 3.3 7 6.4a10 10 0 0 0 12.5 5.5c3-1 6.4-.7 9.3 1 3 1.7 4.8 4.5 5.4 7.6a10 10 0 0 0 11 8c3.1-.3 6.5.8 9 3 2.4 2.3 3.7 5.4 3.7 8.6-.1 5.2 3.9 9.7 9 10.2 3.3.2 6.3 2 8.2 4.6 2 2.8 2.7 6.1 2 9.3A10 10 0 0 0 306 668c3.2 1 5.8 3.2 7 6.3 1.4 3 1.3 6.4 0 9.4a10 10 0 0 0 4.2 13c2.9 1.6 5 4.4 5.5 7.6.8 3.2 0 6.5-2 9.2a10.1 10.1 0 0 0 1.4 13.5 11.2 11.2 0 0 1 0 17.2 10 10 0 0 0-1.4 13.5c2 2.7 2.7 6 2 9.3-.7 3.3-2.8 6-5.5 7.6a9.9 9.9 0 0 0-4.2 12.9 11.3 11.3 0 0 1-7 15.6 10 10 0 0 0-6.8 11.8c.7 3 0 6.5-2 9.2a11 11 0 0 1-8.2 4.7 10 10 0 0 0-9 10.1c0 3.3-1.3 6.5-3.8 8.7a11 11 0 0 1-9 2.9c-1.2-.1-2.5 0-3.6.2l-.6.1v-1.4h.4a12 12 0 0 1 4-.2 10 10 0 0 0 11.2-10.1c0-6 4.6-11.1 10.5-11.6 3-.3 5.5-1.7 7.1-4.1 1.7-2.4 2.3-5.3 1.7-8.1-1.5-5.8 2-11.8 7.7-13.5 2.9-.9 5-2.8 6.2-5.5a9.8 9.8 0 0 0-.1-8.3 11.3 11.3 0 0 1 4.7-14.7 9.4 9.4 0 0 0 4.9-6.7c.6-3 0-5.7-1.8-8.1a11.5 11.5 0 0 1 1.7-15.5 10 10 0 0 0 0-15c-4.5-3.9-5.2-10.7-1.7-15.4 1.8-2.4 2.4-5.2 1.8-8.2a10 10 0 0 0-5-6.6 11.5 11.5 0 0 1-4.7-14.8 9.8 9.8 0 0 0 0-8.3 10.2 10.2 0 0 0-6.1-5.5c-5.7-1.8-9-7.6-7.7-13.4.6-2.8 0-5.8-1.7-8.1a9.8 9.8 0 0 0-7-4.2c-6-.5-10.6-5.6-10.5-11.5 0-3-1.2-5.7-3.3-7.6-2.1-2-5-2.9-8-2.5-5.8.6-11.3-3.4-12.5-9.2a9.8 9.8 0 0 0-4.8-6.7 10.3 10.3 0 0 0-8.3-.9c-5.6 2-11.8-.8-14.1-6.3a9.5 9.5 0 0 0-6.2-5.5 10 10 0 0 0-8.2.9c-5 3-11.7 1.6-15.2-3.2a10 10 0 0 0-14.7-1.7l-.6.5a11.4 11.4 0 0 1-15.1-.4 10 10 0 0 0-14.9 1.6c-3.5 4.8-10 6.3-15.2 3.2a10.4 10.4 0 0 0-8.2-1c-2.9.9-5 2.8-6.1 5.5a11.4 11.4 0 0 1-14.1 6.4c-2.8-1-5.7-.7-8.3.8a9.8 9.8 0 0 0-4.8 6.7c-1 6-6.4 10.1-12.3 9.3A10 10 0 0 0 72.5 632c0 6-4.6 11-10.5 11.5-3 .3-5.5 1.8-7.1 4.2a10.3 10.3 0 0 0-1.7 8.1c1.5 5.8-1.9 11.7-7.7 13.4-2.9 1-5 2.9-6.2 5.5a9.8 9.8 0 0 0 .1 8.3c2.5 5.4.4 11.8-4.8 14.8-2.6 1.3-4.3 3.7-5 6.6s0 5.8 1.8 8.2a11.5 11.5 0 0 1-1.7 15.4 10 10 0 0 0 0 15c4.5 4 5.2 10.7 1.7 15.5a10 10 0 0 0 3.2 14.8c5 2.8 7.2 9.3 4.7 14.7a9.8 9.8 0 0 0 0 8.3c1.2 2.7 3.4 4.7 6.1 5.5 5.7 1.8 9.1 7.7 7.7 13.4-.6 2.9 0 5.8 1.7 8.2a9.8 9.8 0 0 0 7.1 4.1c6 .5 10.5 5.7 10.4 11.5 0 3 1.2 5.8 3.3 7.6 2.1 2 5 3 8 2.6a11 11 0 0 1 8 2l.2.3-.2 1.4zm112.7-6.2a2.7 2.7 0 0 1-2.8-2.7c0-1.6 1.2-2.8 2.8-2.8 1.5 0 2.7 1.2 2.7 2.8 0 1.5-1.2 2.7-2.7 2.7zm0-4.1c-.8 0-1.4.6-1.4 1.4 0 .7.6 1.3 1.4 1.3.7 0 1.3-.6 1.3-1.3 0-.8-.6-1.4-1.3-1.4zm-41.6 0a2.7 2.7 0 0 1-2.7-2.8 2.7 2.7 0 0 1 5.5 0c0 1.6-1.2 2.8-2.8 2.8zm0-4.2c-.7 0-1.3.6-1.3 1.3s.6 1.4 1.3 1.4 1.4-.6 1.4-1.4-.6-1.3-1.4-1.3zm-69.3-.3l-.6-.5a130 130 0 0 1-48.5-102c0-35.1 13.7-68 38.4-92.9a130.5 130.5 0 0 1 93-38.4c35 0 68 13.6 92.8 38.4 24.9 24.9 38.5 57.9 38.5 93a130.7 130.7 0 0 1-41.5 96l-.7.6v-1.8l2.8-2.8a129.1 129.1 0 0 0 38.1-92c0-34.6-13.5-67.3-38-91.8a129.1 129.1 0 0 0-92-38c-34.8 0-67.4 13.5-91.8 38a129.5 129.5 0 0 0 9.8 192.6l.2.1-.5 1.5zm66.5-27.3c-1.5 0-2.7-1.2-2.7-2.8s1.2-2.7 2.7-2.7 2.8 1.2 2.8 2.7-1.2 2.8-2.8 2.8zm.1-4.2c-.7 0-1.4.6-1.4 1.3s.7 1.4 1.4 1.4c.4 0 .6 0 1-.3.2-.2.4-.6.4-1 0-.8-.7-1.4-1.4-1.4zm27.6-9.7c-1.5 0-2.7-1.2-2.7-2.8s1.2-2.7 2.7-2.7 2.8 1.2 2.8 2.7-1.2 2.8-2.8 2.8zm0-4.1c-.7 0-1.4.6-1.4 1.3s.7 1.4 1.4 1.4 1.4-.6 1.4-1.4-.7-1.3-1.4-1.3zm-37-151.7l-.5-.1h-3.5v-1.3H150.4l4.5-5.8-4.5-5.7h-3.8v-1.4l3.3.1h60.5v1.3h-9v11.4h9v1.4h-38.6v.2-.1h-2.6l-.9-.1h-17.7zm42.5-1.5h7v-11.4h-7v11.4zm-8.2 0h6.8v-11.4H185v11.4zm-12 0h10.6v-11.4h-6l-4.6 11.4zm-2.1 0l-4.5-11.4h-5.2l-4.5 5.7 4.5 5.7h9.7zm-11.4 0l-3.6-4.6-3.7 4.6h7.3zm8.3-11.4l4.1 10.4 4.1-10.4h-8.2zm-15.6 0l3.6 4.6 3.7-4.6H152z"/></svg>